<?xml version="1.0" encoding="utf-8"?>
<!-- Generator: Adobe Illustrator 24.3.0, SVG Export Plug-In . SVG Version: 6.00 Build 0)  -->
<svg version="1.1" id="Layer_1" xmlns="http://www.w3.org/2000/svg" xmlns:xlink="http://www.w3.org/1999/xlink" x="0px" y="0px"
	 viewBox="0 0 841.9 1190.6" style="enable-background:new 0 0 841.9 1190.6;" xml:space="preserve">
<style type="text/css">
	.st0{fill:#44434E;}
	.st1{fill:#3E3A42;}
	.st2{fill:#FDE2BF;}
	.st3{opacity:0.5;fill:none;stroke:#FDE2BF;stroke-width:5;stroke-miterlimit:10;}
	.st4{opacity:0.9;}
</style>
<rect class="st0" width="841.9" height="1190.6"/>
<g>
	<path class="st1" d="M515.8,917.4L515.8,917.4c0-39.9-28.2-74.1-67.4-82.3c-47.5-10-102.6-30.9-102.6-74.7V595.3h496.1v322.1H515.8
		z"/>
	<path class="st1" d="M839.2,1128.3H627.1c-61.9,0-112-50.1-112-112v0h324.1V1128.3z"/>
	<rect x="515.1" y="917.4" class="st1" width="324.1" height="98.9"/>
</g>
<g>
	<path class="st1" d="M492.6,99.3c-82.4,0-149.3,66.8-149.3,149.3v29.6c23.3,0,42.2,18.9,42.2,42.2s-18.9,42.2-42.2,42.2v232.8
		h241.1v-496H492.6z"/>
	<rect x="584.4" y="99.3" class="st1" width="257.5" height="496"/>
</g>
<g>
	<g>
		<g>
			<path class="st2" d="M731,337.6c0.6-0.6,1.1-1.1,1.7-1.7c1.5,2.5,2,4.1,1.4,4.7c-0.6,0.6-2.2,0.2-4.7-1.4
				C729.8,338.8,730.4,338.2,731,337.6z"/>
			<path class="st2" d="M733.4,334.2c-0.6-0.9-1.2-1.8-1.9-2.9c-0.7-1-1.5-2-2.3-3.1c0,0,0,0,0,0l0,0c2.7-2.2,5.6-4.2,8.8-6
				c1.4,2.1,2.6,4.2,3.6,6.2c0,0,0,0,0,0c0,0,0,0,0,0C738.6,330.1,735.9,332.1,733.4,334.2z"/>
			<path class="st2" d="M714.5,329.9C714.5,329.9,714.5,329.9,714.5,329.9c2,1.8,4,3.5,5.9,5c-2.3,2.7-4.3,5.7-6.1,8.8c0,0,0,0,0,0
				c0,0,0,0,0,0c-2-1.4-4.1-3-6.1-4.7C710.1,335.8,712.2,332.7,714.5,329.9L714.5,329.9z"/>
			<path class="st2" d="M722.6,320.5c-1.5-1.7-3-3.3-4.7-5l0,0c0,0,0,0,0,0l0,0c5.1-3.8,10.1-5.3,10.1-5.3c1.3,1.3,2.6,2.7,3.8,4
				c0,0,0,0,0,0c0,0,0,0,0,0C728.5,316,725.4,318.1,722.6,320.5z"/>
			<path class="st2" d="M721.6,335.8C721.6,335.8,721.6,335.8,721.6,335.8c1.1,0.8,2.1,1.6,3.1,2.3c1,0.7,2,1.4,2.9,1.9
				c-2.1,2.5-4.1,5.2-5.7,8.1c0,0,0,0,0,0c0,0,0,0,0,0c-2-1-4.1-2.2-6.2-3.6C717.3,341.4,719.3,338.5,721.6,335.8L721.6,335.8z"/>
			<path class="st2" d="M708.8,324.6C708.8,324.6,708.8,324.6,708.8,324.6L708.8,324.6c1.7,1.6,3.4,3.2,5,4.7
				c-2.3,2.8-4.4,5.9-6.3,9.2c0,0,0,0,0,0c0,0,0,0,0,0c-1.4-1.2-2.7-2.5-4-3.8C703.5,334.6,705,329.7,708.8,324.6L708.8,324.6z"/>
			<path class="st2" d="M728.2,327.1c-1.5-1.9-3.2-3.9-5-5.9c0,0,0,0,0,0v0c2.8-2.3,5.9-4.4,9.1-6.3c1.7,2,3.3,4,4.7,6.1
				c0,0,0,0,0,0c0,0,0,0,0,0C733.9,322.8,731,324.8,728.2,327.1z"/>
			<path class="st2" d="M734.4,335.7C734.4,335.7,734.4,335.7,734.4,335.7L734.4,335.7c2.4-2.1,5.1-4,7.9-5.7
				c1.9,4.1,1.8,6.8,1.9,10c0,0,0,0,0,0c0,0,0,0,0,0c-2.1-1.6-4.9-2-7.4-1.1c-0.1,0.1-0.3,0.1-0.4,0.1c0,0,0,0-0.1,0
				C735.4,338.9,735.1,336.7,734.4,335.7z"/>
			<path class="st2" d="M729.1,341C729.1,341,729.1,341,729.1,341c1,0.8,3.1,1,3.3,2c0,0,0,0,0,0c0,0.1,0,0.3,0,0.4
				c-0.9,2.4-0.6,5.2,1.1,7.4c0,0,0,0,0,0c0,0,0,0,0,0c-3.2,0-5.9,0-10-1.9C725.1,346.1,727,343.5,729.1,341L729.1,341z"/>
			<path class="st2" d="M700.8,335.9c-5.5-5.4-5.4-16.2-0.1-22.7c0,0,0.1-0.1,0.2-0.2c0,0,4.6-4.6,5.5-5.5c0.1-0.1,0.2-0.2,0.2-0.2
				c6.5-5.2,17.3-5.4,22.7,0.1c0.1,0.1,0.2,0.2,0.3,0.3c0,0,0,0,0,0c0,0,0,0,0,0c-1.1,0.4-2.3,0.8-3.3,1.2c-3.3,1.4-6.3,3.1-9.1,5.1
				c0,0,0,0,0,0c0,0,0,0,0,0c0,0,0,0,0,0c-4.5-4.4-6-6.7-11.2-1.6c-5.1,5.2-2.8,6.6,1.6,11.2c0,0,0,0,0,0c0,0,0,0,0,0c0,0,0,0,0,0
				c-2,2.8-3.8,5.8-5.1,9.1c-0.5,1.1-0.9,2.2-1.2,3.3c0,0,0,0,0,0c0,0,0,0,0,0C701,336.1,700.9,336,700.8,335.9z"/>
			<path class="st2" d="M714.1,327.4C714.1,327.4,714.1,327.4,714.1,327.4c-1.4-1.3-2.8-2.6-4.2-4l0,0l7-7l0,0
				c1.4,1.4,2.7,2.8,4,4.2c0,0,0,0,0,0v0c-1.2,1-2.4,2.1-3.5,3.2C716.2,325.1,715.1,326.2,714.1,327.4L714.1,327.4z"/>
			<path class="st2" d="M720.7,333.1C720.7,333.1,720.7,333.1,720.7,333.1c-1.9-1.5-3.8-3.2-5.8-5c1-1.2,2.1-2.3,3.2-3.4
				c1.1-1.1,2.2-2.2,3.4-3.2c1.8,2,3.5,4,5,5.8c0,0,0,0,0,0l0,0c-1,0.9-2,1.8-3,2.8S721.6,332.1,720.7,333.1L720.7,333.1z"/>
			<path class="st2" d="M727.4,328.5c1.7,2.2,3.2,4.2,4.3,5.9c0,0,0,0,0,0l0,0c-0.2,0.2-0.3,0.3-0.5,0.5c-0.5,0.4-0.9,0.9-1.4,1.3
				c-0.1,0.1-0.1,0.1-0.2,0.2c-0.1,0.1-0.1,0.1-0.2,0.2c-0.4,0.4-0.9,0.9-1.3,1.4c-0.2,0.2-0.3,0.3-0.5,0.5l0,0c0,0,0,0,0,0
				c-1.7-1.1-3.7-2.6-5.9-4.3c0.9-1,1.8-1.9,2.7-2.9C725.4,330.3,726.4,329.4,727.4,328.5z"/>
			<path class="st2" d="M715.7,315.2C715.7,315.2,715.7,315.2,715.7,315.2L715.7,315.2c-0.3,0.3-0.7,0.5-1,0.8c0,0,0,0-0.1,0.1
				c-0.9,0.8-1.8,1.6-2.7,2.5c-0.9,0.9-1.7,1.8-2.5,2.7c0,0,0,0-0.1,0.1c-0.3,0.3-0.5,0.6-0.8,1v0c0,0,0,0,0,0
				c-0.4-0.4-0.8-0.8-1.2-1.2c-1.4-1.4-3.1-3.3-2.4-4.3c0.1-0.2,0.2-0.3,0.3-0.6c0.4-0.8,1.2-1.7,2-2.5c0.8-0.8,1.7-1.6,2.5-2
				c0.2-0.1,0.4-0.2,0.6-0.3c1-0.6,2.9,1.1,4.3,2.4C714.9,314.4,715.3,314.8,715.7,315.2z"/>
		</g>
	</g>
	<path class="st2" d="M818,420.7c-0.5-0.5-0.5-1.3,0.1-1.8c2.8-2.5,4.9-3.9,8.4-6c-0.2-0.3-0.3-0.6-0.5-0.8
		c-3.6,2.2-5.8,3.6-8.7,6.3c-0.5,0.4-1.2,0.4-1.7,0l0,0c-0.5-0.5-0.5-1.3,0-1.7c1.2-1.1,2.5-2.2,3.9-3.2c0,0,4.7-5.3-2.2-9.5
		c-3.2-1-6.6-1.5-9.7-1.1l7,2.9c1.6,0.6,2.1,2.6,1.1,4.3l-10.5-6.7c-1.7,0.5-3.2,1.4-4.4,2.6c-6.1,6.1-2.7,19.6,3.3,25.6v0
		c2-3.9,4.5-7.5,7.4-10.8c0.5-0.5,1.3-0.5,1.8,0l0,0c0.5,0.5,0.5,1.2,0,1.7c-2.8,3.1-5.4,6.5-7.6,10.1c0.3,0.2,0.6,0.3,0.8,0.5
		c2.2-3.5,4.6-6.8,7.4-9.8c0.5-0.5,1.3-0.5,1.7,0l0.3,0.3c0.5,0.5,0.5,1.2,0,1.7c-2.8,3.1-5.4,6.5-7.6,10.1c0.3,0.2,0.6,0.3,0.8,0.5
		c2.2-3.5,4.6-6.8,7.4-9.8c0.5-0.5,1.3-0.5,1.7,0l0.1,0.1c0.5,0.5,0.5,1.2,0,1.7c-2.1,2.3-4.9,5.7-6.4,7.8c0.4,0.3,0.8,0.6,1.2,0.8
		c1.4-2.1,4.2-5.3,6.1-7.5c0.5-0.5,1.3-0.5,1.7,0l0,0c0.5,0.5,0.5,1.2,0,1.7c-1.7,1.9-3.4,4-4.8,6.1c0.4,0.3,0.8,0.6,1.2,0.8
		c1.4-2,3-4,4.6-5.8c0.5-0.5,1.3-0.5,1.7,0l0.6,0.6l0.8,0.8c-0.4,2.8-0.8,5.6-1.1,8.4c-0.2,1.5,1,2.9,2.5,2.8l0,0
		c-0.2-3.5-0.4-7-0.6-10.5l0.2,0.2c1.2,3.5,2.4,7,3.6,10.5c0.8-0.2,1.6-0.5,2.3-0.8c-1.5-2.8-3-5.7-4.5-8.5c0.2-0.2,0.5-0.5,0.9-0.8
		c2.2,2.5,4.4,5,6.5,7.6c0.6-0.5,1.1-1,1.6-1.6c-2.5-2.2-5-4.4-7.6-6.5c0.3-0.3,0.6-0.6,0.8-0.9c2.8,1.5,5.7,3,8.5,4.5
		c0.3-0.7,0.6-1.5,0.8-2.3c-3.5-1.2-7-2.4-10.5-3.6l-0.2-0.2c3.5,0.2,7,0.4,10.5,0.6c0,0,0,0,0,0c0-1.5-1.3-2.7-2.8-2.5
		c-2.8,0.4-5.6,0.8-8.4,1.1l-0.8-0.8l-0.6-0.6c-0.5-0.5-0.5-1.3,0-1.8c1.5-1.3,2.4-1.9,4.4-3.2c-0.3-0.4-0.6-0.8-0.8-1.2
		c-2.1,1.5-3.1,2-4.7,3.5c-0.5,0.4-1.2,0.4-1.7,0v0c-0.5-0.5-0.5-1.3,0.1-1.8c1.8-1.5,3.5-2.8,5.5-4.2c-0.3-0.4-0.6-0.8-0.8-1.2
		c-2.1,1.5-4,2.8-5.9,4.4c-0.5,0.4-1.2,0.4-1.7,0l-0.1-0.1c-0.5-0.5-0.5-1.3,0.1-1.8c2.8-2.5,4.9-3.9,8.4-6
		c-0.2-0.3-0.3-0.6-0.5-0.8c-3.6,2.2-5.8,3.6-8.7,6.3c-0.5,0.4-1.2,0.4-1.7,0L818,420.7z M802.6,407.6c4.3-4.3,7.1,7.1,7.1,7.1
		l-1.1,2.1c-2.1,4.2-8.6,2.8-8.6-1.9C800.1,412,800.8,409.4,802.6,407.6z"/>
	<path class="st2" d="M539.7,506.3c-0.5-0.5-0.5-1.3,0.1-1.8c2.8-2.5,4.9-3.9,8.4-6c-0.2-0.3-0.3-0.6-0.5-0.8
		c-3.6,2.2-5.8,3.6-8.7,6.3c-0.5,0.4-1.2,0.4-1.7,0l0,0c-0.5-0.5-0.5-1.3,0-1.7c1.2-1.1,2.5-2.2,3.9-3.2c0,0,4.7-5.3-2.2-9.5
		c-3.2-1-6.6-1.5-9.7-1.1l7,2.9c1.6,0.6,2.1,2.6,1.1,4.3l-10.5-6.7c-1.7,0.5-3.2,1.4-4.4,2.6c-6.1,6.1-2.7,19.6,3.3,25.6l0,0
		c2-3.9,4.5-7.5,7.4-10.8c0.5-0.5,1.3-0.5,1.8,0l0,0c0.5,0.5,0.5,1.2,0,1.7c-2.8,3.1-5.4,6.5-7.6,10.1c0.3,0.2,0.6,0.3,0.8,0.5
		c2.2-3.5,4.6-6.8,7.4-9.8c0.5-0.5,1.3-0.5,1.7,0l0.3,0.3c0.5,0.5,0.5,1.2,0,1.7c-2.8,3.1-5.4,6.5-7.6,10.1c0.3,0.2,0.6,0.3,0.8,0.5
		c2.2-3.5,4.6-6.8,7.4-9.8c0.5-0.5,1.3-0.5,1.7,0l0.1,0.1c0.5,0.5,0.5,1.2,0,1.7c-2.1,2.3-4.9,5.7-6.4,7.8c0.4,0.3,0.8,0.6,1.2,0.8
		c1.4-2.1,4.2-5.3,6.1-7.5c0.5-0.5,1.3-0.5,1.7,0l0,0c0.5,0.5,0.5,1.2,0,1.7c-1.7,1.9-3.4,4-4.8,6.1c0.4,0.3,0.8,0.6,1.2,0.8
		c1.4-2,3-4,4.6-5.8c0.5-0.5,1.3-0.5,1.7,0l0.6,0.6l0.8,0.8c-0.4,2.8-0.8,5.6-1.1,8.4c-0.2,1.5,1,2.9,2.5,2.8l0,0
		c-0.2-3.5-0.4-7-0.6-10.5l0.2,0.2c1.2,3.5,2.4,7,3.6,10.5c0.8-0.2,1.6-0.5,2.3-0.8c-1.5-2.8-3-5.7-4.5-8.5c0.2-0.2,0.5-0.5,0.9-0.8
		c2.2,2.5,4.4,5,6.5,7.6c0.6-0.5,1.1-1,1.6-1.6c-2.5-2.2-5-4.4-7.6-6.5c0.3-0.3,0.6-0.6,0.8-0.9c2.8,1.5,5.7,3,8.5,4.5
		c0.3-0.7,0.6-1.5,0.8-2.3c-3.5-1.2-7-2.4-10.5-3.6l-0.2-0.2c3.5,0.2,7,0.4,10.5,0.6c0,0,0,0,0,0c0-1.5-1.3-2.7-2.8-2.5
		c-2.8,0.4-5.6,0.8-8.4,1.1l-0.8-0.8l-0.6-0.6c-0.5-0.5-0.5-1.3,0-1.8c1.5-1.3,2.4-1.9,4.4-3.2c-0.3-0.4-0.6-0.8-0.8-1.2
		c-2.1,1.5-3.1,2-4.7,3.5c-0.5,0.4-1.2,0.4-1.7,0l0,0c-0.5-0.5-0.5-1.3,0.1-1.8c1.8-1.5,3.5-2.8,5.5-4.2c-0.3-0.4-0.6-0.8-0.8-1.2
		c-2.1,1.5-4,2.8-5.9,4.4c-0.5,0.4-1.2,0.4-1.7,0l-0.1-0.1c-0.5-0.5-0.5-1.3,0.1-1.8c2.8-2.5,4.9-3.9,8.4-6
		c-0.2-0.3-0.3-0.6-0.5-0.8c-3.6,2.2-5.8,3.6-8.7,6.3c-0.5,0.4-1.2,0.4-1.7,0L539.7,506.3z M524.3,493.2c4.3-4.3,7.1,7.1,7.1,7.1
		l-1.1,2.1c-2.1,4.2-8.6,2.8-8.6-1.9C521.8,497.6,522.5,495,524.3,493.2z"/>
	<path class="st2" d="M707.8,527.8c8.9,10.3,24,12.2,35.1,5c0,0,0.1,0,0.1,0.1c1.5-1.2,3.1-2.3,4.5-3.5c0.3-0.2,0.4-0.9,0.3-1.3
		c-2.1-5.8-5.5-10.7-10.2-14.9c0.5-1.3,0.8-2.8,0.9-4.2c0.3-3.8-1-7.5-3.5-10.4c-0.3-0.3-0.5-0.6-0.8-0.9c-6.5-6.5-17.1-7-24.2-0.8
		C700.8,504.8,699.9,518.6,707.8,527.8z M709.3,526.5c-0.3-0.4-0.6-0.8-0.9-1.2c3.5-1.2,6.3-3.4,8.7-6.3c0.2-0.2,0.3-0.6,0.3-0.9
		c1.1,1.2,2.4,2,3.9,2.7c-1.7,3.8-4.1,7-7.4,9.8C712.2,529.4,710.7,528,709.3,526.5z M726.6,535c-1.8-0.1-3.5-0.4-5.2-0.9
		c2-3,3.4-6.3,3.7-10.1c0.1-1.2,0.2-1.9,0-2.4c1.5,0.1,3-0.1,4.4-0.6c0,0.2,0.1,0.4,0.1,0.7c0.5,2.6,1,5.2,1.1,7.8
		c0.1,1.8-0.2,3.5-0.4,5.4C729.1,535.1,727.8,535.1,726.6,535z M742.6,530.7c-2.3,1.6-4.8,2.7-7.4,3.5c0.5-2.3,0.6-4.6,0.1-7
		c-0.5-2.6-1.3-5.1-2.7-7.5c0.4-0.2,0.7-0.5,1-0.8c0.7-0.6,1.4-1.3,1.9-2C739.5,520.8,742.1,525.3,742.6,530.7z M711.2,498.3
		c1.1-1,2.4-1.8,3.7-2.4c0.4,1.6,1.1,3,2.4,4.1c1,0.9,2,1.7,3.3,1c0.2-2.2,0.3-4.3,0.4-6.6c3.9-0.1,7.8,1.2,10.9,3.9
		c-1.1,1.2-2.2,2.5-3.2,3.8c-0.1,0.2,0,0.8,0.2,1c0.6,0.9,1.3,1.8,1.8,2.5c1.7-0.5,3.4-1,5.1-1.5c0.5,1.5,0.7,3.1,0.6,4.7
		c-0.2,3.3-1.7,6.3-4.2,8.5c-1,0.9-2.3,1.6-3.5,2c-0.7-2.2-2.5-3.7-4-3.2c0.1,1.2,0.2,2.4,0.3,3.6c-1.1-0.1-2.2-0.4-3.2-0.8
		c0.2-0.5,0.4-1,0.5-1.6c0.2-0.9-0.1-1.9-1.1-2.2c-0.7,0.7-1.3,1.3-2,2c-0.2-0.2-0.5-0.5-0.7-0.7c-0.5-0.6-0.9-1.2-1.2-1.9
		c0.5-0.5,1.1-1,1.5-1.6c0.5-0.6-0.1-1.8-0.8-1.9c-0.4,0-0.9-0.1-1.3-0.1c0,0,0-0.1,0-0.1c0.1-0.8,0.2-1.6,0.5-2.3
		c0.1,0,0.2,0.1,0.3,0.1c0.8,0.1,1.7,0.5,2.2-0.5c0.1-0.2,0-0.5-0.1-0.6c-0.3-0.4-0.7-0.7-1-1.1c0.2-0.3,0.5-0.6,0.8-0.8
		c1.2-1,2.7-1.5,4.3-1.4c1.5,0.1,3,0.8,4,2c-0.4,0.3-0.9,1-1.4,2.2c-4.3-3.1-6.2-1.3-6.3,1.2c-0.3,1.4,0,2.9,1,4
		c0.9,1.1,2.3,1.7,3.7,1.8c1.4,0.1,2.8-0.4,3.9-1.3c2.7-2.3,3-6.5,0.6-9.1c-1.4-1.6-3.3-2.5-5.4-2.7s-4.1,0.5-5.7,1.9
		c-3.3,2.9-4.1,7.5-2.4,11.2c-3.2,2-6.5,3.2-10.5,3.2c-0.9-3.3-0.9-6.9-0.1-10.2c2.7,0.9,5.4,1.1,8,0.3c0.6-0.2,1-0.8,1.5-1.2
		c-0.1-0.1-0.1-0.2-0.2-0.3c-2.7-0.6-4.8-2.2-6.8-4.4C708.4,501.1,709.7,499.6,711.2,498.3z"/>
	<path class="st2" d="M638.2,426.8c0.1-1.3,0.2-2.6,0.5-3.8c0.6-2.2,0.3-4.3-0.5-5.2c-0.2-0.2-0.5-0.5-0.7-0.7
		c-0.4-0.5-0.9-0.9-1.3-1.4c-0.4-0.4-1.1-0.3-1.5,0.2c-1,1.7-2,3.3-2.9,4.9c0.1-1.1-0.4,0.9,0,0c0.8-1.8,1.5-6.6,0.6-7.4
		c-0.2-0.2-0.4-0.4-0.6-0.6c-0.5-0.4-1-0.9-1.4-1.3c-0.4-0.4-1.1-0.3-1.4,0.2c0,0,0,0,0,0.1c-0.4,0.8-1.7,0.5-1.7-0.4
		c-0.1-1.1-0.2-2-0.6-2.3c-0.1-0.1-0.3-0.2-0.4-0.3c-0.4-0.4-0.9-0.8-1.3-1.1c-0.4-0.3-1-0.3-1.3,0.1c-0.9,1.1-1.2,2.9-2,4.2
		c0-0.9,0-1.8,0.3-2.3c0.7-1.2-0.4-3.3-1.3-4.1c-0.1-0.1-0.3-0.2-0.4-0.3c-0.6-0.5-8.7-2.6-9.4-1.9c-0.7,0.7,1.3,8.8,1.9,9.4
		c0.1,0.1,0.2,0.3,0.3,0.4c0.8,0.9,2.9,2,4.1,1.3c0.5-0.3,1.4-0.3,2.3-0.3c-1.3,0.8-3,1.1-4.2,2c-0.4,0.3-0.5,0.9-0.1,1.3
		c0.4,0.4,0.8,0.9,1.1,1.3c0.1,0.1,0.2,0.3,0.3,0.4c0.3,0.3,1.2,0.5,2.3,0.6c0.9,0.1,1.2,1.3,0.4,1.7c0,0,0,0-0.1,0
		c-0.5,0.3-0.6,1-0.2,1.4c0.4,0.5,0.9,1,1.3,1.4c0.2,0.2,0.4,0.4,0.6,0.6c0.9,0.9,5.6,0.2,7.4-0.6c0.9-0.4-1.1,0.1,0,0
		c-1.7,1-3.3,2-4.9,2.9c-0.5,0.3-0.6,1-0.2,1.5c0.5,0.4,0.9,0.9,1.4,1.3c0.2,0.2,0.5,0.5,0.7,0.7c0.9,0.8,3,1,5.2,0.5
		c1.1-0.3,2.5-0.4,3.8-0.5c-1.8,0.8-3.7,1.5-5.8,2c-0.7,0.2-1,1.1-0.3,1.6c0.5,0.4,1,0.8,1.5,1.1c0.5,0.3,0.9,0.7,1.4,1
		c1,0.7,3.7,1.4,6.4,1.5c1.5,0,2.9,0,4.2-0.2c0.9,0.5,1.4,0.8,2.3,1.4c0.6,1.2,4-2.2,2.8-2.8c-0.5-0.9-0.8-1.4-1.4-2.3
		c0.2-1.2,0.3-2.7,0.2-4.2c-0.1-2.7-0.9-5.4-1.5-6.4c-0.3-0.5-0.7-0.9-1-1.4c-0.4-0.5-0.7-1-1.1-1.5c-0.5-0.6-1.4-0.4-1.6,0.3
		C639.7,423.1,639,425,638.2,426.8z M643,434.9c0.2,0.2,0.2,0.5,0,0.6c-0.2,0.2-0.5,0.2-0.6,0l-25.7-26.4c-0.2-0.2-0.2,0.2,0,0
		c0.2-0.2-0.2-0.2,0,0L643,434.9z"/>
	<g>
		<g>
			<path class="st2" d="M638.3,623c0.6-0.6,1.1-1.1,1.7-1.7c1.5,2.5,2,4.1,1.4,4.7c-0.6,0.6-2.2,0.2-4.7-1.4
				C637.2,624.1,637.7,623.6,638.3,623z"/>
			<path class="st2" d="M640.8,619.6c-0.6-0.9-1.2-1.8-1.9-2.9c-0.7-1-1.5-2-2.3-3.1c0,0,0,0,0,0l0,0c2.7-2.2,5.6-4.2,8.7-6
				c1.4,2.1,2.6,4.2,3.6,6.2c0,0,0,0,0,0c0,0,0,0,0,0C646,615.5,643.3,617.4,640.8,619.6z"/>
			<path class="st2" d="M621.9,615.3C621.9,615.3,621.9,615.3,621.9,615.3c2,1.8,4,3.5,5.9,5c-2.3,2.7-4.3,5.7-6.1,8.8c0,0,0,0,0,0
				c0,0,0,0,0,0c-2-1.4-4.1-3-6.1-4.7C617.5,621.2,619.5,618.1,621.9,615.3L621.9,615.3z"/>
			<path class="st2" d="M629.9,605.8c-1.5-1.7-3-3.3-4.7-5l0,0c0,0,0,0,0,0v0c5.1-3.8,10.1-5.3,10.1-5.3c1.3,1.3,2.6,2.7,3.8,4
				c0,0,0,0,0,0c0,0,0,0,0,0C635.8,601.4,632.8,603.5,629.9,605.8z"/>
			<path class="st2" d="M628.9,621.2C628.9,621.2,628.9,621.2,628.9,621.2c1.1,0.8,2.1,1.6,3.1,2.3c1,0.7,2,1.4,2.9,1.9
				c-2.1,2.5-4.1,5.2-5.7,8.1c0,0,0,0,0,0c0,0,0,0,0,0c-2-1-4.1-2.2-6.2-3.6C624.7,626.8,626.7,623.9,628.9,621.2L628.9,621.2z"/>
			<path class="st2" d="M616.1,609.9C616.1,609.9,616.1,609.9,616.1,609.9L616.1,609.9c1.7,1.6,3.4,3.2,5,4.7
				c-2.3,2.8-4.4,5.9-6.3,9.2c0,0,0,0,0,0c0,0,0,0,0,0c-1.4-1.2-2.7-2.5-4-3.8C610.8,620,612.3,615,616.1,609.9L616.1,609.9z"/>
			<path class="st2" d="M635.5,612.5c-1.5-1.9-3.2-3.9-5-5.9c0,0,0,0,0,0h0c2.8-2.3,5.9-4.4,9.1-6.3c1.7,2,3.3,4,4.7,6.1
				c0,0,0,0,0,0c0,0,0,0,0,0C641.2,608.2,638.3,610.2,635.5,612.5z"/>
			<path class="st2" d="M641.7,621.1C641.7,621.1,641.7,621.1,641.7,621.1L641.7,621.1c2.4-2.1,5.1-4,7.9-5.7
				c1.9,4.1,1.8,6.8,1.9,10c0,0,0,0,0,0c0,0,0,0,0,0c-2.1-1.6-4.9-2-7.4-1.1c-0.1,0.1-0.3,0.1-0.4,0.1c0,0,0,0-0.1,0
				C642.7,624.2,642.5,622.1,641.7,621.1z"/>
			<path class="st2" d="M636.4,626.4C636.4,626.4,636.4,626.4,636.4,626.4c1,0.8,3.1,1,3.3,2c0,0,0,0,0,0c0,0.1,0,0.3,0,0.4
				c-0.9,2.4-0.6,5.2,1.1,7.4c0,0,0,0,0,0c0,0,0,0,0,0c-3.2,0-5.9,0-10-1.9C632.4,631.5,634.3,628.8,636.4,626.4L636.4,626.4z"/>
			<path class="st2" d="M608.1,621.3c-5.5-5.4-5.4-16.2-0.1-22.7c0,0,0.1-0.1,0.2-0.2c0,0,4.6-4.6,5.5-5.5c0.1-0.1,0.2-0.2,0.2-0.2
				c6.5-5.2,17.3-5.4,22.7,0.1c0.1,0.1,0.2,0.2,0.3,0.3c0,0,0,0,0,0c0,0,0,0,0,0c-1.1,0.4-2.3,0.8-3.3,1.2c-3.3,1.4-6.3,3.1-9.1,5.1
				c0,0,0,0,0,0c0,0,0,0,0,0c0,0,0,0,0,0c-4.5-4.4-6-6.7-11.2-1.6c-5.1,5.2-2.8,6.6,1.6,11.2c0,0,0,0,0,0c0,0,0,0,0,0c0,0,0,0,0,0
				c-2,2.8-3.8,5.8-5.1,9.1c-0.5,1.1-0.9,2.2-1.2,3.3c0,0,0,0,0,0c0,0,0,0,0,0C608.3,621.5,608.2,621.4,608.1,621.3z"/>
			<path class="st2" d="M621.4,612.8C621.4,612.8,621.4,612.8,621.4,612.8c-1.4-1.3-2.8-2.6-4.2-4l0,0l7-7l0,0
				c1.4,1.4,2.7,2.8,4,4.2c0,0,0,0,0,0v0c-1.2,1-2.4,2.1-3.5,3.2C623.5,610.5,622.5,611.6,621.4,612.8L621.4,612.8z"/>
			<path class="st2" d="M628,618.5C628,618.5,628,618.5,628,618.5c-1.9-1.5-3.8-3.2-5.8-5c1-1.2,2.1-2.3,3.2-3.4
				c1.1-1.1,2.2-2.2,3.4-3.2c1.8,2,3.5,4,5,5.8c0,0,0,0,0,0l0,0c-1,0.9-2,1.8-3,2.8S628.9,617.5,628,618.5L628,618.5z"/>
			<path class="st2" d="M634.7,613.9c1.7,2.2,3.2,4.2,4.3,5.9c0,0,0,0,0,0l0,0c-0.2,0.2-0.3,0.3-0.5,0.5c-0.5,0.4-0.9,0.9-1.4,1.3
				c-0.1,0.1-0.1,0.1-0.2,0.2c-0.1,0.1-0.1,0.1-0.2,0.2c-0.4,0.4-0.9,0.9-1.3,1.4c-0.2,0.2-0.3,0.3-0.5,0.5l0,0c0,0,0,0,0,0
				c-1.7-1.1-3.7-2.6-5.9-4.3c0.9-1,1.8-1.9,2.7-2.9C632.8,615.6,633.7,614.7,634.7,613.9z"/>
			<path class="st2" d="M623,600.6C623,600.6,623,600.6,623,600.6L623,600.6c-0.3,0.3-0.7,0.5-1,0.8c0,0,0,0-0.1,0.1
				c-0.9,0.8-1.8,1.6-2.7,2.5c-0.9,0.9-1.7,1.8-2.5,2.7c0,0,0,0-0.1,0.1c-0.3,0.3-0.5,0.6-0.8,1l0,0c0,0,0,0,0,0
				c-0.4-0.4-0.8-0.8-1.2-1.2c-1.4-1.4-3.1-3.3-2.4-4.3c0.1-0.2,0.2-0.3,0.3-0.6c0.4-0.8,1.2-1.7,2-2.5c0.8-0.8,1.7-1.6,2.5-2
				c0.2-0.1,0.4-0.2,0.6-0.3c1-0.6,2.9,1.1,4.3,2.4C622.2,599.7,622.6,600.1,623,600.6z"/>
		</g>
	</g>
	<path class="st2" d="M425.8,617.1c8.9,10.3,24,12.2,35.1,5c0,0,0.1,0,0.1,0.1c1.5-1.2,3.1-2.3,4.5-3.5c0.3-0.2,0.4-0.9,0.3-1.3
		c-2.1-5.8-5.5-10.7-10.2-14.9c0.5-1.3,0.8-2.8,0.9-4.2c0.3-3.8-1-7.5-3.5-10.4c-0.3-0.3-0.5-0.6-0.8-0.9c-6.5-6.5-17.1-7-24.2-0.8
		C418.8,594.1,417.8,608,425.8,617.1z M427.3,615.8c-0.3-0.4-0.6-0.8-0.9-1.2c3.5-1.2,6.3-3.4,8.7-6.3c0.2-0.2,0.3-0.6,0.3-0.9
		c1.1,1.2,2.4,2,3.9,2.7c-1.7,3.8-4.1,7-7.4,9.8C430.2,618.7,428.6,617.4,427.3,615.8z M444.5,624.4c-1.8-0.1-3.5-0.4-5.2-0.9
		c2-3,3.4-6.3,3.7-10.1c0.1-1.2,0.2-1.9,0-2.4c1.5,0.1,3-0.1,4.4-0.6c0,0.2,0.1,0.4,0.1,0.7c0.5,2.6,1,5.2,1.1,7.8
		c0.1,1.8-0.2,3.5-0.4,5.4C447,624.4,445.8,624.5,444.5,624.4z M460.5,620c-2.3,1.6-4.8,2.7-7.4,3.5c0.5-2.3,0.6-4.6,0.1-7
		c-0.5-2.6-1.3-5.1-2.7-7.5c0.4-0.2,0.7-0.5,1-0.8c0.7-0.6,1.4-1.3,1.9-2C457.4,610.1,460,614.7,460.5,620z M429.2,587.6
		c1.1-1,2.4-1.8,3.7-2.4c0.4,1.6,1.1,3,2.4,4.1c1,0.9,2,1.7,3.3,1c0.2-2.2,0.3-4.3,0.4-6.6c3.9-0.1,7.8,1.2,10.9,3.9
		c-1.1,1.2-2.2,2.5-3.2,3.8c-0.1,0.2,0,0.8,0.2,1c0.6,0.9,1.3,1.8,1.8,2.5c1.7-0.5,3.4-1,5.1-1.5c0.5,1.5,0.7,3.1,0.6,4.7
		c-0.2,3.3-1.7,6.3-4.2,8.5c-1,0.9-2.3,1.6-3.5,2c-0.7-2.2-2.5-3.7-4-3.2c0.1,1.2,0.2,2.4,0.3,3.6c-1.1-0.1-2.2-0.4-3.2-0.8
		c0.2-0.5,0.4-1,0.5-1.6c0.2-0.9-0.1-1.9-1.1-2.2c-0.7,0.7-1.3,1.3-2,2c-0.2-0.2-0.5-0.5-0.7-0.7c-0.5-0.6-0.9-1.2-1.2-1.9
		c0.5-0.5,1.1-1,1.5-1.6c0.5-0.6-0.1-1.8-0.8-1.9c-0.4,0-0.9-0.1-1.3-0.1c0,0,0-0.1,0-0.1c0.1-0.8,0.2-1.6,0.5-2.3
		c0.1,0,0.2,0.1,0.3,0.1c0.8,0.1,1.7,0.5,2.2-0.5c0.1-0.2,0-0.5-0.1-0.6c-0.3-0.4-0.7-0.7-1-1.1c0.2-0.3,0.5-0.6,0.8-0.8
		c1.2-1,2.7-1.5,4.3-1.4c1.5,0.1,3,0.8,4,2c-0.4,0.3-0.9,1-1.4,2.2c-4.3-3.1-6.2-1.3-6.3,1.2c-0.3,1.4,0,2.9,1,4
		c0.9,1.1,2.3,1.7,3.7,1.8c1.4,0.1,2.8-0.4,3.9-1.3c2.7-2.3,3-6.5,0.6-9.1c-1.4-1.6-3.3-2.5-5.4-2.7c-2.1-0.1-4.1,0.5-5.7,1.9
		c-3.3,2.9-4.1,7.5-2.4,11.2c-3.2,2-6.5,3.2-10.5,3.2c-0.9-3.3-0.9-6.9-0.1-10.2c2.7,0.9,5.4,1.1,8,0.3c0.6-0.2,1-0.8,1.5-1.2
		c-0.1-0.1-0.1-0.2-0.2-0.3c-2.7-0.6-4.8-2.2-6.8-4.4C426.4,590.5,427.6,589,429.2,587.6z"/>
	<path class="st2" d="M549.2,708.4c0.1-1.3,0.2-2.6,0.5-3.8c0.6-2.2,0.3-4.3-0.5-5.2c-0.2-0.2-0.5-0.5-0.7-0.7
		c-0.4-0.5-0.9-0.9-1.3-1.4c-0.4-0.4-1.1-0.3-1.5,0.2c-1,1.7-2,3.3-2.9,4.9c0.1-1.1-0.4,0.9,0,0c0.8-1.8,1.5-6.6,0.6-7.4
		c-0.2-0.2-0.4-0.4-0.6-0.6c-0.5-0.4-1-0.9-1.4-1.3c-0.4-0.4-1.1-0.3-1.4,0.2c0,0,0,0,0,0.1c-0.4,0.8-1.7,0.5-1.7-0.4
		c-0.1-1.1-0.2-2-0.6-2.3c-0.1-0.1-0.3-0.2-0.4-0.3c-0.4-0.4-0.9-0.8-1.3-1.1c-0.4-0.3-1-0.3-1.3,0.1c-0.9,1.1-1.2,2.9-2,4.2
		c0-0.9,0-1.8,0.3-2.3c0.7-1.2-0.4-3.3-1.3-4.1c-0.1-0.1-0.3-0.2-0.4-0.3c-0.6-0.5-8.7-2.6-9.4-1.9c-0.7,0.7,1.3,8.8,1.9,9.4
		c0.1,0.1,0.2,0.3,0.3,0.4c0.8,0.9,2.9,2,4.1,1.3c0.5-0.3,1.4-0.3,2.3-0.3c-1.3,0.8-3,1.1-4.2,2c-0.4,0.3-0.5,0.9-0.1,1.3
		c0.4,0.4,0.8,0.9,1.1,1.3c0.1,0.1,0.2,0.3,0.3,0.4c0.3,0.3,1.2,0.5,2.3,0.6c0.9,0.1,1.2,1.3,0.4,1.7c0,0,0,0-0.1,0
		c-0.5,0.3-0.6,1-0.2,1.4c0.4,0.5,0.9,1,1.3,1.4c0.2,0.2,0.4,0.4,0.6,0.6c0.9,0.9,5.6,0.2,7.4-0.6c0.9-0.4-1.1,0.1,0,0
		c-1.7,1-3.3,2-4.9,2.9c-0.5,0.3-0.6,1-0.2,1.5c0.5,0.4,0.9,0.9,1.4,1.3c0.2,0.2,0.5,0.5,0.7,0.7c0.9,0.8,3,1,5.2,0.5
		c1.1-0.3,2.5-0.4,3.8-0.5c-1.8,0.8-3.7,1.5-5.8,2c-0.7,0.2-1,1.1-0.3,1.6c0.5,0.4,1,0.8,1.5,1.1c0.5,0.3,0.9,0.7,1.4,1
		c1,0.7,3.7,1.4,6.4,1.5c1.5,0,2.9,0,4.2-0.2c0.9,0.5,1.4,0.8,2.3,1.4c0.6,1.2,4-2.2,2.8-2.8c-0.5-0.9-0.8-1.4-1.4-2.3
		c0.2-1.2,0.3-2.7,0.2-4.2c-0.1-2.7-0.9-5.4-1.5-6.4c-0.3-0.5-0.7-0.9-1-1.4c-0.4-0.5-0.7-1-1.1-1.5c-0.5-0.6-1.4-0.4-1.6,0.3
		C550.7,704.7,550,706.6,549.2,708.4z M554,716.5c0.2,0.2,0.2,0.5,0,0.6c-0.2,0.2-0.5,0.2-0.6,0l-25.7-26.4c-0.2-0.2-0.2,0.2,0,0
		c0.2-0.2-0.2-0.2,0,0L554,716.5z"/>
	<g>
		<g>
			<path class="st2" d="M538.3,144.9c0.6-0.6,1.1-1.1,1.7-1.7c1.5,2.5,2,4.1,1.4,4.7c-0.6,0.6-2.2,0.2-4.7-1.4
				C537.1,146.1,537.7,145.5,538.3,144.9z"/>
			<path class="st2" d="M540.7,141.5c-0.6-0.9-1.2-1.8-1.9-2.9c-0.7-1-1.5-2-2.3-3.1c0,0,0,0,0,0h0c2.7-2.2,5.6-4.2,8.8-6
				c1.4,2.1,2.6,4.2,3.6,6.2c0,0,0,0,0,0c0,0,0,0,0,0C545.9,137.4,543.2,139.4,540.7,141.5z"/>
			<path class="st2" d="M521.8,137.2C521.8,137.2,521.8,137.2,521.8,137.2c2,1.8,4,3.5,5.9,5c-2.3,2.7-4.3,5.7-6.1,8.8c0,0,0,0,0,0
				c0,0,0,0,0,0c-2-1.4-4.1-3-6.1-4.7C517.4,143.1,519.5,140,521.8,137.2L521.8,137.2z"/>
			<path class="st2" d="M529.9,127.8c-1.5-1.7-3-3.3-4.7-5l0,0c0,0,0,0,0,0l0,0c5.1-3.8,10.1-5.3,10.1-5.3c1.3,1.3,2.6,2.7,3.8,4
				c0,0,0,0,0,0c0,0,0,0,0,0C535.8,123.3,532.7,125.4,529.9,127.8z"/>
			<path class="st2" d="M528.9,143.1C528.9,143.1,528.9,143.1,528.9,143.1c1.1,0.8,2.1,1.6,3.1,2.3c1,0.7,2,1.4,2.9,1.9
				c-2.1,2.5-4.1,5.2-5.7,8.1c0,0,0,0,0,0c0,0,0,0,0,0c-2-1-4.1-2.2-6.2-3.6C524.6,148.7,526.6,145.8,528.9,143.1L528.9,143.1z"/>
			<path class="st2" d="M516.1,131.9C516.1,131.9,516.1,131.9,516.1,131.9L516.1,131.9c1.7,1.6,3.4,3.2,5,4.7
				c-2.3,2.8-4.4,5.9-6.3,9.2c0,0,0,0,0,0c0,0,0,0,0,0c-1.4-1.2-2.7-2.5-4-3.8C510.8,141.9,512.3,137,516.1,131.9L516.1,131.9z"/>
			<path class="st2" d="M535.5,134.4c-1.5-1.9-3.2-3.9-5-5.9c0,0,0,0,0,0v0c2.8-2.3,5.9-4.4,9.1-6.3c1.7,2,3.3,4,4.7,6.1
				c0,0,0,0,0,0c0,0,0,0,0,0C541.2,130.1,538.3,132.1,535.5,134.4z"/>
			<path class="st2" d="M541.7,143C541.7,143,541.7,143,541.7,143L541.7,143c2.4-2.1,5.1-4,7.9-5.7c1.9,4.1,1.8,6.8,1.9,10
				c0,0,0,0,0,0c0,0,0,0,0,0c-2.1-1.6-4.9-2-7.4-1.1c-0.1,0.1-0.3,0.1-0.4,0.1c0,0,0,0-0.1,0C542.7,146.2,542.4,144,541.7,143z"/>
			<path class="st2" d="M536.4,148.3C536.4,148.3,536.4,148.3,536.4,148.3c1,0.8,3.1,1,3.3,2c0,0,0,0,0,0c0,0.1,0,0.3,0,0.4
				c-0.9,2.4-0.6,5.2,1.1,7.4c0,0,0,0,0,0c0,0,0,0,0,0c-3.2,0-5.9,0-10-1.9C532.4,153.4,534.3,150.8,536.4,148.3L536.4,148.3z"/>
			<path class="st2" d="M508.1,143.2c-5.5-5.4-5.4-16.2-0.1-22.7c0,0,0.1-0.1,0.2-0.2c0,0,4.6-4.6,5.5-5.5c0.1-0.1,0.2-0.2,0.2-0.2
				c6.5-5.2,17.3-5.4,22.7,0.1c0.1,0.1,0.2,0.2,0.3,0.3c0,0,0,0,0,0c0,0,0,0,0,0c-1.1,0.4-2.3,0.8-3.3,1.2c-3.3,1.4-6.3,3.1-9.1,5.1
				c0,0,0,0,0,0c0,0,0,0,0,0c0,0,0,0,0,0c-4.5-4.4-6-6.7-11.2-1.6c-5.1,5.2-2.8,6.6,1.6,11.2c0,0,0,0,0,0c0,0,0,0,0,0c0,0,0,0,0,0
				c-2,2.8-3.8,5.8-5.1,9.1c-0.5,1.1-0.9,2.2-1.2,3.3c0,0,0,0,0,0c0,0,0,0,0,0C508.3,143.4,508.2,143.3,508.1,143.2z"/>
			<path class="st2" d="M521.4,134.7C521.4,134.7,521.4,134.7,521.4,134.7c-1.4-1.3-2.8-2.6-4.2-4l0,0l7-7l0,0
				c1.4,1.4,2.7,2.8,4,4.2c0,0,0,0,0,0v0c-1.2,1-2.4,2.1-3.5,3.2C523.5,132.4,522.4,133.5,521.4,134.7L521.4,134.7z"/>
			<path class="st2" d="M528,140.4C528,140.4,528,140.4,528,140.4c-1.9-1.5-3.8-3.2-5.8-5c1-1.2,2.1-2.3,3.2-3.4
				c1.1-1.1,2.2-2.2,3.4-3.2c1.8,2,3.5,4,5,5.8c0,0,0,0,0,0v0c-1,0.9-2,1.8-3,2.8S528.9,139.4,528,140.4L528,140.4z"/>
			<path class="st2" d="M534.7,135.8c1.7,2.2,3.2,4.2,4.3,5.9c0,0,0,0,0,0l0,0c-0.2,0.2-0.3,0.3-0.5,0.5c-0.5,0.4-0.9,0.9-1.4,1.3
				c-0.1,0.1-0.1,0.1-0.2,0.2c-0.1,0.1-0.1,0.1-0.2,0.2c-0.4,0.4-0.9,0.9-1.3,1.4c-0.2,0.2-0.3,0.3-0.5,0.5l0,0c0,0,0,0,0,0
				c-1.7-1.1-3.7-2.6-5.9-4.3c0.9-1,1.8-1.9,2.7-2.9C532.7,137.6,533.7,136.7,534.7,135.8z"/>
			<path class="st2" d="M522.9,122.5C522.9,122.5,522.9,122.5,522.9,122.5L522.9,122.5c-0.3,0.3-0.7,0.5-1,0.8c0,0,0,0-0.1,0.1
				c-0.9,0.8-1.8,1.6-2.7,2.5c-0.9,0.9-1.7,1.8-2.5,2.7c0,0,0,0-0.1,0.1c-0.3,0.3-0.5,0.6-0.8,1v0c0,0,0,0,0,0
				c-0.4-0.4-0.8-0.8-1.2-1.2c-1.4-1.4-3.1-3.3-2.4-4.3c0.1-0.2,0.2-0.3,0.3-0.6c0.4-0.8,1.2-1.7,2-2.5c0.8-0.8,1.7-1.6,2.5-2
				c0.2-0.1,0.4-0.2,0.6-0.3c1-0.6,2.9,1.1,4.3,2.4C522.2,121.7,522.6,122.1,522.9,122.5z"/>
		</g>
	</g>
	<path class="st2" d="M625.3,228c-0.5-0.5-0.5-1.3,0.1-1.8c2.8-2.5,4.9-3.9,8.4-6c-0.2-0.3-0.3-0.6-0.5-0.8
		c-3.6,2.2-5.8,3.6-8.7,6.3c-0.5,0.4-1.2,0.4-1.7,0l0,0c-0.5-0.5-0.5-1.3,0-1.7c1.2-1.1,2.5-2.2,3.9-3.2c0,0,4.7-5.3-2.2-9.5
		c-3.2-1-6.6-1.5-9.7-1.1l7,2.9c1.6,0.6,2.1,2.6,1.1,4.3l-10.5-6.7c-1.7,0.5-3.2,1.4-4.4,2.6c-6.1,6.1-2.7,19.6,3.3,25.6v0
		c2-3.9,4.5-7.5,7.4-10.8c0.5-0.5,1.3-0.5,1.8,0l0,0c0.5,0.5,0.5,1.2,0,1.7c-2.8,3.1-5.4,6.5-7.6,10.1c0.3,0.2,0.6,0.3,0.8,0.5
		c2.2-3.5,4.6-6.8,7.4-9.8c0.5-0.5,1.3-0.5,1.7,0l0.3,0.3c0.5,0.5,0.5,1.2,0,1.7c-2.8,3.1-5.4,6.5-7.6,10.1c0.3,0.2,0.6,0.3,0.8,0.5
		c2.2-3.5,4.6-6.8,7.4-9.8c0.5-0.5,1.3-0.5,1.7,0l0.1,0.1c0.5,0.5,0.5,1.2,0,1.7c-2.1,2.3-4.9,5.7-6.4,7.8c0.4,0.3,0.8,0.6,1.2,0.8
		c1.4-2.1,4.2-5.3,6.1-7.5c0.5-0.5,1.3-0.5,1.7,0l0,0c0.5,0.5,0.5,1.2,0,1.7c-1.7,1.9-3.4,4-4.8,6.1c0.4,0.3,0.8,0.6,1.2,0.8
		c1.4-2,3-4,4.6-5.8c0.5-0.5,1.3-0.5,1.7,0l0.6,0.6l0.8,0.8c-0.4,2.8-0.8,5.6-1.1,8.4c-0.2,1.5,1,2.9,2.5,2.8l0,0
		c-0.2-3.5-0.4-7-0.6-10.5l0.2,0.2c1.2,3.5,2.4,7,3.6,10.5c0.8-0.2,1.6-0.5,2.3-0.8c-1.5-2.8-3-5.7-4.5-8.5c0.2-0.2,0.5-0.5,0.9-0.8
		c2.2,2.5,4.4,5,6.5,7.6c0.6-0.5,1.1-1,1.6-1.6c-2.5-2.2-5-4.4-7.6-6.5c0.3-0.3,0.6-0.6,0.8-0.9c2.8,1.5,5.7,3,8.5,4.5
		c0.3-0.7,0.6-1.5,0.8-2.3c-3.5-1.2-7-2.4-10.5-3.6l-0.2-0.2c3.5,0.2,7,0.4,10.5,0.6c0,0,0,0,0,0c0-1.5-1.3-2.7-2.8-2.5
		c-2.8,0.4-5.6,0.8-8.4,1.1l-0.8-0.8l-0.6-0.6c-0.5-0.5-0.5-1.3,0-1.8c1.5-1.3,2.4-1.9,4.4-3.2c-0.3-0.4-0.6-0.8-0.8-1.2
		c-2.1,1.5-3.1,2-4.7,3.5c-0.5,0.4-1.2,0.4-1.7,0l0,0c-0.5-0.5-0.5-1.3,0.1-1.8c1.8-1.5,3.5-2.8,5.5-4.2c-0.3-0.4-0.6-0.8-0.8-1.2
		c-2.1,1.5-4,2.8-5.9,4.4c-0.5,0.4-1.2,0.4-1.7,0l-0.1-0.1c-0.5-0.5-0.5-1.3,0.1-1.8c2.8-2.5,4.9-3.9,8.4-6
		c-0.2-0.3-0.3-0.6-0.5-0.8c-3.6,2.2-5.8,3.6-8.7,6.3c-0.5,0.4-1.2,0.4-1.7,0L625.3,228z M609.9,214.9c4.3-4.3,7.1,7.1,7.1,7.1
		l-1.1,2.1c-2.1,4.2-8.6,2.8-8.6-1.9C607.4,219.3,608.1,216.7,609.9,214.9z"/>
	<path class="st2" d="M347,313.6c-0.5-0.5-0.5-1.3,0.1-1.8c2.8-2.5,4.9-3.9,8.4-6c-0.2-0.3-0.3-0.6-0.5-0.8
		c-3.6,2.2-5.8,3.6-8.7,6.3c-0.5,0.4-1.2,0.4-1.7,0l0,0c-0.5-0.5-0.5-1.3,0-1.7c1.2-1.1,2.5-2.2,3.9-3.2c0,0,4.7-5.3-2.2-9.5
		c-3.2-1-6.6-1.5-9.7-1.1l7,2.9c1.6,0.6,2.1,2.6,1.1,4.3l-10.5-6.7c-1.7,0.5-3.2,1.4-4.4,2.6c-6.1,6.1-2.7,19.6,3.3,25.6l0,0
		c2-3.9,4.5-7.5,7.4-10.8c0.5-0.5,1.3-0.5,1.8,0l0,0c0.5,0.5,0.5,1.2,0,1.7c-2.8,3.1-5.4,6.5-7.6,10.1c0.3,0.2,0.6,0.3,0.8,0.5
		c2.2-3.5,4.6-6.8,7.4-9.8c0.5-0.5,1.3-0.5,1.7,0l0.3,0.3c0.5,0.5,0.5,1.2,0,1.7c-2.8,3.1-5.4,6.5-7.6,10.1c0.3,0.2,0.6,0.3,0.8,0.5
		c2.2-3.5,4.6-6.8,7.4-9.8c0.5-0.5,1.3-0.5,1.7,0l0.1,0.1c0.5,0.5,0.5,1.2,0,1.7c-2.1,2.3-4.9,5.7-6.4,7.8c0.4,0.3,0.8,0.6,1.2,0.8
		c1.4-2.1,4.2-5.3,6.1-7.5c0.5-0.5,1.3-0.5,1.7,0l0,0c0.5,0.5,0.5,1.2,0,1.7c-1.7,1.9-3.4,4-4.8,6.1c0.4,0.3,0.8,0.6,1.2,0.8
		c1.4-2,3-4,4.6-5.8c0.5-0.5,1.3-0.5,1.7,0l0.6,0.6l0.8,0.8c-0.4,2.8-0.8,5.6-1.1,8.4c-0.2,1.5,1,2.9,2.5,2.8l0,0
		c-0.2-3.5-0.4-7-0.6-10.5l0.2,0.2c1.2,3.5,2.4,7,3.6,10.5c0.8-0.2,1.6-0.5,2.3-0.8c-1.5-2.8-3-5.7-4.5-8.5c0.2-0.2,0.5-0.5,0.9-0.8
		c2.2,2.5,4.4,5,6.5,7.6c0.6-0.5,1.1-1,1.6-1.6c-2.5-2.2-5-4.4-7.6-6.5c0.3-0.3,0.6-0.6,0.8-0.9c2.8,1.5,5.7,3,8.5,4.5
		c0.3-0.7,0.6-1.5,0.8-2.3c-3.5-1.2-7-2.4-10.5-3.6l-0.2-0.2c3.5,0.2,7,0.4,10.5,0.6c0,0,0,0,0,0c0-1.5-1.3-2.7-2.8-2.5
		c-2.8,0.4-5.6,0.8-8.4,1.1l-0.8-0.8l-0.6-0.6c-0.5-0.5-0.5-1.3,0-1.8c1.5-1.3,2.4-1.9,4.4-3.2c-0.3-0.4-0.6-0.8-0.8-1.2
		c-2.1,1.5-3.1,2-4.7,3.5c-0.5,0.4-1.2,0.4-1.7,0l0,0c-0.5-0.5-0.5-1.3,0.1-1.8c1.8-1.5,3.5-2.8,5.5-4.2c-0.3-0.4-0.6-0.8-0.8-1.2
		c-2.1,1.5-4,2.8-5.9,4.4c-0.5,0.4-1.2,0.4-1.7,0l-0.1-0.1c-0.5-0.5-0.5-1.3,0.1-1.8c2.8-2.5,4.9-3.9,8.4-6
		c-0.2-0.3-0.3-0.6-0.5-0.8c-3.6,2.2-5.8,3.6-8.7,6.3c-0.5,0.4-1.2,0.4-1.7,0L347,313.6z M331.6,300.5c4.3-4.3,7.1,7.1,7.1,7.1
		l-1.1,2.1c-2.1,4.2-8.6,2.8-8.6-1.9C329.1,304.9,329.8,302.3,331.6,300.5z"/>
	<path class="st2" d="M512.7,337.5c8.9,10.3,24,12.2,35.1,5c0,0,0.1,0,0.1,0.1c1.5-1.2,3.1-2.3,4.5-3.5c0.3-0.2,0.4-0.9,0.3-1.3
		c-2.1-5.8-5.5-10.7-10.2-14.9c0.5-1.3,0.8-2.8,0.9-4.2c0.3-3.8-1-7.5-3.5-10.4c-0.3-0.3-0.5-0.6-0.8-0.9c-6.5-6.5-17.1-7-24.2-0.8
		C505.6,314.5,504.7,328.4,512.7,337.5z M514.1,336.2c-0.3-0.4-0.6-0.8-0.9-1.2c3.5-1.2,6.3-3.4,8.7-6.3c0.2-0.2,0.3-0.6,0.3-0.9
		c1.1,1.2,2.4,2,3.9,2.7c-1.7,3.8-4.1,7-7.4,9.8C517.1,339.1,515.5,337.8,514.1,336.2z M531.4,344.8c-1.8-0.1-3.5-0.4-5.2-0.9
		c2-3,3.4-6.3,3.7-10.1c0.1-1.2,0.2-1.9,0-2.4c1.5,0.1,3-0.1,4.4-0.6c0,0.2,0.1,0.4,0.1,0.7c0.5,2.6,1,5.2,1.1,7.8
		c0.1,1.8-0.2,3.5-0.4,5.4C533.9,344.9,532.7,344.9,531.4,344.8z M547.4,340.4c-2.3,1.6-4.8,2.7-7.4,3.5c0.5-2.3,0.6-4.6,0.1-7
		c-0.5-2.6-1.3-5.1-2.7-7.5c0.4-0.2,0.7-0.5,1-0.8c0.7-0.6,1.4-1.3,1.9-2C544.3,330.5,546.9,335.1,547.4,340.4z M516.1,308
		c1.1-1,2.4-1.8,3.7-2.4c0.4,1.6,1.1,3,2.4,4.1c1,0.9,2,1.7,3.3,1c0.2-2.2,0.3-4.3,0.4-6.6c3.9-0.1,7.8,1.2,10.9,3.9
		c-1.1,1.2-2.2,2.5-3.2,3.8c-0.1,0.2,0,0.8,0.2,1c0.6,0.9,1.3,1.8,1.8,2.5c1.7-0.5,3.4-1,5.1-1.5c0.5,1.5,0.7,3.1,0.6,4.7
		c-0.2,3.3-1.7,6.3-4.2,8.5c-1,0.9-2.3,1.6-3.5,2c-0.7-2.2-2.5-3.7-4-3.2c0.1,1.2,0.2,2.4,0.3,3.6c-1.1-0.1-2.2-0.4-3.2-0.8
		c0.2-0.5,0.4-1,0.5-1.6c0.2-0.9-0.1-1.9-1.1-2.2c-0.7,0.7-1.3,1.3-2,2c-0.2-0.2-0.5-0.5-0.7-0.7c-0.5-0.6-0.9-1.2-1.2-1.9
		c0.5-0.5,1.1-1,1.5-1.6c0.5-0.6-0.1-1.8-0.8-1.9c-0.4,0-0.9-0.1-1.3-0.1c0,0,0-0.1,0-0.1c0.1-0.8,0.2-1.6,0.5-2.3
		c0.1,0,0.2,0.1,0.3,0.1c0.8,0.1,1.7,0.5,2.2-0.5c0.1-0.2,0-0.5-0.1-0.6c-0.3-0.4-0.7-0.7-1-1.1c0.2-0.3,0.5-0.6,0.8-0.8
		c1.2-1,2.7-1.5,4.3-1.4c1.5,0.1,3,0.8,4,2c-0.4,0.3-0.9,1-1.4,2.2c-4.3-3.1-6.2-1.3-6.3,1.2c-0.3,1.4,0,2.9,1,4
		c0.9,1.1,2.3,1.7,3.7,1.8c1.4,0.1,2.8-0.4,3.9-1.3c2.7-2.3,3-6.5,0.6-9.1c-1.4-1.6-3.3-2.5-5.4-2.7s-4.1,0.5-5.7,1.9
		c-3.3,2.9-4.1,7.5-2.4,11.2c-3.2,2-6.5,3.2-10.5,3.2c-0.9-3.3-0.9-6.9-0.1-10.2c2.7,0.9,5.4,1.1,8,0.3c0.6-0.2,1-0.8,1.5-1.2
		c-0.1-0.1-0.1-0.2-0.2-0.3c-2.7-0.6-4.8-2.2-6.8-4.4C513.3,310.9,514.5,309.4,516.1,308z"/>
	<path class="st2" d="M445.5,234c0.1-1.3,0.2-2.6,0.5-3.8c0.6-2.2,0.3-4.3-0.5-5.2c-0.2-0.2-0.5-0.5-0.7-0.7
		c-0.4-0.5-0.9-0.9-1.3-1.4c-0.4-0.4-1.1-0.3-1.5,0.2c-1,1.7-2,3.3-2.9,4.9c0.1-1.1-0.4,0.9,0,0c0.8-1.8,1.5-6.6,0.6-7.4
		c-0.2-0.2-0.4-0.4-0.6-0.6c-0.5-0.4-1-0.9-1.4-1.3c-0.4-0.4-1.1-0.3-1.4,0.2c0,0,0,0,0,0.1c-0.4,0.8-1.7,0.5-1.7-0.4
		c-0.1-1.1-0.2-2-0.6-2.3c-0.1-0.1-0.3-0.2-0.4-0.3c-0.4-0.4-0.9-0.8-1.3-1.1c-0.4-0.3-1-0.3-1.3,0.1c-0.9,1.1-1.2,2.9-2,4.2
		c0-0.9,0-1.8,0.3-2.3c0.7-1.2-0.4-3.3-1.3-4.1c-0.1-0.1-0.3-0.2-0.4-0.3c-0.6-0.5-8.7-2.6-9.4-1.9c-0.7,0.7,1.3,8.8,1.9,9.4
		c0.1,0.1,0.2,0.3,0.3,0.4c0.8,0.9,2.9,2,4.1,1.3c0.5-0.3,1.4-0.3,2.3-0.3c-1.3,0.8-3,1.1-4.2,2c-0.4,0.3-0.5,0.9-0.1,1.3
		c0.4,0.4,0.8,0.9,1.1,1.3c0.1,0.1,0.2,0.3,0.3,0.4c0.3,0.3,1.2,0.5,2.3,0.6c0.9,0.1,1.2,1.3,0.4,1.7c0,0,0,0-0.1,0
		c-0.5,0.3-0.6,1-0.2,1.4c0.4,0.5,0.9,1,1.3,1.4c0.2,0.2,0.4,0.4,0.6,0.6c0.9,0.9,5.6,0.2,7.4-0.6c0.9-0.4-1.1,0.1,0,0
		c-1.7,1-3.3,2-4.9,2.9c-0.5,0.3-0.6,1-0.2,1.5c0.5,0.4,0.9,0.9,1.4,1.3c0.2,0.2,0.5,0.5,0.7,0.7c0.9,0.8,3,1,5.2,0.5
		c1.1-0.3,2.5-0.4,3.8-0.5c-1.8,0.8-3.7,1.5-5.8,2c-0.7,0.2-1,1.1-0.3,1.6c0.5,0.4,1,0.8,1.5,1.1c0.5,0.3,0.9,0.7,1.4,1
		c1,0.7,3.7,1.4,6.4,1.5c1.5,0,2.9,0,4.2-0.2c0.9,0.5,1.4,0.8,2.3,1.4c0.6,1.2,4-2.2,2.8-2.8c-0.5-0.9-0.8-1.4-1.4-2.3
		c0.2-1.2,0.3-2.7,0.2-4.2c-0.1-2.7-0.9-5.4-1.5-6.4c-0.3-0.5-0.7-0.9-1-1.4c-0.4-0.5-0.7-1-1.1-1.5c-0.5-0.6-1.4-0.4-1.6,0.3
		C447,230.4,446.3,232.3,445.5,234z M450.3,242.2c0.2,0.2,0.2,0.5,0,0.6s-0.5,0.2-0.6,0l-25.7-26.4c-0.2-0.2-0.2,0.2,0,0
		c0.2-0.2-0.2-0.2,0,0L450.3,242.2z"/>
	<g>
		<g>
			<path class="st2" d="M356.4,519.5c0.6-0.6,1.1-1.1,1.7-1.7c1.5,2.5,2,4.1,1.4,4.7c-0.6,0.6-2.2,0.2-4.7-1.4
				C355.3,520.7,355.8,520.1,356.4,519.5z"/>
			<path class="st2" d="M358.8,516.1c-0.6-0.9-1.2-1.8-1.9-2.9c-0.7-1-1.5-2-2.3-3.1c0,0,0,0,0,0h0c2.7-2.2,5.6-4.2,8.8-6
				c1.4,2.1,2.6,4.2,3.6,6.2c0,0,0,0,0,0c0,0,0,0,0,0C364,512,361.3,514,358.8,516.1z"/>
			<path class="st2" d="M340,511.8C340,511.8,340,511.8,340,511.8c2,1.8,4,3.5,5.9,5c-2.3,2.7-4.3,5.7-6.1,8.8c0,0,0,0,0,0
				c0,0,0,0,0,0c-2-1.4-4.1-3-6.1-4.7C335.5,517.7,337.6,514.6,340,511.8L340,511.8z"/>
			<path class="st2" d="M348,502.4c-1.5-1.7-3-3.3-4.7-5l0,0c0,0,0,0,0,0v0c5.1-3.8,10.1-5.3,10.1-5.3c1.3,1.3,2.6,2.7,3.8,4
				c0,0,0,0,0,0c0,0,0,0,0,0C353.9,497.9,350.8,500,348,502.4z"/>
			<path class="st2" d="M347,517.7C347,517.7,347,517.7,347,517.7c1.1,0.8,2.1,1.6,3.1,2.3c1,0.7,2,1.4,2.9,1.9
				c-2.1,2.5-4.1,5.2-5.7,8.1c0,0,0,0,0,0c0,0,0,0,0,0c-2-1-4.1-2.2-6.2-3.6C342.7,523.3,344.7,520.4,347,517.7L347,517.7z"/>
			<path class="st2" d="M334.2,506.5C334.2,506.5,334.2,506.5,334.2,506.5L334.2,506.5c1.7,1.6,3.4,3.2,5,4.7
				c-2.3,2.8-4.4,5.9-6.3,9.2c0,0,0,0,0,0c0,0,0,0,0,0c-1.4-1.2-2.7-2.5-4-3.8C328.9,516.5,330.4,511.6,334.2,506.5L334.2,506.5z"/>
			<path class="st2" d="M353.6,509c-1.5-1.9-3.2-3.9-5-5.9c0,0,0,0,0,0l0,0c2.8-2.3,5.9-4.4,9.1-6.3c1.7,2,3.3,4,4.7,6.1
				c0,0,0,0,0,0c0,0,0,0,0,0C359.3,504.7,356.4,506.7,353.6,509z"/>
			<path class="st2" d="M359.8,517.6C359.8,517.6,359.8,517.6,359.8,517.6L359.8,517.6c2.4-2.1,5.1-4,7.9-5.7
				c1.9,4.1,1.8,6.8,1.9,10c0,0,0,0,0,0c0,0,0,0,0,0c-2.1-1.6-4.9-2-7.4-1.1c-0.1,0.1-0.3,0.1-0.4,0.1c0,0,0,0-0.1,0
				C360.8,520.8,360.5,518.6,359.8,517.6z"/>
			<path class="st2" d="M354.5,522.9C354.5,522.9,354.5,522.9,354.5,522.9c1,0.8,3.1,1,3.3,2c0,0,0,0,0,0c0,0.1,0,0.3,0,0.4
				c-0.9,2.4-0.6,5.2,1.1,7.4c0,0,0,0,0,0c0,0,0,0,0,0c-3.2,0-5.9,0-10-1.9C350.5,528,352.4,525.4,354.5,522.9L354.5,522.9z"/>
			<path class="st2" d="M326.2,517.8c-5.5-5.4-5.4-16.2-0.1-22.7c0,0,0.1-0.1,0.2-0.2c0,0,4.6-4.6,5.5-5.5c0.1-0.1,0.2-0.2,0.2-0.2
				c6.5-5.2,17.3-5.4,22.7,0.1c0.1,0.1,0.2,0.2,0.3,0.3c0,0,0,0,0,0c0,0,0,0,0,0c-1.1,0.4-2.3,0.8-3.3,1.2c-3.3,1.4-6.3,3.1-9.1,5.1
				c0,0,0,0,0,0c0,0,0,0,0,0c0,0,0,0,0,0c-4.5-4.4-6-6.7-11.2-1.6c-5.1,5.2-2.8,6.6,1.6,11.2c0,0,0,0,0,0c0,0,0,0,0,0c0,0,0,0,0,0
				c-2,2.8-3.8,5.8-5.1,9.1c-0.5,1.1-0.9,2.2-1.2,3.3c0,0,0,0,0,0c0,0,0,0,0,0C326.4,518,326.3,517.9,326.2,517.8z"/>
			<path class="st2" d="M339.5,509.3C339.5,509.3,339.5,509.3,339.5,509.3c-1.4-1.3-2.8-2.6-4.2-4l0,0l7-7l0,0
				c1.4,1.4,2.7,2.8,4,4.2c0,0,0,0,0,0l0,0c-1.2,1-2.4,2.1-3.5,3.2S340.5,508.1,339.5,509.3L339.5,509.3z"/>
			<path class="st2" d="M346.1,515C346.1,515,346.1,515,346.1,515c-1.9-1.5-3.8-3.2-5.8-5c1-1.2,2.1-2.3,3.2-3.4
				c1.1-1.1,2.2-2.2,3.4-3.2c1.8,2,3.5,4,5,5.8c0,0,0,0,0,0l0,0c-1,0.9-2,1.8-3,2.8C347.9,513,347,514,346.1,515L346.1,515z"/>
			<path class="st2" d="M352.8,510.4c1.7,2.2,3.2,4.2,4.3,5.9c0,0,0,0,0,0l0,0c-0.2,0.2-0.3,0.3-0.5,0.5c-0.5,0.4-0.9,0.9-1.4,1.3
				c-0.1,0.1-0.1,0.1-0.2,0.2s-0.1,0.1-0.2,0.2c-0.4,0.4-0.9,0.9-1.3,1.4c-0.2,0.2-0.3,0.3-0.5,0.5l0,0c0,0,0,0,0,0
				c-1.7-1.1-3.7-2.6-5.9-4.3c0.9-1,1.8-1.9,2.7-2.9S351.8,511.3,352.8,510.4z"/>
			<path class="st2" d="M341.1,497.1C341.1,497.1,341.1,497.1,341.1,497.1L341.1,497.1c-0.3,0.3-0.7,0.5-1,0.8c0,0,0,0-0.1,0.1
				c-0.9,0.8-1.8,1.6-2.7,2.5c-0.9,0.9-1.7,1.8-2.5,2.7c0,0,0,0-0.1,0.1c-0.3,0.3-0.5,0.6-0.8,1l0,0c0,0,0,0,0,0
				c-0.4-0.4-0.8-0.8-1.2-1.2c-1.4-1.4-3.1-3.3-2.4-4.3c0.1-0.2,0.2-0.3,0.3-0.6c0.4-0.8,1.2-1.7,2-2.5c0.8-0.8,1.7-1.6,2.5-2
				c0.2-0.1,0.4-0.2,0.6-0.3c1-0.6,2.9,1.1,4.3,2.4C340.3,496.3,340.7,496.7,341.1,497.1z"/>
		</g>
	</g>
	<path class="st2" d="M233.1,424.4c8.9,10.3,24,12.2,35.1,5c0,0,0.1,0,0.1,0.1c1.5-1.2,3.1-2.3,4.5-3.5c0.3-0.2,0.4-0.9,0.3-1.3
		c-2.1-5.8-5.5-10.7-10.2-14.9c0.5-1.3,0.8-2.8,0.9-4.2c0.3-3.8-1-7.5-3.5-10.4c-0.3-0.3-0.5-0.6-0.8-0.9c-6.5-6.5-17.1-7-24.2-0.8
		C226.1,401.4,225.1,415.3,233.1,424.4z M234.6,423.1c-0.3-0.4-0.6-0.8-0.9-1.2c3.5-1.2,6.3-3.4,8.7-6.3c0.2-0.2,0.3-0.6,0.3-0.9
		c1.1,1.2,2.4,2,3.9,2.7c-1.7,3.8-4.1,7-7.4,9.8C237.5,426,235.9,424.7,234.6,423.1z M251.8,431.7c-1.8-0.1-3.5-0.4-5.2-0.9
		c2-3,3.4-6.3,3.7-10.1c0.1-1.2,0.2-1.9,0-2.4c1.5,0.1,3-0.1,4.4-0.6c0,0.2,0.1,0.4,0.1,0.7c0.5,2.6,1,5.2,1.1,7.8
		c0.1,1.8-0.2,3.5-0.4,5.4C254.3,431.7,253.1,431.8,251.8,431.7z M267.8,427.3c-2.3,1.6-4.8,2.7-7.4,3.5c0.5-2.3,0.6-4.6,0.1-7
		c-0.5-2.6-1.3-5.1-2.7-7.5c0.4-0.2,0.7-0.5,1-0.8c0.7-0.6,1.4-1.3,1.9-2C264.7,417.4,267.3,422,267.8,427.3z M236.5,394.9
		c1.1-1,2.4-1.8,3.7-2.4c0.4,1.6,1.1,3,2.4,4.1c1,0.9,2,1.7,3.3,1c0.2-2.2,0.3-4.3,0.4-6.6c3.9-0.1,7.8,1.2,10.9,3.9
		c-1.1,1.2-2.2,2.5-3.2,3.8c-0.1,0.2,0,0.8,0.2,1c0.6,0.9,1.3,1.8,1.8,2.5c1.7-0.5,3.4-1,5.1-1.5c0.5,1.5,0.7,3.1,0.6,4.7
		c-0.2,3.3-1.7,6.3-4.2,8.5c-1,0.9-2.3,1.6-3.5,2c-0.7-2.2-2.5-3.7-4-3.2c0.1,1.2,0.2,2.4,0.3,3.6c-1.1-0.1-2.2-0.4-3.2-0.8
		c0.2-0.5,0.4-1,0.5-1.6c0.2-0.9-0.1-1.9-1.1-2.2c-0.7,0.7-1.3,1.3-2,2c-0.2-0.2-0.5-0.5-0.7-0.7c-0.5-0.6-0.9-1.2-1.2-1.9
		c0.5-0.5,1.1-1,1.5-1.6c0.5-0.6-0.1-1.8-0.8-1.9c-0.4,0-0.9-0.1-1.3-0.1c0,0,0-0.1,0-0.1c0.1-0.8,0.2-1.6,0.5-2.3
		c0.1,0,0.2,0.1,0.3,0.1c0.8,0.1,1.7,0.5,2.2-0.5c0.1-0.2,0-0.5-0.1-0.6c-0.3-0.4-0.7-0.7-1-1.1c0.2-0.3,0.5-0.6,0.8-0.8
		c1.2-1,2.7-1.5,4.3-1.4c1.5,0.1,3,0.8,4,2c-0.4,0.3-0.9,1-1.4,2.2c-4.3-3.1-6.2-1.3-6.3,1.2c-0.3,1.4,0,2.9,1,4
		c0.9,1.1,2.3,1.7,3.7,1.8c1.4,0.1,2.8-0.4,3.9-1.3c2.7-2.3,3-6.5,0.6-9.1c-1.4-1.6-3.3-2.5-5.4-2.7c-2.1-0.1-4.1,0.5-5.7,1.9
		c-3.3,2.9-4.1,7.5-2.4,11.2c-3.2,2-6.5,3.2-10.5,3.2c-0.9-3.3-0.9-6.9-0.1-10.2c2.7,0.9,5.4,1.1,8,0.3c0.6-0.2,1-0.8,1.5-1.2
		c-0.1-0.1-0.1-0.2-0.2-0.3c-2.7-0.6-4.8-2.2-6.8-4.4C233.7,397.8,234.9,396.3,236.5,394.9z"/>
	<path class="st2" d="M448.2,424c0.1-1.3,0.2-2.6,0.5-3.8c0.6-2.2,0.3-4.3-0.5-5.2c-0.2-0.2-0.5-0.5-0.7-0.7
		c-0.4-0.5-0.9-0.9-1.3-1.4c-0.4-0.4-1.1-0.3-1.5,0.2c-1,1.7-2,3.3-2.9,4.9c0.1-1.1-0.4,0.9,0,0c0.8-1.8,1.5-6.6,0.6-7.4
		c-0.2-0.2-0.4-0.4-0.6-0.6c-0.5-0.4-1-0.9-1.4-1.3c-0.4-0.4-1.1-0.3-1.4,0.2c0,0,0,0,0,0.1c-0.4,0.8-1.7,0.5-1.7-0.4
		c-0.1-1.1-0.2-2-0.6-2.3c-0.1-0.1-0.3-0.2-0.4-0.3c-0.4-0.4-0.9-0.8-1.3-1.1c-0.4-0.3-1-0.3-1.3,0.1c-0.9,1.1-1.2,2.9-2,4.2
		c0-0.9,0-1.8,0.3-2.3c0.7-1.2-0.4-3.3-1.3-4.1c-0.1-0.1-0.3-0.2-0.4-0.3c-0.6-0.5-8.7-2.6-9.4-1.9c-0.7,0.7,1.3,8.8,1.9,9.4
		c0.1,0.1,0.2,0.3,0.3,0.4c0.8,0.9,2.9,2,4.1,1.3c0.5-0.3,1.4-0.3,2.3-0.3c-1.3,0.8-3,1.1-4.2,2c-0.4,0.3-0.5,0.9-0.1,1.3
		c0.4,0.4,0.8,0.9,1.1,1.3c0.1,0.1,0.2,0.3,0.3,0.4c0.3,0.3,1.2,0.5,2.3,0.6c0.9,0.1,1.2,1.3,0.4,1.7c0,0,0,0-0.1,0
		c-0.5,0.3-0.6,1-0.2,1.4c0.4,0.5,0.9,1,1.3,1.4c0.2,0.2,0.4,0.4,0.6,0.6c0.9,0.9,5.6,0.2,7.4-0.6c0.9-0.4-1.1,0.1,0,0
		c-1.7,1-3.3,2-4.9,2.9c-0.5,0.3-0.6,1-0.2,1.5c0.5,0.4,0.9,0.9,1.4,1.3c0.2,0.2,0.5,0.5,0.7,0.7c0.9,0.8,3,1,5.2,0.5
		c1.1-0.3,2.5-0.4,3.8-0.5c-1.8,0.8-3.7,1.5-5.8,2c-0.7,0.2-1,1.1-0.3,1.6c0.5,0.4,1,0.8,1.5,1.1c0.5,0.3,0.9,0.7,1.4,1
		c1,0.7,3.7,1.4,6.4,1.5c1.5,0,2.9,0,4.2-0.2c0.9,0.5,1.4,0.8,2.3,1.4c0.6,1.2,4-2.2,2.8-2.8c-0.5-0.9-0.8-1.4-1.4-2.3
		c0.2-1.2,0.3-2.7,0.2-4.2c-0.1-2.7-0.9-5.4-1.5-6.4c-0.3-0.5-0.7-0.9-1-1.4c-0.4-0.5-0.7-1-1.1-1.5c-0.5-0.6-1.4-0.4-1.6,0.3
		C449.7,420.3,449,422.3,448.2,424z M453,432.2c0.2,0.2,0.2,0.5,0,0.6s-0.5,0.2-0.6,0l-25.7-26.4c-0.2-0.2-0.2,0.2,0,0s-0.2-0.2,0,0
		L453,432.2z"/>
</g>
<path class="st3" d="M355.5,373.3c24.1-5.5,42.2-27.2,42.2-53c0-25.8-18.1-47.4-42.2-53"/>
<g class="st4">
	<path class="st1" d="M492.6,99.3c-82.4,0-149.3,66.8-149.3,149.3v29.6c23.3,0,42.2,18.9,42.2,42.2s-18.9,42.2-42.2,42.2v232.8
		h241.1v-496H492.6z"/>
	<rect x="584.4" y="99.3" class="st1" width="257.5" height="496"/>
</g>
</svg>
