<svg width="1920" height="625" viewBox="0 0 1920 625" fill="none" xmlns="http://www.w3.org/2000/svg">
<g id="FossilGroup">
<rect width="1920" height="569" fill="white"/>
<g id="BlockerBG" opacity="0.9">
<path id="Vector" opacity="0.9" d="M1046.1 128.43C963.7 128.43 896.8 195.23 896.8 277.73V307.33C920.1 307.33 939 326.23 939 349.53C939 372.83 920.1 391.73 896.8 391.73V624.53H1137.9V128.53H1046.1V128.43Z" fill="#3E3A42"/>
<path id="Vector 2" opacity="0.9" d="M1395.4 128.43H1137.9V624.43H1395.4V128.43Z" fill="#3E3A42"/>
</g>
<g id="FossilArray">
<g id="Trilo_2">
<g id="Group">
<path id="Vector_2" d="M896.3 360.93C897 360.93 897.8 360.93 898.5 361.03C897.8 363.73 897.1 365.03 896.3 365.03C895.5 365.03 894.7 363.73 894.1 361.03C894.8 360.93 895.5 360.93 896.3 360.93Z" fill="#FCE6C5"/>
<path id="Vector_3" d="M900.2 360.33C900.4 359.43 900.6 358.33 900.8 357.13C901 356.03 901.1 354.83 901.3 353.53C904.6 353.83 907.8 354.43 911 355.33C910.5 357.63 910 359.83 909.3 361.83C906.3 361.03 903.2 360.53 900.2 360.33Z" fill="#FCE6C5"/>
<path id="Vector_4" d="M890.5 345.03C890.6 347.53 890.8 349.93 891.1 352.13C887.8 352.43 884.5 353.03 881.3 353.93C880.9 351.63 880.6 349.23 880.4 346.83C883.8 346.03 887.1 345.33 890.5 345.03Z" fill="#FCE6C5"/>
<path id="Vector_5" d="M902.1 344.13C902.2 342.03 902.3 339.93 902.3 337.73C908.2 338.63 912.4 340.93 912.4 340.93C912.4 342.63 912.3 344.43 912.2 346.03C908.9 345.13 905.5 344.43 902.1 344.13Z" fill="#FCE6C5"/>
<path id="Vector_6" d="M891.3 353.53C891.5 354.83 891.6 356.03 891.8 357.13C892 358.33 892.2 359.33 892.4 360.33C889.3 360.53 886.3 361.13 883.3 361.93C882.6 359.93 882.1 357.73 881.6 355.43C884.8 354.43 888 353.83 891.3 353.53Z" fill="#FCE6C5"/>
<path id="Vector_7" d="M890.3 337.73C890.3 339.93 890.4 342.03 890.5 344.13C887.1 344.43 883.7 345.13 880.3 346.03C880.2 344.33 880.1 342.63 880.1 340.93C880.2 340.83 884.4 338.63 890.3 337.73Z" fill="#FCE6C5"/>
<path id="Vector_8" d="M901.4 352.23C901.6 350.03 901.8 347.63 902 345.13C905.4 345.43 908.8 346.13 912.1 347.03C911.9 349.43 911.6 351.83 911.2 354.13C908 353.13 904.7 352.53 901.4 352.23Z" fill="#FCE6C5"/>
<path id="Vector_9" d="M899.8 361.93C902.8 362.13 905.8 362.63 908.8 363.43C907.3 367.33 905.5 369.13 903.4 371.23C903.1 368.73 901.5 366.63 899.3 365.63C899.2 365.53 899.1 365.53 899 365.43C898.4 364.63 899.6 363.03 899.8 361.93Z" fill="#FCE6C5"/>
<path id="Vector_10" d="M892.8 361.93C892.9 363.03 894.2 364.63 893.7 365.43C893.6 365.53 893.5 365.63 893.4 365.73C891.2 366.73 889.6 368.83 889.3 371.33C887.2 369.23 885.4 367.43 883.9 363.53C886.8 362.63 889.8 362.13 892.8 361.93Z" fill="#FCE6C5"/>
<path id="Vector_11" d="M877.6 339.93C877.5 332.73 884.7 325.73 892.4 324.93C892.4 324.93 892.5 324.93 892.6 324.93C892.6 324.93 898.7 324.93 899.9 324.93C900 324.93 900.1 324.93 900.1 324.93C907.8 325.73 915.1 332.83 914.9 339.93C914.9 340.03 914.9 340.23 914.9 340.33C913.9 339.83 912.9 339.33 911.9 338.93C908.8 337.63 905.7 336.83 902.5 336.33C902.4 330.43 903 328.03 896.2 327.93C889.4 328.03 890 330.43 889.9 336.33C886.7 336.83 883.6 337.73 880.5 338.93C879.5 339.33 878.5 339.83 877.5 340.33C877.6 340.23 877.6 340.03 877.6 339.93Z" fill="#FCE6C5"/>
<path id="Vector_12" d="M891.9 343.13C891.8 341.33 891.8 339.53 891.7 337.73H900.9C900.9 339.53 900.8 341.43 900.7 343.13C899.2 343.03 897.8 342.93 896.3 342.93C894.8 342.93 893.3 343.03 891.9 343.13Z" fill="#FCE6C5"/>
<path id="Vector_13" d="M892.5 351.23C892.3 349.03 892.1 346.63 892 344.03C893.4 343.93 894.9 343.83 896.4 343.83C897.9 343.83 899.3 343.93 900.8 344.03C900.7 346.53 900.5 348.93 900.3 351.23C899 351.13 897.8 351.13 896.5 351.13C895 351.03 893.7 351.13 892.5 351.23Z" fill="#FCE6C5"/>
<path id="Vector_14" d="M899.9 352.53C899.6 355.13 899.3 357.43 898.9 359.33C898.7 359.33 898.5 359.33 898.3 359.33C897.7 359.33 897.1 359.33 896.5 359.33C896.4 359.33 896.4 359.33 896.3 359.33C896.2 359.33 896.2 359.33 896.1 359.33C895.5 359.33 894.9 359.33 894.3 359.33C894.1 359.33 893.9 359.33 893.7 359.33C893.3 357.43 892.9 355.13 892.7 352.53C893.9 352.43 895.1 352.43 896.4 352.43C897.5 352.43 898.7 352.53 899.9 352.53Z" fill="#FCE6C5"/>
<path id="Vector_15" d="M901 336.13C900.6 336.13 900.2 336.03 899.8 336.03H899.7C898.6 335.93 897.4 335.93 896.3 335.93C895.2 335.93 894 335.93 892.9 336.03C892.9 336.03 892.9 336.03 892.8 336.03C892.4 336.03 892 336.13 891.6 336.13C891.6 335.63 891.6 335.03 891.6 334.53C891.6 332.73 891.8 330.33 892.8 330.13C893 330.03 893.1 330.03 893.4 329.93C894.2 329.63 895.3 329.53 896.3 329.63C897.3 329.63 898.4 329.73 899.2 329.93C899.4 330.03 899.6 330.03 899.8 330.13C900.9 330.33 901 332.73 901 334.53C901 335.03 901 335.53 901 336.13Z" fill="#FCE6C5"/>
</g>
</g>
<path id="Fish_5" d="M898.9 472.93C898.9 472.33 899.4 471.73 900.1 471.83C903.6 472.03 905.9 472.53 909.6 473.43C909.7 473.13 909.7 472.83 909.8 472.53C906 471.63 903.6 471.13 899.9 470.93C899.3 470.93 898.8 470.43 898.8 469.83C898.8 469.23 899.3 468.63 900 468.73C901.6 468.83 903.1 468.93 904.6 469.23C904.6 469.23 911.2 468.83 909.4 461.53C908 458.73 906 456.13 903.7 454.43L906.4 460.93C907 462.43 906.1 464.03 904.3 464.53L901.8 453.23C900.4 452.43 898.8 452.03 897.2 452.03C889.1 452.03 882.5 463.23 882.5 471.03C886.4 469.73 890.4 469.03 894.4 468.83C895 468.83 895.6 469.33 895.6 469.93C895.6 470.53 895.1 471.03 894.5 471.03C890.6 471.23 886.7 471.73 882.9 472.63C883 472.93 883 473.23 883.1 473.53C886.8 472.63 890.6 472.13 894.4 471.93C895 471.93 895.6 472.43 895.6 473.03V473.53C895.6 474.13 895.1 474.63 894.5 474.63C890.6 474.83 886.7 475.33 882.9 476.23C883 476.53 883 476.83 883.1 477.13C886.8 476.23 890.6 475.73 894.4 475.53C895 475.53 895.6 476.03 895.6 476.63V476.73C895.6 477.33 895.1 477.83 894.5 477.83C891.7 477.93 887.5 478.33 885.1 478.73C885.2 479.23 885.3 479.63 885.3 480.13C887.6 479.73 891.6 479.33 894.3 479.23C894.9 479.23 895.5 479.73 895.5 480.33C895.5 480.93 895 481.43 894.4 481.43C892 481.53 889.6 481.83 887.2 482.23C887.3 482.73 887.4 483.13 887.4 483.63C889.7 483.23 892 482.93 894.3 482.83C894.9 482.83 895.5 483.33 895.5 483.93V484.83V485.93C893.4 487.53 891.3 489.13 889.2 490.73C888.1 491.63 888 493.23 889 494.23C891.2 491.83 893.3 489.33 895.5 486.93V487.23C894 490.33 892.5 493.43 890.9 496.53C891.6 496.93 892.2 497.23 892.9 497.53C893.8 494.63 894.7 491.83 895.5 488.93C895.8 488.93 896.2 488.93 896.6 488.93C896.4 492.03 896.1 495.13 895.9 498.23C896.6 498.33 897.3 498.33 898 498.23C897.8 495.13 897.5 492.03 897.3 488.93C897.7 488.93 898.1 488.93 898.4 488.93C899.3 491.83 900.2 494.63 901 497.53C901.7 497.23 902.3 496.93 903 496.53C901.5 493.43 900 490.33 898.4 487.23V486.93C900.6 489.33 902.7 491.83 904.9 494.23C905.9 493.23 905.8 491.63 904.7 490.73C902.6 489.13 900.5 487.53 898.4 485.93V484.83V483.93C898.4 483.33 898.9 482.73 899.6 482.83C901.4 482.93 902.4 483.23 904.6 483.63C904.7 483.13 904.8 482.73 904.8 482.23C902.4 481.83 901.4 481.53 899.4 481.43C898.8 481.43 898.3 480.93 898.3 480.33C898.3 479.63 898.9 479.13 899.5 479.23C901.7 479.33 903.6 479.73 905.9 480.13C906 479.63 906.1 479.23 906.1 478.73C903.7 478.33 901.6 477.93 899.3 477.83C898.7 477.83 898.2 477.33 898.2 476.73V476.63C898.2 476.03 898.7 475.43 899.4 475.53C902.9 475.73 905.2 476.23 908.9 477.13C909 476.83 909 476.53 909.1 476.23C905.3 475.33 902.9 474.83 899.2 474.63C898.6 474.63 898.1 474.13 898.1 473.53V472.93H898.9ZM897.4 454.23C903 454.23 897.4 463.63 897.4 463.63L895.3 464.33C891.1 465.73 887.8 460.53 890.9 457.43C892.8 455.43 895 454.23 897.4 454.23Z" fill="#FCE6C5"/>
<path id="Fish_4" d="M659.2 346.03C659.2 345.43 659.7 344.83 660.4 344.93C663.9 345.13 666.2 345.63 669.9 346.53C670 346.23 670 345.93 670.1 345.63C666.3 344.73 663.9 344.23 660.2 344.03C659.6 344.03 659.1 343.53 659.1 342.93C659.1 342.33 659.6 341.73 660.3 341.83C661.9 341.93 663.4 342.03 664.9 342.33C664.9 342.33 671.5 341.93 669.7 334.63C668.3 331.83 666.3 329.23 664 327.53L666.7 334.03C667.3 335.53 666.4 337.13 664.6 337.63L662.1 326.33C660.7 325.53 659.1 325.13 657.5 325.13C649.4 325.13 642.8 336.33 642.8 344.13C646.7 342.83 650.7 342.13 654.7 341.93C655.3 341.93 655.9 342.43 655.9 343.03C655.9 343.63 655.4 344.13 654.8 344.13C650.9 344.33 647 344.83 643.2 345.73C643.3 346.03 643.3 346.33 643.4 346.63C647.1 345.73 650.9 345.23 654.7 345.03C655.3 345.03 655.9 345.53 655.9 346.13V346.63C655.9 347.23 655.4 347.73 654.8 347.73C650.9 347.93 647 348.43 643.2 349.33C643.3 349.63 643.3 349.93 643.4 350.23C647.1 349.33 650.9 348.83 654.7 348.63C655.3 348.63 655.9 349.13 655.9 349.73V349.83C655.9 350.43 655.4 350.93 654.8 350.93C652 351.03 647.8 351.43 645.4 351.83C645.5 352.33 645.6 352.73 645.6 353.23C647.9 352.83 651.9 352.43 654.6 352.33C655.2 352.33 655.8 352.83 655.8 353.43C655.8 354.03 655.3 354.53 654.7 354.53C652.3 354.63 649.9 354.93 647.5 355.33C647.6 355.83 647.7 356.23 647.7 356.73C650 356.33 652.3 356.03 654.6 355.93C655.2 355.93 655.8 356.43 655.8 357.03V357.93V359.03C653.7 360.63 651.6 362.23 649.5 363.83C648.4 364.73 648.3 366.33 649.3 367.33C651.5 364.93 653.6 362.43 655.8 360.03V360.33C654.3 363.43 652.8 366.53 651.2 369.63C651.9 370.03 652.5 370.33 653.2 370.63C654.1 367.73 655 364.93 655.8 362.03C656.1 362.03 656.5 362.03 656.9 362.03C656.7 365.13 656.4 368.23 656.2 371.33C656.9 371.43 657.6 371.43 658.3 371.33C658.1 368.23 657.8 365.13 657.6 362.03C658 362.03 658.4 362.03 658.7 362.03C659.6 364.93 660.5 367.73 661.3 370.63C662 370.33 662.6 370.03 663.3 369.63C661.8 366.53 660.3 363.43 658.7 360.33V360.03C660.9 362.43 663 364.93 665.2 367.33C666.2 366.33 666.1 364.73 665 363.83C662.9 362.23 660.8 360.63 658.7 359.03V357.93V357.03C658.7 356.43 659.2 355.83 659.9 355.93C661.7 356.03 662.7 356.33 664.9 356.73C665 356.23 665.1 355.83 665.1 355.33C662.7 354.93 661.7 354.63 659.7 354.53C659.1 354.53 658.6 354.03 658.6 353.43C658.6 352.73 659.2 352.23 659.8 352.33C662 352.43 663.9 352.83 666.2 353.23C666.3 352.73 666.4 352.33 666.4 351.83C664 351.43 661.9 351.03 659.6 350.93C659 350.93 658.5 350.43 658.5 349.83V349.73C658.5 349.13 659 348.53 659.7 348.63C663.2 348.83 665.5 349.33 669.2 350.23C669.3 349.93 669.3 349.63 669.4 349.33C665.6 348.43 663.2 347.93 659.5 347.73C658.9 347.73 658.4 347.23 658.4 346.63V346.03H659.2ZM657.7 327.33C663.3 327.33 657.7 336.73 657.7 336.73L655.6 337.43C651.4 338.83 648.1 333.63 651.2 330.53C653.1 328.53 655.4 327.33 657.7 327.33Z" fill="#FCE6C5"/>
<path id="Shell_5" d="M755.8 470.93C754.9 483.53 763.6 494.73 775.6 497.33V497.43C777.4 497.63 779.1 497.93 780.9 498.13C781.2 498.13 781.8 497.83 781.9 497.43C784.3 492.23 785.3 486.73 785 480.83C786.2 480.33 787.4 479.53 788.4 478.63C791.1 476.23 792.7 473.03 793 469.43C793 469.03 793 468.63 793 468.33C793 459.73 786.3 452.43 777.6 451.83C766.3 451.13 756.6 459.63 755.8 470.93ZM757.6 471.03C757.6 470.53 757.7 470.13 757.7 469.63C760.8 471.23 764.1 471.53 767.6 471.23C767.9 471.23 768.2 471.03 768.4 470.93C768.4 472.43 768.6 473.83 769.2 475.23C765.6 476.63 761.9 477.13 757.9 476.73C757.6 474.83 757.5 472.93 757.6 471.03ZM763.4 488.03C762.3 486.83 761.4 485.43 760.6 484.03C763.9 483.33 767 482.13 769.7 479.83C770.6 479.13 771.1 478.63 771.3 478.23C772.2 479.33 773.3 480.13 774.6 480.73C774.5 480.93 774.3 481.03 774.2 481.23C772.9 483.33 771.4 485.33 769.8 487.13C768.7 488.33 767.3 489.33 766 490.33C765 489.73 764.1 488.93 763.4 488.03ZM776.8 495.73C774.3 495.23 771.8 494.43 769.6 493.13C771.5 491.93 773 490.43 774.3 488.53C775.7 486.53 776.8 484.33 777.5 481.83C777.9 481.93 778.3 481.93 778.7 481.93C779.6 482.03 780.5 481.93 781.3 481.83C781.2 487.13 780 491.83 776.8 495.73ZM777.5 453.73C778.9 453.83 780.2 454.13 781.5 454.53C780.7 455.83 780.3 457.23 780.4 458.83C780.5 460.03 780.6 461.23 781.9 461.73C783.5 460.33 784.9 459.03 786.5 457.73C789.2 460.23 790.9 463.63 791.1 467.43C789.6 467.43 788 467.63 786.5 467.83C786.3 467.83 786 468.33 786 468.63C785.8 469.63 785.7 470.63 785.6 471.43C787.1 472.23 788.5 473.03 790 473.83C789.3 475.13 788.4 476.33 787.3 477.33C785 479.33 782 480.33 778.9 480.13C777.6 480.03 776.4 479.73 775.3 479.13C776.3 477.13 776.1 475.03 774.8 474.33C774.1 475.13 773.4 476.03 772.6 476.93C771.9 476.13 771.4 475.23 771.1 474.23C771.6 474.03 772 473.83 772.5 473.53C773.2 473.03 773.7 472.23 773.2 471.33C772.3 471.33 771.5 471.33 770.6 471.33C770.6 471.03 770.6 470.73 770.6 470.43C770.6 469.73 770.8 469.03 771 468.43C771.7 468.43 772.3 468.53 773 468.43C773.7 468.33 774.1 467.13 773.7 466.63C773.4 466.33 773.2 466.03 772.9 465.73C772.9 465.73 773 465.73 773 465.63C773.6 465.13 774.2 464.73 774.8 464.43C774.8 464.53 774.9 464.63 774.9 464.63C775.3 465.23 775.7 466.03 776.7 465.73C776.9 465.73 777 465.43 777 465.23C777 464.73 777 464.33 777 463.83C777.3 463.83 777.7 463.83 778.1 463.83C779.6 463.93 780.9 464.63 781.9 465.73C782.8 466.83 783.3 468.23 783.2 469.63C782.7 469.53 781.9 469.73 780.8 470.13C780 465.23 777.6 465.13 775.9 466.83C774.8 467.53 774 468.73 773.9 470.13C773.8 471.43 774.2 472.73 775.1 473.73C776 474.73 777.2 475.33 778.5 475.43C781.8 475.63 784.7 473.13 784.9 469.83C785 467.93 784.4 466.03 783.1 464.53C781.8 463.03 780 462.13 778.1 462.03C774.1 461.73 770.5 464.23 769.1 467.83C765.7 467.03 762.7 465.63 760.1 463.03C761.7 460.23 764 457.93 766.8 456.23C768 458.63 769.6 460.53 771.8 461.63C772.3 461.93 772.9 461.73 773.5 461.83C773.5 461.73 773.6 461.63 773.6 461.53C772.2 459.33 771.9 456.93 772 454.13C773.8 453.73 775.6 453.63 777.5 453.73Z" fill="#FCE6C5"/>
<path id="Leaf_5" d="M776.5 358.53C777.4 357.73 778.4 356.93 779.3 356.33C781.1 355.23 782.3 353.73 782.4 352.63C782.4 352.33 782.4 352.03 782.4 351.73C782.4 351.13 782.4 350.53 782.4 349.93C782.4 349.33 781.9 348.93 781.3 349.13C779.6 349.63 777.8 349.93 776.1 350.43C776.9 349.73 775.3 350.73 776.1 350.43C777.8 349.83 781.4 347.13 781.4 345.93C781.4 345.63 781.4 345.33 781.4 345.13C781.4 344.53 781.4 343.93 781.3 343.33C781.3 342.83 780.7 342.43 780.2 342.53C780.2 342.53 780.2 342.53 780.1 342.53C779.3 342.83 778.7 341.73 779.2 341.13C779.9 340.33 780.4 339.63 780.4 339.23C780.4 339.03 780.4 338.93 780.4 338.73C780.4 338.23 780.3 337.63 780.3 337.13C780.3 336.63 779.8 336.33 779.3 336.33C778 336.53 776.6 337.43 775.2 337.73C775.8 337.13 776.3 336.53 776.9 336.43C778.2 336.13 778.8 334.03 778.7 332.83C778.7 332.63 778.7 332.53 778.7 332.33C778.6 331.53 774.7 324.93 773.7 324.93C772.7 324.93 768.8 331.63 768.7 332.33C768.7 332.53 768.7 332.63 768.7 332.83C768.6 333.93 769.3 336.13 770.5 336.43C771.1 336.53 771.6 337.13 772.2 337.73C770.8 337.43 769.5 336.53 768.1 336.33C767.6 336.23 767.2 336.63 767.1 337.13C767.1 337.63 767 338.23 767 338.73C767 338.93 767 339.03 767 339.23C767 339.63 767.5 340.33 768.2 341.13C768.8 341.73 768.2 342.73 767.3 342.53C767.3 342.53 767.3 342.53 767.2 342.53C766.7 342.33 766.1 342.73 766.1 343.33C766.1 343.93 766 344.53 766 345.13C766 345.43 766 345.73 766 345.93C766 347.13 769.6 349.83 771.3 350.43C772.1 350.73 770.5 349.73 771.3 350.43C769.6 349.93 767.8 349.63 766.1 349.13C765.6 349.03 765 349.43 765 349.93C765 350.53 765 351.13 765 351.73C765 352.03 765 352.33 765 352.63C765.1 353.73 766.3 355.33 768.1 356.33C769 356.83 770 357.73 770.9 358.53C769.2 357.83 767.5 357.13 765.7 356.03C765.1 355.63 764.3 356.13 764.4 356.83C764.5 357.43 764.5 357.93 764.6 358.53C764.7 359.03 764.8 359.63 764.8 360.13C765 361.23 766.3 363.53 768 365.33C769 366.33 770 367.23 770.9 367.93C771.1 368.83 771.3 369.43 771.5 370.33C771.1 371.43 775.6 371.43 775.2 370.33C775.4 369.43 775.6 368.83 775.8 367.93C776.8 367.23 777.7 366.33 778.7 365.33C780.4 363.53 781.7 361.23 781.9 360.13C782 359.63 782.1 359.03 782.1 358.53C782.2 357.93 782.3 357.43 782.3 356.83C782.4 356.13 781.6 355.63 781 356.03C779.9 357.03 778.2 357.83 776.5 358.53ZM774.3 367.03C774.3 367.23 774.1 367.43 773.9 367.43C773.7 367.43 773.5 367.23 773.5 367.03L773.9 332.73C773.9 332.53 773.7 332.73 773.9 332.73C774.1 332.73 773.9 332.53 773.9 332.73L774.3 367.03Z" fill="#FCE6C5"/>
<g id="Trilo_5">
<g id="Group_2">
<path id="Vector_16" d="M647.3 487.83C648 487.83 648.8 487.83 649.5 487.93C648.8 490.63 648.1 491.93 647.3 491.93C646.5 491.93 645.7 490.63 645.1 487.93C645.8 487.83 646.6 487.83 647.3 487.83Z" fill="#FCE6C5"/>
<path id="Vector_17" d="M651.2 487.23C651.4 486.33 651.6 485.23 651.8 484.03C652 482.93 652.1 481.73 652.3 480.43C655.6 480.73 658.8 481.33 662 482.23C661.5 484.53 661 486.73 660.3 488.73C657.3 487.93 654.2 487.43 651.2 487.23Z" fill="#FCE6C5"/>
<path id="Vector_18" d="M641.6 471.93C641.7 474.43 641.9 476.83 642.2 479.03C638.9 479.33 635.6 479.93 632.4 480.83C632 478.53 631.7 476.13 631.5 473.73C634.8 472.93 638.2 472.23 641.6 471.93Z" fill="#FCE6C5"/>
<path id="Vector_19" d="M653.1 471.03C653.2 468.93 653.3 466.83 653.3 464.63C659.2 465.53 663.4 467.83 663.4 467.83C663.4 469.53 663.3 471.33 663.2 472.93C659.9 472.03 656.5 471.33 653.1 471.03Z" fill="#FCE6C5"/>
<path id="Vector_20" d="M642.3 480.43C642.5 481.73 642.6 482.93 642.8 484.03C643 485.23 643.2 486.23 643.4 487.23C640.3 487.43 637.3 488.03 634.3 488.83C633.6 486.83 633.1 484.63 632.6 482.33C635.8 481.33 639.1 480.73 642.3 480.43Z" fill="#FCE6C5"/>
<path id="Vector_21" d="M641.3 464.63C641.3 466.83 641.4 468.93 641.5 471.03C638.1 471.33 634.7 472.03 631.3 472.93C631.2 471.23 631.1 469.53 631.1 467.83C631.2 467.73 635.4 465.53 641.3 464.63Z" fill="#FCE6C5"/>
<path id="Vector_22" d="M652.4 479.13C652.6 476.93 652.8 474.53 653 472.03C656.4 472.33 659.8 473.03 663.1 473.93C662.9 476.33 662.6 478.73 662.2 481.03C659 480.03 655.7 479.43 652.4 479.13Z" fill="#FCE6C5"/>
<path id="Vector_23" d="M650.8 488.83C653.8 489.03 656.8 489.53 659.8 490.33C658.3 494.23 656.5 496.03 654.4 498.13C654.1 495.63 652.5 493.53 650.3 492.53C650.2 492.43 650.1 492.43 650 492.33C649.4 491.53 650.7 490.03 650.8 488.83Z" fill="#FCE6C5"/>
<path id="Vector_24" d="M643.8 488.83C643.9 489.93 645.2 491.53 644.7 492.33C644.6 492.43 644.5 492.53 644.4 492.63C642.2 493.63 640.6 495.73 640.3 498.23C638.2 496.13 636.4 494.33 634.9 490.43C637.8 489.53 640.8 489.03 643.8 488.83Z" fill="#FCE6C5"/>
<path id="Vector_25" d="M628.6 466.83C628.5 459.63 635.7 452.63 643.4 451.83C643.4 451.83 643.5 451.83 643.6 451.83C643.6 451.83 649.7 451.83 650.9 451.83C651 451.83 651.1 451.83 651.1 451.83C658.8 452.63 666.1 459.73 665.9 466.83C665.9 466.93 665.9 467.13 665.9 467.23C664.9 466.73 663.9 466.23 662.9 465.83C659.8 464.53 656.7 463.73 653.5 463.23C653.4 457.33 654 454.93 647.2 454.83C640.4 454.93 641 457.33 640.9 463.23C637.7 463.73 634.6 464.63 631.5 465.83C630.5 466.23 629.5 466.73 628.5 467.23C628.6 467.13 628.6 466.93 628.6 466.83Z" fill="#FCE6C5"/>
<path id="Vector_26" d="M642.9 470.03C642.8 468.23 642.8 466.43 642.7 464.63H651.9C651.9 466.43 651.8 468.33 651.7 470.03C650.2 469.93 648.8 469.83 647.3 469.83C645.8 469.83 644.4 469.93 642.9 470.03Z" fill="#FCE6C5"/>
<path id="Vector_27" d="M643.5 478.13C643.3 475.93 643.1 473.53 643 470.93C644.4 470.83 645.9 470.73 647.4 470.73C648.9 470.73 650.3 470.83 651.8 470.93C651.7 473.43 651.5 475.83 651.3 478.13C650 478.03 648.8 478.03 647.5 478.03C646 477.93 644.8 478.03 643.5 478.13Z" fill="#FCE6C5"/>
<path id="Vector_28" d="M651 479.53C650.7 482.13 650.4 484.43 650 486.33C649.8 486.33 649.6 486.33 649.4 486.33C648.8 486.33 648.2 486.33 647.6 486.33C647.5 486.33 647.5 486.33 647.4 486.33C647.3 486.33 647.3 486.33 647.2 486.33C646.6 486.33 646 486.33 645.4 486.33C645.2 486.33 645 486.33 644.8 486.33C644.4 484.43 644 482.13 643.8 479.53C645 479.43 646.2 479.43 647.5 479.43C648.5 479.33 649.7 479.43 651 479.53Z" fill="#FCE6C5"/>
<path id="Vector_29" d="M652 463.03C651.6 463.03 651.2 462.93 650.8 462.93H650.7C649.6 462.83 648.4 462.83 647.3 462.83C646.2 462.83 645 462.83 643.9 462.93C643.9 462.93 643.9 462.93 643.8 462.93C643.4 462.93 643 463.03 642.6 463.03C642.6 462.53 642.6 461.93 642.6 461.43C642.6 459.63 642.8 457.23 643.8 457.03C644 456.93 644.1 456.93 644.4 456.83C645.2 456.53 646.3 456.43 647.3 456.53C648.3 456.53 649.4 456.63 650.2 456.83C650.4 456.93 650.6 456.93 650.8 457.03C651.9 457.23 652 459.63 652 461.43C652 461.93 652 462.43 652 463.03Z" fill="#FCE6C5"/>
</g>
</g>
<path id="Shell_4" d="M511.2 344.03C510.3 356.63 519 367.83 531 370.43V370.53C532.8 370.73 534.5 371.03 536.3 371.23C536.6 371.23 537.2 370.93 537.3 370.53C539.7 365.33 540.7 359.83 540.4 353.93C541.6 353.43 542.8 352.63 543.8 351.73C546.5 349.33 548.1 346.13 548.4 342.53C548.4 342.13 548.4 341.73 548.4 341.43C548.4 332.83 541.7 325.53 533 324.93C521.8 324.23 512 332.73 511.2 344.03ZM513.1 344.13C513.1 343.63 513.2 343.23 513.2 342.73C516.3 344.33 519.6 344.63 523.1 344.33C523.4 344.33 523.7 344.13 523.9 344.03C523.9 345.53 524.1 346.93 524.7 348.33C521.1 349.73 517.4 350.23 513.4 349.83C513 347.93 512.9 346.03 513.1 344.13ZM518.8 361.13C517.7 359.93 516.8 358.53 516 357.13C519.3 356.43 522.4 355.23 525.1 352.93C526 352.23 526.5 351.73 526.7 351.33C527.6 352.43 528.7 353.23 530 353.83C529.9 354.03 529.7 354.13 529.6 354.33C528.3 356.43 526.8 358.43 525.2 360.23C524.1 361.43 522.7 362.43 521.4 363.43C520.4 362.83 519.6 362.03 518.8 361.13ZM532.2 368.83C529.7 368.33 527.2 367.53 525 366.23C526.9 365.03 528.4 363.53 529.7 361.63C531.1 359.63 532.2 357.43 532.9 354.93C533.3 355.03 533.7 355.03 534.1 355.03C535 355.13 535.9 355.03 536.7 354.93C536.7 360.23 535.4 364.93 532.2 368.83ZM532.9 326.83C534.3 326.93 535.6 327.23 536.9 327.63C536.1 328.93 535.7 330.33 535.8 331.93C535.9 333.13 536 334.33 537.3 334.83C538.9 333.43 540.3 332.13 541.9 330.83C544.6 333.33 546.3 336.73 546.5 340.53C545 340.53 543.4 340.73 541.9 340.93C541.7 340.93 541.4 341.43 541.4 341.73C541.2 342.73 541.1 343.73 541 344.53C542.5 345.33 543.9 346.13 545.4 346.93C544.7 348.23 543.8 349.43 542.7 350.43C540.4 352.43 537.4 353.43 534.3 353.23C533 353.13 531.8 352.83 530.7 352.23C531.7 350.23 531.5 348.13 530.2 347.43C529.5 348.23 528.8 349.13 528 350.03C527.3 349.23 526.8 348.33 526.5 347.33C527 347.13 527.4 346.93 527.9 346.63C528.6 346.13 529.1 345.33 528.6 344.43C527.7 344.43 526.9 344.43 526 344.43C526 344.13 526 343.83 526 343.53C526 342.83 526.2 342.13 526.4 341.53C527.1 341.53 527.7 341.63 528.4 341.53C529.1 341.43 529.5 340.23 529.1 339.73C528.8 339.43 528.6 339.13 528.3 338.83C528.3 338.83 528.4 338.83 528.4 338.73C529 338.23 529.6 337.83 530.2 337.53C530.2 337.63 530.3 337.73 530.3 337.73C530.7 338.33 531.1 339.13 532.1 338.83C532.3 338.83 532.4 338.53 532.4 338.33C532.4 337.83 532.4 337.43 532.4 336.93C532.7 336.93 533.1 336.93 533.5 336.93C535 337.03 536.3 337.73 537.3 338.83C538.2 339.93 538.7 341.33 538.6 342.73C538.1 342.63 537.3 342.83 536.2 343.23C535.4 338.33 533 338.23 531.3 339.93C530.2 340.63 529.4 341.83 529.3 343.23C529.2 344.53 529.6 345.83 530.5 346.83C531.4 347.83 532.6 348.43 533.9 348.53C537.2 348.73 540.1 346.23 540.3 342.93C540.4 341.03 539.8 339.13 538.5 337.63C537.2 336.13 535.4 335.23 533.5 335.13C529.5 334.83 525.9 337.33 524.5 340.93C521.1 340.13 518.1 338.73 515.5 336.13C517.1 333.33 519.4 331.03 522.2 329.33C523.4 331.73 525 333.63 527.2 334.73C527.7 335.03 528.3 334.83 528.9 334.93C528.9 334.83 529 334.73 529 334.63C527.6 332.43 527.3 330.03 527.4 327.23C529.2 326.83 531 326.73 532.9 326.83Z" fill="#FCE6C5"/>
<path id="Leaf_4" d="M532.4 485.43C533.3 484.63 534.3 483.83 535.2 483.23C537 482.13 538.2 480.63 538.3 479.53C538.3 479.23 538.3 478.93 538.3 478.63C538.3 478.03 538.3 477.43 538.3 476.83C538.3 476.23 537.8 475.83 537.2 476.03C535.5 476.53 533.7 476.83 532 477.33C532.8 476.63 531.2 477.63 532 477.33C533.7 476.73 537.3 474.03 537.3 472.83C537.3 472.53 537.3 472.23 537.3 472.03C537.3 471.43 537.3 470.83 537.2 470.23C537.2 469.73 536.6 469.33 536.1 469.43C536.1 469.43 536.1 469.43 536 469.43C535.2 469.73 534.6 468.63 535.1 468.03C535.8 467.23 536.3 466.53 536.3 466.13C536.3 465.93 536.3 465.83 536.3 465.63C536.3 465.13 536.2 464.53 536.2 464.03C536.2 463.53 535.7 463.23 535.2 463.23C533.9 463.43 532.5 464.33 531.1 464.63C531.7 464.03 532.2 463.43 532.8 463.33C534.1 463.03 534.7 460.93 534.6 459.73C534.6 459.53 534.6 459.43 534.6 459.23C534.5 458.43 530.6 451.83 529.6 451.83C528.6 451.83 524.7 458.53 524.6 459.23C524.6 459.43 524.6 459.53 524.6 459.73C524.5 460.83 525.2 463.03 526.4 463.33C527 463.43 527.5 464.03 528.1 464.63C526.7 464.33 525.4 463.43 524 463.23C523.5 463.13 523.1 463.53 523 464.03C523 464.53 522.9 465.13 522.9 465.63C522.9 465.83 522.9 465.93 522.9 466.13C522.9 466.53 523.4 467.23 524.1 468.03C524.7 468.63 524.1 469.63 523.2 469.43C523.2 469.43 523.2 469.43 523.1 469.43C522.6 469.23 522 469.63 522 470.23C522 470.83 521.9 471.43 521.9 472.03C521.9 472.33 521.9 472.63 521.9 472.83C521.9 474.03 525.5 476.73 527.2 477.33C528 477.63 526.4 476.63 527.2 477.33C525.5 476.83 523.7 476.53 522 476.03C521.5 475.93 520.9 476.33 520.9 476.83C520.9 477.43 520.9 478.03 520.9 478.63C520.9 478.93 520.9 479.23 520.9 479.53C521 480.63 522.2 482.23 524 483.23C524.9 483.73 525.9 484.63 526.8 485.43C525.1 484.73 523.4 484.03 521.6 482.93C521 482.53 520.2 483.03 520.3 483.73C520.4 484.33 520.4 484.83 520.5 485.43C520.6 485.93 520.7 486.43 520.7 487.03C520.9 488.13 522.2 490.43 523.9 492.23C524.9 493.23 525.9 494.13 526.8 494.83C527 495.73 527.2 496.33 527.4 497.23C527 498.33 531.5 498.33 531.1 497.23C531.3 496.33 531.5 495.73 531.7 494.83C532.7 494.13 533.6 493.23 534.6 492.23C536.3 490.43 537.6 488.13 537.8 487.03C537.9 486.53 538 485.93 538 485.43C538.1 484.83 538.2 484.33 538.2 483.73C538.3 483.03 537.5 482.53 536.9 482.93C535.8 483.93 534.1 484.73 532.4 485.43ZM530.2 493.93C530.2 494.13 530 494.33 529.8 494.33C529.6 494.33 529.4 494.13 529.4 493.93L529.8 459.63C529.8 459.43 529.6 459.63 529.8 459.63C530 459.63 529.8 459.43 529.8 459.63L530.2 493.93Z" fill="#FCE6C5"/>
<g id="Trilo_4">
<g id="Group_3">
<path id="Vector_30" d="M896.3 107.13C897 107.13 897.8 107.13 898.5 107.23C897.8 109.93 897.1 111.23 896.3 111.23C895.5 111.23 894.7 109.93 894.1 107.23C894.8 107.13 895.5 107.13 896.3 107.13Z" fill="#FCE6C5"/>
<path id="Vector_31" d="M900.2 106.53C900.4 105.63 900.6 104.53 900.8 103.33C901 102.23 901.1 101.03 901.3 99.7299C904.6 100.03 907.8 100.63 911 101.53C910.5 103.83 910 106.03 909.3 108.03C906.3 107.23 903.2 106.73 900.2 106.53Z" fill="#FCE6C5"/>
<path id="Vector_32" d="M890.5 91.2299C890.6 93.7299 890.8 96.1299 891.1 98.3299C887.8 98.6299 884.5 99.2299 881.3 100.13C880.9 97.8299 880.6 95.4299 880.4 93.0299C883.8 92.2299 887.1 91.5299 890.5 91.2299Z" fill="#FCE6C5"/>
<path id="Vector_33" d="M902.1 90.3299C902.2 88.2299 902.3 86.1299 902.3 83.9299C908.2 84.8299 912.4 87.1299 912.4 87.1299C912.4 88.8299 912.3 90.6299 912.2 92.2299C908.9 91.2299 905.5 90.6299 902.1 90.3299Z" fill="#FCE6C5"/>
<path id="Vector_34" d="M891.3 99.7299C891.5 101.03 891.6 102.23 891.8 103.33C892 104.53 892.2 105.53 892.4 106.53C889.3 106.73 886.3 107.33 883.3 108.13C882.6 106.13 882.1 103.93 881.6 101.63C884.8 100.63 888 100.03 891.3 99.7299Z" fill="#FCE6C5"/>
<path id="Vector_35" d="M890.3 83.9299C890.3 86.1299 890.4 88.2299 890.5 90.3299C887.1 90.6299 883.7 91.3299 880.3 92.2299C880.2 90.5299 880.1 88.8299 880.1 87.1299C880.2 87.0299 884.4 84.7299 890.3 83.9299Z" fill="#FCE6C5"/>
<path id="Vector_36" d="M901.4 98.3299C901.6 96.1299 901.8 93.7299 902 91.2299C905.4 91.5299 908.8 92.2299 912.1 93.1299C911.9 95.5299 911.6 97.9299 911.2 100.23C908 99.3299 904.7 98.7299 901.4 98.3299Z" fill="#FCE6C5"/>
<path id="Vector_37" d="M899.8 108.13C902.8 108.33 905.8 108.83 908.8 109.63C907.3 113.53 905.5 115.33 903.4 117.43C903.1 114.93 901.5 112.83 899.3 111.83C899.2 111.73 899.1 111.73 899 111.63C898.4 110.83 899.6 109.23 899.8 108.13Z" fill="#FCE6C5"/>
<path id="Vector_38" d="M892.8 108.13C892.9 109.23 894.2 110.83 893.7 111.63C893.6 111.73 893.5 111.83 893.4 111.93C891.2 112.93 889.6 115.03 889.3 117.53C887.2 115.43 885.4 113.63 883.9 109.73C886.8 108.83 889.8 108.33 892.8 108.13Z" fill="#FCE6C5"/>
<path id="Vector_39" d="M877.6 86.1299C877.5 78.9299 884.7 71.9299 892.4 71.1299C892.4 71.1299 892.5 71.1299 892.6 71.1299C892.6 71.1299 898.7 71.1299 899.9 71.1299C900 71.1299 900.1 71.1299 900.1 71.1299C907.8 71.9299 915.1 79.0299 914.9 86.1299C914.9 86.2299 914.9 86.4299 914.9 86.5299C913.9 86.0299 912.9 85.5299 911.9 85.1299C908.8 83.8299 905.7 83.0299 902.5 82.5299C902.4 76.6299 903 74.2299 896.2 74.1299C889.4 74.2299 890 76.6299 889.9 82.5299C886.7 83.0299 883.6 83.9299 880.5 85.1299C879.5 85.5299 878.5 86.0299 877.5 86.5299C877.6 86.3299 877.6 86.2299 877.6 86.1299Z" fill="#FCE6C5"/>
<path id="Vector_40" d="M891.9 89.3299C891.8 87.5299 891.8 85.7299 891.7 83.9299H900.9C900.9 85.7299 900.8 87.6299 900.7 89.3299C899.2 89.2299 897.8 89.1299 896.3 89.1299C894.8 89.1299 893.3 89.2299 891.9 89.3299Z" fill="#FCE6C5"/>
<path id="Vector_41" d="M892.5 97.4299C892.3 95.2299 892.1 92.8299 892 90.2299C893.4 90.1299 894.9 90.0299 896.4 90.0299C897.9 90.0299 899.3 90.1299 900.8 90.2299C900.7 92.7299 900.5 95.1299 900.3 97.4299C899 97.3299 897.8 97.3299 896.5 97.3299C895 97.2299 893.7 97.3299 892.5 97.4299Z" fill="#FCE6C5"/>
<path id="Vector_42" d="M899.9 98.7299C899.6 101.33 899.3 103.63 898.9 105.53C898.7 105.53 898.5 105.53 898.3 105.53C897.7 105.53 897.1 105.53 896.5 105.53C896.4 105.53 896.4 105.53 896.3 105.53C896.2 105.53 896.2 105.53 896.1 105.53C895.5 105.53 894.9 105.53 894.3 105.53C894.1 105.53 893.9 105.53 893.7 105.53C893.3 103.63 892.9 101.33 892.7 98.7299C893.9 98.6299 895.1 98.6299 896.4 98.6299C897.5 98.6299 898.7 98.6299 899.9 98.7299Z" fill="#FCE6C5"/>
<path id="Vector_43" d="M901 82.2299C900.6 82.2299 900.2 82.1299 899.8 82.1299H899.7C898.6 82.0299 897.4 82.0299 896.3 82.0299C895.2 82.0299 894 82.0299 892.9 82.1299C892.9 82.1299 892.9 82.1299 892.8 82.1299C892.4 82.1299 892 82.2299 891.6 82.2299C891.6 81.7299 891.6 81.1299 891.6 80.6299C891.6 78.8299 891.8 76.4299 892.8 76.2299C893 76.1299 893.1 76.1299 893.4 76.0299C894.2 75.7299 895.3 75.6299 896.3 75.7299C897.3 75.7299 898.4 75.8299 899.2 76.0299C899.4 76.1299 899.6 76.1299 899.8 76.2299C900.9 76.4299 901 78.8299 901 80.6299C901 81.2299 901 81.7299 901 82.2299Z" fill="#FCE6C5"/>
</g>
</g>
<path id="Fish_3" d="M898.9 219.13C898.9 218.53 899.4 217.93 900.1 218.03C903.6 218.23 905.9 218.73 909.6 219.63C909.7 219.33 909.7 219.03 909.8 218.73C906 217.83 903.6 217.33 899.9 217.13C899.3 217.13 898.8 216.63 898.8 216.03C898.8 215.43 899.3 214.83 900 214.93C901.6 215.03 903.1 215.13 904.6 215.43C904.6 215.43 911.2 215.03 909.4 207.73C908 204.93 906 202.33 903.7 200.63L906.4 207.13C907 208.63 906.1 210.23 904.3 210.73L901.8 199.43C900.4 198.63 898.8 198.23 897.2 198.23C889.1 198.23 882.5 209.43 882.5 217.23C886.4 215.93 890.4 215.23 894.4 215.03C895 215.03 895.6 215.53 895.6 216.13C895.6 216.73 895.1 217.23 894.5 217.23C890.6 217.43 886.7 217.93 882.9 218.83C883 219.13 883 219.43 883.1 219.73C886.8 218.83 890.6 218.33 894.4 218.13C895 218.13 895.6 218.63 895.6 219.23V219.73C895.6 220.33 895.1 220.83 894.5 220.83C890.6 221.03 886.7 221.53 882.9 222.43C883 222.73 883 223.03 883.1 223.33C886.8 222.43 890.6 221.93 894.4 221.73C895 221.73 895.6 222.23 895.6 222.83V222.93C895.6 223.53 895.1 224.03 894.5 224.03C891.7 224.13 887.5 224.53 885.1 224.93C885.2 225.43 885.3 225.83 885.3 226.33C887.6 225.93 891.6 225.53 894.3 225.43C894.9 225.43 895.5 225.93 895.5 226.53C895.5 227.13 895 227.63 894.4 227.63C892 227.73 889.6 228.03 887.2 228.43C887.3 228.93 887.4 229.33 887.4 229.83C889.7 229.43 892 229.13 894.3 229.03C894.9 229.03 895.5 229.53 895.5 230.13V231.03V232.13C893.4 233.73 891.3 235.33 889.2 236.93C888.1 237.83 888 239.43 889 240.43C891.2 238.03 893.3 235.53 895.5 233.13V233.43C894 236.53 892.5 239.63 890.9 242.73C891.6 243.13 892.2 243.43 892.9 243.73C893.8 240.83 894.7 238.03 895.5 235.13C895.8 235.13 896.2 235.13 896.6 235.13C896.4 238.23 896.1 241.33 895.9 244.43C896.6 244.53 897.3 244.53 898 244.43C897.8 241.33 897.5 238.23 897.3 235.13C897.7 235.13 898.1 235.13 898.4 235.13C899.3 238.03 900.2 240.83 901 243.73C901.7 243.43 902.3 243.13 903 242.73C901.5 239.63 900 236.53 898.4 233.43V233.13C900.6 235.53 902.7 238.03 904.9 240.43C905.9 239.43 905.8 237.83 904.7 236.93C902.6 235.33 900.5 233.73 898.4 232.13V231.03V230.13C898.4 229.53 898.9 228.93 899.6 229.03C901.4 229.13 902.4 229.43 904.6 229.83C904.7 229.33 904.8 228.93 904.8 228.43C902.4 228.03 901.4 227.73 899.4 227.63C898.8 227.63 898.3 227.13 898.3 226.53C898.3 225.83 898.9 225.33 899.5 225.43C901.7 225.53 903.6 225.93 905.9 226.33C906 225.83 906.1 225.43 906.1 224.93C903.7 224.53 901.6 224.13 899.3 224.03C898.7 224.03 898.2 223.53 898.2 222.93V222.83C898.2 222.23 898.7 221.63 899.4 221.73C902.9 221.93 905.2 222.43 908.9 223.33C909 223.03 909 222.73 909.1 222.43C905.3 221.53 902.9 221.03 899.2 220.83C898.6 220.83 898.1 220.33 898.1 219.73V219.13H898.9ZM897.4 200.43C903 200.43 897.4 209.83 897.4 209.83L895.3 210.53C891.1 211.93 887.8 206.73 890.9 203.63C892.8 201.63 895 200.43 897.4 200.43Z" fill="#FCE6C5"/>
<path id="Fish_2" d="M659.2 92.2299C659.2 91.6299 659.7 91.0299 660.4 91.1299C663.9 91.3299 666.2 91.8299 669.9 92.7299C670 92.4299 670 92.1299 670.1 91.8299C666.3 90.9299 663.9 90.4299 660.2 90.2299C659.6 90.2299 659.1 89.7299 659.1 89.1299C659.1 88.5299 659.6 87.9299 660.3 88.0299C661.9 88.1299 663.4 88.2299 664.9 88.5299C664.9 88.5299 671.5 88.1299 669.7 80.8299C668.3 78.0299 666.3 75.4299 664 73.7299L666.7 80.2299C667.3 81.7299 666.4 83.3299 664.6 83.8299L662.1 72.5299C660.7 71.7299 659.1 71.3299 657.5 71.3299C649.4 71.3299 642.8 82.5299 642.8 90.3299C646.7 89.0299 650.7 88.3299 654.7 88.1299C655.3 88.1299 655.9 88.6299 655.9 89.2299C655.9 89.8299 655.4 90.3299 654.8 90.3299C650.9 90.5299 647 91.0299 643.2 91.9299C643.3 92.2299 643.3 92.5299 643.4 92.8299C647.1 91.9299 650.9 91.4299 654.7 91.2299C655.3 91.2299 655.9 91.7299 655.9 92.3299V92.8299C655.9 93.4299 655.4 93.9299 654.8 93.9299C650.9 94.1299 647 94.6299 643.2 95.5299C643.3 95.8299 643.3 96.1299 643.4 96.4299C647.1 95.5299 650.9 95.0299 654.7 94.8299C655.3 94.8299 655.9 95.3299 655.9 95.9299V96.0299C655.9 96.6299 655.4 97.1299 654.8 97.1299C652 97.2299 647.8 97.6299 645.4 98.0299C645.5 98.5299 645.6 98.9299 645.6 99.4299C647.9 99.0299 651.9 98.6299 654.6 98.5299C655.2 98.5299 655.8 99.0299 655.8 99.6299C655.8 100.23 655.3 100.73 654.7 100.73C652.3 100.83 649.9 101.13 647.5 101.53C647.6 102.03 647.7 102.43 647.7 102.93C650 102.53 652.3 102.23 654.6 102.13C655.2 102.13 655.8 102.63 655.8 103.23V104.13V105.23C653.7 106.83 651.6 108.43 649.5 110.03C648.4 110.93 648.3 112.53 649.3 113.53C651.5 111.13 653.6 108.63 655.8 106.23V106.53C654.3 109.63 652.8 112.73 651.2 115.83C651.9 116.23 652.5 116.53 653.2 116.83C654.1 113.93 655 111.13 655.8 108.23C656.1 108.23 656.5 108.23 656.9 108.23C656.7 111.33 656.4 114.43 656.2 117.53C656.9 117.63 657.6 117.63 658.3 117.53C658.1 114.43 657.8 111.33 657.6 108.23C658 108.23 658.4 108.23 658.7 108.23C659.6 111.13 660.5 113.93 661.3 116.83C662 116.53 662.6 116.23 663.3 115.83C661.8 112.73 660.3 109.63 658.7 106.53V106.13C660.9 108.53 663 111.03 665.2 113.43C666.2 112.43 666.1 110.83 665 109.93C662.9 108.33 660.8 106.73 658.7 105.13V104.03V103.13C658.7 102.53 659.2 101.93 659.9 102.03C661.7 102.13 662.7 102.43 664.9 102.83C665 102.33 665.1 101.93 665.1 101.43C662.7 101.03 661.7 100.73 659.7 100.63C659.1 100.63 658.6 100.13 658.6 99.5299C658.6 98.8299 659.2 98.3299 659.8 98.4299C662 98.5299 663.9 98.9299 666.2 99.3299C666.3 98.8299 666.4 98.4299 666.4 97.9299C664 97.5299 661.9 97.1299 659.6 97.0299C659 97.0299 658.5 96.5299 658.5 95.9299V95.8299C658.5 95.2299 659 94.6299 659.7 94.7299C663.2 94.9299 665.5 95.4299 669.2 96.3299C669.3 96.0299 669.3 95.7299 669.4 95.4299C665.6 94.5299 663.2 94.0299 659.5 93.8299C658.9 93.8299 658.4 93.3299 658.4 92.7299V92.2299H659.2ZM657.7 73.5299C663.3 73.5299 657.7 82.9299 657.7 82.9299L655.6 83.6299C651.4 85.0299 648.1 79.8299 651.2 76.7299C653.1 74.7299 655.4 73.5299 657.7 73.5299Z" fill="#FCE6C5"/>
<path id="Shell_3" d="M752.6 217.13C751.7 229.73 760.4 240.93 772.4 243.53V243.63C774.2 243.83 775.9 244.13 777.7 244.33C778 244.33 778.6 244.03 778.7 243.63C781.1 238.43 782.1 232.93 781.8 227.03C783 226.53 784.2 225.73 785.2 224.83C787.9 222.43 789.5 219.23 789.8 215.63C789.8 215.23 789.8 214.83 789.8 214.53C789.8 205.93 783.1 198.63 774.4 198.03C763.1 197.33 753.4 205.83 752.6 217.13ZM754.4 217.23C754.4 216.73 754.5 216.33 754.5 215.83C757.6 217.43 760.9 217.73 764.4 217.43C764.7 217.43 765 217.23 765.2 217.13C765.2 218.63 765.4 220.03 766 221.43C762.4 222.83 758.7 223.33 754.7 222.93C754.4 221.03 754.3 219.13 754.4 217.23ZM760.2 234.23C759.1 233.03 758.2 231.63 757.4 230.23C760.7 229.53 763.8 228.33 766.5 226.03C767.4 225.33 767.9 224.83 768.1 224.43C769 225.53 770.1 226.33 771.4 226.93C771.3 227.13 771.1 227.23 771 227.43C769.7 229.53 768.2 231.53 766.6 233.33C765.5 234.53 764.1 235.53 762.8 236.53C761.8 235.93 760.9 235.13 760.2 234.23ZM773.6 241.83C771.1 241.33 768.6 240.53 766.4 239.23C768.3 238.03 769.8 236.53 771.1 234.63C772.5 232.63 773.6 230.43 774.3 227.93C774.7 228.03 775.1 228.03 775.5 228.03C776.4 228.13 777.3 228.03 778.1 227.93C778 233.33 776.7 238.03 773.6 241.83ZM774.2 199.93C775.6 200.03 776.9 200.33 778.2 200.73C777.4 202.03 777 203.43 777.1 205.03C777.2 206.23 777.3 207.43 778.6 207.93C780.2 206.53 781.6 205.23 783.2 203.93C785.9 206.43 787.6 209.83 787.8 213.63C786.3 213.63 784.7 213.83 783.2 214.03C783 214.03 782.7 214.53 782.7 214.83C782.5 215.83 782.4 216.83 782.3 217.63C783.8 218.43 785.2 219.23 786.7 220.03C786 221.33 785.1 222.53 784 223.53C781.7 225.53 778.7 226.53 775.6 226.33C774.3 226.23 773.1 225.93 772 225.33C773 223.33 772.8 221.23 771.5 220.53C770.8 221.33 770.1 222.23 769.3 223.13C768.6 222.33 768.1 221.43 767.8 220.43C768.3 220.23 768.7 220.03 769.2 219.73C769.9 219.23 770.4 218.43 769.9 217.53C769 217.53 768.2 217.53 767.3 217.53C767.3 217.23 767.3 216.93 767.3 216.63C767.3 215.93 767.5 215.23 767.7 214.63C768.4 214.63 769 214.73 769.7 214.63C770.4 214.53 770.8 213.33 770.4 212.83C770.1 212.53 769.9 212.23 769.6 211.93C769.6 211.93 769.7 211.93 769.7 211.83C770.3 211.33 770.9 210.93 771.5 210.63C771.5 210.73 771.6 210.83 771.6 210.83C772 211.43 772.4 212.23 773.4 211.93C773.6 211.93 773.7 211.63 773.7 211.43C773.7 210.93 773.7 210.53 773.7 210.03C774 210.03 774.4 210.03 774.8 210.03C776.3 210.13 777.6 210.83 778.6 211.93C779.5 213.03 780 214.43 779.9 215.83C779.4 215.73 778.6 215.93 777.5 216.33C776.7 211.43 774.3 211.33 772.6 213.03C771.5 213.73 770.7 214.93 770.6 216.33C770.5 217.63 770.9 218.93 771.8 219.93C772.7 220.93 773.9 221.53 775.2 221.63C778.5 221.83 781.4 219.33 781.6 216.03C781.7 214.13 781.1 212.23 779.8 210.73C778.5 209.23 776.7 208.33 774.8 208.23C770.8 207.93 767.2 210.43 765.8 214.03C762.4 213.23 759.4 211.83 756.8 209.23C758.4 206.43 760.7 204.13 763.5 202.43C764.7 204.83 766.3 206.73 768.5 207.83C769 208.13 769.6 207.93 770.2 208.03C770.2 207.93 770.3 207.83 770.3 207.73C768.9 205.53 768.6 203.13 768.7 200.33C770.5 199.93 772.4 199.83 774.2 199.93Z" fill="#FCE6C5"/>
<path id="Leaf_3" d="M776.5 104.73C777.4 103.93 778.4 103.13 779.3 102.53C781.1 101.43 782.3 99.9299 782.4 98.8299C782.4 98.5299 782.4 98.2299 782.4 97.9299C782.4 97.3299 782.4 96.7299 782.4 96.1299C782.4 95.5299 781.9 95.1299 781.3 95.3299C779.6 95.8299 777.8 96.1299 776.1 96.6299C776.9 95.9299 775.3 96.9299 776.1 96.6299C777.8 96.0299 781.4 93.3299 781.4 92.1299C781.4 91.8299 781.4 91.5299 781.4 91.3299C781.4 90.7299 781.4 90.1299 781.3 89.5299C781.3 89.0299 780.7 88.6299 780.2 88.7299C780.2 88.7299 780.2 88.7299 780.1 88.7299C779.3 89.0299 778.7 87.9299 779.2 87.3299C779.9 86.5299 780.4 85.8299 780.4 85.4299C780.4 85.2299 780.4 85.1299 780.4 84.9299C780.4 84.4299 780.3 83.8299 780.3 83.3299C780.3 82.8299 779.8 82.5299 779.3 82.5299C778 82.7299 776.6 83.6299 775.2 83.9299C775.8 83.3299 776.3 82.7299 776.9 82.6299C778.2 82.3299 778.8 80.2299 778.7 79.0299C778.7 78.8299 778.7 78.7299 778.7 78.5299C778.6 77.7299 774.7 71.1299 773.7 71.1299C772.7 71.1299 768.8 77.8299 768.7 78.5299C768.7 78.7299 768.7 78.8299 768.7 79.0299C768.6 80.1299 769.3 82.3299 770.5 82.6299C771.1 82.7299 771.6 83.3299 772.2 83.9299C770.8 83.6299 769.5 82.7299 768.1 82.5299C767.6 82.4299 767.2 82.8299 767.1 83.3299C767.1 83.8299 767 84.4299 767 84.9299C767 85.1299 767 85.2299 767 85.4299C767 85.8299 767.5 86.5299 768.2 87.3299C768.8 87.9299 768.2 88.9299 767.3 88.7299C767.3 88.7299 767.3 88.7299 767.2 88.7299C766.7 88.5299 766.1 88.9299 766.1 89.5299C766.1 90.1299 766 90.7299 766 91.3299C766 91.6299 766 91.9299 766 92.1299C766 93.3299 769.6 96.0299 771.3 96.6299C772.1 96.9299 770.5 95.9299 771.3 96.6299C769.6 96.1299 767.8 95.8299 766.1 95.3299C765.6 95.2299 765 95.6299 765 96.1299C765 96.7299 765 97.3299 765 97.9299C765 98.2299 765 98.5299 765 98.8299C765.1 99.9299 766.3 101.53 768.1 102.53C769 103.03 770 103.93 770.9 104.73C769.2 104.03 767.5 103.33 765.7 102.23C765.1 101.83 764.3 102.33 764.4 103.03C764.5 103.63 764.5 104.13 764.6 104.73C764.7 105.23 764.8 105.83 764.8 106.33C765 107.43 766.3 109.73 768 111.53C769 112.53 770 113.43 770.9 114.13C771.1 115.03 771.3 115.63 771.5 116.53C771.1 117.63 775.6 117.63 775.2 116.53C775.4 115.63 775.6 115.03 775.8 114.13C776.8 113.43 777.7 112.53 778.7 111.53C780.4 109.73 781.7 107.43 781.9 106.33C782 105.83 782.1 105.23 782.1 104.73C782.2 104.13 782.3 103.63 782.3 103.03C782.4 102.33 781.6 101.83 781 102.23C779.9 103.23 778.2 104.03 776.5 104.73ZM774.3 113.23C774.3 113.43 774.1 113.63 773.9 113.63C773.7 113.63 773.5 113.43 773.5 113.23L773.9 78.9299C773.9 78.7299 773.7 78.9299 773.9 78.9299C774.1 78.9299 773.9 78.7299 773.9 78.9299L774.3 113.23Z" fill="#FCE6C5"/>
<g id="Trilo_3">
<g id="Group_4">
<path id="Vector_44" d="M529.8 234.03C530.5 234.03 531.3 234.03 532 234.13C531.3 236.83 530.6 238.13 529.8 238.13C529 238.13 528.2 236.83 527.6 234.13C528.3 234.03 529 234.03 529.8 234.03Z" fill="#FCE6C5"/>
<path id="Vector_45" d="M533.7 233.43C533.9 232.53 534.1 231.43 534.3 230.23C534.5 229.13 534.6 227.93 534.8 226.63C538.1 226.93 541.3 227.53 544.5 228.43C544 230.73 543.5 232.93 542.8 234.93C539.8 234.13 536.7 233.63 533.7 233.43Z" fill="#FCE6C5"/>
<path id="Vector_46" d="M524.1 218.13C524.2 220.63 524.4 223.03 524.7 225.23C521.4 225.53 518.1 226.13 514.9 227.03C514.5 224.73 514.2 222.33 514 219.93C517.3 219.13 520.7 218.43 524.1 218.13Z" fill="#FCE6C5"/>
<path id="Vector_47" d="M535.6 217.23C535.7 215.13 535.8 213.03 535.8 210.83C541.7 211.73 545.9 214.03 545.9 214.03C545.9 215.73 545.8 217.53 545.7 219.13C542.4 218.13 539 217.53 535.6 217.23Z" fill="#FCE6C5"/>
<path id="Vector_48" d="M524.8 226.63C525 227.93 525.1 229.13 525.3 230.23C525.5 231.43 525.7 232.43 525.9 233.43C522.8 233.63 519.8 234.23 516.8 235.03C516.1 233.03 515.6 230.83 515.1 228.53C518.3 227.53 521.6 226.93 524.8 226.63Z" fill="#FCE6C5"/>
<path id="Vector_49" d="M523.8 210.83C523.8 213.03 523.9 215.13 524 217.23C520.6 217.53 517.2 218.23 513.8 219.13C513.7 217.43 513.6 215.73 513.6 214.03C513.7 213.93 517.9 211.73 523.8 210.83Z" fill="#FCE6C5"/>
<path id="Vector_50" d="M534.9 225.23C535.1 223.03 535.3 220.63 535.5 218.13C538.9 218.43 542.3 219.13 545.6 220.03C545.4 222.43 545.1 224.83 544.7 227.13C541.5 226.23 538.2 225.63 534.9 225.23Z" fill="#FCE6C5"/>
<path id="Vector_51" d="M533.3 235.03C536.3 235.23 539.3 235.73 542.3 236.53C540.8 240.43 539 242.23 536.9 244.33C536.6 241.83 535 239.73 532.8 238.73C532.7 238.63 532.6 238.63 532.5 238.53C531.9 237.73 533.1 236.13 533.3 235.03Z" fill="#FCE6C5"/>
<path id="Vector_52" d="M526.3 235.03C526.4 236.13 527.7 237.73 527.2 238.53C527.1 238.63 527 238.73 526.9 238.83C524.7 239.83 523.1 241.93 522.8 244.43C520.7 242.33 518.9 240.53 517.4 236.63C520.3 235.73 523.3 235.23 526.3 235.03Z" fill="#FCE6C5"/>
<path id="Vector_53" d="M511.1 213.03C511 205.83 518.2 198.83 525.9 198.03C525.9 198.03 526 198.03 526.1 198.03C526.1 198.03 532.2 198.03 533.4 198.03C533.5 198.03 533.6 198.03 533.6 198.03C541.3 198.83 548.6 205.93 548.4 213.03C548.4 213.13 548.4 213.33 548.4 213.43C547.4 212.93 546.4 212.43 545.4 212.03C542.3 210.73 539.2 209.93 536 209.43C535.9 203.53 536.5 201.13 529.7 201.03C522.9 201.13 523.5 203.53 523.4 209.43C520.2 209.93 517.1 210.83 514 212.03C513 212.43 512 212.93 511 213.43C511.1 213.33 511.1 213.13 511.1 213.03Z" fill="#FCE6C5"/>
<path id="Vector_54" d="M525.4 216.23C525.3 214.43 525.3 212.63 525.2 210.83H534.4C534.4 212.63 534.3 214.53 534.2 216.23C532.7 216.13 531.3 216.03 529.8 216.03C528.3 216.03 526.9 216.13 525.4 216.23Z" fill="#FCE6C5"/>
<path id="Vector_55" d="M526 224.33C525.8 222.13 525.6 219.73 525.5 217.13C526.9 217.03 528.4 216.93 529.9 216.93C531.4 216.93 532.8 217.03 534.3 217.13C534.2 219.63 534 222.03 533.8 224.33C532.5 224.23 531.3 224.23 530 224.23C528.7 224.23 527.3 224.23 526 224.33Z" fill="#FCE6C5"/>
<path id="Vector_56" d="M533.4 225.63C533.1 228.23 532.8 230.53 532.4 232.43C532.2 232.43 532 232.43 531.8 232.43C531.2 232.43 530.6 232.43 530 232.43C529.9 232.43 529.9 232.43 529.8 232.43C529.7 232.43 529.7 232.43 529.6 232.43C529 232.43 528.4 232.43 527.8 232.43C527.6 232.43 527.4 232.43 527.2 232.43C526.8 230.53 526.4 228.23 526.2 225.63C527.4 225.53 528.6 225.53 529.9 225.53C531 225.53 532.2 225.63 533.4 225.63Z" fill="#FCE6C5"/>
<path id="Vector_57" d="M534.5 209.23C534.1 209.23 533.7 209.13 533.3 209.13H533.2C532.1 209.03 530.9 209.03 529.8 209.03C528.7 209.03 527.5 209.03 526.4 209.13C526.4 209.13 526.4 209.13 526.3 209.13C525.9 209.13 525.5 209.23 525.1 209.23C525.1 208.73 525.1 208.13 525.1 207.63C525.1 205.83 525.3 203.43 526.3 203.23C526.5 203.13 526.6 203.13 526.9 203.03C527.7 202.73 528.8 202.63 529.8 202.73C530.8 202.73 531.9 202.83 532.7 203.03C532.9 203.13 533.1 203.13 533.3 203.23C534.4 203.43 534.5 205.83 534.5 207.63C534.5 208.13 534.5 208.63 534.5 209.23Z" fill="#FCE6C5"/>
</g>
</g>
<path id="Shell_2" d="M511.2 90.1299C510.3 102.73 519 113.93 531 116.53V116.63C532.8 116.83 534.5 117.13 536.3 117.33C536.6 117.33 537.2 117.03 537.3 116.63C539.7 111.43 540.7 105.93 540.4 100.03C541.6 99.5299 542.8 98.7299 543.8 97.8299C546.5 95.4299 548.1 92.2299 548.4 88.6299C548.4 88.2299 548.4 87.8299 548.4 87.5299C548.4 78.9299 541.7 71.6299 533 71.0299C521.8 70.4299 512 78.9299 511.2 90.1299ZM513.1 90.3299C513.1 89.8299 513.2 89.4299 513.2 88.9299C516.3 90.5299 519.6 90.8299 523.1 90.5299C523.4 90.5299 523.7 90.3299 523.9 90.2299C523.9 91.7299 524.1 93.1299 524.7 94.5299C521.1 95.9299 517.4 96.4299 513.4 96.0299C513 94.1299 512.9 92.2299 513.1 90.3299ZM518.8 107.33C517.7 106.13 516.8 104.73 516 103.33C519.3 102.63 522.4 101.43 525.1 99.1299C526 98.4299 526.5 97.9299 526.7 97.5299C527.6 98.6299 528.7 99.4299 530 100.03C529.9 100.23 529.7 100.33 529.6 100.53C528.3 102.63 526.8 104.63 525.2 106.43C524.1 107.63 522.7 108.63 521.4 109.63C520.4 109.03 519.6 108.23 518.8 107.33ZM532.2 114.93C529.7 114.43 527.2 113.63 525 112.33C526.9 111.13 528.4 109.63 529.7 107.73C531.1 105.73 532.2 103.53 532.9 101.03C533.3 101.13 533.7 101.13 534.1 101.13C535 101.23 535.9 101.13 536.7 101.03C536.7 106.43 535.4 111.13 532.2 114.93ZM532.9 73.0299C534.3 73.1299 535.6 73.4299 536.9 73.8299C536.1 75.1299 535.7 76.5299 535.8 78.1299C535.9 79.3299 536 80.5299 537.3 81.0299C538.9 79.6299 540.3 78.3299 541.9 77.0299C544.6 79.5299 546.3 82.9299 546.5 86.7299C545 86.7299 543.4 86.9299 541.9 87.1299C541.7 87.1299 541.4 87.6299 541.4 87.9299C541.2 88.9299 541.1 89.9299 541 90.7299C542.5 91.5299 543.9 92.3299 545.4 93.1299C544.7 94.4299 543.8 95.6299 542.7 96.6299C540.4 98.6299 537.4 99.6299 534.3 99.4299C533 99.3299 531.8 99.0299 530.7 98.4299C531.7 96.4299 531.5 94.3299 530.2 93.6299C529.5 94.4299 528.8 95.3299 528 96.2299C527.3 95.4299 526.8 94.5299 526.5 93.5299C527 93.3299 527.4 93.1299 527.9 92.8299C528.6 92.3299 529.1 91.5299 528.6 90.6299C527.7 90.6299 526.9 90.6299 526 90.6299C526 90.3299 526 90.0299 526 89.7299C526 89.0299 526.2 88.3299 526.4 87.7299C527.1 87.7299 527.7 87.8299 528.4 87.7299C529.1 87.6299 529.5 86.4299 529.1 85.9299C528.8 85.6299 528.6 85.3299 528.3 85.0299C528.3 85.0299 528.4 85.0299 528.4 84.9299C529 84.4299 529.6 84.0299 530.2 83.7299C530.2 83.8299 530.3 83.9299 530.3 83.9299C530.7 84.5299 531.1 85.3299 532.1 85.0299C532.3 85.0299 532.4 84.7299 532.4 84.5299C532.4 84.0299 532.4 83.6299 532.4 83.1299C532.7 83.1299 533.1 83.1299 533.5 83.1299C535 83.2299 536.3 83.9299 537.3 85.0299C538.2 86.1299 538.7 87.5299 538.6 88.9299C538.1 88.8299 537.3 89.0299 536.2 89.4299C535.4 84.5299 533 84.4299 531.3 86.1299C530.2 86.8299 529.4 88.0299 529.3 89.4299C529.2 90.7299 529.6 92.0299 530.5 93.0299C531.4 94.0299 532.6 94.6299 533.9 94.7299C537.2 94.9299 540.1 92.4299 540.3 89.1299C540.4 87.2299 539.8 85.3299 538.5 83.8299C537.2 82.3299 535.4 81.4299 533.5 81.3299C529.5 81.0299 525.9 83.5299 524.5 87.1299C521.1 86.3299 518.1 84.9299 515.5 82.3299C517.1 79.5299 519.4 77.2299 522.2 75.5299C523.4 77.9299 525 79.8299 527.2 80.9299C527.7 81.2299 528.3 81.0299 528.9 81.1299C528.9 81.0299 529 80.9299 529 80.8299C527.6 78.6299 527.3 76.2299 527.4 73.4299C529.2 73.0299 531 72.9299 532.9 73.0299Z" fill="#FCE6C5"/>
<path id="Leaf_2" d="M653.1 231.63C654 230.83 655 230.03 655.9 229.43C657.7 228.33 658.9 226.83 659 225.73C659 225.43 659 225.13 659 224.83C659 224.23 659 223.63 659 223.03C659 222.43 658.5 222.03 657.9 222.23C656.2 222.73 654.4 223.03 652.7 223.53C653.5 222.83 651.9 223.83 652.7 223.53C654.4 222.93 658 220.23 658 219.03C658 218.73 658 218.43 658 218.23C658 217.63 658 217.03 657.9 216.43C657.9 215.93 657.3 215.53 656.8 215.63C656.8 215.63 656.8 215.63 656.7 215.63C655.9 215.93 655.3 214.83 655.8 214.23C656.5 213.43 657 212.73 657 212.33C657 212.13 657 212.03 657 211.83C657 211.33 656.9 210.73 656.9 210.23C656.9 209.73 656.4 209.43 655.9 209.43C654.6 209.63 653.2 210.53 651.8 210.83C652.4 210.23 652.9 209.63 653.5 209.53C654.8 209.23 655.4 207.13 655.3 205.93C655.3 205.73 655.3 205.63 655.3 205.43C655.2 204.63 651.3 198.03 650.3 198.03C649.3 198.03 645.4 204.73 645.3 205.43C645.3 205.63 645.3 205.73 645.3 205.93C645.2 207.03 645.9 209.23 647.1 209.53C647.7 209.63 648.2 210.23 648.8 210.83C647.4 210.53 646.1 209.63 644.7 209.43C644.2 209.33 643.8 209.73 643.7 210.23C643.7 210.73 643.6 211.33 643.6 211.83C643.6 212.03 643.6 212.13 643.6 212.33C643.6 212.73 644.1 213.43 644.8 214.23C645.4 214.83 644.8 215.83 643.9 215.63C643.9 215.63 643.9 215.63 643.8 215.63C643.3 215.43 642.7 215.83 642.7 216.43C642.7 217.03 642.6 217.63 642.6 218.23C642.6 218.53 642.6 218.83 642.6 219.03C642.6 220.23 646.2 222.93 647.9 223.53C648.7 223.83 647.1 222.83 647.9 223.53C646.2 223.03 644.4 222.73 642.7 222.23C642.2 222.13 641.6 222.53 641.6 223.03C641.6 223.63 641.6 224.23 641.6 224.83C641.6 225.13 641.6 225.43 641.6 225.73C641.7 226.83 642.9 228.43 644.7 229.43C645.6 229.93 646.6 230.83 647.5 231.63C645.8 230.93 644.1 230.23 642.3 229.13C641.7 228.73 640.9 229.23 641 229.93C641.1 230.53 641.1 231.03 641.2 231.63C641.3 232.13 641.4 232.73 641.4 233.23C641.6 234.33 642.9 236.63 644.6 238.43C645.6 239.43 646.6 240.33 647.5 241.03C647.7 241.93 647.9 242.53 648.1 243.43C647.7 244.53 652.2 244.53 651.8 243.43C652 242.53 652.2 241.93 652.4 241.03C653.4 240.33 654.3 239.43 655.3 238.43C657 236.63 658.3 234.33 658.5 233.23C658.6 232.73 658.7 232.13 658.7 231.63C658.8 231.03 658.9 230.53 658.9 229.93C659 229.23 658.2 228.73 657.6 229.13C656.6 230.13 654.8 230.93 653.1 231.63ZM650.9 240.13C650.9 240.33 650.7 240.53 650.5 240.53C650.3 240.53 650.1 240.33 650.1 240.13L650.5 205.83C650.5 205.63 650.3 205.83 650.5 205.83C650.7 205.83 650.5 205.63 650.5 205.83L650.9 240.13Z" fill="#FCE6C5"/>
</g>
<g id="BlockerTrans" opacity="0.9">
<path id="Vector_58" opacity="0.9" d="M1046.1 128.43C963.7 128.43 896.8 195.23 896.8 277.73V307.33C920.1 307.33 939 326.23 939 349.53C939 372.83 920.1 391.73 896.8 391.73V624.53H1137.9V128.53H1046.1V128.43Z" fill="#3E3A42"/>
<path id="Vector 2_2" opacity="0.9" d="M1395.4 128.43H1137.9V624.43H1395.4V128.43Z" fill="#3E3A42"/>
</g>
<g id="Eye_Array">
<g id="Eye_5">
<path id="Vector_59" d="M1084.1 223.53C1075.8 224.13 1068.8 227.03 1063.9 231.93C1059 236.83 1056.1 243.83 1055.5 252.13L1055.4 253.73L1057 253.63C1065.3 253.03 1072.3 250.13 1077.2 245.23C1082.1 240.33 1085.1 233.33 1085.6 225.03L1085.7 223.43L1084.1 223.53ZM1073.5 241.63C1071.7 243.43 1068.9 243.43 1067.1 241.63C1065.3 239.83 1065.3 237.03 1067.1 235.23C1068.9 233.43 1071.7 233.43 1073.5 235.23C1075.3 237.03 1075.3 239.93 1073.5 241.63ZM1062.6 238.03C1062.5 240.13 1063.2 242.33 1064.9 243.93C1066.8 245.83 1069.4 246.53 1071.8 246.03C1068.1 248.53 1063.6 250.13 1058.4 250.73C1058.9 245.83 1060.3 241.63 1062.6 238.03ZM1078 239.93C1078.5 237.53 1077.7 234.93 1075.9 233.03C1074.3 231.43 1072.1 230.63 1070 230.73C1073.5 228.53 1077.8 227.03 1082.7 226.53C1082.1 231.73 1080.5 236.23 1078 239.93Z" fill="#6F97E5"/>
<path id="Vector_60" d="M1070.3 236.73C1071.52 236.73 1072.5 235.745 1072.5 234.53C1072.5 233.315 1071.52 232.33 1070.3 232.33C1069.09 232.33 1068.1 233.315 1068.1 234.53C1068.1 235.745 1069.09 236.73 1070.3 236.73Z" fill="#DCDBDD"/>
</g>
<g id="Eye_4">
<path id="Vector_61" d="M1056.8 552.13C1050.5 546.63 1043.5 543.73 1036.5 543.73C1029.5 543.73 1022.5 546.63 1016.2 552.13L1015 553.13L1016.2 554.13C1022.5 559.63 1029.5 562.53 1036.5 562.53C1043.5 562.53 1050.5 559.63 1056.8 554.13L1058 553.13L1056.8 552.13ZM1036.5 557.53C1034 557.53 1032 555.53 1032 553.03C1032 550.53 1034 548.53 1036.5 548.53C1039 548.53 1041 550.53 1041 553.03C1041.1 555.43 1039 557.53 1036.5 557.53ZM1031.3 547.13C1029.7 548.53 1028.7 550.63 1028.7 552.93C1028.7 555.63 1030 557.93 1032.1 559.33C1027.7 558.53 1023.4 556.43 1019.3 553.13C1023.2 550.13 1027.3 548.13 1031.3 547.13ZM1040.9 559.43C1042.9 558.03 1044.3 555.63 1044.3 553.03C1044.3 550.73 1043.3 548.63 1041.7 547.23C1045.8 548.13 1049.8 550.13 1053.7 553.23C1049.6 556.53 1045.3 558.53 1040.9 559.43Z" fill="#6F97E5"/>
<path id="Vector_62" d="M1039.3 552.33C1040.52 552.33 1041.5 551.345 1041.5 550.13C1041.5 548.915 1040.52 547.93 1039.3 547.93C1038.08 547.93 1037.1 548.915 1037.1 550.13C1037.1 551.345 1038.08 552.33 1039.3 552.33Z" fill="#DCDBDD"/>
</g>
<g id="Eye_1">
<path id="Vector_63" d="M1082.1 372.33C1073.8 372.93 1066.8 375.83 1061.9 380.73C1057 385.63 1054.1 392.63 1053.5 400.93L1053.4 402.53L1055 402.43C1063.3 401.83 1070.3 398.93 1075.2 394.03C1080.1 389.13 1083.1 382.13 1083.6 373.83L1083.7 372.23L1082.1 372.33ZM1071.6 390.43C1069.8 392.23 1067 392.23 1065.2 390.43C1063.4 388.63 1063.4 385.83 1065.2 384.03C1067 382.23 1069.8 382.23 1071.6 384.03C1073.3 385.73 1073.3 388.63 1071.6 390.43ZM1060.6 386.73C1060.5 388.83 1061.2 391.03 1062.9 392.63C1064.8 394.53 1067.4 395.23 1069.8 394.73C1066.1 397.23 1061.6 398.83 1056.4 399.43C1056.9 394.63 1058.4 390.33 1060.6 386.73ZM1076 388.63C1076.5 386.23 1075.7 383.63 1073.9 381.73C1072.3 380.13 1070.1 379.33 1068 379.43C1071.5 377.23 1075.8 375.73 1080.7 375.23C1080.1 380.43 1078.5 384.93 1076 388.63Z" fill="#C68221"/>
<path id="Vector_64" d="M1068.3 385.43C1069.52 385.43 1070.5 384.445 1070.5 383.23C1070.5 382.015 1069.52 381.03 1068.3 381.03C1067.09 381.03 1066.1 382.015 1066.1 383.23C1066.1 384.445 1067.09 385.43 1068.3 385.43Z" fill="#DCDBDD"/>
</g>
<g id="Eye_2">
<path id="Vector_65" d="M1087.9 325.43C1087.3 317.13 1084.4 310.13 1079.5 305.23C1074.6 300.33 1067.6 297.43 1059.3 296.83L1057.7 296.73L1057.8 298.33C1058.4 306.63 1061.3 313.63 1066.2 318.53C1071.1 323.43 1078.1 326.43 1086.4 326.93L1088 327.03L1087.9 325.43ZM1069.8 314.83C1068 313.03 1068 310.23 1069.8 308.43C1071.6 306.63 1074.4 306.63 1076.2 308.43C1078 310.23 1078 313.03 1076.2 314.83C1074.4 316.63 1071.5 316.63 1069.8 314.83ZM1073.4 303.93C1071.3 303.83 1069.1 304.53 1067.5 306.23C1065.6 308.13 1064.9 310.73 1065.4 313.13C1062.9 309.43 1061.3 304.93 1060.7 299.73C1065.6 300.23 1069.9 301.63 1073.4 303.93ZM1071.5 319.33C1073.9 319.83 1076.5 319.03 1078.4 317.23C1080 315.63 1080.8 313.43 1080.7 311.33C1082.9 314.83 1084.4 319.13 1084.9 324.03C1079.7 323.43 1075.2 321.83 1071.5 319.33Z" fill="#709885"/>
<path id="Vector_66" d="M1076.9 313.73C1078.11 313.73 1079.1 312.745 1079.1 311.53C1079.1 310.315 1078.11 309.33 1076.9 309.33C1075.68 309.33 1074.7 310.315 1074.7 311.53C1074.7 312.745 1075.68 313.73 1076.9 313.73Z" fill="#DCDBDD"/>
</g>
<g id="Eye_3">
<path id="Vector_67" d="M1056.7 445.33C1057.3 453.63 1060.2 460.63 1065.1 465.53C1070 470.43 1077 473.33 1085.3 473.93L1086.9 474.03L1086.8 472.43C1086.2 464.13 1083.3 457.13 1078.4 452.23C1073.5 447.33 1066.5 444.33 1058.2 443.83L1056.6 443.73L1056.7 445.33ZM1074.8 455.93C1076.6 457.73 1076.6 460.53 1074.8 462.33C1073 464.13 1070.2 464.13 1068.4 462.33C1066.6 460.53 1066.6 457.73 1068.4 455.93C1070.2 454.13 1073 454.13 1074.8 455.93ZM1071.2 466.93C1073.3 467.03 1075.5 466.33 1077.1 464.63C1079 462.73 1079.7 460.13 1079.2 457.73C1081.7 461.43 1083.3 465.93 1083.9 471.13C1079 470.53 1074.7 469.13 1071.2 466.93ZM1073 451.43C1070.6 450.93 1068 451.73 1066.1 453.53C1064.5 455.13 1063.7 457.33 1063.8 459.43C1061.6 455.93 1060.1 451.63 1059.6 446.73C1064.9 447.33 1069.4 448.93 1073 451.43Z" fill="#709885"/>
<path id="Vector_68" d="M1067.7 461.43C1068.92 461.43 1069.9 460.445 1069.9 459.23C1069.9 458.015 1068.92 457.03 1067.7 457.03C1066.49 457.03 1065.5 458.015 1065.5 459.23C1065.5 460.445 1066.49 461.43 1067.7 461.43Z" fill="#DCDBDD"/>
</g>
<g id="Eye_6">
<path id="Vector_69" d="M1012.6 446.33C1004.3 446.93 997.3 449.83 992.4 454.73C987.5 459.63 984.6 466.63 984 474.93L983.9 476.53L985.5 476.43C993.8 475.83 1000.8 472.93 1005.7 468.03C1010.6 463.13 1013.6 456.13 1014.1 447.83L1014.2 446.23L1012.6 446.33ZM1002 464.43C1000.2 466.23 997.4 466.23 995.6 464.43C993.8 462.63 993.8 459.83 995.6 458.03C997.4 456.23 1000.2 456.23 1002 458.03C1003.8 459.73 1003.8 462.63 1002 464.43ZM991.1 460.73C991 462.83 991.7 465.03 993.4 466.63C995.3 468.53 997.9 469.23 1000.3 468.73C996.6 471.23 992.1 472.83 986.9 473.43C987.4 468.63 988.8 464.33 991.1 460.73ZM1006.5 462.63C1007 460.23 1006.2 457.63 1004.4 455.73C1002.8 454.13 1000.6 453.33 998.5 453.43C1002 451.23 1006.3 449.73 1011.2 449.23C1010.6 454.43 1009 458.93 1006.5 462.63Z" fill="#C68221"/>
<path id="Vector_70" d="M998.7 459.43C999.915 459.43 1000.9 458.445 1000.9 457.23C1000.9 456.015 999.915 455.03 998.7 455.03C997.485 455.03 996.5 456.015 996.5 457.23C996.5 458.445 997.485 459.43 998.7 459.43Z" fill="#DCDBDD"/>
</g>
<g id="Eye_7">
<path id="Vector_71" d="M1196.3 421.53C1190 416.03 1183 413.13 1176 413.13C1169 413.13 1162 416.03 1155.7 421.53L1154.5 422.53L1155.7 423.53C1162 429.03 1169 431.93 1176 431.93C1183 431.93 1190 429.03 1196.3 423.53L1197.5 422.53L1196.3 421.53ZM1176 426.93C1173.5 426.93 1171.5 424.93 1171.5 422.43C1171.5 419.93 1173.5 417.93 1176 417.93C1178.5 417.93 1180.5 419.93 1180.5 422.43C1180.6 424.83 1178.5 426.93 1176 426.93ZM1170.8 416.53C1169.2 417.93 1168.2 420.03 1168.2 422.33C1168.2 425.03 1169.5 427.33 1171.6 428.73C1167.2 427.93 1162.9 425.83 1158.8 422.53C1162.7 419.53 1166.8 417.53 1170.8 416.53ZM1180.4 428.83C1182.4 427.43 1183.8 425.03 1183.8 422.43C1183.8 420.13 1182.8 418.03 1181.2 416.63C1185.3 417.53 1189.3 419.53 1193.2 422.63C1189.1 425.93 1184.8 427.93 1180.4 428.83Z" fill="#C68221"/>
<path id="Vector_72" d="M1178.8 421.73C1180.02 421.73 1181 420.745 1181 419.53C1181 418.315 1180.02 417.33 1178.8 417.33C1177.58 417.33 1176.6 418.315 1176.6 419.53C1176.6 420.745 1177.58 421.73 1178.8 421.73Z" fill="#DCDBDD"/>
</g>
<g id="Eye_8">
<path id="Vector_73" d="M1196.3 273.53C1190 268.03 1183 265.13 1176 265.13C1169 265.13 1162 268.03 1155.7 273.53L1154.5 274.53L1155.7 275.53C1162 281.03 1169 283.93 1176 283.93C1183 283.93 1190 281.03 1196.3 275.53L1197.5 274.53L1196.3 273.53ZM1176 278.93C1173.5 278.93 1171.5 276.93 1171.5 274.43C1171.5 271.93 1173.5 269.93 1176 269.93C1178.5 269.93 1180.5 271.93 1180.5 274.43C1180.6 276.83 1178.5 278.93 1176 278.93ZM1170.8 268.53C1169.2 269.93 1168.2 272.03 1168.2 274.33C1168.2 277.03 1169.5 279.33 1171.6 280.73C1167.2 279.93 1162.9 277.83 1158.8 274.53C1162.7 271.53 1166.8 269.53 1170.8 268.53ZM1180.4 280.83C1182.4 279.43 1183.8 277.03 1183.8 274.43C1183.8 272.13 1182.8 270.03 1181.2 268.63C1185.3 269.53 1189.3 271.53 1193.2 274.63C1189.1 277.93 1184.8 279.93 1180.4 280.83Z" fill="#ADC2EA"/>
<path id="Vector_74" d="M1178.8 273.73C1180.02 273.73 1181 272.745 1181 271.53C1181 270.315 1180.02 269.33 1178.8 269.33C1177.58 269.33 1176.6 270.315 1176.6 271.53C1176.6 272.745 1177.58 273.73 1178.8 273.73Z" fill="#DCDBDD"/>
</g>
<g id="Eye_10">
<path id="Vector_75" d="M1270.3 372.33C1278.6 372.93 1285.6 375.83 1290.5 380.73C1295.4 385.63 1298.3 392.63 1298.9 400.93L1299 402.53L1297.4 402.43C1289.1 401.83 1282.1 398.93 1277.2 394.03C1272.3 389.13 1269.3 382.13 1268.8 373.83L1268.7 372.23L1270.3 372.33ZM1280.8 390.43C1282.6 392.23 1285.4 392.23 1287.2 390.43C1289 388.63 1289 385.83 1287.2 384.03C1285.4 382.23 1282.6 382.23 1280.8 384.03C1279.1 385.73 1279.1 388.63 1280.8 390.43ZM1291.8 386.73C1291.9 388.83 1291.2 391.03 1289.5 392.63C1287.6 394.53 1285 395.23 1282.6 394.73C1286.3 397.23 1290.8 398.83 1296 399.43C1295.5 394.63 1294 390.33 1291.8 386.73ZM1276.4 388.63C1275.9 386.23 1276.7 383.63 1278.5 381.73C1280.1 380.13 1282.3 379.33 1284.4 379.43C1280.9 377.23 1276.6 375.73 1271.7 375.23C1272.3 380.43 1273.9 384.93 1276.4 388.63Z" fill="#6F97E5"/>
<path id="Vector_76" d="M1284.1 385.43C1282.89 385.43 1281.9 384.445 1281.9 383.23C1281.9 382.015 1282.89 381.03 1284.1 381.03C1285.32 381.03 1286.3 382.015 1286.3 383.23C1286.3 384.445 1285.32 385.43 1284.1 385.43Z" fill="#DCDBDD"/>
</g>
<g id="Eye_11">
<path id="Vector_77" d="M1264.5 325.43C1265.1 317.13 1268 310.13 1272.9 305.23C1277.8 300.33 1284.8 297.43 1293.1 296.83L1294.7 296.73L1294.6 298.33C1294 306.63 1291.1 313.63 1286.2 318.53C1281.3 323.43 1274.3 326.43 1266 326.93L1264.4 327.03L1264.5 325.43ZM1282.6 314.83C1284.4 313.03 1284.4 310.23 1282.6 308.43C1280.8 306.63 1278 306.63 1276.2 308.43C1274.4 310.23 1274.4 313.03 1276.2 314.83C1278 316.63 1280.9 316.63 1282.6 314.83ZM1279 303.93C1281.1 303.83 1283.3 304.53 1284.9 306.23C1286.8 308.13 1287.5 310.73 1287 313.13C1289.5 309.43 1291.1 304.93 1291.7 299.73C1286.8 300.23 1282.5 301.63 1279 303.93ZM1280.9 319.33C1278.5 319.83 1275.9 319.03 1274 317.23C1272.4 315.63 1271.6 313.43 1271.7 311.33C1269.5 314.83 1268 319.13 1267.5 324.03C1272.7 323.43 1277.2 321.83 1280.9 319.33Z" fill="#C68221"/>
<path id="Vector_78" d="M1275.5 313.73C1274.29 313.73 1273.3 312.745 1273.3 311.53C1273.3 310.315 1274.29 309.33 1275.5 309.33C1276.72 309.33 1277.7 310.315 1277.7 311.53C1277.7 312.745 1276.72 313.73 1275.5 313.73Z" fill="#DCDBDD"/>
</g>
<g id="Eye_12">
<path id="Vector_79" d="M1268.3 223.53C1276.6 224.13 1283.6 227.03 1288.5 231.93C1293.4 236.83 1296.3 243.83 1296.9 252.13L1297 253.73L1295.4 253.63C1287.1 253.03 1280.1 250.13 1275.2 245.23C1270.3 240.33 1267.3 233.33 1266.8 225.03L1266.7 223.43L1268.3 223.53ZM1278.9 241.63C1280.7 243.43 1283.5 243.43 1285.3 241.63C1287.1 239.83 1287.1 237.03 1285.3 235.23C1283.5 233.43 1280.7 233.43 1278.9 235.23C1277.1 237.03 1277.1 239.93 1278.9 241.63ZM1289.8 238.03C1289.9 240.13 1289.2 242.33 1287.5 243.93C1285.6 245.83 1283 246.53 1280.6 246.03C1284.3 248.53 1288.8 250.13 1294 250.73C1293.5 245.83 1292.1 241.63 1289.8 238.03ZM1274.4 239.93C1273.9 237.53 1274.7 234.93 1276.5 233.03C1278.1 231.43 1280.3 230.63 1282.4 230.73C1278.9 228.53 1274.6 227.03 1269.7 226.53C1270.3 231.73 1271.9 236.23 1274.4 239.93Z" fill="#709885"/>
<path id="Vector_80" d="M1282.1 236.73C1280.89 236.73 1279.9 235.745 1279.9 234.53C1279.9 233.315 1280.89 232.33 1282.1 232.33C1283.32 232.33 1284.3 233.315 1284.3 234.53C1284.3 235.745 1283.32 236.73 1282.1 236.73Z" fill="#DCDBDD"/>
</g>
<g id="Eye_13">
<path id="Vector_81" d="M1295.7 445.33C1295.1 453.63 1292.2 460.63 1287.3 465.53C1282.4 470.43 1275.4 473.33 1267.1 473.93L1265.5 474.03L1265.6 472.43C1266.2 464.13 1269.1 457.13 1274 452.23C1278.9 447.33 1285.9 444.33 1294.2 443.83L1295.8 443.73L1295.7 445.33ZM1277.6 455.93C1275.8 457.73 1275.8 460.53 1277.6 462.33C1279.4 464.13 1282.2 464.13 1284 462.33C1285.8 460.53 1285.8 457.73 1284 455.93C1282.2 454.13 1279.4 454.13 1277.6 455.93ZM1281.2 466.93C1279.1 467.03 1276.9 466.33 1275.3 464.63C1273.4 462.73 1272.7 460.13 1273.2 457.73C1270.7 461.43 1269.1 465.93 1268.5 471.13C1273.4 470.53 1277.7 469.13 1281.2 466.93ZM1279.4 451.43C1281.8 450.93 1284.4 451.73 1286.3 453.53C1287.9 455.13 1288.7 457.33 1288.6 459.43C1290.8 455.93 1292.3 451.63 1292.8 446.73C1287.5 447.33 1283 448.93 1279.4 451.43Z" fill="#709885"/>
<path id="Vector_82" d="M1284.7 461.43C1283.49 461.43 1282.5 460.445 1282.5 459.23C1282.5 458.015 1283.49 457.03 1284.7 457.03C1285.92 457.03 1286.9 458.015 1286.9 459.23C1286.9 460.445 1285.92 461.43 1284.7 461.43Z" fill="#DCDBDD"/>
</g>
<g id="Eye_14">
<path id="Vector_83" d="M1295.6 552.13C1301.9 546.63 1308.9 543.73 1315.9 543.73C1322.9 543.73 1329.9 546.63 1336.2 552.13L1337.4 553.13L1336.2 554.13C1329.9 559.63 1322.9 562.53 1315.9 562.53C1308.9 562.53 1301.9 559.63 1295.6 554.13L1294.4 553.13L1295.6 552.13ZM1315.9 557.53C1318.4 557.53 1320.4 555.53 1320.4 553.03C1320.4 550.53 1318.4 548.53 1315.9 548.53C1313.4 548.53 1311.4 550.53 1311.4 553.03C1311.3 555.43 1313.4 557.53 1315.9 557.53ZM1321.1 547.13C1322.7 548.53 1323.7 550.63 1323.7 552.93C1323.7 555.63 1322.4 557.93 1320.3 559.33C1324.7 558.53 1329 556.43 1333.1 553.13C1329.2 550.13 1325.1 548.13 1321.1 547.13ZM1311.5 559.43C1309.5 558.03 1308.1 555.63 1308.1 553.03C1308.1 550.73 1309.1 548.63 1310.7 547.23C1306.6 548.13 1302.6 550.13 1298.7 553.23C1302.8 556.53 1307.1 558.53 1311.5 559.43Z" fill="#ADC2EA"/>
<path id="Vector_84" d="M1313.1 552.33C1311.88 552.33 1310.9 551.345 1310.9 550.13C1310.9 548.915 1311.88 547.93 1313.1 547.93C1314.32 547.93 1315.3 548.915 1315.3 550.13C1315.3 551.345 1314.32 552.33 1313.1 552.33Z" fill="#DCDBDD"/>
</g>
<g id="Eye_15">
<path id="Vector_85" d="M1339.8 446.33C1348.1 446.93 1355.1 449.83 1360 454.73C1364.9 459.63 1367.8 466.63 1368.4 474.93L1368.5 476.53L1366.9 476.43C1358.6 475.83 1351.6 472.93 1346.7 468.03C1341.8 463.13 1338.8 456.13 1338.3 447.83L1338.2 446.23L1339.8 446.33ZM1350.4 464.43C1352.2 466.23 1355 466.23 1356.8 464.43C1358.6 462.63 1358.6 459.83 1356.8 458.03C1355 456.23 1352.2 456.23 1350.4 458.03C1348.6 459.73 1348.6 462.63 1350.4 464.43ZM1361.3 460.73C1361.4 462.83 1360.7 465.03 1359 466.63C1357.1 468.53 1354.5 469.23 1352.1 468.73C1355.8 471.23 1360.3 472.83 1365.5 473.43C1365 468.63 1363.6 464.33 1361.3 460.73ZM1345.9 462.63C1345.4 460.23 1346.2 457.63 1348 455.73C1349.6 454.13 1351.8 453.33 1353.9 453.43C1350.4 451.23 1346.1 449.73 1341.2 449.23C1341.8 454.43 1343.4 458.93 1345.9 462.63Z" fill="#CE9440"/>
<path id="Vector_86" d="M1353.7 459.43C1352.49 459.43 1351.5 458.445 1351.5 457.23C1351.5 456.015 1352.49 455.03 1353.7 455.03C1354.92 455.03 1355.9 456.015 1355.9 457.23C1355.9 458.445 1354.92 459.43 1353.7 459.43Z" fill="#DCDBDD"/>
</g>
<path id="Beam_1" d="M1061 323.03L1060.5 322.53C1059.7 321.73 1058.3 321.73 1057.4 322.53L1034.1 345.83C1033.7 346.23 1033.1 346.43 1032.6 346.43H944.3V351.43H1032.6C1033.2 351.43 1033.7 351.63 1034.1 352.03L1057.4 375.33C1058.2 376.13 1059.6 376.13 1060.5 375.33L1061 374.83C1061.8 374.03 1061.8 372.63 1061 371.73L1039.5 350.53C1038.7 349.73 1038.7 348.33 1039.5 347.43L1060.9 326.03C1061.8 325.23 1061.8 323.83 1061 323.03Z" fill="url(#paint0_linear)"/>
<path id="Beam_2" d="M1081.7 247.93L1082.2 247.43C1083 246.63 1084.4 246.63 1085.3 247.43L1108.6 270.73C1109 271.13 1109.6 271.33 1110.1 271.33H1146.9V276.33H1110.1C1109.5 276.33 1109 276.53 1108.6 276.93L1085.3 300.23C1084.5 301.03 1083.1 301.03 1082.2 300.23L1081.7 299.73C1080.9 298.93 1080.9 297.53 1081.7 296.63L1103.1 275.23C1103.9 274.43 1103.9 273.03 1103.1 272.13L1081.7 250.73C1080.9 250.13 1080.9 248.73 1081.7 247.93Z" fill="#FCE6C3"/>
<path id="Beam_3" d="M1081.7 396.43L1082.2 395.93C1083 395.13 1084.4 395.13 1085.3 395.93L1108.6 419.23C1109 419.63 1109.6 419.83 1110.1 419.83H1146.9V424.83H1110.1C1109.5 424.83 1109 425.03 1108.6 425.43L1085.3 448.73C1084.5 449.53 1083.1 449.53 1082.2 448.73L1081.7 448.23C1080.9 447.43 1080.9 446.03 1081.7 445.13L1103.1 423.73C1103.9 422.93 1103.9 421.53 1103.1 420.63L1081.7 399.23C1080.9 398.63 1080.9 397.33 1081.7 396.43Z" fill="#FCE6C3"/>
<path id="Beam_4" d="M1062 471.73L1062.5 472.23C1063.3 473.03 1063.3 474.43 1062.5 475.33L1039.2 498.63C1038.8 499.03 1038.6 499.63 1038.6 500.13V536.93H1033.6V500.13C1033.6 499.53 1033.4 499.03 1033 498.63L1009.5 475.23C1008.7 474.43 1008.7 473.03 1009.5 472.13L1010 471.63C1010.8 470.83 1012.2 470.83 1013.1 471.63L1034.5 493.13C1035.3 493.93 1036.7 493.93 1037.6 493.13L1059 471.73C1059.8 470.93 1061.1 470.93 1062 471.73Z" fill="#FCE6C3"/>
<path id="Beam_5" d="M1270.7 247.93L1270.2 247.43C1269.4 246.63 1268 246.63 1267.1 247.43L1243.8 270.73C1243.4 271.13 1242.8 271.33 1242.3 271.33H1205.5V276.33H1242.3C1242.9 276.33 1243.4 276.53 1243.8 276.93L1267.1 300.23C1267.9 301.03 1269.3 301.03 1270.2 300.23L1270.7 299.73C1271.5 298.93 1271.5 297.53 1270.7 296.63L1249.3 275.23C1248.5 274.43 1248.5 273.03 1249.3 272.13L1270.7 250.73C1271.5 250.13 1271.5 248.73 1270.7 247.93Z" fill="#FCE6C3"/>
<path id="Beam_6" d="M1270.7 396.43L1270.2 395.93C1269.4 395.13 1268 395.13 1267.1 395.93L1243.8 419.23C1243.4 419.63 1242.8 419.83 1242.3 419.83H1205.5V424.83H1242.3C1242.9 424.83 1243.4 425.03 1243.8 425.43L1267.1 448.73C1267.9 449.53 1269.3 449.53 1270.2 448.73L1270.7 448.23C1271.5 447.43 1271.5 446.03 1270.7 445.13L1249.3 423.73C1248.5 422.93 1248.5 421.53 1249.3 420.63L1270.7 399.23C1271.5 398.63 1271.5 397.33 1270.7 396.43Z" fill="#FCE6C3"/>
<path id="Beam_7" d="M1290.4 471.73L1289.9 472.23C1289.1 473.03 1289.1 474.43 1289.9 475.33L1313.2 498.63C1313.6 499.03 1313.8 499.63 1313.8 500.13V536.93H1318.8V500.13C1318.8 499.53 1319 499.03 1319.4 498.63L1342.9 475.23C1343.7 474.43 1343.7 473.03 1342.9 472.13L1342.4 471.63C1341.6 470.83 1340.2 470.83 1339.3 471.63L1317.9 493.13C1317.1 493.93 1315.7 493.93 1314.8 493.13L1293.4 471.73C1292.6 470.93 1291.3 470.93 1290.4 471.73Z" fill="#FCE6C3"/>
<path id="Beam_8" d="M1291.4 323.03L1291.9 322.53C1292.7 321.73 1294.1 321.73 1295 322.53L1318.3 345.83C1318.7 346.23 1319.3 346.43 1319.8 346.43H1408.1V351.43H1319.8C1319.2 351.43 1318.7 351.63 1318.3 352.03L1295 375.33C1294.2 376.13 1292.8 376.13 1291.9 375.33L1291.4 374.83C1290.6 374.03 1290.6 372.63 1291.4 371.73L1312.9 350.53C1313.7 349.73 1313.7 348.33 1312.9 347.43L1291.5 326.03C1290.6 325.23 1290.6 323.83 1291.4 323.03Z" fill="url(#paint1_linear)"/>
</g>
</g>
<defs>
<linearGradient id="paint0_linear" x1="944.284" y1="349.027" x2="1061.6" y2="349.027" gradientUnits="userSpaceOnUse">
<stop stop-color="#FCE6C3" stop-opacity="0"/>
<stop offset="1" stop-color="#FCE6C3"/>
</linearGradient>
<linearGradient id="paint1_linear" x1="1408.12" y1="349.027" x2="1290.8" y2="349.027" gradientUnits="userSpaceOnUse">
<stop stop-color="#FCE6C3" stop-opacity="0"/>
<stop offset="1" stop-color="#FCE6C3"/>
</linearGradient>
</defs>
</svg>
