<?xml version="1.0" encoding="utf-8"?>
<!-- Generator: Adobe Illustrator 24.3.0, SVG Export Plug-In . SVG Version: 6.00 Build 0)  -->
<svg version="1.1" id="Layer_1" xmlns="http://www.w3.org/2000/svg" xmlns:xlink="http://www.w3.org/1999/xlink" x="0px" y="0px"
	 viewBox="0 0 595.3 568.5" style="enable-background:new 0 0 595.3 568.5;" xml:space="preserve">
<style type="text/css">
	.st0{fill:#FCE6C5;}
</style>
<g>
	<g>
		<path class="st0" d="M480.8,362.8c0.7,0,1.5,0,2.2,0.1c-0.7,2.7-1.4,4-2.2,4c-0.8,0-1.6-1.3-2.2-4
			C479.3,362.8,480,362.8,480.8,362.8z"/>
		<path class="st0" d="M484.7,362.2c0.2-0.9,0.4-2,0.6-3.2c0.2-1.1,0.3-2.3,0.5-3.6c0,0,0,0,0,0l0,0c3.3,0.3,6.5,0.9,9.7,1.8
			c-0.5,2.3-1,4.5-1.7,6.5c0,0,0,0,0,0c0,0,0,0,0,0C490.8,362.9,487.7,362.4,484.7,362.2z"/>
		<path class="st0" d="M475,346.9C475,346.9,475,346.9,475,346.9c0.1,2.5,0.3,4.9,0.6,7.1c-3.3,0.3-6.6,0.9-9.8,1.8c0,0,0,0,0,0
			c0,0,0,0,0,0c-0.4-2.3-0.7-4.7-0.9-7.1C468.3,347.9,471.6,347.2,475,346.9L475,346.9z"/>
		<path class="st0" d="M486.6,346c0.1-2.1,0.2-4.2,0.2-6.4l0,0c0,0,0,0,0,0v0c5.9,0.9,10.1,3.2,10.1,3.2c0,1.7-0.1,3.5-0.2,5.1
			c0,0,0,0,0,0c0,0,0,0,0,0C493.4,347,490,346.3,486.6,346z"/>
		<path class="st0" d="M475.8,355.4C475.8,355.4,475.8,355.4,475.8,355.4c0.2,1.3,0.3,2.5,0.5,3.6c0.2,1.2,0.4,2.2,0.6,3.2
			c-3.1,0.2-6.1,0.8-9.1,1.6c0,0,0,0,0,0c0,0,0,0,0,0c-0.7-2-1.2-4.2-1.7-6.5C469.3,356.3,472.5,355.7,475.8,355.4L475.8,355.4z"/>
		<path class="st0" d="M474.8,339.6C474.8,339.6,474.8,339.6,474.8,339.6L474.8,339.6c0,2.2,0.1,4.3,0.2,6.4
			c-3.4,0.3-6.8,1-10.2,1.9c0,0,0,0,0,0c0,0,0,0,0,0c-0.1-1.7-0.2-3.4-0.2-5.1C464.7,342.7,468.9,340.5,474.8,339.6L474.8,339.6z"/>
		<path class="st0" d="M485.9,354.1c0.2-2.2,0.4-4.6,0.6-7.1c0,0,0,0,0,0l0,0c3.4,0.3,6.8,1,10.1,1.9c-0.2,2.4-0.5,4.8-0.9,7.1
			c0,0,0,0,0,0c0,0,0,0,0,0C492.5,355,489.2,354.4,485.9,354.1z"/>
		<path class="st0" d="M484.3,363.8C484.3,363.8,484.3,363.8,484.3,363.8L484.3,363.8c3,0.2,6,0.7,9,1.5c-1.5,3.9-3.3,5.7-5.4,7.8
			c0,0,0,0,0,0c0,0,0,0,0,0c-0.3-2.5-1.9-4.6-4.1-5.6c-0.1-0.1-0.2-0.1-0.3-0.2c0,0,0,0,0,0C482.9,366.5,484.1,364.9,484.3,363.8z"
			/>
		<path class="st0" d="M477.3,363.8C477.3,363.8,477.3,363.8,477.3,363.8c0.1,1.1,1.4,2.7,0.9,3.5c0,0,0,0,0,0
			c-0.1,0.1-0.2,0.2-0.3,0.3c-2.2,1-3.8,3.1-4.1,5.6c0,0,0,0,0,0c0,0,0,0,0,0c-2.1-2.1-3.9-3.9-5.4-7.8
			C471.3,364.5,474.3,364,477.3,363.8L477.3,363.8z"/>
		<path class="st0" d="M462.1,341.8c-0.1-7.2,7.1-14.2,14.8-15c0,0,0.1,0,0.2,0c0,0,6.1,0,7.3,0c0.1,0,0.2,0,0.2,0
			c7.7,0.8,15,7.9,14.8,15c0,0.1,0,0.3,0,0.4c0,0,0,0,0,0c0,0,0,0,0,0c-1-0.5-2-1-3-1.4c-3.1-1.3-6.2-2.1-9.4-2.6c0,0,0,0,0,0
			c0,0,0,0,0,0c0,0,0,0,0,0c-0.1-5.9,0.5-8.3-6.3-8.4c-6.8,0.1-6.2,2.5-6.3,8.4c0,0,0,0,0,0c0,0,0,0,0,0c0,0,0,0,0,0
			c-3.2,0.5-6.3,1.4-9.4,2.6c-1,0.4-2,0.9-3,1.4c0,0,0,0,0,0c0,0,0,0,0,0C462.1,342.1,462.1,341.9,462.1,341.8z"/>
		<path class="st0" d="M476.4,345C476.4,345,476.4,345,476.4,345c-0.1-1.8-0.1-3.6-0.2-5.4h0h9.2h0c0,1.8-0.1,3.7-0.2,5.4
			c0,0,0,0,0,0l0,0c-1.5-0.1-2.9-0.2-4.4-0.2C479.3,344.8,477.8,344.9,476.4,345L476.4,345z"/>
		<path class="st0" d="M477,353.1C477,353.1,477,353.1,477,353.1c-0.2-2.2-0.4-4.6-0.5-7.2c1.4-0.1,2.9-0.2,4.4-0.2
			c1.5,0,2.9,0.1,4.4,0.2c-0.1,2.5-0.3,4.9-0.5,7.2c0,0,0,0,0,0l0,0c-1.3-0.1-2.5-0.1-3.8-0.1C479.5,352.9,478.2,353,477,353.1
			L477,353.1z"/>
		<path class="st0" d="M484.4,354.4c-0.3,2.6-0.6,4.9-1,6.8c0,0,0,0,0,0l0,0c-0.2,0-0.4,0-0.6,0c-0.6,0-1.2,0-1.8,0
			c-0.1,0-0.1,0-0.2,0c-0.1,0-0.1,0-0.2,0c-0.6,0-1.2,0-1.8,0c-0.2,0-0.4,0-0.6,0l0,0c0,0,0,0,0,0c-0.4-1.9-0.8-4.2-1-6.8
			c1.2-0.1,2.4-0.1,3.7-0.1C482,354.3,483.2,354.4,484.4,354.4z"/>
		<path class="st0" d="M485.5,338C485.5,338,485.5,338,485.5,338L485.5,338c-0.4,0-0.8-0.1-1.2-0.1c0,0-0.1,0-0.1,0
			c-1.1-0.1-2.3-0.1-3.4-0.1c-1.1,0-2.3,0-3.4,0.1c0,0,0,0-0.1,0c-0.4,0-0.8,0.1-1.2,0.1v0c0,0,0,0,0,0c0-0.5,0-1.1,0-1.6
			c0-1.8,0.2-4.2,1.2-4.4c0.2-0.1,0.3-0.1,0.6-0.2c0.8-0.3,1.9-0.4,2.9-0.3c1,0,2.1,0.1,2.9,0.3c0.2,0.1,0.4,0.1,0.6,0.2
			c1.1,0.2,1.2,2.6,1.2,4.4C485.5,336.9,485.5,337.4,485.5,338z"/>
	</g>
</g>
<path class="st0" d="M483.4,474.8c0-0.6,0.5-1.2,1.2-1.1c3.5,0.2,5.8,0.7,9.5,1.6c0.1-0.3,0.1-0.6,0.2-0.9c-3.8-0.9-6.2-1.4-9.9-1.6
	c-0.6,0-1.1-0.5-1.1-1.1v0c0-0.6,0.5-1.2,1.2-1.1c1.6,0.1,3.1,0.2,4.6,0.5c0,0,6.6-0.4,4.8-7.7c-1.4-2.8-3.4-5.4-5.7-7.1l2.7,6.5
	c0.6,1.5-0.3,3.1-2.1,3.6l-2.5-11.3c-1.4-0.8-3-1.2-4.6-1.2c-8.1,0-14.7,11.2-14.7,19h0c3.9-1.3,7.9-2,11.9-2.2
	c0.6,0,1.2,0.5,1.2,1.1v0c0,0.6-0.5,1.1-1.1,1.1c-3.9,0.2-7.8,0.7-11.6,1.6c0.1,0.3,0.1,0.6,0.2,0.9c3.7-0.9,7.5-1.4,11.3-1.6
	c0.6,0,1.2,0.5,1.2,1.1v0.5c0,0.6-0.5,1.1-1.1,1.1c-3.9,0.2-7.8,0.7-11.6,1.6c0.1,0.3,0.1,0.6,0.2,0.9c3.7-0.9,7.5-1.4,11.3-1.6
	c0.6,0,1.2,0.5,1.2,1.1v0.1c0,0.6-0.5,1.1-1.1,1.1c-2.8,0.1-7,0.5-9.4,0.9c0.1,0.5,0.2,0.9,0.2,1.4c2.3-0.4,6.3-0.8,9-0.9
	c0.6,0,1.2,0.5,1.2,1.1v0c0,0.6-0.5,1.1-1.1,1.1c-2.4,0.1-4.8,0.4-7.2,0.8c0.1,0.5,0.2,0.9,0.2,1.4c2.3-0.4,4.6-0.7,6.9-0.8
	c0.6,0,1.2,0.5,1.2,1.1v0.9v1.1c-2.1,1.6-4.2,3.2-6.3,4.8c-1.1,0.9-1.2,2.5-0.2,3.5l0,0c2.2-2.4,4.3-4.9,6.5-7.3v0.3
	c-1.5,3.1-3,6.2-4.6,9.3c0.7,0.4,1.3,0.7,2,1c0.9-2.9,1.8-5.7,2.6-8.6c0.3,0,0.7,0,1.1,0c-0.2,3.1-0.5,6.2-0.7,9.3
	c0.7,0.1,1.4,0.1,2.1,0c-0.2-3.1-0.5-6.2-0.7-9.3c0.4,0,0.8,0,1.1,0c0.9,2.9,1.8,5.7,2.6,8.6c0.7-0.3,1.3-0.6,2-1
	c-1.5-3.1-3-6.2-4.6-9.3v-0.3c2.2,2.4,4.3,4.9,6.5,7.3c0,0,0,0,0,0c1-1,0.9-2.6-0.2-3.5c-2.1-1.6-4.2-3.2-6.3-4.8v-1.1l0-0.9
	c0-0.6,0.5-1.2,1.2-1.1c1.8,0.1,2.8,0.4,5,0.8c0.1-0.5,0.2-0.9,0.2-1.4c-2.4-0.4-3.4-0.7-5.4-0.8c-0.6,0-1.1-0.5-1.1-1.1l0,0
	c0-0.7,0.6-1.2,1.2-1.1c2.2,0.1,4.1,0.5,6.4,0.9c0.1-0.5,0.2-0.9,0.2-1.4c-2.4-0.4-4.5-0.8-6.8-0.9c-0.6,0-1.1-0.5-1.1-1.1v-0.1
	c0-0.6,0.5-1.2,1.2-1.1c3.5,0.2,5.8,0.7,9.5,1.6c0.1-0.3,0.1-0.6,0.2-0.9c-3.8-0.9-6.2-1.4-9.9-1.6c-0.6,0-1.1-0.5-1.1-1.1V474.8z
	 M481.9,456.1c5.6,0,0,9.4,0,9.4l-2.1,0.7c-4.2,1.4-7.5-3.8-4.4-6.9C477.3,457.3,479.5,456.1,481.9,456.1z"/>
<path class="st0" d="M243.7,347.9c0-0.6,0.5-1.2,1.2-1.1c3.5,0.2,5.8,0.7,9.5,1.6c0.1-0.3,0.1-0.6,0.2-0.9c-3.8-0.9-6.2-1.4-9.9-1.6
	c-0.6,0-1.1-0.5-1.1-1.1v0c0-0.6,0.5-1.2,1.2-1.1c1.6,0.1,3.1,0.2,4.6,0.5c0,0,6.6-0.4,4.8-7.7c-1.4-2.8-3.4-5.4-5.7-7.1l2.7,6.5
	c0.6,1.5-0.3,3.1-2.1,3.6l-2.5-11.3c-1.4-0.8-3-1.2-4.6-1.2c-8.1,0-14.7,11.2-14.7,19h0c3.9-1.3,7.9-2,11.9-2.2
	c0.6,0,1.2,0.5,1.2,1.1v0c0,0.6-0.5,1.1-1.1,1.1c-3.9,0.2-7.8,0.7-11.6,1.6c0.1,0.3,0.1,0.6,0.2,0.9c3.7-0.9,7.5-1.4,11.3-1.6
	c0.6,0,1.2,0.5,1.2,1.1v0.5c0,0.6-0.5,1.1-1.1,1.1c-3.9,0.2-7.8,0.7-11.6,1.6c0.1,0.3,0.1,0.6,0.2,0.9c3.7-0.9,7.5-1.4,11.3-1.6
	c0.6,0,1.2,0.5,1.2,1.1v0.1c0,0.6-0.5,1.1-1.1,1.1c-2.8,0.1-7,0.5-9.4,0.9c0.1,0.5,0.2,0.9,0.2,1.4c2.3-0.4,6.3-0.8,9-0.9
	c0.6,0,1.2,0.5,1.2,1.1v0c0,0.6-0.5,1.1-1.1,1.1c-2.4,0.1-4.8,0.4-7.2,0.8c0.1,0.5,0.2,0.9,0.2,1.4c2.3-0.4,4.6-0.7,6.9-0.8
	c0.6,0,1.2,0.5,1.2,1.1v0.9v1.1c-2.1,1.6-4.2,3.2-6.3,4.8c-1.1,0.9-1.2,2.5-0.2,3.5l0,0c2.2-2.4,4.3-4.9,6.5-7.3v0.3
	c-1.5,3.1-3,6.2-4.6,9.3c0.7,0.4,1.3,0.7,2,1c0.9-2.9,1.8-5.7,2.6-8.6c0.3,0,0.7,0,1.1,0c-0.2,3.1-0.5,6.2-0.7,9.3
	c0.7,0.1,1.4,0.1,2.1,0c-0.2-3.1-0.5-6.2-0.7-9.3c0.4,0,0.8,0,1.1,0c0.9,2.9,1.8,5.7,2.6,8.6c0.7-0.3,1.3-0.6,2-1
	c-1.5-3.1-3-6.2-4.6-9.3v-0.3c2.2,2.4,4.3,4.9,6.5,7.3c0,0,0,0,0,0c1-1,0.9-2.6-0.2-3.5c-2.1-1.6-4.2-3.2-6.3-4.8v-1.1v-0.9
	c0-0.6,0.5-1.2,1.2-1.1c1.8,0.1,2.8,0.4,5,0.8c0.1-0.5,0.2-0.9,0.2-1.4c-2.4-0.4-3.4-0.7-5.4-0.8c-0.6,0-1.1-0.5-1.1-1.1l0,0
	c0-0.7,0.6-1.2,1.2-1.1c2.2,0.1,4.1,0.5,6.4,0.9c0.1-0.5,0.2-0.9,0.2-1.4c-2.4-0.4-4.5-0.8-6.8-0.9c-0.6,0-1.1-0.5-1.1-1.1v-0.1
	c0-0.6,0.5-1.2,1.2-1.1c3.5,0.2,5.8,0.7,9.5,1.6c0.1-0.3,0.1-0.6,0.2-0.9c-3.8-0.9-6.2-1.4-9.9-1.6c-0.6,0-1.1-0.5-1.1-1.1V347.9z
	 M242.2,329.2c5.6,0,0,9.4,0,9.4l-2.1,0.7c-4.2,1.4-7.5-3.8-4.4-6.9C237.6,330.4,239.9,329.2,242.2,329.2z"/>
<path class="st0" d="M340.3,472.8c-0.9,12.6,7.8,23.8,19.8,26.4c0,0,0,0.1,0,0.1c1.8,0.2,3.5,0.5,5.3,0.7c0.3,0,0.9-0.3,1-0.7
	c2.4-5.2,3.4-10.7,3.1-16.6c1.2-0.5,2.4-1.3,3.4-2.2c2.7-2.4,4.3-5.6,4.6-9.2c0-0.4,0-0.8,0-1.1c0-8.6-6.7-15.9-15.4-16.5
	C350.8,453,341.1,461.5,340.3,472.8z M342.1,472.9c0-0.5,0.1-0.9,0.1-1.4c3.1,1.6,6.4,1.9,9.9,1.6c0.3,0,0.6-0.2,0.8-0.3
	c0,1.5,0.2,2.9,0.8,4.3c-3.6,1.4-7.3,1.9-11.3,1.5C342.1,476.7,342,474.8,342.1,472.9z M347.9,489.9c-1.1-1.2-2-2.6-2.8-4
	c3.3-0.7,6.4-1.9,9.1-4.2c0.9-0.7,1.4-1.2,1.6-1.6c0.9,1.1,2,1.9,3.3,2.5c-0.1,0.2-0.3,0.3-0.4,0.5c-1.3,2.1-2.8,4.1-4.4,5.9
	c-1.1,1.2-2.5,2.2-3.8,3.2C349.5,491.6,348.6,490.8,347.9,489.9z M361.3,497.6c-2.5-0.5-5-1.3-7.2-2.6c1.9-1.2,3.4-2.7,4.7-4.6
	c1.4-2,2.5-4.2,3.2-6.7c0.4,0.1,0.8,0.1,1.2,0.1c0.9,0.1,1.8,0,2.6-0.1C365.7,489,364.5,493.7,361.3,497.6z M362,455.6
	c1.4,0.1,2.7,0.4,4,0.8c-0.8,1.3-1.2,2.7-1.1,4.3c0.1,1.2,0.2,2.4,1.5,2.9c1.6-1.4,3-2.7,4.6-4c2.7,2.5,4.4,5.9,4.6,9.7
	c-1.5,0-3.1,0.2-4.6,0.4c-0.2,0-0.5,0.5-0.5,0.8c-0.2,1-0.3,2-0.4,2.8c1.5,0.8,2.9,1.6,4.4,2.4c-0.7,1.3-1.6,2.5-2.7,3.5
	c-2.3,2-5.3,3-8.4,2.8c-1.3-0.1-2.5-0.4-3.6-1c1-2,0.8-4.1-0.5-4.8c-0.7,0.8-1.4,1.7-2.2,2.6c-0.7-0.8-1.2-1.7-1.5-2.7
	c0.5-0.2,0.9-0.4,1.4-0.7c0.7-0.5,1.2-1.3,0.7-2.2c-0.9,0-1.7,0-2.6,0c0-0.3,0-0.6,0-0.9c0-0.7,0.2-1.4,0.4-2c0.7,0,1.3,0.1,2,0
	c0.7-0.1,1.1-1.3,0.7-1.8c-0.3-0.3-0.5-0.6-0.8-0.9c0,0,0.1,0,0.1-0.1c0.6-0.5,1.2-0.9,1.8-1.2c0,0.1,0.1,0.2,0.1,0.2
	c0.4,0.6,0.8,1.4,1.8,1.1c0.2,0,0.3-0.3,0.3-0.5c0-0.5,0-0.9,0-1.4c0.3,0,0.7,0,1.1,0c1.5,0.1,2.8,0.8,3.8,1.9
	c0.9,1.1,1.4,2.5,1.3,3.9c-0.5-0.1-1.3,0.1-2.4,0.5c-0.8-4.9-3.2-5-4.9-3.3c-1.1,0.7-1.9,1.9-2,3.3c-0.1,1.3,0.3,2.6,1.2,3.6
	c0.9,1,2.1,1.6,3.4,1.7c3.3,0.2,6.2-2.3,6.4-5.6c0.1-1.9-0.5-3.8-1.8-5.3c-1.3-1.5-3.1-2.4-5-2.5c-4-0.3-7.6,2.2-9,5.8
	c-3.4-0.8-6.4-2.2-9-4.8c1.6-2.8,3.9-5.1,6.7-6.8c1.2,2.4,2.8,4.3,5,5.4c0.5,0.3,1.1,0.1,1.7,0.2c0-0.1,0.1-0.2,0.1-0.3
	c-1.4-2.2-1.7-4.6-1.6-7.4C358.3,455.6,360.1,455.5,362,455.6z"/>
<path class="st0" d="M361,360.4c0.9-0.8,1.9-1.6,2.8-2.2c1.8-1.1,3-2.6,3.1-3.7c0-0.3,0-0.6,0-0.9c0-0.6,0-1.2,0-1.8
	c0-0.6-0.5-1-1.1-0.8c-1.7,0.5-3.5,0.8-5.2,1.3c0.8-0.7-0.8,0.3,0,0c1.7-0.6,5.3-3.3,5.3-4.5c0-0.3,0-0.6,0-0.8c0-0.6,0-1.2-0.1-1.8
	c0-0.5-0.6-0.9-1.1-0.8c0,0,0,0-0.1,0c-0.8,0.3-1.4-0.8-0.9-1.4c0.7-0.8,1.2-1.5,1.2-1.9c0-0.2,0-0.3,0-0.5c0-0.5-0.1-1.1-0.1-1.6
	c0-0.5-0.5-0.8-1-0.8c-1.3,0.2-2.7,1.1-4.1,1.4c0.6-0.6,1.1-1.2,1.7-1.3c1.3-0.3,1.9-2.4,1.8-3.6c0-0.2,0-0.3,0-0.5
	c-0.1-0.8-4-7.4-5-7.4c-1,0-4.9,6.7-5,7.4c0,0.2,0,0.3,0,0.5c-0.1,1.1,0.6,3.3,1.8,3.6c0.6,0.1,1.1,0.7,1.7,1.3
	c-1.4-0.3-2.7-1.2-4.1-1.4c-0.5-0.1-0.9,0.3-1,0.8c0,0.5-0.1,1.1-0.1,1.6c0,0.2,0,0.3,0,0.5c0,0.4,0.5,1.1,1.2,1.9
	c0.6,0.6,0,1.6-0.9,1.4c0,0,0,0-0.1,0c-0.5-0.2-1.1,0.2-1.1,0.8c0,0.6-0.1,1.2-0.1,1.8c0,0.3,0,0.6,0,0.8c0,1.2,3.6,3.9,5.3,4.5
	c0.8,0.3-0.8-0.7,0,0c-1.7-0.5-3.5-0.8-5.2-1.3c-0.5-0.1-1.1,0.3-1.1,0.8c0,0.6,0,1.2,0,1.8c0,0.3,0,0.6,0,0.9
	c0.1,1.1,1.3,2.7,3.1,3.7c0.9,0.5,1.9,1.4,2.8,2.2c-1.7-0.7-3.4-1.4-5.2-2.5c-0.6-0.4-1.4,0.1-1.3,0.8c0.1,0.6,0.1,1.1,0.2,1.7
	c0.1,0.5,0.2,1.1,0.2,1.6c0.2,1.1,1.5,3.4,3.2,5.2c1,1,2,1.9,2.9,2.6c0.2,0.9,0.4,1.5,0.6,2.4c-0.4,1.1,4.1,1.1,3.7,0
	c0.2-0.9,0.4-1.5,0.6-2.4c1-0.7,1.9-1.6,2.9-2.6c1.7-1.8,3-4.1,3.2-5.2c0.1-0.5,0.2-1.1,0.2-1.6c0.1-0.6,0.2-1.1,0.2-1.7
	c0.1-0.7-0.7-1.2-1.3-0.8C364.4,358.9,362.7,359.7,361,360.4z M358.8,368.9c0,0.2-0.2,0.4-0.4,0.4c-0.2,0-0.4-0.2-0.4-0.4l0.4-34.3
	c0-0.2-0.2,0,0,0c0.2,0,0-0.2,0,0L358.8,368.9z"/>
<g>
	<g>
		<path class="st0" d="M231.8,489.7c0.7,0,1.5,0,2.2,0.1c-0.7,2.7-1.4,4-2.2,4c-0.8,0-1.6-1.3-2.2-4
			C230.3,489.7,231.1,489.7,231.8,489.7z"/>
		<path class="st0" d="M235.7,489.1c0.2-0.9,0.4-2,0.6-3.2c0.2-1.1,0.3-2.3,0.5-3.6c0,0,0,0,0,0v0c3.3,0.3,6.5,0.9,9.7,1.8
			c-0.5,2.3-1,4.5-1.7,6.5c0,0,0,0,0,0c0,0,0,0,0,0C241.8,489.8,238.7,489.3,235.7,489.1z"/>
		<path class="st0" d="M226.1,473.8C226.1,473.8,226.1,473.8,226.1,473.8c0.1,2.5,0.3,4.9,0.6,7.1c-3.3,0.3-6.6,0.9-9.8,1.8
			c0,0,0,0,0,0c0,0,0,0,0,0c-0.4-2.3-0.7-4.7-0.9-7.1C219.3,474.8,222.7,474.1,226.1,473.8L226.1,473.8z"/>
		<path class="st0" d="M237.6,472.9c0.1-2.1,0.2-4.2,0.2-6.4l0,0c0,0,0,0,0,0v0c5.9,0.9,10.1,3.2,10.1,3.2c0,1.7-0.1,3.5-0.2,5.1
			c0,0,0,0,0,0c0,0,0,0,0,0C244.4,473.9,241,473.2,237.6,472.9z"/>
		<path class="st0" d="M226.8,482.3C226.8,482.3,226.8,482.3,226.8,482.3c0.2,1.3,0.3,2.5,0.5,3.6c0.2,1.2,0.4,2.2,0.6,3.2
			c-3.1,0.2-6.1,0.8-9.1,1.6c0,0,0,0,0,0c0,0,0,0,0,0c-0.7-2-1.2-4.2-1.7-6.5C220.3,483.2,223.6,482.6,226.8,482.3L226.8,482.3z"/>
		<path class="st0" d="M225.8,466.5C225.8,466.5,225.8,466.5,225.8,466.5L225.8,466.5c0,2.2,0.1,4.3,0.2,6.4
			c-3.4,0.3-6.8,1-10.2,1.9c0,0,0,0,0,0c0,0,0,0,0,0c-0.1-1.7-0.2-3.4-0.2-5.1C215.7,469.6,219.9,467.4,225.8,466.5L225.8,466.5z"/>
		<path class="st0" d="M236.9,481c0.2-2.2,0.4-4.6,0.6-7.1c0,0,0,0,0,0v0c3.4,0.3,6.8,1,10.1,1.9c-0.2,2.4-0.5,4.8-0.9,7.1
			c0,0,0,0,0,0c0,0,0,0,0,0C243.5,481.9,240.2,481.3,236.9,481z"/>
		<path class="st0" d="M235.3,490.7C235.3,490.7,235.3,490.7,235.3,490.7L235.3,490.7c3,0.2,6,0.7,9,1.5c-1.5,3.9-3.3,5.7-5.4,7.8
			c0,0,0,0,0,0c0,0,0,0,0,0c-0.3-2.5-1.9-4.6-4.1-5.6c-0.1-0.1-0.2-0.1-0.3-0.2c0,0,0,0,0,0C233.9,493.4,235.2,491.9,235.3,490.7z"
			/>
		<path class="st0" d="M228.3,490.7C228.3,490.7,228.3,490.7,228.3,490.7c0.1,1.1,1.4,2.7,0.9,3.5c0,0,0,0,0,0
			c-0.1,0.1-0.2,0.2-0.3,0.3c-2.2,1-3.8,3.1-4.1,5.6c0,0,0,0,0,0c0,0,0,0,0,0c-2.1-2.1-3.9-3.9-5.4-7.8
			C222.3,491.4,225.3,490.9,228.3,490.7L228.3,490.7z"/>
		<path class="st0" d="M213.1,468.7c-0.1-7.2,7.1-14.2,14.8-15c0,0,0.1,0,0.2,0c0,0,6.1,0,7.3,0c0.1,0,0.2,0,0.2,0
			c7.7,0.8,15,7.9,14.8,15c0,0.1,0,0.3,0,0.4c0,0,0,0,0,0c0,0,0,0,0,0c-1-0.5-2-1-3-1.4c-3.1-1.3-6.2-2.1-9.4-2.6c0,0,0,0,0,0
			c0,0,0,0,0,0c0,0,0,0,0,0c-0.1-5.9,0.5-8.3-6.3-8.4c-6.8,0.1-6.2,2.5-6.3,8.4c0,0,0,0,0,0c0,0,0,0,0,0c0,0,0,0,0,0
			c-3.2,0.5-6.3,1.4-9.4,2.6c-1,0.4-2,0.9-3,1.4c0,0,0,0,0,0c0,0,0,0,0,0C213.1,469,213.1,468.8,213.1,468.7z"/>
		<path class="st0" d="M227.4,471.9C227.4,471.9,227.4,471.9,227.4,471.9c-0.1-1.8-0.1-3.6-0.2-5.4h0h9.2h0c0,1.8-0.1,3.7-0.2,5.4
			c0,0,0,0,0,0v0c-1.5-0.1-2.9-0.2-4.4-0.2S228.9,471.8,227.4,471.9L227.4,471.9z"/>
		<path class="st0" d="M228,480C228,480,228,480,228,480c-0.2-2.2-0.4-4.6-0.5-7.2c1.4-0.1,2.9-0.2,4.4-0.2c1.5,0,2.9,0.1,4.4,0.2
			c-0.1,2.5-0.3,4.9-0.5,7.2c0,0,0,0,0,0v0c-1.3-0.1-2.5-0.1-3.8-0.1C230.5,479.8,229.3,479.9,228,480L228,480z"/>
		<path class="st0" d="M235.5,481.4c-0.3,2.6-0.6,4.9-1,6.8c0,0,0,0,0,0l0,0c-0.2,0-0.4,0-0.6,0c-0.6,0-1.2,0-1.8,0
			c-0.1,0-0.1,0-0.2,0s-0.1,0-0.2,0c-0.6,0-1.2,0-1.8,0c-0.2,0-0.4,0-0.6,0l0,0c0,0,0,0,0,0c-0.4-1.9-0.8-4.2-1-6.8
			c1.2-0.1,2.4-0.1,3.7-0.1C233,481.2,234.2,481.3,235.5,481.4z"/>
		<path class="st0" d="M236.5,464.9C236.5,464.9,236.5,464.9,236.5,464.9L236.5,464.9c-0.4,0-0.8-0.1-1.2-0.1c0,0-0.1,0-0.1,0
			c-1.1-0.1-2.3-0.1-3.4-0.1c-1.1,0-2.3,0-3.4,0.1c0,0,0,0-0.1,0c-0.4,0-0.8,0.1-1.2,0.1v0c0,0,0,0,0,0c0-0.5,0-1.1,0-1.6
			c0-1.8,0.2-4.2,1.2-4.4c0.2-0.1,0.3-0.1,0.6-0.2c0.8-0.3,1.9-0.4,2.9-0.3c1,0,2.1,0.1,2.9,0.3c0.2,0.1,0.4,0.1,0.6,0.2
			c1.1,0.2,1.2,2.6,1.2,4.4C236.5,463.8,236.5,464.3,236.5,464.9z"/>
	</g>
</g>
<path class="st0" d="M95.7,345.9c-0.9,12.6,7.8,23.8,19.8,26.4c0,0,0,0.1,0,0.1c1.8,0.2,3.5,0.5,5.3,0.7c0.3,0,0.9-0.3,1-0.7
	c2.4-5.2,3.4-10.7,3.1-16.6c1.2-0.5,2.4-1.3,3.4-2.2c2.7-2.4,4.3-5.6,4.6-9.2c0-0.4,0-0.8,0-1.1c0-8.6-6.7-15.9-15.4-16.5
	C106.3,326.1,96.5,334.6,95.7,345.9z M97.6,346c0-0.5,0.1-0.9,0.1-1.4c3.1,1.6,6.4,1.9,9.9,1.6c0.3,0,0.6-0.2,0.8-0.3
	c0,1.5,0.2,2.9,0.8,4.3c-3.6,1.4-7.3,1.9-11.3,1.5C97.5,349.8,97.4,347.9,97.6,346z M103.3,363c-1.1-1.2-2-2.6-2.8-4
	c3.3-0.7,6.4-1.9,9.1-4.2c0.9-0.7,1.4-1.2,1.6-1.6c0.9,1.1,2,1.9,3.3,2.5c-0.1,0.2-0.3,0.3-0.4,0.5c-1.3,2.1-2.8,4.1-4.4,5.9
	c-1.1,1.2-2.5,2.2-3.8,3.2C104.9,364.7,104.1,363.9,103.3,363z M116.7,370.7c-2.5-0.5-5-1.3-7.2-2.6c1.9-1.2,3.4-2.7,4.7-4.6
	c1.4-2,2.5-4.2,3.2-6.7c0.4,0.1,0.8,0.1,1.2,0.1c0.9,0.1,1.8,0,2.6-0.1C121.2,362.1,119.9,366.8,116.7,370.7z M117.4,328.7
	c1.4,0.1,2.7,0.4,4,0.8c-0.8,1.3-1.2,2.7-1.1,4.3c0.1,1.2,0.2,2.4,1.5,2.9c1.6-1.4,3-2.7,4.6-4c2.7,2.5,4.4,5.9,4.6,9.7
	c-1.5,0-3.1,0.2-4.6,0.4c-0.2,0-0.5,0.5-0.5,0.8c-0.2,1-0.3,2-0.4,2.8c1.5,0.8,2.9,1.6,4.4,2.4c-0.7,1.3-1.6,2.5-2.7,3.5
	c-2.3,2-5.3,3-8.4,2.8c-1.3-0.1-2.5-0.4-3.6-1c1-2,0.8-4.1-0.5-4.8c-0.7,0.8-1.4,1.7-2.2,2.6c-0.7-0.8-1.2-1.7-1.5-2.7
	c0.5-0.2,0.9-0.4,1.4-0.7c0.7-0.5,1.2-1.3,0.7-2.2c-0.9,0-1.7,0-2.6,0c0-0.3,0-0.6,0-0.9c0-0.7,0.2-1.4,0.4-2c0.7,0,1.3,0.1,2,0
	c0.7-0.1,1.1-1.3,0.7-1.8c-0.3-0.3-0.5-0.6-0.8-0.9c0,0,0.1,0,0.1-0.1c0.6-0.5,1.2-0.9,1.8-1.2c0,0.1,0.1,0.2,0.1,0.2
	c0.4,0.6,0.8,1.4,1.8,1.1c0.2,0,0.3-0.3,0.3-0.5c0-0.5,0-0.9,0-1.4c0.3,0,0.7,0,1.1,0c1.5,0.1,2.8,0.8,3.8,1.9
	c0.9,1.1,1.4,2.5,1.3,3.9c-0.5-0.1-1.3,0.1-2.4,0.5c-0.8-4.9-3.2-5-4.9-3.3c-1.1,0.7-1.9,1.9-2,3.3c-0.1,1.3,0.3,2.6,1.2,3.6
	c0.9,1,2.1,1.6,3.4,1.7c3.3,0.2,6.2-2.3,6.4-5.6c0.1-1.9-0.5-3.8-1.8-5.3c-1.3-1.5-3.1-2.4-5-2.5c-4-0.3-7.6,2.2-9,5.8
	c-3.4-0.8-6.4-2.2-9-4.8c1.6-2.8,3.9-5.1,6.7-6.8c1.2,2.4,2.8,4.3,5,5.4c0.5,0.3,1.1,0.1,1.7,0.2c0-0.1,0.1-0.2,0.1-0.3
	c-1.4-2.2-1.7-4.6-1.6-7.4C113.7,328.7,115.5,328.6,117.4,328.7z"/>
<path class="st0" d="M116.9,487.3c0.9-0.8,1.9-1.6,2.8-2.2c1.8-1.1,3-2.6,3.1-3.7c0-0.3,0-0.6,0-0.9c0-0.6,0-1.2,0-1.8
	c0-0.6-0.5-1-1.1-0.8c-1.7,0.5-3.5,0.8-5.2,1.3c0.8-0.7-0.8,0.3,0,0c1.7-0.6,5.3-3.3,5.3-4.5c0-0.3,0-0.6,0-0.8c0-0.6,0-1.2-0.1-1.8
	c0-0.5-0.6-0.9-1.1-0.8c0,0,0,0-0.1,0c-0.8,0.3-1.4-0.8-0.9-1.4c0.7-0.8,1.2-1.5,1.2-1.9c0-0.2,0-0.3,0-0.5c0-0.5-0.1-1.1-0.1-1.6
	c0-0.5-0.5-0.8-1-0.8c-1.3,0.2-2.7,1.1-4.1,1.4c0.6-0.6,1.1-1.2,1.7-1.3c1.3-0.3,1.9-2.4,1.8-3.6c0-0.2,0-0.3,0-0.5
	c-0.1-0.8-4-7.4-5-7.4c-1,0-4.9,6.7-5,7.4c0,0.2,0,0.3,0,0.5c-0.1,1.1,0.6,3.3,1.8,3.6c0.6,0.1,1.1,0.7,1.7,1.3
	c-1.4-0.3-2.7-1.2-4.1-1.4c-0.5-0.1-0.9,0.3-1,0.8c0,0.5-0.1,1.1-0.1,1.6c0,0.2,0,0.3,0,0.5c0,0.4,0.5,1.1,1.2,1.9
	c0.6,0.6,0,1.6-0.9,1.4c0,0,0,0-0.1,0c-0.5-0.2-1.1,0.2-1.1,0.8c0,0.6-0.1,1.2-0.1,1.8c0,0.3,0,0.6,0,0.8c0,1.2,3.6,3.9,5.3,4.5
	c0.8,0.3-0.8-0.7,0,0c-1.7-0.5-3.5-0.8-5.2-1.3c-0.5-0.1-1.1,0.3-1.1,0.8c0,0.6,0,1.2,0,1.8c0,0.3,0,0.6,0,0.9
	c0.1,1.1,1.3,2.7,3.1,3.7c0.9,0.5,1.9,1.4,2.8,2.2c-1.7-0.7-3.4-1.4-5.2-2.5c-0.6-0.4-1.4,0.1-1.3,0.8c0.1,0.6,0.1,1.1,0.2,1.7
	c0.1,0.5,0.2,1,0.2,1.6c0.2,1.1,1.5,3.4,3.2,5.2c1,1,2,1.9,2.9,2.6c0.2,0.9,0.4,1.5,0.6,2.4c-0.4,1.1,4.1,1.1,3.7,0
	c0.2-0.9,0.4-1.5,0.6-2.4c1-0.7,1.9-1.6,2.9-2.6c1.7-1.8,3-4.1,3.2-5.2c0.1-0.5,0.2-1.1,0.2-1.6c0.1-0.6,0.2-1.1,0.2-1.7
	c0.1-0.7-0.7-1.2-1.3-0.8C120.3,485.8,118.6,486.6,116.9,487.3z M114.7,495.8c0,0.2-0.2,0.4-0.4,0.4s-0.4-0.2-0.4-0.4l0.4-34.3
	c0-0.2-0.2,0,0,0c0.2,0,0-0.2,0,0L114.7,495.8z"/>
<g>
	<g>
		<path class="st0" d="M480.8,109c0.7,0,1.5,0,2.2,0.1c-0.7,2.7-1.4,4-2.2,4c-0.8,0-1.6-1.3-2.2-4C479.3,109,480,109,480.8,109z"/>
		<path class="st0" d="M484.7,108.4c0.2-0.9,0.4-2,0.6-3.2c0.2-1.1,0.3-2.3,0.5-3.6c0,0,0,0,0,0v0c3.3,0.3,6.5,0.9,9.7,1.8
			c-0.5,2.3-1,4.5-1.7,6.5c0,0,0,0,0,0c0,0,0,0,0,0C490.8,109.1,487.7,108.6,484.7,108.4z"/>
		<path class="st0" d="M475,93.1C475,93.1,475,93.1,475,93.1c0.1,2.5,0.3,4.9,0.6,7.1c-3.3,0.3-6.6,0.9-9.8,1.8c0,0,0,0,0,0
			c0,0,0,0,0,0c-0.4-2.3-0.7-4.7-0.9-7.1C468.3,94.1,471.6,93.4,475,93.1L475,93.1z"/>
		<path class="st0" d="M486.6,92.2c0.1-2.1,0.2-4.2,0.2-6.4l0,0c0,0,0,0,0,0v0c5.9,0.9,10.1,3.2,10.1,3.2c0,1.7-0.1,3.5-0.2,5.1
			c0,0,0,0,0,0c0,0,0,0,0,0C493.4,93.1,490,92.5,486.6,92.2z"/>
		<path class="st0" d="M475.8,101.6C475.8,101.6,475.8,101.6,475.8,101.6c0.2,1.3,0.3,2.5,0.5,3.6c0.2,1.2,0.4,2.2,0.6,3.2
			c-3.1,0.2-6.1,0.8-9.1,1.6c0,0,0,0,0,0c0,0,0,0,0,0c-0.7-2-1.2-4.2-1.7-6.5C469.3,102.5,472.5,101.9,475.8,101.6L475.8,101.6z"/>
		<path class="st0" d="M474.8,85.8C474.8,85.8,474.8,85.8,474.8,85.8L474.8,85.8c0,2.2,0.1,4.3,0.2,6.4c-3.4,0.3-6.8,1-10.2,1.9
			c0,0,0,0,0,0c0,0,0,0,0,0c-0.1-1.7-0.2-3.4-0.2-5.1C464.7,88.9,468.9,86.6,474.8,85.8L474.8,85.8z"/>
		<path class="st0" d="M485.9,100.2c0.2-2.2,0.4-4.6,0.6-7.1c0,0,0,0,0,0v0c3.4,0.3,6.8,1,10.1,1.9c-0.2,2.4-0.5,4.8-0.9,7.1
			c0,0,0,0,0,0c0,0,0,0,0,0C492.5,101.2,489.2,100.6,485.9,100.2z"/>
		<path class="st0" d="M484.3,110C484.3,110,484.3,110,484.3,110L484.3,110c3,0.2,6,0.7,9,1.5c-1.5,3.9-3.3,5.7-5.4,7.8c0,0,0,0,0,0
			c0,0,0,0,0,0c-0.3-2.5-1.9-4.6-4.1-5.6c-0.1-0.1-0.2-0.1-0.3-0.2c0,0,0,0,0,0C482.9,112.7,484.1,111.1,484.3,110z"/>
		<path class="st0" d="M477.3,110C477.3,110,477.3,110,477.3,110c0.1,1.1,1.4,2.7,0.9,3.5c0,0,0,0,0,0c-0.1,0.1-0.2,0.2-0.3,0.3
			c-2.2,1-3.8,3.1-4.1,5.6c0,0,0,0,0,0c0,0,0,0,0,0c-2.1-2.1-3.9-3.9-5.4-7.8C471.3,110.7,474.3,110.2,477.3,110L477.3,110z"/>
		<path class="st0" d="M462.1,88c-0.1-7.2,7.1-14.2,14.8-15c0,0,0.1,0,0.2,0c0,0,6.1,0,7.3,0c0.1,0,0.2,0,0.2,0
			c7.7,0.8,15,7.9,14.8,15c0,0.1,0,0.3,0,0.4c0,0,0,0,0,0c0,0,0,0,0,0c-1-0.5-2-1-3-1.4c-3.1-1.3-6.2-2.1-9.4-2.6c0,0,0,0,0,0
			c0,0,0,0,0,0c0,0,0,0,0,0c-0.1-5.9,0.5-8.3-6.3-8.4c-6.8,0.1-6.2,2.5-6.3,8.4c0,0,0,0,0,0c0,0,0,0,0,0c0,0,0,0,0,0
			c-3.2,0.5-6.3,1.4-9.4,2.6c-1,0.4-2,0.9-3,1.4c0,0,0,0,0,0c0,0,0,0,0,0C462.1,88.2,462.1,88.1,462.1,88z"/>
		<path class="st0" d="M476.4,91.2C476.4,91.2,476.4,91.2,476.4,91.2c-0.1-1.8-0.1-3.6-0.2-5.4h0h9.2h0c0,1.8-0.1,3.7-0.2,5.4
			c0,0,0,0,0,0v0c-1.5-0.1-2.9-0.2-4.4-0.2C479.3,91,477.8,91.1,476.4,91.2L476.4,91.2z"/>
		<path class="st0" d="M477,99.3C477,99.3,477,99.3,477,99.3c-0.2-2.2-0.4-4.6-0.5-7.2c1.4-0.1,2.9-0.2,4.4-0.2
			c1.5,0,2.9,0.1,4.4,0.2c-0.1,2.5-0.3,4.9-0.5,7.2c0,0,0,0,0,0v0c-1.3-0.1-2.5-0.1-3.8-0.1C479.5,99.1,478.2,99.2,477,99.3
			L477,99.3z"/>
		<path class="st0" d="M484.4,100.6c-0.3,2.6-0.6,4.9-1,6.8c0,0,0,0,0,0l0,0c-0.2,0-0.4,0-0.6,0c-0.6,0-1.2,0-1.8,0
			c-0.1,0-0.1,0-0.2,0c-0.1,0-0.1,0-0.2,0c-0.6,0-1.2,0-1.8,0c-0.2,0-0.4,0-0.6,0l0,0c0,0,0,0,0,0c-0.4-1.9-0.8-4.2-1-6.8
			c1.2-0.1,2.4-0.1,3.7-0.1C482,100.5,483.2,100.5,484.4,100.6z"/>
		<path class="st0" d="M485.5,84.1C485.5,84.1,485.5,84.1,485.5,84.1L485.5,84.1c-0.4,0-0.8-0.1-1.2-0.1c0,0-0.1,0-0.1,0
			c-1.1-0.1-2.3-0.1-3.4-0.1c-1.1,0-2.3,0-3.4,0.1c0,0,0,0-0.1,0c-0.4,0-0.8,0.1-1.2,0.1v0c0,0,0,0,0,0c0-0.5,0-1.1,0-1.6
			c0-1.8,0.2-4.2,1.2-4.4c0.2-0.1,0.3-0.1,0.6-0.2c0.8-0.3,1.9-0.4,2.9-0.3c1,0,2.1,0.1,2.9,0.3c0.2,0.1,0.4,0.1,0.6,0.2
			c1.1,0.2,1.2,2.6,1.2,4.4C485.5,83.1,485.5,83.6,485.5,84.1z"/>
	</g>
</g>
<path class="st0" d="M483.4,221c0-0.6,0.5-1.2,1.2-1.1c3.5,0.2,5.8,0.7,9.5,1.6c0.1-0.3,0.1-0.6,0.2-0.9c-3.8-0.9-6.2-1.4-9.9-1.6
	c-0.6,0-1.1-0.5-1.1-1.1v0c0-0.6,0.5-1.2,1.2-1.1c1.6,0.1,3.1,0.2,4.6,0.5c0,0,6.6-0.4,4.8-7.7c-1.4-2.8-3.4-5.4-5.7-7.1l2.7,6.5
	c0.6,1.5-0.3,3.1-2.1,3.6l-2.5-11.3c-1.4-0.8-3-1.2-4.6-1.2c-8.1,0-14.7,11.2-14.7,19h0c3.9-1.3,7.9-2,11.9-2.2
	c0.6,0,1.2,0.5,1.2,1.1v0c0,0.6-0.5,1.1-1.1,1.1c-3.9,0.2-7.8,0.7-11.6,1.6c0.1,0.3,0.1,0.6,0.2,0.9c3.7-0.9,7.5-1.4,11.3-1.6
	c0.6,0,1.2,0.5,1.2,1.1v0.5c0,0.6-0.5,1.1-1.1,1.1c-3.9,0.2-7.8,0.7-11.6,1.6c0.1,0.3,0.1,0.6,0.2,0.9c3.7-0.9,7.5-1.4,11.3-1.6
	c0.6,0,1.2,0.5,1.2,1.1v0.1c0,0.6-0.5,1.1-1.1,1.1c-2.8,0.1-7,0.5-9.4,0.9c0.1,0.5,0.2,0.9,0.2,1.4c2.3-0.4,6.3-0.8,9-0.9
	c0.6,0,1.2,0.5,1.2,1.1v0c0,0.6-0.5,1.1-1.1,1.1c-2.4,0.1-4.8,0.4-7.2,0.8c0.1,0.5,0.2,0.9,0.2,1.4c2.3-0.4,4.6-0.7,6.9-0.8
	c0.6,0,1.2,0.5,1.2,1.1v0.9v1.1c-2.1,1.6-4.2,3.2-6.3,4.8c-1.1,0.9-1.2,2.5-0.2,3.5l0,0c2.2-2.4,4.3-4.9,6.5-7.3v0.3
	c-1.5,3.1-3,6.2-4.6,9.3c0.7,0.4,1.3,0.7,2,1c0.9-2.9,1.8-5.7,2.6-8.6c0.3,0,0.7,0,1.1,0c-0.2,3.1-0.5,6.2-0.7,9.3
	c0.7,0.1,1.4,0.1,2.1,0c-0.2-3.1-0.5-6.2-0.7-9.3c0.4,0,0.8,0,1.1,0c0.9,2.9,1.8,5.7,2.6,8.6c0.7-0.3,1.3-0.6,2-1
	c-1.5-3.1-3-6.2-4.6-9.3v-0.3c2.2,2.4,4.3,4.9,6.5,7.3c0,0,0,0,0,0c1-1,0.9-2.6-0.2-3.5c-2.1-1.6-4.2-3.2-6.3-4.8v-1.1l0-0.9
	c0-0.6,0.5-1.2,1.2-1.1c1.8,0.1,2.8,0.4,5,0.8c0.1-0.5,0.2-0.9,0.2-1.4c-2.4-0.4-3.4-0.7-5.4-0.8c-0.6,0-1.1-0.5-1.1-1.1l0,0
	c0-0.7,0.6-1.2,1.2-1.1c2.2,0.1,4.1,0.5,6.4,0.9c0.1-0.5,0.2-0.9,0.2-1.4c-2.4-0.4-4.5-0.8-6.8-0.9c-0.6,0-1.1-0.5-1.1-1.1v-0.1
	c0-0.6,0.5-1.2,1.2-1.1c3.5,0.2,5.8,0.7,9.5,1.6c0.1-0.3,0.1-0.6,0.2-0.9c-3.8-0.9-6.2-1.4-9.9-1.6c-0.6,0-1.1-0.5-1.1-1.1V221z
	 M481.9,202.3c5.6,0,0,9.4,0,9.4l-2.1,0.7c-4.2,1.4-7.5-3.8-4.4-6.9C477.3,203.5,479.5,202.3,481.9,202.3z"/>
<path class="st0" d="M243.7,94.1c0-0.6,0.5-1.2,1.2-1.1c3.5,0.2,5.8,0.7,9.5,1.6c0.1-0.3,0.1-0.6,0.2-0.9c-3.8-0.9-6.2-1.4-9.9-1.6
	c-0.6,0-1.1-0.5-1.1-1.1v0c0-0.6,0.5-1.2,1.2-1.1c1.6,0.1,3.1,0.2,4.6,0.5c0,0,6.6-0.4,4.8-7.7c-1.4-2.8-3.4-5.4-5.7-7.1l2.7,6.5
	c0.6,1.5-0.3,3.1-2.1,3.6l-2.5-11.3c-1.4-0.8-3-1.2-4.6-1.2c-8.1,0-14.7,11.2-14.7,19h0c3.9-1.3,7.9-2,11.9-2.2
	c0.6,0,1.2,0.5,1.2,1.1v0c0,0.6-0.5,1.1-1.1,1.1c-3.9,0.2-7.8,0.7-11.6,1.6c0.1,0.3,0.1,0.6,0.2,0.9c3.7-0.9,7.5-1.4,11.3-1.6
	c0.6,0,1.2,0.5,1.2,1.1v0.5c0,0.6-0.5,1.1-1.1,1.1c-3.9,0.2-7.8,0.7-11.6,1.6c0.1,0.3,0.1,0.6,0.2,0.9c3.7-0.9,7.5-1.4,11.3-1.6
	c0.6,0,1.2,0.5,1.2,1.1v0.1c0,0.6-0.5,1.1-1.1,1.1c-2.8,0.1-7,0.5-9.4,0.9c0.1,0.5,0.2,0.9,0.2,1.4c2.3-0.4,6.3-0.8,9-0.9
	c0.6,0,1.2,0.5,1.2,1.1v0c0,0.6-0.5,1.1-1.1,1.1c-2.4,0.1-4.8,0.4-7.2,0.8c0.1,0.5,0.2,0.9,0.2,1.4c2.3-0.4,4.6-0.7,6.9-0.8
	c0.6,0,1.2,0.5,1.2,1.1v0.9v1.1c-2.1,1.6-4.2,3.2-6.3,4.8c-1.1,0.9-1.2,2.5-0.2,3.5l0,0c2.2-2.4,4.3-4.9,6.5-7.3v0.3
	c-1.5,3.1-3,6.2-4.6,9.3c0.7,0.4,1.3,0.7,2,1c0.9-2.9,1.8-5.7,2.6-8.6c0.3,0,0.7,0,1.1,0c-0.2,3.1-0.5,6.2-0.7,9.3
	c0.7,0.1,1.4,0.1,2.1,0c-0.2-3.1-0.5-6.2-0.7-9.3c0.4,0,0.8,0,1.1,0c0.9,2.9,1.8,5.7,2.6,8.6c0.7-0.3,1.3-0.6,2-1
	c-1.5-3.1-3-6.2-4.6-9.3V108c2.2,2.4,4.3,4.9,6.5,7.3c0,0,0,0,0,0c1-1,0.9-2.6-0.2-3.5c-2.1-1.6-4.2-3.2-6.3-4.8v-1.1v-0.9
	c0-0.6,0.5-1.2,1.2-1.1c1.8,0.1,2.8,0.4,5,0.8c0.1-0.5,0.2-0.9,0.2-1.4c-2.4-0.4-3.4-0.7-5.4-0.8c-0.6,0-1.1-0.5-1.1-1.1l0,0
	c0-0.7,0.6-1.2,1.2-1.1c2.2,0.1,4.1,0.5,6.4,0.9c0.1-0.5,0.2-0.9,0.2-1.4c-2.4-0.4-4.5-0.8-6.8-0.9c-0.6,0-1.1-0.5-1.1-1.1v-0.1
	c0-0.6,0.5-1.2,1.2-1.1c3.5,0.2,5.8,0.7,9.5,1.6c0.1-0.3,0.1-0.6,0.2-0.9c-3.8-0.9-6.2-1.4-9.9-1.6c-0.6,0-1.1-0.5-1.1-1.1V94.1z
	 M242.2,75.4c5.6,0,0,9.4,0,9.4l-2.1,0.7c-4.2,1.4-7.5-3.8-4.4-6.9C237.6,76.6,239.9,75.4,242.2,75.4z"/>
<path class="st0" d="M337.1,219c-0.9,12.6,7.8,23.8,19.8,26.4c0,0,0,0.1,0,0.1c1.8,0.2,3.5,0.5,5.3,0.7c0.3,0,0.9-0.3,1-0.7
	c2.4-5.2,3.4-10.7,3.1-16.6c1.2-0.5,2.4-1.3,3.4-2.2c2.7-2.4,4.3-5.6,4.6-9.2c0-0.4,0-0.8,0-1.1c0-8.6-6.7-15.9-15.4-16.5
	C347.6,199.2,337.9,207.7,337.1,219z M338.9,219.1c0-0.5,0.1-0.9,0.1-1.4c3.1,1.6,6.4,1.9,9.9,1.6c0.3,0,0.6-0.2,0.8-0.3
	c0,1.5,0.2,2.9,0.8,4.3c-3.6,1.4-7.3,1.9-11.3,1.5C338.9,222.9,338.8,221,338.9,219.1z M344.7,236.1c-1.1-1.2-2-2.6-2.8-4
	c3.3-0.7,6.4-1.9,9.1-4.2c0.9-0.7,1.4-1.2,1.6-1.6c0.9,1.1,2,1.9,3.3,2.5c-0.1,0.2-0.3,0.3-0.4,0.5c-1.3,2.1-2.8,4.1-4.4,5.9
	c-1.1,1.2-2.5,2.2-3.8,3.2C346.3,237.8,345.4,237,344.7,236.1z M358.1,243.7c-2.5-0.5-5-1.3-7.2-2.6c1.9-1.2,3.4-2.7,4.7-4.6
	c1.4-2,2.5-4.2,3.2-6.7c0.4,0.1,0.8,0.1,1.2,0.1c0.9,0.1,1.8,0,2.6-0.1C362.5,235.2,361.2,239.9,358.1,243.7z M358.7,201.8
	c1.4,0.1,2.7,0.4,4,0.8c-0.8,1.3-1.2,2.7-1.1,4.3c0.1,1.2,0.2,2.4,1.5,2.9c1.6-1.4,3-2.7,4.6-4c2.7,2.5,4.4,5.9,4.6,9.7
	c-1.5,0-3.1,0.2-4.6,0.4c-0.2,0-0.5,0.5-0.5,0.8c-0.2,1-0.3,2-0.4,2.8c1.5,0.8,2.9,1.6,4.4,2.4c-0.7,1.3-1.6,2.5-2.7,3.5
	c-2.3,2-5.3,3-8.4,2.8c-1.3-0.1-2.5-0.4-3.6-1c1-2,0.8-4.1-0.5-4.8c-0.7,0.8-1.4,1.7-2.2,2.6c-0.7-0.8-1.2-1.7-1.5-2.7
	c0.5-0.2,0.9-0.4,1.4-0.7c0.7-0.5,1.2-1.3,0.7-2.2c-0.9,0-1.7,0-2.6,0c0-0.3,0-0.6,0-0.9c0-0.7,0.2-1.4,0.4-2c0.7,0,1.3,0.1,2,0
	c0.7-0.1,1.1-1.3,0.7-1.8c-0.3-0.3-0.5-0.6-0.8-0.9c0,0,0.1,0,0.1-0.1c0.6-0.5,1.2-0.9,1.8-1.2c0,0.1,0.1,0.2,0.1,0.2
	c0.4,0.6,0.8,1.4,1.8,1.1c0.2,0,0.3-0.3,0.3-0.5c0-0.5,0-0.9,0-1.4c0.3,0,0.7,0,1.1,0c1.5,0.1,2.8,0.8,3.8,1.9
	c0.9,1.1,1.4,2.5,1.3,3.9c-0.5-0.1-1.3,0.1-2.4,0.5c-0.8-4.9-3.2-5-4.9-3.3c-1.1,0.7-1.9,1.9-2,3.3c-0.1,1.3,0.3,2.6,1.2,3.6
	c0.9,1,2.1,1.6,3.4,1.7c3.3,0.2,6.2-2.3,6.4-5.6c0.1-1.9-0.5-3.8-1.8-5.3c-1.3-1.5-3.1-2.4-5-2.5c-4-0.3-7.6,2.2-9,5.8
	c-3.4-0.8-6.4-2.2-9-4.8c1.6-2.8,3.9-5.1,6.7-6.8c1.2,2.4,2.8,4.3,5,5.4c0.5,0.3,1.1,0.1,1.7,0.2c0-0.1,0.1-0.2,0.1-0.3
	c-1.4-2.2-1.7-4.6-1.6-7.4C355,201.8,356.9,201.7,358.7,201.8z"/>
<path class="st0" d="M361,106.6c0.9-0.8,1.9-1.6,2.8-2.2c1.8-1.1,3-2.6,3.1-3.7c0-0.3,0-0.6,0-0.9c0-0.6,0-1.2,0-1.8
	c0-0.6-0.5-1-1.1-0.8c-1.7,0.5-3.5,0.8-5.2,1.3c0.8-0.7-0.8,0.3,0,0c1.7-0.6,5.3-3.3,5.3-4.5c0-0.3,0-0.6,0-0.8c0-0.6,0-1.2-0.1-1.8
	c0-0.5-0.6-0.9-1.1-0.8c0,0,0,0-0.1,0c-0.8,0.3-1.4-0.8-0.9-1.4c0.7-0.8,1.2-1.5,1.2-1.9c0-0.2,0-0.3,0-0.5c0-0.5-0.1-1.1-0.1-1.6
	c0-0.5-0.5-0.8-1-0.8c-1.3,0.2-2.7,1.1-4.1,1.4c0.6-0.6,1.1-1.2,1.7-1.3c1.3-0.3,1.9-2.4,1.8-3.6c0-0.2,0-0.3,0-0.5
	c-0.1-0.8-4-7.4-5-7.4c-1,0-4.9,6.7-5,7.4c0,0.2,0,0.3,0,0.5c-0.1,1.1,0.6,3.3,1.8,3.6c0.6,0.1,1.1,0.7,1.7,1.3
	c-1.4-0.3-2.7-1.2-4.1-1.4c-0.5-0.1-0.9,0.3-1,0.8c0,0.5-0.1,1.1-0.1,1.6c0,0.2,0,0.3,0,0.5c0,0.4,0.5,1.1,1.2,1.9
	c0.6,0.6,0,1.6-0.9,1.4c0,0,0,0-0.1,0c-0.5-0.2-1.1,0.2-1.1,0.8c0,0.6-0.1,1.2-0.1,1.8c0,0.3,0,0.6,0,0.8c0,1.2,3.6,3.9,5.3,4.5
	c0.8,0.3-0.8-0.7,0,0c-1.7-0.5-3.5-0.8-5.2-1.3c-0.5-0.1-1.1,0.3-1.1,0.8c0,0.6,0,1.2,0,1.8c0,0.3,0,0.6,0,0.9
	c0.1,1.1,1.3,2.7,3.1,3.7c0.9,0.5,1.9,1.4,2.8,2.2c-1.7-0.7-3.4-1.4-5.2-2.5c-0.6-0.4-1.4,0.1-1.3,0.8c0.1,0.6,0.1,1.1,0.2,1.7
	c0.1,0.5,0.2,1.1,0.2,1.6c0.2,1.1,1.5,3.4,3.2,5.2c1,1,2,1.9,2.9,2.6c0.2,0.9,0.4,1.5,0.6,2.4c-0.4,1.1,4.1,1.1,3.7,0
	c0.2-0.9,0.4-1.5,0.6-2.4c1-0.7,1.9-1.6,2.9-2.6c1.7-1.8,3-4.1,3.2-5.2c0.1-0.5,0.2-1.1,0.2-1.6c0.1-0.6,0.2-1.1,0.2-1.7
	c0.1-0.7-0.7-1.2-1.3-0.8C364.4,105.1,362.7,105.9,361,106.6z M358.8,115.1c0,0.2-0.2,0.4-0.4,0.4c-0.2,0-0.4-0.2-0.4-0.4l0.4-34.3
	c0-0.2-0.2,0,0,0c0.2,0,0-0.2,0,0L358.8,115.1z"/>
<g>
	<g>
		<path class="st0" d="M114.3,235.9c0.7,0,1.5,0,2.2,0.1c-0.7,2.7-1.4,4-2.2,4c-0.8,0-1.6-1.3-2.2-4
			C112.8,235.9,113.5,235.9,114.3,235.9z"/>
		<path class="st0" d="M118.2,235.3c0.2-0.9,0.4-2,0.6-3.2c0.2-1.1,0.3-2.3,0.5-3.6c0,0,0,0,0,0v0c3.3,0.3,6.5,0.9,9.7,1.8
			c-0.5,2.3-1,4.5-1.7,6.5c0,0,0,0,0,0c0,0,0,0,0,0C124.3,236,121.2,235.5,118.2,235.3z"/>
		<path class="st0" d="M108.6,220C108.6,220,108.6,220,108.6,220c0.1,2.5,0.3,4.9,0.6,7.1c-3.3,0.3-6.6,0.9-9.8,1.8c0,0,0,0,0,0
			c0,0,0,0,0,0c-0.4-2.3-0.7-4.7-0.9-7.1C101.8,221,105.2,220.3,108.6,220L108.6,220z"/>
		<path class="st0" d="M120.1,219.1c0.1-2.1,0.2-4.2,0.2-6.4l0,0c0,0,0,0,0,0v0c5.9,0.9,10.1,3.2,10.1,3.2c0,1.7-0.1,3.5-0.2,5.1
			c0,0,0,0,0,0c0,0,0,0,0,0C126.9,220,123.5,219.4,120.1,219.1z"/>
		<path class="st0" d="M109.3,228.5C109.3,228.5,109.3,228.5,109.3,228.5c0.2,1.3,0.3,2.5,0.5,3.6c0.2,1.2,0.4,2.2,0.6,3.2
			c-3.1,0.2-6.1,0.8-9.1,1.6c0,0,0,0,0,0c0,0,0,0,0,0c-0.7-2-1.2-4.2-1.7-6.5C102.8,229.4,106.1,228.8,109.3,228.5L109.3,228.5z"/>
		<path class="st0" d="M108.3,212.7C108.3,212.7,108.3,212.7,108.3,212.7L108.3,212.7c0,2.2,0.1,4.3,0.2,6.4
			c-3.4,0.3-6.8,1-10.2,1.9c0,0,0,0,0,0c0,0,0,0,0,0c-0.1-1.7-0.2-3.4-0.2-5.1C98.2,215.8,102.4,213.6,108.3,212.7L108.3,212.7z"/>
		<path class="st0" d="M119.4,227.1c0.2-2.2,0.4-4.6,0.6-7.1c0,0,0,0,0,0v0c3.4,0.3,6.8,1,10.1,1.9c-0.2,2.4-0.5,4.8-0.9,7.1
			c0,0,0,0,0,0c0,0,0,0,0,0C126,228.1,122.7,227.5,119.4,227.1z"/>
		<path class="st0" d="M117.8,236.9C117.8,236.9,117.8,236.9,117.8,236.9L117.8,236.9c3,0.2,6,0.7,9,1.5c-1.5,3.9-3.3,5.7-5.4,7.8
			c0,0,0,0,0,0c0,0,0,0,0,0c-0.3-2.5-1.9-4.6-4.1-5.6c-0.1-0.1-0.2-0.1-0.3-0.2c0,0,0,0,0,0C116.4,239.6,117.6,238,117.8,236.9z"/>
		<path class="st0" d="M110.8,236.9C110.8,236.9,110.8,236.9,110.8,236.9c0.1,1.1,1.4,2.7,0.9,3.5c0,0,0,0,0,0
			c-0.1,0.1-0.2,0.2-0.3,0.3c-2.2,1-3.8,3.1-4.1,5.6c0,0,0,0,0,0c0,0,0,0,0,0c-2.1-2.1-3.9-3.9-5.4-7.8
			C104.8,237.6,107.8,237.1,110.8,236.9L110.8,236.9z"/>
		<path class="st0" d="M95.6,214.9c-0.1-7.2,7.1-14.2,14.8-15c0,0,0.1,0,0.2,0c0,0,6.1,0,7.3,0c0.1,0,0.2,0,0.2,0
			c7.7,0.8,15,7.9,14.8,15c0,0.1,0,0.3,0,0.4c0,0,0,0,0,0c0,0,0,0,0,0c-1-0.5-2-1-3-1.4c-3.1-1.3-6.2-2.1-9.4-2.6c0,0,0,0,0,0
			c0,0,0,0,0,0c0,0,0,0,0,0c-0.1-5.9,0.5-8.3-6.3-8.4c-6.8,0.1-6.2,2.5-6.3,8.4c0,0,0,0,0,0c0,0,0,0,0,0c0,0,0,0,0,0
			c-3.2,0.5-6.3,1.4-9.4,2.6c-1,0.4-2,0.9-3,1.4c0,0,0,0,0,0c0,0,0,0,0,0C95.6,215.2,95.6,215,95.6,214.9z"/>
		<path class="st0" d="M109.9,218.1C109.9,218.1,109.9,218.1,109.9,218.1c-0.1-1.8-0.1-3.6-0.2-5.4h0h9.2h0c0,1.8-0.1,3.7-0.2,5.4
			c0,0,0,0,0,0v0c-1.5-0.1-2.9-0.2-4.4-0.2C112.8,217.9,111.4,218,109.9,218.1L109.9,218.1z"/>
		<path class="st0" d="M110.5,226.2C110.5,226.2,110.5,226.2,110.5,226.2c-0.2-2.2-0.4-4.6-0.5-7.2c1.4-0.1,2.9-0.2,4.4-0.2
			c1.5,0,2.9,0.1,4.4,0.2c-0.1,2.5-0.3,4.9-0.5,7.2c0,0,0,0,0,0v0c-1.3-0.1-2.5-0.1-3.8-0.1S111.8,226.1,110.5,226.2L110.5,226.2z"
			/>
		<path class="st0" d="M117.9,227.5c-0.3,2.6-0.6,4.9-1,6.8c0,0,0,0,0,0l0,0c-0.2,0-0.4,0-0.6,0c-0.6,0-1.2,0-1.8,0
			c-0.1,0-0.1,0-0.2,0c-0.1,0-0.1,0-0.2,0c-0.6,0-1.2,0-1.8,0c-0.2,0-0.4,0-0.6,0l0,0c0,0,0,0,0,0c-0.4-1.9-0.8-4.2-1-6.8
			c1.2-0.1,2.4-0.1,3.7-0.1C115.5,227.4,116.7,227.5,117.9,227.5z"/>
		<path class="st0" d="M119,211.1C119,211.1,119,211.1,119,211.1L119,211.1c-0.4,0-0.8-0.1-1.2-0.1c0,0-0.1,0-0.1,0
			c-1.1-0.1-2.3-0.1-3.4-0.1c-1.1,0-2.3,0-3.4,0.1c0,0,0,0-0.1,0c-0.4,0-0.8,0.1-1.2,0.1v0c0,0,0,0,0,0c0-0.5,0-1.1,0-1.6
			c0-1.8,0.2-4.2,1.2-4.4c0.2-0.1,0.3-0.1,0.6-0.2c0.8-0.3,1.9-0.4,2.9-0.3c1,0,2.1,0.1,2.9,0.3c0.2,0.1,0.4,0.1,0.6,0.2
			c1.1,0.2,1.2,2.6,1.2,4.4C119,210,119,210.5,119,211.1z"/>
	</g>
</g>
<path class="st0" d="M95.7,92c-0.9,12.6,7.8,23.8,19.8,26.4c0,0,0,0.1,0,0.1c1.8,0.2,3.5,0.5,5.3,0.7c0.3,0,0.9-0.3,1-0.7
	c2.4-5.2,3.4-10.7,3.1-16.6c1.2-0.5,2.4-1.3,3.4-2.2c2.7-2.4,4.3-5.6,4.6-9.2c0-0.4,0-0.8,0-1.1c0-8.6-6.7-15.9-15.4-16.5
	C106.3,72.3,96.5,80.8,95.7,92z M97.6,92.2c0-0.5,0.1-0.9,0.1-1.4c3.1,1.6,6.4,1.9,9.9,1.6c0.3,0,0.6-0.2,0.8-0.3
	c0,1.5,0.2,2.9,0.8,4.3c-3.6,1.4-7.3,1.9-11.3,1.5C97.5,96,97.4,94.1,97.6,92.2z M103.3,109.2c-1.1-1.2-2-2.6-2.8-4
	c3.3-0.7,6.4-1.9,9.1-4.2c0.9-0.7,1.4-1.2,1.6-1.6c0.9,1.1,2,1.9,3.3,2.5c-0.1,0.2-0.3,0.3-0.4,0.5c-1.3,2.1-2.8,4.1-4.4,5.9
	c-1.1,1.2-2.5,2.2-3.8,3.2C104.9,110.9,104.1,110.1,103.3,109.2z M116.7,116.8c-2.5-0.5-5-1.3-7.2-2.6c1.9-1.2,3.4-2.7,4.7-4.6
	c1.4-2,2.5-4.2,3.2-6.7c0.4,0.1,0.8,0.1,1.2,0.1c0.9,0.1,1.8,0,2.6-0.1C121.2,108.3,119.9,113,116.7,116.8z M117.4,74.9
	c1.4,0.1,2.7,0.4,4,0.8c-0.8,1.3-1.2,2.7-1.1,4.3c0.1,1.2,0.2,2.4,1.5,2.9c1.6-1.4,3-2.7,4.6-4c2.7,2.5,4.4,5.9,4.6,9.7
	c-1.5,0-3.1,0.2-4.6,0.4c-0.2,0-0.5,0.5-0.5,0.8c-0.2,1-0.3,2-0.4,2.8c1.5,0.8,2.9,1.6,4.4,2.4c-0.7,1.3-1.6,2.5-2.7,3.5
	c-2.3,2-5.3,3-8.4,2.8c-1.3-0.1-2.5-0.4-3.6-1c1-2,0.8-4.1-0.5-4.8c-0.7,0.8-1.4,1.7-2.2,2.6c-0.7-0.8-1.2-1.7-1.5-2.7
	c0.5-0.2,0.9-0.4,1.4-0.7c0.7-0.5,1.2-1.3,0.7-2.2c-0.9,0-1.7,0-2.6,0c0-0.3,0-0.6,0-0.9c0-0.7,0.2-1.4,0.4-2c0.7,0,1.3,0.1,2,0
	c0.7-0.1,1.1-1.3,0.7-1.8c-0.3-0.3-0.5-0.6-0.8-0.9c0,0,0.1,0,0.1-0.1c0.6-0.5,1.2-0.9,1.8-1.2c0,0.1,0.1,0.2,0.1,0.2
	c0.4,0.6,0.8,1.4,1.8,1.1c0.2,0,0.3-0.3,0.3-0.5c0-0.5,0-0.9,0-1.4c0.3,0,0.7,0,1.1,0c1.5,0.1,2.8,0.8,3.8,1.9
	c0.9,1.1,1.4,2.5,1.3,3.9c-0.5-0.1-1.3,0.1-2.4,0.5c-0.8-4.9-3.2-5-4.9-3.3c-1.1,0.7-1.9,1.9-2,3.3c-0.1,1.3,0.3,2.6,1.2,3.6
	c0.9,1,2.1,1.6,3.4,1.7c3.3,0.2,6.2-2.3,6.4-5.6c0.1-1.9-0.5-3.8-1.8-5.3c-1.3-1.5-3.1-2.4-5-2.5c-4-0.3-7.6,2.2-9,5.8
	c-3.4-0.8-6.4-2.2-9-4.8c1.6-2.8,3.9-5.1,6.7-6.8c1.2,2.4,2.8,4.3,5,5.4c0.5,0.3,1.1,0.1,1.7,0.2c0-0.1,0.1-0.2,0.1-0.3
	c-1.4-2.2-1.7-4.6-1.6-7.4C113.7,74.9,115.5,74.8,117.4,74.9z"/>
<path class="st0" d="M237.6,233.5c0.9-0.8,1.9-1.6,2.8-2.2c1.8-1.1,3-2.6,3.1-3.7c0-0.3,0-0.6,0-0.9c0-0.6,0-1.2,0-1.8
	c0-0.6-0.5-1-1.1-0.8c-1.7,0.5-3.5,0.8-5.2,1.3c0.8-0.7-0.8,0.3,0,0c1.7-0.6,5.3-3.3,5.3-4.5c0-0.3,0-0.6,0-0.8c0-0.6,0-1.2-0.1-1.8
	c0-0.5-0.6-0.9-1.1-0.8c0,0,0,0-0.1,0c-0.8,0.3-1.4-0.8-0.9-1.4c0.7-0.8,1.2-1.5,1.2-1.9c0-0.2,0-0.3,0-0.5c0-0.5-0.1-1.1-0.1-1.6
	c0-0.5-0.5-0.8-1-0.8c-1.3,0.2-2.7,1.1-4.1,1.4c0.6-0.6,1.1-1.2,1.7-1.3c1.3-0.3,1.9-2.4,1.8-3.6c0-0.2,0-0.3,0-0.5
	c-0.1-0.8-4-7.4-5-7.4c-1,0-4.9,6.7-5,7.4c0,0.2,0,0.3,0,0.5c-0.1,1.1,0.6,3.3,1.8,3.6c0.6,0.1,1.1,0.7,1.7,1.3
	c-1.4-0.3-2.7-1.2-4.1-1.4c-0.5-0.1-0.9,0.3-1,0.8c0,0.5-0.1,1.1-0.1,1.6c0,0.2,0,0.3,0,0.5c0,0.4,0.5,1.1,1.2,1.9
	c0.6,0.6,0,1.6-0.9,1.4c0,0,0,0-0.1,0c-0.5-0.2-1.1,0.2-1.1,0.8c0,0.6-0.1,1.2-0.1,1.8c0,0.3,0,0.6,0,0.8c0,1.2,3.6,3.9,5.3,4.5
	c0.8,0.3-0.8-0.7,0,0c-1.7-0.5-3.5-0.8-5.2-1.3c-0.5-0.1-1.1,0.3-1.1,0.8c0,0.6,0,1.2,0,1.8c0,0.3,0,0.6,0,0.9
	c0.1,1.1,1.3,2.7,3.1,3.7c0.9,0.5,1.9,1.4,2.8,2.2c-1.7-0.7-3.4-1.4-5.2-2.5c-0.6-0.4-1.4,0.1-1.3,0.8c0.1,0.6,0.1,1.1,0.2,1.7
	c0.1,0.5,0.2,1.1,0.2,1.6c0.2,1.1,1.5,3.4,3.2,5.2c1,1,2,1.9,2.9,2.6c0.2,0.9,0.4,1.5,0.6,2.4c-0.4,1.1,4.1,1.1,3.7,0
	c0.2-0.9,0.4-1.5,0.6-2.4c1-0.7,1.9-1.6,2.9-2.6c1.7-1.8,3-4.1,3.2-5.2c0.1-0.5,0.2-1.1,0.2-1.6c0.1-0.6,0.2-1.1,0.2-1.7
	c0.1-0.7-0.7-1.2-1.3-0.8C241.1,232,239.3,232.8,237.6,233.5z M235.4,242c0,0.2-0.2,0.4-0.4,0.4c-0.2,0-0.4-0.2-0.4-0.4l0.4-34.3
	c0-0.2-0.2,0,0,0c0.2,0,0-0.2,0,0L235.4,242z"/>
</svg>
