<svg width="596" height="569" viewBox="0 0 596 569" fill="none" xmlns="http://www.w3.org/2000/svg">
<g id="fossilArrayRaw 1">
<g id="Group">
<g id="Group_2">
<path id="Vector" d="M480.8 362.8C481.5 362.8 482.3 362.8 483 362.9C482.3 365.6 481.6 366.9 480.8 366.9C480 366.9 479.2 365.6 478.6 362.9C479.3 362.8 480 362.8 480.8 362.8Z" fill="#FCE6C5"/>
<path id="Vector_2" d="M484.7 362.2C484.9 361.3 485.1 360.2 485.3 359C485.5 357.9 485.6 356.7 485.8 355.4C489.1 355.7 492.3 356.3 495.5 357.2C495 359.5 494.5 361.7 493.8 363.7C490.8 362.9 487.7 362.4 484.7 362.2Z" fill="#FCE6C5"/>
<path id="Vector_3" d="M475 346.9C475.1 349.4 475.3 351.8 475.6 354C472.3 354.3 469 354.9 465.8 355.8C465.4 353.5 465.1 351.1 464.9 348.7C468.3 347.9 471.6 347.2 475 346.9Z" fill="#FCE6C5"/>
<path id="Vector_4" d="M486.6 346C486.7 343.9 486.8 341.8 486.8 339.6C492.7 340.5 496.9 342.8 496.9 342.8C496.9 344.5 496.8 346.3 496.7 347.9C493.4 347 490 346.3 486.6 346Z" fill="#FCE6C5"/>
<path id="Vector_5" d="M475.8 355.4C476 356.7 476.1 357.9 476.3 359C476.5 360.2 476.7 361.2 476.9 362.2C473.8 362.4 470.8 363 467.8 363.8C467.1 361.8 466.6 359.6 466.1 357.3C469.3 356.3 472.5 355.7 475.8 355.4Z" fill="#FCE6C5"/>
<path id="Vector_6" d="M474.8 339.6C474.8 341.8 474.9 343.9 475 346C471.6 346.3 468.2 347 464.8 347.9C464.7 346.2 464.6 344.5 464.6 342.8C464.7 342.7 468.9 340.5 474.8 339.6Z" fill="#FCE6C5"/>
<path id="Vector_7" d="M485.9 354.1C486.1 351.9 486.3 349.5 486.5 347C489.9 347.3 493.3 348 496.6 348.9C496.4 351.3 496.1 353.7 495.7 356C492.5 355 489.2 354.4 485.9 354.1Z" fill="#FCE6C5"/>
<path id="Vector_8" d="M484.3 363.8C487.3 364 490.3 364.5 493.3 365.3C491.8 369.2 490 371 487.9 373.1C487.6 370.6 486 368.5 483.8 367.5C483.7 367.4 483.6 367.4 483.5 367.3C482.9 366.5 484.1 364.9 484.3 363.8Z" fill="#FCE6C5"/>
<path id="Vector_9" d="M477.3 363.8C477.4 364.9 478.7 366.5 478.2 367.3C478.1 367.4 478 367.5 477.9 367.6C475.7 368.6 474.1 370.7 473.8 373.2C471.7 371.1 469.9 369.3 468.4 365.4C471.3 364.5 474.3 364 477.3 363.8Z" fill="#FCE6C5"/>
<path id="Vector_10" d="M462.1 341.8C462 334.6 469.2 327.6 476.9 326.8C476.9 326.8 477 326.8 477.1 326.8C477.1 326.8 483.2 326.8 484.4 326.8C484.5 326.8 484.6 326.8 484.6 326.8C492.3 327.6 499.6 334.7 499.4 341.8C499.4 341.9 499.4 342.1 499.4 342.2C498.4 341.7 497.4 341.2 496.4 340.8C493.3 339.5 490.2 338.7 487 338.2C486.9 332.3 487.5 329.9 480.7 329.8C473.9 329.9 474.5 332.3 474.4 338.2C471.2 338.7 468.1 339.6 465 340.8C464 341.2 463 341.7 462 342.2C462.1 342.1 462.1 341.9 462.1 341.8Z" fill="#FCE6C5"/>
<path id="Vector_11" d="M476.4 345C476.3 343.2 476.3 341.4 476.2 339.6H485.4C485.4 341.4 485.3 343.3 485.2 345C483.7 344.9 482.3 344.8 480.8 344.8C479.3 344.8 477.8 344.9 476.4 345Z" fill="#FCE6C5"/>
<path id="Vector_12" d="M477 353.1C476.8 350.9 476.6 348.5 476.5 345.9C477.9 345.8 479.4 345.7 480.9 345.7C482.4 345.7 483.8 345.8 485.3 345.9C485.2 348.4 485 350.8 484.8 353.1C483.5 353 482.3 353 481 353C479.5 352.9 478.2 353 477 353.1Z" fill="#FCE6C5"/>
<path id="Vector_13" d="M484.4 354.4C484.1 357 483.8 359.3 483.4 361.2C483.2 361.2 483 361.2 482.8 361.2C482.2 361.2 481.6 361.2 481 361.2C480.9 361.2 480.9 361.2 480.8 361.2C480.7 361.2 480.7 361.2 480.6 361.2C480 361.2 479.4 361.2 478.8 361.2C478.6 361.2 478.4 361.2 478.2 361.2C477.8 359.3 477.4 357 477.2 354.4C478.4 354.3 479.6 354.3 480.9 354.3C482 354.3 483.2 354.4 484.4 354.4Z" fill="#FCE6C5"/>
<path id="Vector_14" d="M485.5 338C485.1 338 484.7 337.9 484.3 337.9H484.2C483.1 337.8 481.9 337.8 480.8 337.8C479.7 337.8 478.5 337.8 477.4 337.9C477.4 337.9 477.4 337.9 477.3 337.9C476.9 337.9 476.5 338 476.1 338C476.1 337.5 476.1 336.9 476.1 336.4C476.1 334.6 476.3 332.2 477.3 332C477.5 331.9 477.6 331.9 477.9 331.8C478.7 331.5 479.8 331.4 480.8 331.5C481.8 331.5 482.9 331.6 483.7 331.8C483.9 331.9 484.1 331.9 484.3 332C485.4 332.2 485.5 334.6 485.5 336.4C485.5 336.9 485.5 337.4 485.5 338Z" fill="#FCE6C5"/>
</g>
</g>
<path id="Fish_5" d="M483.4 474.8C483.4 474.2 483.9 473.6 484.6 473.7C488.1 473.9 490.4 474.4 494.1 475.3C494.2 475 494.2 474.7 494.3 474.4C490.5 473.5 488.1 473 484.4 472.8C483.8 472.8 483.3 472.3 483.3 471.7C483.3 471.1 483.8 470.5 484.5 470.6C486.1 470.7 487.6 470.8 489.1 471.1C489.1 471.1 495.7 470.7 493.9 463.4C492.5 460.6 490.5 458 488.2 456.3L490.9 462.8C491.5 464.3 490.6 465.9 488.8 466.4L486.3 455.1C484.9 454.3 483.3 453.9 481.7 453.9C473.6 453.9 467 465.1 467 472.9C470.9 471.6 474.9 470.9 478.9 470.7C479.5 470.7 480.1 471.2 480.1 471.8C480.1 472.4 479.6 472.9 479 472.9C475.1 473.1 471.2 473.6 467.4 474.5C467.5 474.8 467.5 475.1 467.6 475.4C471.3 474.5 475.1 474 478.9 473.8C479.5 473.8 480.1 474.3 480.1 474.9V475.4C480.1 476 479.6 476.5 479 476.5C475.1 476.7 471.2 477.2 467.4 478.1C467.5 478.4 467.5 478.7 467.6 479C471.3 478.1 475.1 477.6 478.9 477.4C479.5 477.4 480.1 477.9 480.1 478.5V478.6C480.1 479.2 479.6 479.7 479 479.7C476.2 479.8 472 480.2 469.6 480.6C469.7 481.1 469.8 481.5 469.8 482C472.1 481.6 476.1 481.2 478.8 481.1C479.4 481.1 480 481.6 480 482.2C480 482.8 479.5 483.3 478.9 483.3C476.5 483.4 474.1 483.7 471.7 484.1C471.8 484.6 471.9 485 471.9 485.5C474.2 485.1 476.5 484.8 478.8 484.7C479.4 484.7 480 485.2 480 485.8V486.7V487.8C477.9 489.4 475.8 491 473.7 492.6C472.6 493.5 472.5 495.1 473.5 496.1C475.7 493.7 477.8 491.2 480 488.8V489.1C478.5 492.2 477 495.3 475.4 498.4C476.1 498.8 476.7 499.1 477.4 499.4C478.3 496.5 479.2 493.7 480 490.8C480.3 490.8 480.7 490.8 481.1 490.8C480.9 493.9 480.6 497 480.4 500.1C481.1 500.2 481.8 500.2 482.5 500.1C482.3 497 482 493.9 481.8 490.8C482.2 490.8 482.6 490.8 482.9 490.8C483.8 493.7 484.7 496.5 485.5 499.4C486.2 499.1 486.8 498.8 487.5 498.4C486 495.3 484.5 492.2 482.9 489.1V488.8C485.1 491.2 487.2 493.7 489.4 496.1C490.4 495.1 490.3 493.5 489.2 492.6C487.1 491 485 489.4 482.9 487.8V486.7V485.8C482.9 485.2 483.4 484.6 484.1 484.7C485.9 484.8 486.9 485.1 489.1 485.5C489.2 485 489.3 484.6 489.3 484.1C486.9 483.7 485.9 483.4 483.9 483.3C483.3 483.3 482.8 482.8 482.8 482.2C482.8 481.5 483.4 481 484 481.1C486.2 481.2 488.1 481.6 490.4 482C490.5 481.5 490.6 481.1 490.6 480.6C488.2 480.2 486.1 479.8 483.8 479.7C483.2 479.7 482.7 479.2 482.7 478.6V478.5C482.7 477.9 483.2 477.3 483.9 477.4C487.4 477.6 489.7 478.1 493.4 479C493.5 478.7 493.5 478.4 493.6 478.1C489.8 477.2 487.4 476.7 483.7 476.5C483.1 476.5 482.6 476 482.6 475.4V474.8H483.4ZM481.9 456.1C487.5 456.1 481.9 465.5 481.9 465.5L479.8 466.2C475.6 467.6 472.3 462.4 475.4 459.3C477.3 457.3 479.5 456.1 481.9 456.1Z" fill="#FCE6C5"/>
<path id="Fish_4" d="M243.7 347.9C243.7 347.3 244.2 346.7 244.9 346.8C248.4 347 250.7 347.5 254.4 348.4C254.5 348.1 254.5 347.8 254.6 347.5C250.8 346.6 248.4 346.1 244.7 345.9C244.1 345.9 243.6 345.4 243.6 344.8C243.6 344.2 244.1 343.6 244.8 343.7C246.4 343.8 247.9 343.9 249.4 344.2C249.4 344.2 256 343.8 254.2 336.5C252.8 333.7 250.8 331.1 248.5 329.4L251.2 335.9C251.8 337.4 250.9 339 249.1 339.5L246.6 328.2C245.2 327.4 243.6 327 242 327C233.9 327 227.3 338.2 227.3 346C231.2 344.7 235.2 344 239.2 343.8C239.8 343.8 240.4 344.3 240.4 344.9C240.4 345.5 239.9 346 239.3 346C235.4 346.2 231.5 346.7 227.7 347.6C227.8 347.9 227.8 348.2 227.9 348.5C231.6 347.6 235.4 347.1 239.2 346.9C239.8 346.9 240.4 347.4 240.4 348V348.5C240.4 349.1 239.9 349.6 239.3 349.6C235.4 349.8 231.5 350.3 227.7 351.2C227.8 351.5 227.8 351.8 227.9 352.1C231.6 351.2 235.4 350.7 239.2 350.5C239.8 350.5 240.4 351 240.4 351.6V351.7C240.4 352.3 239.9 352.8 239.3 352.8C236.5 352.9 232.3 353.3 229.9 353.7C230 354.2 230.1 354.6 230.1 355.1C232.4 354.7 236.4 354.3 239.1 354.2C239.7 354.2 240.3 354.7 240.3 355.3C240.3 355.9 239.8 356.4 239.2 356.4C236.8 356.5 234.4 356.8 232 357.2C232.1 357.7 232.2 358.1 232.2 358.6C234.5 358.2 236.8 357.9 239.1 357.8C239.7 357.8 240.3 358.3 240.3 358.9V359.8V360.9C238.2 362.5 236.1 364.1 234 365.7C232.9 366.6 232.8 368.2 233.8 369.2C236 366.8 238.1 364.3 240.3 361.9V362.2C238.8 365.3 237.3 368.4 235.7 371.5C236.4 371.9 237 372.2 237.7 372.5C238.6 369.6 239.5 366.8 240.3 363.9C240.6 363.9 241 363.9 241.4 363.9C241.2 367 240.9 370.1 240.7 373.2C241.4 373.3 242.1 373.3 242.8 373.2C242.6 370.1 242.3 367 242.1 363.9C242.5 363.9 242.9 363.9 243.2 363.9C244.1 366.8 245 369.6 245.8 372.5C246.5 372.2 247.1 371.9 247.8 371.5C246.3 368.4 244.8 365.3 243.2 362.2V361.9C245.4 364.3 247.5 366.8 249.7 369.2C250.7 368.2 250.6 366.6 249.5 365.7C247.4 364.1 245.3 362.5 243.2 360.9V359.8V358.9C243.2 358.3 243.7 357.7 244.4 357.8C246.2 357.9 247.2 358.2 249.4 358.6C249.5 358.1 249.6 357.7 249.6 357.2C247.2 356.8 246.2 356.5 244.2 356.4C243.6 356.4 243.1 355.9 243.1 355.3C243.1 354.6 243.7 354.1 244.3 354.2C246.5 354.3 248.4 354.7 250.7 355.1C250.8 354.6 250.9 354.2 250.9 353.7C248.5 353.3 246.4 352.9 244.1 352.8C243.5 352.8 243 352.3 243 351.7V351.6C243 351 243.5 350.4 244.2 350.5C247.7 350.7 250 351.2 253.7 352.1C253.8 351.8 253.8 351.5 253.9 351.2C250.1 350.3 247.7 349.8 244 349.6C243.4 349.6 242.9 349.1 242.9 348.5V347.9H243.7ZM242.2 329.2C247.8 329.2 242.2 338.6 242.2 338.6L240.1 339.3C235.9 340.7 232.6 335.5 235.7 332.4C237.6 330.4 239.9 329.2 242.2 329.2Z" fill="#FCE6C5"/>
<path id="Shell_5" d="M340.3 472.8C339.4 485.4 348.1 496.6 360.1 499.2V499.3C361.9 499.5 363.6 499.8 365.4 500C365.7 500 366.3 499.7 366.4 499.3C368.8 494.1 369.8 488.6 369.5 482.7C370.7 482.2 371.9 481.4 372.9 480.5C375.6 478.1 377.2 474.9 377.5 471.3C377.5 470.9 377.5 470.5 377.5 470.2C377.5 461.6 370.8 454.3 362.1 453.7C350.8 453 341.1 461.5 340.3 472.8ZM342.1 472.9C342.1 472.4 342.2 472 342.2 471.5C345.3 473.1 348.6 473.4 352.1 473.1C352.4 473.1 352.7 472.9 352.9 472.8C352.9 474.3 353.1 475.7 353.7 477.1C350.1 478.5 346.4 479 342.4 478.6C342.1 476.7 342 474.8 342.1 472.9ZM347.9 489.9C346.8 488.7 345.9 487.3 345.1 485.9C348.4 485.2 351.5 484 354.2 481.7C355.1 481 355.6 480.5 355.8 480.1C356.7 481.2 357.8 482 359.1 482.6C359 482.8 358.8 482.9 358.7 483.1C357.4 485.2 355.9 487.2 354.3 489C353.2 490.2 351.8 491.2 350.5 492.2C349.5 491.6 348.6 490.8 347.9 489.9ZM361.3 497.6C358.8 497.1 356.3 496.3 354.1 495C356 493.8 357.5 492.3 358.8 490.4C360.2 488.4 361.3 486.2 362 483.7C362.4 483.8 362.8 483.8 363.2 483.8C364.1 483.9 365 483.8 365.8 483.7C365.7 489 364.5 493.7 361.3 497.6ZM362 455.6C363.4 455.7 364.7 456 366 456.4C365.2 457.7 364.8 459.1 364.9 460.7C365 461.9 365.1 463.1 366.4 463.6C368 462.2 369.4 460.9 371 459.6C373.7 462.1 375.4 465.5 375.6 469.3C374.1 469.3 372.5 469.5 371 469.7C370.8 469.7 370.5 470.2 370.5 470.5C370.3 471.5 370.2 472.5 370.1 473.3C371.6 474.1 373 474.9 374.5 475.7C373.8 477 372.9 478.2 371.8 479.2C369.5 481.2 366.5 482.2 363.4 482C362.1 481.9 360.9 481.6 359.8 481C360.8 479 360.6 476.9 359.3 476.2C358.6 477 357.9 477.9 357.1 478.8C356.4 478 355.9 477.1 355.6 476.1C356.1 475.9 356.5 475.7 357 475.4C357.7 474.9 358.2 474.1 357.7 473.2C356.8 473.2 356 473.2 355.1 473.2C355.1 472.9 355.1 472.6 355.1 472.3C355.1 471.6 355.3 470.9 355.5 470.3C356.2 470.3 356.8 470.4 357.5 470.3C358.2 470.2 358.6 469 358.2 468.5C357.9 468.2 357.7 467.9 357.4 467.6C357.4 467.6 357.5 467.6 357.5 467.5C358.1 467 358.7 466.6 359.3 466.3C359.3 466.4 359.4 466.5 359.4 466.5C359.8 467.1 360.2 467.9 361.2 467.6C361.4 467.6 361.5 467.3 361.5 467.1C361.5 466.6 361.5 466.2 361.5 465.7C361.8 465.7 362.2 465.7 362.6 465.7C364.1 465.8 365.4 466.5 366.4 467.6C367.3 468.7 367.8 470.1 367.7 471.5C367.2 471.4 366.4 471.6 365.3 472C364.5 467.1 362.1 467 360.4 468.7C359.3 469.4 358.5 470.6 358.4 472C358.3 473.3 358.7 474.6 359.6 475.6C360.5 476.6 361.7 477.2 363 477.3C366.3 477.5 369.2 475 369.4 471.7C369.5 469.8 368.9 467.9 367.6 466.4C366.3 464.9 364.5 464 362.6 463.9C358.6 463.6 355 466.1 353.6 469.7C350.2 468.9 347.2 467.5 344.6 464.9C346.2 462.1 348.5 459.8 351.3 458.1C352.5 460.5 354.1 462.4 356.3 463.5C356.8 463.8 357.4 463.6 358 463.7C358 463.6 358.1 463.5 358.1 463.4C356.7 461.2 356.4 458.8 356.5 456C358.3 455.6 360.1 455.5 362 455.6Z" fill="#FCE6C5"/>
<path id="Leaf_5" d="M361 360.4C361.9 359.6 362.9 358.8 363.8 358.2C365.6 357.1 366.8 355.6 366.9 354.5C366.9 354.2 366.9 353.9 366.9 353.6C366.9 353 366.9 352.4 366.9 351.8C366.9 351.2 366.4 350.8 365.8 351C364.1 351.5 362.3 351.8 360.6 352.3C361.4 351.6 359.8 352.6 360.6 352.3C362.3 351.7 365.9 349 365.9 347.8C365.9 347.5 365.9 347.2 365.9 347C365.9 346.4 365.9 345.8 365.8 345.2C365.8 344.7 365.2 344.3 364.7 344.4C364.7 344.4 364.7 344.4 364.6 344.4C363.8 344.7 363.2 343.6 363.7 343C364.4 342.2 364.9 341.5 364.9 341.1C364.9 340.9 364.9 340.8 364.9 340.6C364.9 340.1 364.8 339.5 364.8 339C364.8 338.5 364.3 338.2 363.8 338.2C362.5 338.4 361.1 339.3 359.7 339.6C360.3 339 360.8 338.4 361.4 338.3C362.7 338 363.3 335.9 363.2 334.7C363.2 334.5 363.2 334.4 363.2 334.2C363.1 333.4 359.2 326.8 358.2 326.8C357.2 326.8 353.3 333.5 353.2 334.2C353.2 334.4 353.2 334.5 353.2 334.7C353.1 335.8 353.8 338 355 338.3C355.6 338.4 356.1 339 356.7 339.6C355.3 339.3 354 338.4 352.6 338.2C352.1 338.1 351.7 338.5 351.6 339C351.6 339.5 351.5 340.1 351.5 340.6C351.5 340.8 351.5 340.9 351.5 341.1C351.5 341.5 352 342.2 352.7 343C353.3 343.6 352.7 344.6 351.8 344.4C351.8 344.4 351.8 344.4 351.7 344.4C351.2 344.2 350.6 344.6 350.6 345.2C350.6 345.8 350.5 346.4 350.5 347C350.5 347.3 350.5 347.6 350.5 347.8C350.5 349 354.1 351.7 355.8 352.3C356.6 352.6 355 351.6 355.8 352.3C354.1 351.8 352.3 351.5 350.6 351C350.1 350.9 349.5 351.3 349.5 351.8C349.5 352.4 349.5 353 349.5 353.6C349.5 353.9 349.5 354.2 349.5 354.5C349.6 355.6 350.8 357.2 352.6 358.2C353.5 358.7 354.5 359.6 355.4 360.4C353.7 359.7 352 359 350.2 357.9C349.6 357.5 348.8 358 348.9 358.7C349 359.3 349 359.8 349.1 360.4C349.2 360.9 349.3 361.5 349.3 362C349.5 363.1 350.8 365.4 352.5 367.2C353.5 368.2 354.5 369.1 355.4 369.8C355.6 370.7 355.8 371.3 356 372.2C355.6 373.3 360.1 373.3 359.7 372.2C359.9 371.3 360.1 370.7 360.3 369.8C361.3 369.1 362.2 368.2 363.2 367.2C364.9 365.4 366.2 363.1 366.4 362C366.5 361.5 366.6 360.9 366.6 360.4C366.7 359.8 366.8 359.3 366.8 358.7C366.9 358 366.1 357.5 365.5 357.9C364.4 358.9 362.7 359.7 361 360.4ZM358.8 368.9C358.8 369.1 358.6 369.3 358.4 369.3C358.2 369.3 358 369.1 358 368.9L358.4 334.6C358.4 334.4 358.2 334.6 358.4 334.6C358.6 334.6 358.4 334.4 358.4 334.6L358.8 368.9Z" fill="#FCE6C5"/>
<g id="Trilo_5">
<g id="Group_3">
<path id="Vector_15" d="M231.8 489.7C232.5 489.7 233.3 489.7 234 489.8C233.3 492.5 232.6 493.8 231.8 493.8C231 493.8 230.2 492.5 229.6 489.8C230.3 489.7 231.1 489.7 231.8 489.7Z" fill="#FCE6C5"/>
<path id="Vector_16" d="M235.7 489.1C235.9 488.2 236.1 487.1 236.3 485.9C236.5 484.8 236.6 483.6 236.8 482.3C240.1 482.6 243.3 483.2 246.5 484.1C246 486.4 245.5 488.6 244.8 490.6C241.8 489.8 238.7 489.3 235.7 489.1Z" fill="#FCE6C5"/>
<path id="Vector_17" d="M226.1 473.8C226.2 476.3 226.4 478.7 226.7 480.9C223.4 481.2 220.1 481.8 216.9 482.7C216.5 480.4 216.2 478 216 475.6C219.3 474.8 222.7 474.1 226.1 473.8Z" fill="#FCE6C5"/>
<path id="Vector_18" d="M237.6 472.9C237.7 470.8 237.8 468.7 237.8 466.5C243.7 467.4 247.9 469.7 247.9 469.7C247.9 471.4 247.8 473.2 247.7 474.8C244.4 473.9 241 473.2 237.6 472.9Z" fill="#FCE6C5"/>
<path id="Vector_19" d="M226.8 482.3C227 483.6 227.1 484.8 227.3 485.9C227.5 487.1 227.7 488.1 227.9 489.1C224.8 489.3 221.8 489.9 218.8 490.7C218.1 488.7 217.6 486.5 217.1 484.2C220.3 483.2 223.6 482.6 226.8 482.3Z" fill="#FCE6C5"/>
<path id="Vector_20" d="M225.8 466.5C225.8 468.7 225.9 470.8 226 472.9C222.6 473.2 219.2 473.9 215.8 474.8C215.7 473.1 215.6 471.4 215.6 469.7C215.7 469.6 219.9 467.4 225.8 466.5Z" fill="#FCE6C5"/>
<path id="Vector_21" d="M236.9 481C237.1 478.8 237.3 476.4 237.5 473.9C240.9 474.2 244.3 474.9 247.6 475.8C247.4 478.2 247.1 480.6 246.7 482.9C243.5 481.9 240.2 481.3 236.9 481Z" fill="#FCE6C5"/>
<path id="Vector_22" d="M235.3 490.7C238.3 490.9 241.3 491.4 244.3 492.2C242.8 496.1 241 497.9 238.9 500C238.6 497.5 237 495.4 234.8 494.4C234.7 494.3 234.6 494.3 234.5 494.2C233.9 493.4 235.2 491.9 235.3 490.7Z" fill="#FCE6C5"/>
<path id="Vector_23" d="M228.3 490.7C228.4 491.8 229.7 493.4 229.2 494.2C229.1 494.3 229 494.4 228.9 494.5C226.7 495.5 225.1 497.6 224.8 500.1C222.7 498 220.9 496.2 219.4 492.3C222.3 491.4 225.3 490.9 228.3 490.7Z" fill="#FCE6C5"/>
<path id="Vector_24" d="M213.1 468.7C213 461.5 220.2 454.5 227.9 453.7C227.9 453.7 228 453.7 228.1 453.7C228.1 453.7 234.2 453.7 235.4 453.7C235.5 453.7 235.6 453.7 235.6 453.7C243.3 454.5 250.6 461.6 250.4 468.7C250.4 468.8 250.4 469 250.4 469.1C249.4 468.6 248.4 468.1 247.4 467.7C244.3 466.4 241.2 465.6 238 465.1C237.9 459.2 238.5 456.8 231.7 456.7C224.9 456.8 225.5 459.2 225.4 465.1C222.2 465.6 219.1 466.5 216 467.7C215 468.1 214 468.6 213 469.1C213.1 469 213.1 468.8 213.1 468.7Z" fill="#FCE6C5"/>
<path id="Vector_25" d="M227.4 471.9C227.3 470.1 227.3 468.3 227.2 466.5H236.4C236.4 468.3 236.3 470.2 236.2 471.9C234.7 471.8 233.3 471.7 231.8 471.7C230.3 471.7 228.9 471.8 227.4 471.9Z" fill="#FCE6C5"/>
<path id="Vector_26" d="M228 480C227.8 477.8 227.6 475.4 227.5 472.8C228.9 472.7 230.4 472.6 231.9 472.6C233.4 472.6 234.8 472.7 236.3 472.8C236.2 475.3 236 477.7 235.8 480C234.5 479.9 233.3 479.9 232 479.9C230.5 479.8 229.3 479.9 228 480Z" fill="#FCE6C5"/>
<path id="Vector_27" d="M235.5 481.4C235.2 484 234.9 486.3 234.5 488.2C234.3 488.2 234.1 488.2 233.9 488.2C233.3 488.2 232.7 488.2 232.1 488.2C232 488.2 232 488.2 231.9 488.2C231.8 488.2 231.8 488.2 231.7 488.2C231.1 488.2 230.5 488.2 229.9 488.2C229.7 488.2 229.5 488.2 229.3 488.2C228.9 486.3 228.5 484 228.3 481.4C229.5 481.3 230.7 481.3 232 481.3C233 481.2 234.2 481.3 235.5 481.4Z" fill="#FCE6C5"/>
<path id="Vector_28" d="M236.5 464.9C236.1 464.9 235.7 464.8 235.3 464.8H235.2C234.1 464.7 232.9 464.7 231.8 464.7C230.7 464.7 229.5 464.7 228.4 464.8C228.4 464.8 228.4 464.8 228.3 464.8C227.9 464.8 227.5 464.9 227.1 464.9C227.1 464.4 227.1 463.8 227.1 463.3C227.1 461.5 227.3 459.1 228.3 458.9C228.5 458.8 228.6 458.8 228.9 458.7C229.7 458.4 230.8 458.3 231.8 458.4C232.8 458.4 233.9 458.5 234.7 458.7C234.9 458.8 235.1 458.8 235.3 458.9C236.4 459.1 236.5 461.5 236.5 463.3C236.5 463.8 236.5 464.3 236.5 464.9Z" fill="#FCE6C5"/>
</g>
</g>
<path id="Shell_4" d="M95.7 345.9C94.8 358.5 103.5 369.7 115.5 372.3V372.4C117.3 372.6 119 372.9 120.8 373.1C121.1 373.1 121.7 372.8 121.8 372.4C124.2 367.2 125.2 361.7 124.9 355.8C126.1 355.3 127.3 354.5 128.3 353.6C131 351.2 132.6 348 132.9 344.4C132.9 344 132.9 343.6 132.9 343.3C132.9 334.7 126.2 327.4 117.5 326.8C106.3 326.1 96.5 334.6 95.7 345.9ZM97.6 346C97.6 345.5 97.7 345.1 97.7 344.6C100.8 346.2 104.1 346.5 107.6 346.2C107.9 346.2 108.2 346 108.4 345.9C108.4 347.4 108.6 348.8 109.2 350.2C105.6 351.6 101.9 352.1 97.9 351.7C97.5 349.8 97.4 347.9 97.6 346ZM103.3 363C102.2 361.8 101.3 360.4 100.5 359C103.8 358.3 106.9 357.1 109.6 354.8C110.5 354.1 111 353.6 111.2 353.2C112.1 354.3 113.2 355.1 114.5 355.7C114.4 355.9 114.2 356 114.1 356.2C112.8 358.3 111.3 360.3 109.7 362.1C108.6 363.3 107.2 364.3 105.9 365.3C104.9 364.7 104.1 363.9 103.3 363ZM116.7 370.7C114.2 370.2 111.7 369.4 109.5 368.1C111.4 366.9 112.9 365.4 114.2 363.5C115.6 361.5 116.7 359.3 117.4 356.8C117.8 356.9 118.2 356.9 118.6 356.9C119.5 357 120.4 356.9 121.2 356.8C121.2 362.1 119.9 366.8 116.7 370.7ZM117.4 328.7C118.8 328.8 120.1 329.1 121.4 329.5C120.6 330.8 120.2 332.2 120.3 333.8C120.4 335 120.5 336.2 121.8 336.7C123.4 335.3 124.8 334 126.4 332.7C129.1 335.2 130.8 338.6 131 342.4C129.5 342.4 127.9 342.6 126.4 342.8C126.2 342.8 125.9 343.3 125.9 343.6C125.7 344.6 125.6 345.6 125.5 346.4C127 347.2 128.4 348 129.9 348.8C129.2 350.1 128.3 351.3 127.2 352.3C124.9 354.3 121.9 355.3 118.8 355.1C117.5 355 116.3 354.7 115.2 354.1C116.2 352.1 116 350 114.7 349.3C114 350.1 113.3 351 112.5 351.9C111.8 351.1 111.3 350.2 111 349.2C111.5 349 111.9 348.8 112.4 348.5C113.1 348 113.6 347.2 113.1 346.3C112.2 346.3 111.4 346.3 110.5 346.3C110.5 346 110.5 345.7 110.5 345.4C110.5 344.7 110.7 344 110.9 343.4C111.6 343.4 112.2 343.5 112.9 343.4C113.6 343.3 114 342.1 113.6 341.6C113.3 341.3 113.1 341 112.8 340.7C112.8 340.7 112.9 340.7 112.9 340.6C113.5 340.1 114.1 339.7 114.7 339.4C114.7 339.5 114.8 339.6 114.8 339.6C115.2 340.2 115.6 341 116.6 340.7C116.8 340.7 116.9 340.4 116.9 340.2C116.9 339.7 116.9 339.3 116.9 338.8C117.2 338.8 117.6 338.8 118 338.8C119.5 338.9 120.8 339.6 121.8 340.7C122.7 341.8 123.2 343.2 123.1 344.6C122.6 344.5 121.8 344.7 120.7 345.1C119.9 340.2 117.5 340.1 115.8 341.8C114.7 342.5 113.9 343.7 113.8 345.1C113.7 346.4 114.1 347.7 115 348.7C115.9 349.7 117.1 350.3 118.4 350.4C121.7 350.6 124.6 348.1 124.8 344.8C124.9 342.9 124.3 341 123 339.5C121.7 338 119.9 337.1 118 337C114 336.7 110.4 339.2 109 342.8C105.6 342 102.6 340.6 100 338C101.6 335.2 103.9 332.9 106.7 331.2C107.9 333.6 109.5 335.5 111.7 336.6C112.2 336.9 112.8 336.7 113.4 336.8C113.4 336.7 113.5 336.6 113.5 336.5C112.1 334.3 111.8 331.9 111.9 329.1C113.7 328.7 115.5 328.6 117.4 328.7Z" fill="#FCE6C5"/>
<path id="Leaf_4" d="M116.9 487.3C117.8 486.5 118.8 485.7 119.7 485.1C121.5 484 122.7 482.5 122.8 481.4C122.8 481.1 122.8 480.8 122.8 480.5C122.8 479.9 122.8 479.3 122.8 478.7C122.8 478.1 122.3 477.7 121.7 477.9C120 478.4 118.2 478.7 116.5 479.2C117.3 478.5 115.7 479.5 116.5 479.2C118.2 478.6 121.8 475.9 121.8 474.7C121.8 474.4 121.8 474.1 121.8 473.9C121.8 473.3 121.8 472.7 121.7 472.1C121.7 471.6 121.1 471.2 120.6 471.3C120.6 471.3 120.6 471.3 120.5 471.3C119.7 471.6 119.1 470.5 119.6 469.9C120.3 469.1 120.8 468.4 120.8 468C120.8 467.8 120.8 467.7 120.8 467.5C120.8 467 120.7 466.4 120.7 465.9C120.7 465.4 120.2 465.1 119.7 465.1C118.4 465.3 117 466.2 115.6 466.5C116.2 465.9 116.7 465.3 117.3 465.2C118.6 464.9 119.2 462.8 119.1 461.6C119.1 461.4 119.1 461.3 119.1 461.1C119 460.3 115.1 453.7 114.1 453.7C113.1 453.7 109.2 460.4 109.1 461.1C109.1 461.3 109.1 461.4 109.1 461.6C109 462.7 109.7 464.9 110.9 465.2C111.5 465.3 112 465.9 112.6 466.5C111.2 466.2 109.9 465.3 108.5 465.1C108 465 107.6 465.4 107.5 465.9C107.5 466.4 107.4 467 107.4 467.5C107.4 467.7 107.4 467.8 107.4 468C107.4 468.4 107.9 469.1 108.6 469.9C109.2 470.5 108.6 471.5 107.7 471.3C107.7 471.3 107.7 471.3 107.6 471.3C107.1 471.1 106.5 471.5 106.5 472.1C106.5 472.7 106.4 473.3 106.4 473.9C106.4 474.2 106.4 474.5 106.4 474.7C106.4 475.9 110 478.6 111.7 479.2C112.5 479.5 110.9 478.5 111.7 479.2C110 478.7 108.2 478.4 106.5 477.9C106 477.8 105.4 478.2 105.4 478.7C105.4 479.3 105.4 479.9 105.4 480.5C105.4 480.8 105.4 481.1 105.4 481.4C105.5 482.5 106.7 484.1 108.5 485.1C109.4 485.6 110.4 486.5 111.3 487.3C109.6 486.6 107.9 485.9 106.1 484.8C105.5 484.4 104.7 484.9 104.8 485.6C104.9 486.2 104.9 486.7 105 487.3C105.1 487.8 105.2 488.3 105.2 488.9C105.4 490 106.7 492.3 108.4 494.1C109.4 495.1 110.4 496 111.3 496.7C111.5 497.6 111.7 498.2 111.9 499.1C111.5 500.2 116 500.2 115.6 499.1C115.8 498.2 116 497.6 116.2 496.7C117.2 496 118.1 495.1 119.1 494.1C120.8 492.3 122.1 490 122.3 488.9C122.4 488.4 122.5 487.8 122.5 487.3C122.6 486.7 122.7 486.2 122.7 485.6C122.8 484.9 122 484.4 121.4 484.8C120.3 485.8 118.6 486.6 116.9 487.3ZM114.7 495.8C114.7 496 114.5 496.2 114.3 496.2C114.1 496.2 113.9 496 113.9 495.8L114.3 461.5C114.3 461.3 114.1 461.5 114.3 461.5C114.5 461.5 114.3 461.3 114.3 461.5L114.7 495.8Z" fill="#FCE6C5"/>
<g id="Trilo_4">
<g id="Group_4">
<path id="Vector_29" d="M480.8 109C481.5 109 482.3 109 483 109.1C482.3 111.8 481.6 113.1 480.8 113.1C480 113.1 479.2 111.8 478.6 109.1C479.3 109 480 109 480.8 109Z" fill="#FCE6C5"/>
<path id="Vector_30" d="M484.7 108.4C484.9 107.5 485.1 106.4 485.3 105.2C485.5 104.1 485.6 102.9 485.8 101.6C489.1 101.9 492.3 102.5 495.5 103.4C495 105.7 494.5 107.9 493.8 109.9C490.8 109.1 487.7 108.6 484.7 108.4Z" fill="#FCE6C5"/>
<path id="Vector_31" d="M475 93.1C475.1 95.6 475.3 98 475.6 100.2C472.3 100.5 469 101.1 465.8 102C465.4 99.7 465.1 97.3 464.9 94.9C468.3 94.1 471.6 93.4 475 93.1Z" fill="#FCE6C5"/>
<path id="Vector_32" d="M486.6 92.2C486.7 90.1 486.8 88 486.8 85.8C492.7 86.7 496.9 89 496.9 89C496.9 90.7 496.8 92.5 496.7 94.1C493.4 93.1 490 92.5 486.6 92.2Z" fill="#FCE6C5"/>
<path id="Vector_33" d="M475.8 101.6C476 102.9 476.1 104.1 476.3 105.2C476.5 106.4 476.7 107.4 476.9 108.4C473.8 108.6 470.8 109.2 467.8 110C467.1 108 466.6 105.8 466.1 103.5C469.3 102.5 472.5 101.9 475.8 101.6Z" fill="#FCE6C5"/>
<path id="Vector_34" d="M474.8 85.8C474.8 88 474.9 90.1 475 92.2C471.6 92.5 468.2 93.2 464.8 94.1C464.7 92.4 464.6 90.7 464.6 89C464.7 88.9 468.9 86.6 474.8 85.8Z" fill="#FCE6C5"/>
<path id="Vector_35" d="M485.9 100.2C486.1 98 486.3 95.6 486.5 93.1C489.9 93.4 493.3 94.1 496.6 95C496.4 97.4 496.1 99.8 495.7 102.1C492.5 101.2 489.2 100.6 485.9 100.2Z" fill="#FCE6C5"/>
<path id="Vector_36" d="M484.3 110C487.3 110.2 490.3 110.7 493.3 111.5C491.8 115.4 490 117.2 487.9 119.3C487.6 116.8 486 114.7 483.8 113.7C483.7 113.6 483.6 113.6 483.5 113.5C482.9 112.7 484.1 111.1 484.3 110Z" fill="#FCE6C5"/>
<path id="Vector_37" d="M477.3 110C477.4 111.1 478.7 112.7 478.2 113.5C478.1 113.6 478 113.7 477.9 113.8C475.7 114.8 474.1 116.9 473.8 119.4C471.7 117.3 469.9 115.5 468.4 111.6C471.3 110.7 474.3 110.2 477.3 110Z" fill="#FCE6C5"/>
<path id="Vector_38" d="M462.1 88C462 80.8 469.2 73.8 476.9 73C476.9 73 477 73 477.1 73C477.1 73 483.2 73 484.4 73C484.5 73 484.6 73 484.6 73C492.3 73.8 499.6 80.9 499.4 88C499.4 88.1 499.4 88.3 499.4 88.4C498.4 87.9 497.4 87.4 496.4 87C493.3 85.7 490.2 84.9 487 84.4C486.9 78.5 487.5 76.1 480.7 76C473.9 76.1 474.5 78.5 474.4 84.4C471.2 84.9 468.1 85.8 465 87C464 87.4 463 87.9 462 88.4C462.1 88.2 462.1 88.1 462.1 88Z" fill="#FCE6C5"/>
<path id="Vector_39" d="M476.4 91.2C476.3 89.4 476.3 87.6 476.2 85.8H485.4C485.4 87.6 485.3 89.5 485.2 91.2C483.7 91.1 482.3 91 480.8 91C479.3 91 477.8 91.1 476.4 91.2Z" fill="#FCE6C5"/>
<path id="Vector_40" d="M477 99.3C476.8 97.1 476.6 94.7 476.5 92.1C477.9 92 479.4 91.9 480.9 91.9C482.4 91.9 483.8 92 485.3 92.1C485.2 94.6 485 97 484.8 99.3C483.5 99.2 482.3 99.2 481 99.2C479.5 99.1 478.2 99.2 477 99.3Z" fill="#FCE6C5"/>
<path id="Vector_41" d="M484.4 100.6C484.1 103.2 483.8 105.5 483.4 107.4C483.2 107.4 483 107.4 482.8 107.4C482.2 107.4 481.6 107.4 481 107.4C480.9 107.4 480.9 107.4 480.8 107.4C480.7 107.4 480.7 107.4 480.6 107.4C480 107.4 479.4 107.4 478.8 107.4C478.6 107.4 478.4 107.4 478.2 107.4C477.8 105.5 477.4 103.2 477.2 100.6C478.4 100.5 479.6 100.5 480.9 100.5C482 100.5 483.2 100.5 484.4 100.6Z" fill="#FCE6C5"/>
<path id="Vector_42" d="M485.5 84.1C485.1 84.1 484.7 84 484.3 84H484.2C483.1 83.9 481.9 83.9 480.8 83.9C479.7 83.9 478.5 83.9 477.4 84C477.4 84 477.4 84 477.3 84C476.9 84 476.5 84.1 476.1 84.1C476.1 83.6 476.1 83 476.1 82.5C476.1 80.7 476.3 78.3 477.3 78.1C477.5 78 477.6 78 477.9 77.9C478.7 77.6 479.8 77.5 480.8 77.6C481.8 77.6 482.9 77.7 483.7 77.9C483.9 78 484.1 78 484.3 78.1C485.4 78.3 485.5 80.7 485.5 82.5C485.5 83.1 485.5 83.6 485.5 84.1Z" fill="#FCE6C5"/>
</g>
</g>
<path id="Fish_3" d="M483.4 221C483.4 220.4 483.9 219.8 484.6 219.9C488.1 220.1 490.4 220.6 494.1 221.5C494.2 221.2 494.2 220.9 494.3 220.6C490.5 219.7 488.1 219.2 484.4 219C483.8 219 483.3 218.5 483.3 217.9C483.3 217.3 483.8 216.7 484.5 216.8C486.1 216.9 487.6 217 489.1 217.3C489.1 217.3 495.7 216.9 493.9 209.6C492.5 206.8 490.5 204.2 488.2 202.5L490.9 209C491.5 210.5 490.6 212.1 488.8 212.6L486.3 201.3C484.9 200.5 483.3 200.1 481.7 200.1C473.6 200.1 467 211.3 467 219.1C470.9 217.8 474.9 217.1 478.9 216.9C479.5 216.9 480.1 217.4 480.1 218C480.1 218.6 479.6 219.1 479 219.1C475.1 219.3 471.2 219.8 467.4 220.7C467.5 221 467.5 221.3 467.6 221.6C471.3 220.7 475.1 220.2 478.9 220C479.5 220 480.1 220.5 480.1 221.1V221.6C480.1 222.2 479.6 222.7 479 222.7C475.1 222.9 471.2 223.4 467.4 224.3C467.5 224.6 467.5 224.9 467.6 225.2C471.3 224.3 475.1 223.8 478.9 223.6C479.5 223.6 480.1 224.1 480.1 224.7V224.8C480.1 225.4 479.6 225.9 479 225.9C476.2 226 472 226.4 469.6 226.8C469.7 227.3 469.8 227.7 469.8 228.2C472.1 227.8 476.1 227.4 478.8 227.3C479.4 227.3 480 227.8 480 228.4C480 229 479.5 229.5 478.9 229.5C476.5 229.6 474.1 229.9 471.7 230.3C471.8 230.8 471.9 231.2 471.9 231.7C474.2 231.3 476.5 231 478.8 230.9C479.4 230.9 480 231.4 480 232V232.9V234C477.9 235.6 475.8 237.2 473.7 238.8C472.6 239.7 472.5 241.3 473.5 242.3C475.7 239.9 477.8 237.4 480 235V235.3C478.5 238.4 477 241.5 475.4 244.6C476.1 245 476.7 245.3 477.4 245.6C478.3 242.7 479.2 239.9 480 237C480.3 237 480.7 237 481.1 237C480.9 240.1 480.6 243.2 480.4 246.3C481.1 246.4 481.8 246.4 482.5 246.3C482.3 243.2 482 240.1 481.8 237C482.2 237 482.6 237 482.9 237C483.8 239.9 484.7 242.7 485.5 245.6C486.2 245.3 486.8 245 487.5 244.6C486 241.5 484.5 238.4 482.9 235.3V235C485.1 237.4 487.2 239.9 489.4 242.3C490.4 241.3 490.3 239.7 489.2 238.8C487.1 237.2 485 235.6 482.9 234V232.9V232C482.9 231.4 483.4 230.8 484.1 230.9C485.9 231 486.9 231.3 489.1 231.7C489.2 231.2 489.3 230.8 489.3 230.3C486.9 229.9 485.9 229.6 483.9 229.5C483.3 229.5 482.8 229 482.8 228.4C482.8 227.7 483.4 227.2 484 227.3C486.2 227.4 488.1 227.8 490.4 228.2C490.5 227.7 490.6 227.3 490.6 226.8C488.2 226.4 486.1 226 483.8 225.9C483.2 225.9 482.7 225.4 482.7 224.8V224.7C482.7 224.1 483.2 223.5 483.9 223.6C487.4 223.8 489.7 224.3 493.4 225.2C493.5 224.9 493.5 224.6 493.6 224.3C489.8 223.4 487.4 222.9 483.7 222.7C483.1 222.7 482.6 222.2 482.6 221.6V221H483.4ZM481.9 202.3C487.5 202.3 481.9 211.7 481.9 211.7L479.8 212.4C475.6 213.8 472.3 208.6 475.4 205.5C477.3 203.5 479.5 202.3 481.9 202.3Z" fill="#FCE6C5"/>
<path id="Fish_2" d="M243.7 94.1C243.7 93.5 244.2 92.9 244.9 93C248.4 93.2 250.7 93.7 254.4 94.6C254.5 94.3 254.5 94 254.6 93.7C250.8 92.8 248.4 92.3 244.7 92.1C244.1 92.1 243.6 91.6 243.6 91C243.6 90.4 244.1 89.8 244.8 89.9C246.4 90 247.9 90.1 249.4 90.4C249.4 90.4 256 90 254.2 82.7C252.8 79.9 250.8 77.3 248.5 75.6L251.2 82.1C251.8 83.6 250.9 85.2 249.1 85.7L246.6 74.4C245.2 73.6 243.6 73.2 242 73.2C233.9 73.2 227.3 84.4 227.3 92.2C231.2 90.9 235.2 90.2 239.2 90C239.8 90 240.4 90.5 240.4 91.1C240.4 91.7 239.9 92.2 239.3 92.2C235.4 92.4 231.5 92.9 227.7 93.8C227.8 94.1 227.8 94.4 227.9 94.7C231.6 93.8 235.4 93.3 239.2 93.1C239.8 93.1 240.4 93.6 240.4 94.2V94.7C240.4 95.3 239.9 95.8 239.3 95.8C235.4 96 231.5 96.5 227.7 97.4C227.8 97.7 227.8 98 227.9 98.3C231.6 97.4 235.4 96.9 239.2 96.7C239.8 96.7 240.4 97.2 240.4 97.8V97.9C240.4 98.5 239.9 99 239.3 99C236.5 99.1 232.3 99.5 229.9 99.9C230 100.4 230.1 100.8 230.1 101.3C232.4 100.9 236.4 100.5 239.1 100.4C239.7 100.4 240.3 100.9 240.3 101.5C240.3 102.1 239.8 102.6 239.2 102.6C236.8 102.7 234.4 103 232 103.4C232.1 103.9 232.2 104.3 232.2 104.8C234.5 104.4 236.8 104.1 239.1 104C239.7 104 240.3 104.5 240.3 105.1V106V107.1C238.2 108.7 236.1 110.3 234 111.9C232.9 112.8 232.8 114.4 233.8 115.4C236 113 238.1 110.5 240.3 108.1V108.4C238.8 111.5 237.3 114.6 235.7 117.7C236.4 118.1 237 118.4 237.7 118.7C238.6 115.8 239.5 113 240.3 110.1C240.6 110.1 241 110.1 241.4 110.1C241.2 113.2 240.9 116.3 240.7 119.4C241.4 119.5 242.1 119.5 242.8 119.4C242.6 116.3 242.3 113.2 242.1 110.1C242.5 110.1 242.9 110.1 243.2 110.1C244.1 113 245 115.8 245.8 118.7C246.5 118.4 247.1 118.1 247.8 117.7C246.3 114.6 244.8 111.5 243.2 108.4V108C245.4 110.4 247.5 112.9 249.7 115.3C250.7 114.3 250.6 112.7 249.5 111.8C247.4 110.2 245.3 108.6 243.2 107V105.9V105C243.2 104.4 243.7 103.8 244.4 103.9C246.2 104 247.2 104.3 249.4 104.7C249.5 104.2 249.6 103.8 249.6 103.3C247.2 102.9 246.2 102.6 244.2 102.5C243.6 102.5 243.1 102 243.1 101.4C243.1 100.7 243.7 100.2 244.3 100.3C246.5 100.4 248.4 100.8 250.7 101.2C250.8 100.7 250.9 100.3 250.9 99.8C248.5 99.4 246.4 99 244.1 98.9C243.5 98.9 243 98.4 243 97.8V97.7C243 97.1 243.5 96.5 244.2 96.6C247.7 96.8 250 97.3 253.7 98.2C253.8 97.9 253.8 97.6 253.9 97.3C250.1 96.4 247.7 95.9 244 95.7C243.4 95.7 242.9 95.2 242.9 94.6V94.1H243.7ZM242.2 75.4C247.8 75.4 242.2 84.8 242.2 84.8L240.1 85.5C235.9 86.9 232.6 81.7 235.7 78.6C237.6 76.6 239.9 75.4 242.2 75.4Z" fill="#FCE6C5"/>
<path id="Shell_3" d="M337.1 219C336.2 231.6 344.9 242.8 356.9 245.4V245.5C358.7 245.7 360.4 246 362.2 246.2C362.5 246.2 363.1 245.9 363.2 245.5C365.6 240.3 366.6 234.8 366.3 228.9C367.5 228.4 368.7 227.6 369.7 226.7C372.4 224.3 374 221.1 374.3 217.5C374.3 217.1 374.3 216.7 374.3 216.4C374.3 207.8 367.6 200.5 358.9 199.9C347.6 199.2 337.9 207.7 337.1 219ZM338.9 219.1C338.9 218.6 339 218.2 339 217.7C342.1 219.3 345.4 219.6 348.9 219.3C349.2 219.3 349.5 219.1 349.7 219C349.7 220.5 349.9 221.9 350.5 223.3C346.9 224.7 343.2 225.2 339.2 224.8C338.9 222.9 338.8 221 338.9 219.1ZM344.7 236.1C343.6 234.9 342.7 233.5 341.9 232.1C345.2 231.4 348.3 230.2 351 227.9C351.9 227.2 352.4 226.7 352.6 226.3C353.5 227.4 354.6 228.2 355.9 228.8C355.8 229 355.6 229.1 355.5 229.3C354.2 231.4 352.7 233.4 351.1 235.2C350 236.4 348.6 237.4 347.3 238.4C346.3 237.8 345.4 237 344.7 236.1ZM358.1 243.7C355.6 243.2 353.1 242.4 350.9 241.1C352.8 239.9 354.3 238.4 355.6 236.5C357 234.5 358.1 232.3 358.8 229.8C359.2 229.9 359.6 229.9 360 229.9C360.9 230 361.8 229.9 362.6 229.8C362.5 235.2 361.2 239.9 358.1 243.7ZM358.7 201.8C360.1 201.9 361.4 202.2 362.7 202.6C361.9 203.9 361.5 205.3 361.6 206.9C361.7 208.1 361.8 209.3 363.1 209.8C364.7 208.4 366.1 207.1 367.7 205.8C370.4 208.3 372.1 211.7 372.3 215.5C370.8 215.5 369.2 215.7 367.7 215.9C367.5 215.9 367.2 216.4 367.2 216.7C367 217.7 366.9 218.7 366.8 219.5C368.3 220.3 369.7 221.1 371.2 221.9C370.5 223.2 369.6 224.4 368.5 225.4C366.2 227.4 363.2 228.4 360.1 228.2C358.8 228.1 357.6 227.8 356.5 227.2C357.5 225.2 357.3 223.1 356 222.4C355.3 223.2 354.6 224.1 353.8 225C353.1 224.2 352.6 223.3 352.3 222.3C352.8 222.1 353.2 221.9 353.7 221.6C354.4 221.1 354.9 220.3 354.4 219.4C353.5 219.4 352.7 219.4 351.8 219.4C351.8 219.1 351.8 218.8 351.8 218.5C351.8 217.8 352 217.1 352.2 216.5C352.9 216.5 353.5 216.6 354.2 216.5C354.9 216.4 355.3 215.2 354.9 214.7C354.6 214.4 354.4 214.1 354.1 213.8C354.1 213.8 354.2 213.8 354.2 213.7C354.8 213.2 355.4 212.8 356 212.5C356 212.6 356.1 212.7 356.1 212.7C356.5 213.3 356.9 214.1 357.9 213.8C358.1 213.8 358.2 213.5 358.2 213.3C358.2 212.8 358.2 212.4 358.2 211.9C358.5 211.9 358.9 211.9 359.3 211.9C360.8 212 362.1 212.7 363.1 213.8C364 214.9 364.5 216.3 364.4 217.7C363.9 217.6 363.1 217.8 362 218.2C361.2 213.3 358.8 213.2 357.1 214.9C356 215.6 355.2 216.8 355.1 218.2C355 219.5 355.4 220.8 356.3 221.8C357.2 222.8 358.4 223.4 359.7 223.5C363 223.7 365.9 221.2 366.1 217.9C366.2 216 365.6 214.1 364.3 212.6C363 211.1 361.2 210.2 359.3 210.1C355.3 209.8 351.7 212.3 350.3 215.9C346.9 215.1 343.9 213.7 341.3 211.1C342.9 208.3 345.2 206 348 204.3C349.2 206.7 350.8 208.6 353 209.7C353.5 210 354.1 209.8 354.7 209.9C354.7 209.8 354.8 209.7 354.8 209.6C353.4 207.4 353.1 205 353.2 202.2C355 201.8 356.9 201.7 358.7 201.8Z" fill="#FCE6C5"/>
<path id="Leaf_3" d="M361 106.6C361.9 105.8 362.9 105 363.8 104.4C365.6 103.3 366.8 101.8 366.9 100.7C366.9 100.4 366.9 100.1 366.9 99.8C366.9 99.2 366.9 98.6 366.9 98C366.9 97.4 366.4 97 365.8 97.2C364.1 97.7 362.3 98 360.6 98.5C361.4 97.8 359.8 98.8 360.6 98.5C362.3 97.9 365.9 95.2 365.9 94C365.9 93.7 365.9 93.4 365.9 93.2C365.9 92.6 365.9 92 365.8 91.4C365.8 90.9 365.2 90.5 364.7 90.6C364.7 90.6 364.7 90.6 364.6 90.6C363.8 90.9 363.2 89.8 363.7 89.2C364.4 88.4 364.9 87.7 364.9 87.3C364.9 87.1 364.9 87 364.9 86.8C364.9 86.3 364.8 85.7 364.8 85.2C364.8 84.7 364.3 84.4 363.8 84.4C362.5 84.6 361.1 85.5 359.7 85.8C360.3 85.2 360.8 84.6 361.4 84.5C362.7 84.2 363.3 82.1 363.2 80.9C363.2 80.7 363.2 80.6 363.2 80.4C363.1 79.6 359.2 73 358.2 73C357.2 73 353.3 79.7 353.2 80.4C353.2 80.6 353.2 80.7 353.2 80.9C353.1 82 353.8 84.2 355 84.5C355.6 84.6 356.1 85.2 356.7 85.8C355.3 85.5 354 84.6 352.6 84.4C352.1 84.3 351.7 84.7 351.6 85.2C351.6 85.7 351.5 86.3 351.5 86.8C351.5 87 351.5 87.1 351.5 87.3C351.5 87.7 352 88.4 352.7 89.2C353.3 89.8 352.7 90.8 351.8 90.6C351.8 90.6 351.8 90.6 351.7 90.6C351.2 90.4 350.6 90.8 350.6 91.4C350.6 92 350.5 92.6 350.5 93.2C350.5 93.5 350.5 93.8 350.5 94C350.5 95.2 354.1 97.9 355.8 98.5C356.6 98.8 355 97.8 355.8 98.5C354.1 98 352.3 97.7 350.6 97.2C350.1 97.1 349.5 97.5 349.5 98C349.5 98.6 349.5 99.2 349.5 99.8C349.5 100.1 349.5 100.4 349.5 100.7C349.6 101.8 350.8 103.4 352.6 104.4C353.5 104.9 354.5 105.8 355.4 106.6C353.7 105.9 352 105.2 350.2 104.1C349.6 103.7 348.8 104.2 348.9 104.9C349 105.5 349 106 349.1 106.6C349.2 107.1 349.3 107.7 349.3 108.2C349.5 109.3 350.8 111.6 352.5 113.4C353.5 114.4 354.5 115.3 355.4 116C355.6 116.9 355.8 117.5 356 118.4C355.6 119.5 360.1 119.5 359.7 118.4C359.9 117.5 360.1 116.9 360.3 116C361.3 115.3 362.2 114.4 363.2 113.4C364.9 111.6 366.2 109.3 366.4 108.2C366.5 107.7 366.6 107.1 366.6 106.6C366.7 106 366.8 105.5 366.8 104.9C366.9 104.2 366.1 103.7 365.5 104.1C364.4 105.1 362.7 105.9 361 106.6ZM358.8 115.1C358.8 115.3 358.6 115.5 358.4 115.5C358.2 115.5 358 115.3 358 115.1L358.4 80.8C358.4 80.6 358.2 80.8 358.4 80.8C358.6 80.8 358.4 80.6 358.4 80.8L358.8 115.1Z" fill="#FCE6C5"/>
<g id="Trilo_3">
<g id="Group_5">
<path id="Vector_43" d="M114.3 235.9C115 235.9 115.8 235.9 116.5 236C115.8 238.7 115.1 240 114.3 240C113.5 240 112.7 238.7 112.1 236C112.8 235.9 113.5 235.9 114.3 235.9Z" fill="#FCE6C5"/>
<path id="Vector_44" d="M118.2 235.3C118.4 234.4 118.6 233.3 118.8 232.1C119 231 119.1 229.8 119.3 228.5C122.6 228.8 125.8 229.4 129 230.3C128.5 232.6 128 234.8 127.3 236.8C124.3 236 121.2 235.5 118.2 235.3Z" fill="#FCE6C5"/>
<path id="Vector_45" d="M108.6 220C108.7 222.5 108.9 224.9 109.2 227.1C105.9 227.4 102.6 228 99.4 228.9C99 226.6 98.7 224.2 98.5 221.8C101.8 221 105.2 220.3 108.6 220Z" fill="#FCE6C5"/>
<path id="Vector_46" d="M120.1 219.1C120.2 217 120.3 214.9 120.3 212.7C126.2 213.6 130.4 215.9 130.4 215.9C130.4 217.6 130.3 219.4 130.2 221C126.9 220 123.5 219.4 120.1 219.1Z" fill="#FCE6C5"/>
<path id="Vector_47" d="M109.3 228.5C109.5 229.8 109.6 231 109.8 232.1C110 233.3 110.2 234.3 110.4 235.3C107.3 235.5 104.3 236.1 101.3 236.9C100.6 234.9 100.1 232.7 99.6 230.4C102.8 229.4 106.1 228.8 109.3 228.5Z" fill="#FCE6C5"/>
<path id="Vector_48" d="M108.3 212.7C108.3 214.9 108.4 217 108.5 219.1C105.1 219.4 101.7 220.1 98.3 221C98.2 219.3 98.1 217.6 98.1 215.9C98.2 215.8 102.4 213.6 108.3 212.7Z" fill="#FCE6C5"/>
<path id="Vector_49" d="M119.4 227.1C119.6 224.9 119.8 222.5 120 220C123.4 220.3 126.8 221 130.1 221.9C129.9 224.3 129.6 226.7 129.2 229C126 228.1 122.7 227.5 119.4 227.1Z" fill="#FCE6C5"/>
<path id="Vector_50" d="M117.8 236.9C120.8 237.1 123.8 237.6 126.8 238.4C125.3 242.3 123.5 244.1 121.4 246.2C121.1 243.7 119.5 241.6 117.3 240.6C117.2 240.5 117.1 240.5 117 240.4C116.4 239.6 117.6 238 117.8 236.9Z" fill="#FCE6C5"/>
<path id="Vector_51" d="M110.8 236.9C110.9 238 112.2 239.6 111.7 240.4C111.6 240.5 111.5 240.6 111.4 240.7C109.2 241.7 107.6 243.8 107.3 246.3C105.2 244.2 103.4 242.4 101.9 238.5C104.8 237.6 107.8 237.1 110.8 236.9Z" fill="#FCE6C5"/>
<path id="Vector_52" d="M95.6 214.9C95.5 207.7 102.7 200.7 110.4 199.9C110.4 199.9 110.5 199.9 110.6 199.9C110.6 199.9 116.7 199.9 117.9 199.9C118 199.9 118.1 199.9 118.1 199.9C125.8 200.7 133.1 207.8 132.9 214.9C132.9 215 132.9 215.2 132.9 215.3C131.9 214.8 130.9 214.3 129.9 213.9C126.8 212.6 123.7 211.8 120.5 211.3C120.4 205.4 121 203 114.2 202.9C107.4 203 108 205.4 107.9 211.3C104.7 211.8 101.6 212.7 98.5 213.9C97.5 214.3 96.5 214.8 95.5 215.3C95.6 215.2 95.6 215 95.6 214.9Z" fill="#FCE6C5"/>
<path id="Vector_53" d="M109.9 218.1C109.8 216.3 109.8 214.5 109.7 212.7H118.9C118.9 214.5 118.8 216.4 118.7 218.1C117.2 218 115.8 217.9 114.3 217.9C112.8 217.9 111.4 218 109.9 218.1Z" fill="#FCE6C5"/>
<path id="Vector_54" d="M110.5 226.2C110.3 224 110.1 221.6 110 219C111.4 218.9 112.9 218.8 114.4 218.8C115.9 218.8 117.3 218.9 118.8 219C118.7 221.5 118.5 223.9 118.3 226.2C117 226.1 115.8 226.1 114.5 226.1C113.2 226.1 111.8 226.1 110.5 226.2Z" fill="#FCE6C5"/>
<path id="Vector_55" d="M117.9 227.5C117.6 230.1 117.3 232.4 116.9 234.3C116.7 234.3 116.5 234.3 116.3 234.3C115.7 234.3 115.1 234.3 114.5 234.3C114.4 234.3 114.4 234.3 114.3 234.3C114.2 234.3 114.2 234.3 114.1 234.3C113.5 234.3 112.9 234.3 112.3 234.3C112.1 234.3 111.9 234.3 111.7 234.3C111.3 232.4 110.9 230.1 110.7 227.5C111.9 227.4 113.1 227.4 114.4 227.4C115.5 227.4 116.7 227.5 117.9 227.5Z" fill="#FCE6C5"/>
<path id="Vector_56" d="M119 211.1C118.6 211.1 118.2 211 117.8 211H117.7C116.6 210.9 115.4 210.9 114.3 210.9C113.2 210.9 112 210.9 110.9 211C110.9 211 110.9 211 110.8 211C110.4 211 110 211.1 109.6 211.1C109.6 210.6 109.6 210 109.6 209.5C109.6 207.7 109.8 205.3 110.8 205.1C111 205 111.1 205 111.4 204.9C112.2 204.6 113.3 204.5 114.3 204.6C115.3 204.6 116.4 204.7 117.2 204.9C117.4 205 117.6 205 117.8 205.1C118.9 205.3 119 207.7 119 209.5C119 210 119 210.5 119 211.1Z" fill="#FCE6C5"/>
</g>
</g>
<path id="Shell_2" d="M95.7 92C94.8 104.6 103.5 115.8 115.5 118.4V118.5C117.3 118.7 119 119 120.8 119.2C121.1 119.2 121.7 118.9 121.8 118.5C124.2 113.3 125.2 107.8 124.9 101.9C126.1 101.4 127.3 100.6 128.3 99.7C131 97.3 132.6 94.1 132.9 90.5C132.9 90.1 132.9 89.7 132.9 89.4C132.9 80.8 126.2 73.5 117.5 72.9C106.3 72.3 96.5 80.8 95.7 92ZM97.6 92.2C97.6 91.7 97.7 91.3 97.7 90.8C100.8 92.4 104.1 92.7 107.6 92.4C107.9 92.4 108.2 92.2 108.4 92.1C108.4 93.6 108.6 95 109.2 96.4C105.6 97.8 101.9 98.3 97.9 97.9C97.5 96 97.4 94.1 97.6 92.2ZM103.3 109.2C102.2 108 101.3 106.6 100.5 105.2C103.8 104.5 106.9 103.3 109.6 101C110.5 100.3 111 99.8 111.2 99.4C112.1 100.5 113.2 101.3 114.5 101.9C114.4 102.1 114.2 102.2 114.1 102.4C112.8 104.5 111.3 106.5 109.7 108.3C108.6 109.5 107.2 110.5 105.9 111.5C104.9 110.9 104.1 110.1 103.3 109.2ZM116.7 116.8C114.2 116.3 111.7 115.5 109.5 114.2C111.4 113 112.9 111.5 114.2 109.6C115.6 107.6 116.7 105.4 117.4 102.9C117.8 103 118.2 103 118.6 103C119.5 103.1 120.4 103 121.2 102.9C121.2 108.3 119.9 113 116.7 116.8ZM117.4 74.9C118.8 75 120.1 75.3 121.4 75.7C120.6 77 120.2 78.4 120.3 80C120.4 81.2 120.5 82.4 121.8 82.9C123.4 81.5 124.8 80.2 126.4 78.9C129.1 81.4 130.8 84.8 131 88.6C129.5 88.6 127.9 88.8 126.4 89C126.2 89 125.9 89.5 125.9 89.8C125.7 90.8 125.6 91.8 125.5 92.6C127 93.4 128.4 94.2 129.9 95C129.2 96.3 128.3 97.5 127.2 98.5C124.9 100.5 121.9 101.5 118.8 101.3C117.5 101.2 116.3 100.9 115.2 100.3C116.2 98.3 116 96.2 114.7 95.5C114 96.3 113.3 97.2 112.5 98.1C111.8 97.3 111.3 96.4 111 95.4C111.5 95.2 111.9 95 112.4 94.7C113.1 94.2 113.6 93.4 113.1 92.5C112.2 92.5 111.4 92.5 110.5 92.5C110.5 92.2 110.5 91.9 110.5 91.6C110.5 90.9 110.7 90.2 110.9 89.6C111.6 89.6 112.2 89.7 112.9 89.6C113.6 89.5 114 88.3 113.6 87.8C113.3 87.5 113.1 87.2 112.8 86.9C112.8 86.9 112.9 86.9 112.9 86.8C113.5 86.3 114.1 85.9 114.7 85.6C114.7 85.7 114.8 85.8 114.8 85.8C115.2 86.4 115.6 87.2 116.6 86.9C116.8 86.9 116.9 86.6 116.9 86.4C116.9 85.9 116.9 85.5 116.9 85C117.2 85 117.6 85 118 85C119.5 85.1 120.8 85.8 121.8 86.9C122.7 88 123.2 89.4 123.1 90.8C122.6 90.7 121.8 90.9 120.7 91.3C119.9 86.4 117.5 86.3 115.8 88C114.7 88.7 113.9 89.9 113.8 91.3C113.7 92.6 114.1 93.9 115 94.9C115.9 95.9 117.1 96.5 118.4 96.6C121.7 96.8 124.6 94.3 124.8 91C124.9 89.1 124.3 87.2 123 85.7C121.7 84.2 119.9 83.3 118 83.2C114 82.9 110.4 85.4 109 89C105.6 88.2 102.6 86.8 100 84.2C101.6 81.4 103.9 79.1 106.7 77.4C107.9 79.8 109.5 81.7 111.7 82.8C112.2 83.1 112.8 82.9 113.4 83C113.4 82.9 113.5 82.8 113.5 82.7C112.1 80.5 111.8 78.1 111.9 75.3C113.7 74.9 115.5 74.8 117.4 74.9Z" fill="#FCE6C5"/>
<path id="Leaf_2" d="M237.6 233.5C238.5 232.7 239.5 231.9 240.4 231.3C242.2 230.2 243.4 228.7 243.5 227.6C243.5 227.3 243.5 227 243.5 226.7C243.5 226.1 243.5 225.5 243.5 224.9C243.5 224.3 243 223.9 242.4 224.1C240.7 224.6 238.9 224.9 237.2 225.4C238 224.7 236.4 225.7 237.2 225.4C238.9 224.8 242.5 222.1 242.5 220.9C242.5 220.6 242.5 220.3 242.5 220.1C242.5 219.5 242.5 218.9 242.4 218.3C242.4 217.8 241.8 217.4 241.3 217.5C241.3 217.5 241.3 217.5 241.2 217.5C240.4 217.8 239.8 216.7 240.3 216.1C241 215.3 241.5 214.6 241.5 214.2C241.5 214 241.5 213.9 241.5 213.7C241.5 213.2 241.4 212.6 241.4 212.1C241.4 211.6 240.9 211.3 240.4 211.3C239.1 211.5 237.7 212.4 236.3 212.7C236.9 212.1 237.4 211.5 238 211.4C239.3 211.1 239.9 209 239.8 207.8C239.8 207.6 239.8 207.5 239.8 207.3C239.7 206.5 235.8 199.9 234.8 199.9C233.8 199.9 229.9 206.6 229.8 207.3C229.8 207.5 229.8 207.6 229.8 207.8C229.7 208.9 230.4 211.1 231.6 211.4C232.2 211.5 232.7 212.1 233.3 212.7C231.9 212.4 230.6 211.5 229.2 211.3C228.7 211.2 228.3 211.6 228.2 212.1C228.2 212.6 228.1 213.2 228.1 213.7C228.1 213.9 228.1 214 228.1 214.2C228.1 214.6 228.6 215.3 229.3 216.1C229.9 216.7 229.3 217.7 228.4 217.5C228.4 217.5 228.4 217.5 228.3 217.5C227.8 217.3 227.2 217.7 227.2 218.3C227.2 218.9 227.1 219.5 227.1 220.1C227.1 220.4 227.1 220.7 227.1 220.9C227.1 222.1 230.7 224.8 232.4 225.4C233.2 225.7 231.6 224.7 232.4 225.4C230.7 224.9 228.9 224.6 227.2 224.1C226.7 224 226.1 224.4 226.1 224.9C226.1 225.5 226.1 226.1 226.1 226.7C226.1 227 226.1 227.3 226.1 227.6C226.2 228.7 227.4 230.3 229.2 231.3C230.1 231.8 231.1 232.7 232 233.5C230.3 232.8 228.6 232.1 226.8 231C226.2 230.6 225.4 231.1 225.5 231.8C225.6 232.4 225.6 232.9 225.7 233.5C225.8 234 225.9 234.6 225.9 235.1C226.1 236.2 227.4 238.5 229.1 240.3C230.1 241.3 231.1 242.2 232 242.9C232.2 243.8 232.4 244.4 232.6 245.3C232.2 246.4 236.7 246.4 236.3 245.3C236.5 244.4 236.7 243.8 236.9 242.9C237.9 242.2 238.8 241.3 239.8 240.3C241.5 238.5 242.8 236.2 243 235.1C243.1 234.6 243.2 234 243.2 233.5C243.3 232.9 243.4 232.4 243.4 231.8C243.5 231.1 242.7 230.6 242.1 231C241.1 232 239.3 232.8 237.6 233.5ZM235.4 242C235.4 242.2 235.2 242.4 235 242.4C234.8 242.4 234.6 242.2 234.6 242L235 207.7C235 207.5 234.8 207.7 235 207.7C235.2 207.7 235 207.5 235 207.7L235.4 242Z" fill="#FCE6C5"/>
</g>
</svg>
