<?xml version="1.0" encoding="utf-8"?>
<!-- Generator: Adobe Illustrator 24.3.0, SVG Export Plug-In . SVG Version: 6.00 Build 0)  -->
<svg version="1.1" id="Layer_1" xmlns="http://www.w3.org/2000/svg" xmlns:xlink="http://www.w3.org/1999/xlink" x="0px" y="0px"
	 viewBox="0 0 70 36" style="enable-background:new 0 0 70 36;" xml:space="preserve">
<style type="text/css">
	.st0{fill-rule:evenodd;clip-rule:evenodd;fill:#886CB6;}
	.st1{filter:url(#Adobe_OpacityMaskFilter);}
	.st2{fill-rule:evenodd;clip-rule:evenodd;fill:#FFFFFF;}
	.st3{mask:url(#logo_x40_2x-b_1_);fill-rule:evenodd;clip-rule:evenodd;fill:#886CB6;}
	.st4{filter:url(#Adobe_OpacityMaskFilter_1_);}
	.st5{mask:url(#logo_x40_2x-d_1_);fill-rule:evenodd;clip-rule:evenodd;fill:#886CB6;}
	.st6{filter:url(#Adobe_OpacityMaskFilter_2_);}
	.st7{mask:url(#logo_x40_2x-f_1_);fill-rule:evenodd;clip-rule:evenodd;fill:#886CB6;}
	.st8{fill-rule:evenodd;clip-rule:evenodd;fill:#FDE7C4;}
</style>
<g transform="translate(0 -.43)">
	<path class="st0" d="M12.5,27.6c-0.5-0.5-1.1-1-1.6-1.6C9.4,28.4,9,30,9.6,30.5c0.6,0.6,2.1,0.2,4.5-1.3
		C13.5,28.7,13,28.1,12.5,27.6 M10.2,24.4c0.5-0.8,1.1-1.7,1.8-2.7c0.7-0.9,1.4-1.9,2.2-2.9c0,0,0,0,0,0c-2.5-2.1-5.3-4-8.2-5.6
		c-1.3,2-2.4,3.9-3.4,5.8v0C5.3,20.6,7.8,22.4,10.2,24.4 M27.9,20.4L27.9,20.4c-1.9,1.7-3.8,3.3-5.5,4.7c2.1,2.6,4,5.3,5.7,8.3l0,0
		c1.9-1.3,3.8-2.8,5.7-4.4C32,25.9,30.1,23,27.9,20.4 M20.3,11.5c1.4-1.6,2.9-3.1,4.4-4.7l0,0c-4.8-3.5-9.5-5-9.5-5
		c-1.2,1.2-2.4,2.5-3.5,3.8l0,0C14.8,7.3,17.7,9.3,20.3,11.5"/>
	<g transform="translate(15 25)">
		<defs>
			<filter id="Adobe_OpacityMaskFilter" filterUnits="userSpaceOnUse" x="0.7" y="0.9" width="11.2" height="11.6">
				<feColorMatrix  type="matrix" values="1 0 0 0 0  0 1 0 0 0  0 0 1 0 0  0 0 0 1 0"/>
			</filter>
		</defs>
		<mask maskUnits="userSpaceOnUse" x="0.7" y="0.9" width="11.2" height="11.6" id="logo_x40_2x-b_1_">
			<g class="st1">
				<polygon id="logo_x40_2x-a_1_" class="st2" points="0.7,0.9 11.9,0.9 11.9,10.6 0.7,10.6 				"/>
			</g>
		</mask>
		<path class="st3" d="M6.3,0.9L6.3,0.9c-1,0.8-2,1.5-2.9,2.2c-1,0.7-1.9,1.3-2.7,1.8c2,2.3,3.8,4.9,5.4,7.6c1.9-1,3.9-2.1,5.8-3.4
			C10.3,6.2,8.4,3.5,6.3,0.9"/>
	</g>
	<path class="st0" d="M33.3,15.3L33.3,15.3L33.3,15.3c-1.6,1.5-3.2,3-4.7,4.4c2.2,2.7,4.2,5.5,5.9,8.6v0v0c1.3-1.1,2.6-2.3,3.8-3.5
		C38.3,24.8,36.9,20.1,33.3,15.3 M15,17.7c1.4-1.8,3-3.6,4.7-5.5l0,0C17.1,10,14.2,8,11.1,6.3C9.5,8.2,8.1,10.1,6.7,12v0
		C9.7,13.7,12.5,15.6,15,17.7 M9.3,25.9L9.3,25.9c-2.3-2-4.8-3.8-7.5-5.3c-1.8,3.8-1.7,6.4-1.7,9.4c2-1.5,4.6-1.9,6.9-1
		c0.1,0,0.3,0.1,0.4,0c0,0,0,0,0.1,0C8.3,28.8,8.6,26.8,9.3,25.9"/>
	<g transform="translate(10 30)">
		<defs>
			<filter id="Adobe_OpacityMaskFilter_1_" filterUnits="userSpaceOnUse" x="0.2" y="0.8" width="9.4" height="9.2">
				<feColorMatrix  type="matrix" values="1 0 0 0 0  0 1 0 0 0  0 0 1 0 0  0 0 0 1 0"/>
			</filter>
		</defs>
		<mask maskUnits="userSpaceOnUse" x="0.2" y="0.8" width="9.4" height="9.2" id="logo_x40_2x-d_1_">
			<g class="st4">
				<polygon id="logo_x40_2x-c_1_" class="st2" points="0.2,0.8 9.6,0.8 9.6,5.6 0.2,5.6 				"/>
			</g>
		</mask>
		<path class="st5" d="M4.2,0.8L4.2,0.8c-0.9,0.7-2.9,1-3.1,1.9c0,0,0,0,0,0c0,0.1,0,0.3,0,0.4C2,5.4,1.7,8,0.2,10v0
			c3,0,5.6,0,9.4-1.7C8,5.6,6.2,3.1,4.2,0.8"/>
	</g>
	<g transform="translate(13)">
		<defs>
			<filter id="Adobe_OpacityMaskFilter_2_" filterUnits="userSpaceOnUse" x="0.8" y="-4.6" width="30.8" height="30.8">
				<feColorMatrix  type="matrix" values="1 0 0 0 0  0 1 0 0 0  0 0 1 0 0  0 0 0 1 0"/>
			</filter>
		</defs>
		<mask maskUnits="userSpaceOnUse" x="0.8" y="-4.6" width="30.8" height="30.8" id="logo_x40_2x-f_1_">
			<g class="st6">
				<polygon id="logo_x40_2x-e_1_" class="st2" points="0.8,0.7 31.7,0.7 31.7,26.3 0.8,26.3 				"/>
			</g>
		</mask>
		<path class="st7" d="M27.8,26c5.2-5,5-15.2,0.1-21.3l-0.2-0.2c0,0-4.3-4.3-5.2-5.2c-0.1-0.1-0.2-0.2-0.2-0.2
			C16.3-5.7,6.1-5.9,1.1-0.7C1-0.6,0.9-0.5,0.8-0.4h0v0C1.9-0.1,2.9,0.3,4,0.7C7,2,9.9,3.6,12.5,5.6l0,0c0,0,0,0,0,0
			c4.3-4.1,5.6-6.3,10.5-1.5c4.8,4.9,2.6,6.2-1.5,10.5c0,0,0,0,0,0v0c1.9,2.6,3.5,5.5,4.8,8.6c0.4,1,0.8,2.1,1.2,3.1v0
			C27.6,26.2,27.7,26.1,27.8,26"/>
	</g>
	<path class="st0" d="M28.3,18.1L28.3,18.1c1.3-1.2,2.6-2.4,4-3.7l-6.5-6.5l0,0c-1.3,1.3-2.5,2.7-3.7,4c1.1,1,2.2,2,3.3,3
		C26.3,15.8,27.3,16.9,28.3,18.1 M22.1,23.4L22.1,23.4c1.7-1.4,3.6-3,5.5-4.7c-1-1.1-2-2.2-3-3.2s-2.1-2-3.2-3
		c-1.7,1.9-3.3,3.7-4.7,5.5h0c1,0.8,1.9,1.7,2.8,2.6C20.4,21.5,21.3,22.4,22.1,23.4 M15.8,19.1c-1.6,2-3,3.9-4.1,5.6
		c0.2,0.1,0.3,0.3,0.5,0.4c0.4,0.4,0.9,0.8,1.3,1.2c0,0,0.1,0.1,0.2,0.1c0.1,0.1,0.1,0.1,0.1,0.2c0.4,0.4,0.8,0.8,1.2,1.3
		c0.1,0.2,0.3,0.3,0.4,0.5c1.6-1.1,3.5-2.4,5.6-4.1c-0.8-0.9-1.6-1.8-2.5-2.7S16.8,19.9,15.8,19.1 M26.9,6.6L26.9,6.6
		c0.3,0.2,0.6,0.5,0.9,0.7l0.1,0.1c0.9,0.7,1.7,1.5,2.6,2.3c0.8,0.8,1.6,1.7,2.3,2.6c0,0,0,0,0,0.1c0.3,0.3,0.5,0.6,0.7,0.9
		c0.4-0.3,0.8-0.7,1.2-1.1c1.3-1.3,2.9-3.1,2.3-4c-0.1-0.1-0.2-0.3-0.3-0.5c-0.4-0.8-1.1-1.6-1.8-2.3c-0.7-0.8-1.5-1.5-2.3-1.8
		c-0.2-0.1-0.4-0.2-0.5-0.3c-0.9-0.6-2.7,1-4,2.3C27.6,5.8,27.2,6.2,26.9,6.6"/>
	<path class="st8" d="M10.8,18.2L10.3,18c-1.2-0.4-2.4-0.8-2.4-2.1c0-1.1,0.9-1.7,2.5-1.7c1,0,2,0.2,3,0.5h0.2
		c0.2,0,0.3-0.1,0.5-0.2c0.2-0.2,0.3-0.4,0.3-0.6v-0.5c0-0.4-0.2-0.6-0.5-0.8c-1.3-0.4-2.6-0.5-3.8-0.5c-4.4,0-5.1,2.5-5.1,3.9
		c0,2.1,1.2,3.2,4.2,4.2l0.5,0.2c1.2,0.4,2.5,0.9,2.5,2.2c0,0.7-0.4,1.9-2.8,1.9c-1.1,0-2.2-0.2-3.2-0.6c-0.1,0-0.2-0.1-0.2-0.1
		c-0.2,0-0.3,0.1-0.5,0.2c-0.2,0.2-0.3,0.4-0.3,0.6v0.5c0,0.3,0.2,0.6,0.5,0.8c1.3,0.5,2.7,0.7,3.9,0.7c4.8,0,5.6-2.7,5.6-4.2
		C15,20.3,13.8,19.2,10.8,18.2 M24.2,12.5h-1.9c-0.2,0-0.3-0.2-0.3-0.3v-3c0-0.5-0.3-0.8-0.8-0.8H20c-0.5,0-0.8,0.3-0.8,0.8v3
		c0,0.2-0.2,0.3-0.3,0.3H18c-0.5,0-0.8,0.3-0.8,0.8v0.8c0,0.5,0.3,0.8,0.8,0.8h0.9c0.2,0,0.3,0.2,0.3,0.3v8.1c0,2.2,1.1,3.3,3.2,3.3
		c0.6,0,1.3-0.1,1.9-0.3c0.3-0.1,0.5-0.4,0.5-0.8v-0.7c0-0.2-0.1-0.5-0.2-0.5c-0.2-0.2-0.3-0.2-0.5-0.2H24h-0.4
		c-1.1,0-1.8-0.7-1.8-1.9v-7c0-0.2,0.2-0.3,0.3-0.3h1.9c0.5,0,0.8-0.3,0.8-0.8v-0.8C25,12.9,24.6,12.5,24.2,12.5 M34.7,24.3
		c-2.6,0-4.3-1.9-4.3-4.9c0-2.9,1.8-4.8,4.3-4.8c2.6,0,4.3,1.9,4.3,4.9C39.1,22.3,37.3,24.3,34.7,24.3 M34.7,12.2
		c-4.2,0-7.1,2.9-7.1,7.2c0,4.3,2.9,7.2,7.1,7.2c4.2,0,7.1-2.9,7.1-7.2C41.8,15,39,12.2,34.7,12.2 M66,18.3h-6.7
		c-0.1,0-0.2-0.1-0.2-0.1C59,18.2,59,18.1,59,18c0.2-2.2,1.7-3.7,3.9-3.7s3.5,1.4,3.5,3.7C66.4,18.2,66.2,18.3,66,18.3 M59.3,20.1
		h9.3c0.2,0,0.4-0.1,0.5-0.2c0.2-0.2,0.2-0.3,0.2-0.5c-0.1-4.6-2.3-7.2-6.5-7.2c-4.2,0-6.9,2.9-6.9,7.2c0,4.6,2.8,7.2,7.5,7.2
		c1.6,0,3.3-0.3,5-1c0.3-0.2,0.5-0.4,0.5-0.7v-0.5c0-0.2-0.2-0.5-0.3-0.6c-0.2-0.1-0.3-0.2-0.5-0.2c-0.1,0-0.2,0-0.3,0.1
		c-1.3,0.5-2.6,0.8-3.9,0.8c-3,0-4.9-1.5-5-3.9c0-0.1,0-0.2,0.1-0.2C59,20.2,59.2,20.1,59.3,20.1 M48.9,12.2h-4.1h-2.5
		c-0.5,0-0.8,0.3-0.8,0.8v0.5c0,0.2,0.1,0.4,0.2,0.5c0.5,0.5,1,1.2,1.3,1.9c0.2,0.3,0.4,0.5,0.7,0.5c0.3,0,0.5-0.2,0.7-0.5
		c0.1-0.2,0.2-0.2,0.2-0.3c0.9-1,2.1-1,3.2-1c2.5,0,2.9,2.1,2.9,3.3v7.6c0,0.5,0.3,0.8,0.8,0.8h1.2c0.5,0,0.8-0.3,0.8-0.8v-8.3
		C53.4,14,51.8,12.2,48.9,12.2 M43.7,23h-0.2c-0.3,0-0.5,0.2-0.7,0.4c-0.3,0.5-0.6,1.1-1.1,1.5c-0.2,0.2-0.2,0.3-0.2,0.5v0.2
		c0,0.5,0.3,0.8,0.8,0.8h1.2c0.5,0,0.8-0.3,0.8-0.8v-1.9C44.3,23.4,44.1,23,43.7,23"/>
</g>
</svg>
