<svg xmlns="http://www.w3.org/2000/svg" xmlns:xlink="http://www.w3.org/1999/xlink" viewBox="0 0 132.03 60.73"><defs><style>.cls-1{fill:url(#linear-gradient);}.cls-2{fill:url(#linear-gradient-2);}.cls-3{fill:url(#linear-gradient-3);}.cls-4{fill:url(#linear-gradient-4);}.cls-5{fill:url(#linear-gradient-5);}.cls-6{fill:url(#linear-gradient-6);}.cls-7{fill:url(#linear-gradient-7);}.cls-8{fill:url(#linear-gradient-8);}.cls-9{fill:url(#linear-gradient-9);}</style><linearGradient id="linear-gradient" x1="0.68" y1="36.56" x2="132.03" y2="36.56" gradientUnits="userSpaceOnUse"><stop offset="0" stop-color="#43434d"/><stop offset="1" stop-color="#3d3941"/></linearGradient><linearGradient id="linear-gradient-2" x1="0.68" y1="42.44" x2="132.03" y2="42.44" xlink:href="#linear-gradient"/><linearGradient id="linear-gradient-3" x1="0.68" y1="59.48" x2="132.03" y2="59.48" xlink:href="#linear-gradient"/><linearGradient id="linear-gradient-4" x1="73.54" y1="30.67" x2="132.03" y2="30.67" xlink:href="#linear-gradient"/><linearGradient id="linear-gradient-5" x1="73.54" y1="24.79" x2="132.03" y2="24.79" xlink:href="#linear-gradient"/><linearGradient id="linear-gradient-6" x1="73.54" y1="18.9" x2="132.03" y2="18.9" xlink:href="#linear-gradient"/><linearGradient id="linear-gradient-7" x1="73.54" y1="13.02" x2="132.03" y2="13.02" xlink:href="#linear-gradient"/><linearGradient id="linear-gradient-8" x1="0" y1="7.13" x2="132.03" y2="7.13" xlink:href="#linear-gradient"/><linearGradient id="linear-gradient-9" x1="0" y1="1.24" x2="132.03" y2="1.24" xlink:href="#linear-gradient"/></defs><g id="Layer_2" data-name="Layer 2"><g id="Layer_1-2" data-name="Layer 1"><rect class="cls-1" x="0.68" y="35.31" width="131.35" height="2.49"/><rect class="cls-2" x="0.68" y="41.2" width="131.35" height="2.49"/><rect class="cls-3" x="0.68" y="58.24" width="131.35" height="2.49"/><rect class="cls-4" x="73.54" y="29.43" width="58.49" height="2.49"/><rect class="cls-5" x="73.54" y="23.54" width="58.49" height="2.49"/><rect class="cls-6" x="73.54" y="17.66" width="58.49" height="2.49"/><rect class="cls-7" x="73.54" y="11.77" width="58.49" height="2.49"/><rect class="cls-8" y="5.89" width="132.03" height="2.49"/><rect class="cls-9" width="132.03" height="2.49"/></g></g></svg>