<svg xmlns="http://www.w3.org/2000/svg" viewBox="0 0 1216.16 352.7"><defs><style>.cls-1{fill:#f47c56;}.cls-2{fill:#c2795f;}.cls-3{fill:#afd366;}.cls-4{fill:#887887;}.cls-5{fill:#fee965;}.cls-6{fill:#4a484a;opacity:0.1;}.cls-7{fill:#fd6;}</style></defs><g id="Layer_2" data-name="Layer 2"><g id="Layer_1-2" data-name="Layer 1"><path class="cls-1" d="M242,251.17h0c55.26-37,97.45-89.93,106-133l4.44-22.26c15.06-75.56-76.34-83.65-171.74-15.19L173,86.34C108.17,132.83,66.54,198,75,239.77l3.38,16.65C88.43,305.85,164,303.42,242,251.17Z"/><path class="cls-2" d="M343.17,67.54l-17.5-3.67a64.75,64.75,0,0,0-61.54,20.18L252.2,97.37a64.76,64.76,0,0,0-13.3,63.39l5.57,17A64.79,64.79,0,0,0,292.72,221l17.5,3.67a64.79,64.79,0,0,0,61.54-20.18l11.93-13.32A64.79,64.79,0,0,0,397,127.74l-5.57-17A64.76,64.76,0,0,0,343.17,67.54Z"/><path class="cls-3" d="M1216.16,90.81,965.39,17.27C881.46-7.34,775.81-5.52,695.63,21.93l-178,61c-41.7,14.27-91.35,21.93-142.23,21.93h0c-86,0-165.91,21.81-211.11,57.63h0C129.47,190,68,206.81,1.74,206.81H0V352.7H1216.16Z"/><path class="cls-4" d="M1216.16,352.7c-2-153.53-267.74-150.57-384.68-192.24l-.9-.32c-66.32-23.63-149.38-20.71-212.07,7.45l-139.2,62.53c-32.6,14.65-71.54,22.79-111.55,23.31h0c-67.65.9-130.19,23.44-165.27,59.58h0C175.49,340.83,0,352.7,0,352.7Z"/><path class="cls-5" d="M610.44,152.12,460.86,64.37a29.14,29.14,0,0,0-35.35,4.53h0a29.15,29.15,0,0,0-5,34.55l80.05,146.93a29.14,29.14,0,0,0,44.48,8.25l69.53-59.18A29.14,29.14,0,0,0,610.44,152.12Z"/><path class="cls-6" d="M593.68,220.75,444.1,133a29.11,29.11,0,0,0-35.35,4.53h0a29.14,29.14,0,0,0-5,34.55L483.81,319a29.15,29.15,0,0,0,44.48,8.25l69.53-59.18A29.14,29.14,0,0,0,593.68,220.75Z"/><path class="cls-6" d="M957.92,100.54l-71.59-15a64.76,64.76,0,0,0-61.54,20.18L776,160.19a64.78,64.78,0,0,0-13.29,63.39l22.79,69.51a64.76,64.76,0,0,0,48.24,43.21l71.6,15a64.76,64.76,0,0,0,61.54-20.18l2.07-2.31a52.38,52.38,0,0,0,13.33-33h0l33.4-19.16a64.76,64.76,0,0,0,13.3-63.39l-22.79-69.51A64.76,64.76,0,0,0,957.92,100.54Z"/><path class="cls-7" d="M945.15,58.47l-71.6-15A64.76,64.76,0,0,0,812,63.63l-48.8,54.49a64.76,64.76,0,0,0-13.3,63.39L772.7,251A64.76,64.76,0,0,0,821,294.23l71.59,15a64.75,64.75,0,0,0,61.54-20.18l48.81-54.49a64.78,64.78,0,0,0,13.29-63.39l-22.79-69.51A64.75,64.75,0,0,0,945.15,58.47Z"/></g></g></svg>