<svg xmlns="http://www.w3.org/2000/svg" viewBox="0 0 158.53 74.18"><path d="M14,24l-1.12-.38c-3-.95-5.8-2.09-5.8-5.13,0-2.67,2.24-4.19,6-4.19a24.31,24.31,0,0,1,7.29,1.14H21a2.66,2.66,0,0,0,1.13-.38,1.73,1.73,0,0,0,.74-1.52V12.39a2.06,2.06,0,0,0-1.31-1.9,32.36,32.36,0,0,0-9.16-1.33C1.68,9.16,0,15.24,0,18.86c0,5.13,2.81,8,10.29,10.46l1.12.38c3,.95,6,2.28,6,5.32,0,1.72-.94,4.57-6.74,4.57a23,23,0,0,1-7.85-1.52c-.19,0-.38-.19-.57-.19a2.67,2.67,0,0,0-1.12.38,1.74,1.74,0,0,0-.75,1.52v1.33A2.3,2.3,0,0,0,1.68,43a28.94,28.94,0,0,0,9.54,1.71c11.6,0,13.47-6.65,13.47-10.46C24.32,29.32,21.51,26.46,14,24Z" style="fill:#fae8c7"/><path d="M47.86,9.82H43.23a.76.76,0,0,1-.76-.76V1.9A1.9,1.9,0,0,0,40.56,0H37.35a1.9,1.9,0,0,0-1.9,1.9V8.6a11.14,11.14,0,0,1-.82,1.22H32.35c-1.14-.46-1.9.3-2.51,1.44v2.09a6.81,6.81,0,0,0,2.51,2.08h2.34a.77.77,0,0,1,.76.76v20c0,5.33,2.69,8.18,7.88,8.18a14.14,14.14,0,0,0,4.81-.76,1.88,1.88,0,0,0,1.34-1.9V39.79a1.52,1.52,0,0,0-.54-1.34,1.6,1.6,0,0,0-1.26-.57H46.6c-2.51,0-4.13-1.71-4.13-4.56V16.19a.77.77,0,0,1,.76-.76h4.35a1.9,1.9,0,0,0,1.9-1.9v-1.9A1.66,1.66,0,0,0,47.86,9.82Z" style="fill:#fae8c7"/><path d="M73.62,8.6c-10.46,0-17.5,7.22-17.5,17.87s7,17.69,17.5,17.69,17.5-7.23,17.5-17.88S84.08,8.6,73.62,8.6Zm0,29.86c-6.46,0-10.65-4.76-10.65-12,0-7,4.38-11.79,10.65-11.79,6.47,0,10.65,4.76,10.65,12C84.27,33.51,79.9,38.46,73.62,38.46Z" style="fill:#fae8c7"/><path d="M133.75,28.06h22.82a1.95,1.95,0,0,0,1.9-1.9c-.19-11.41-5.7-17.69-16-17.69s-16.92,7-16.92,17.69C125.57,37.38,132.41,44,144,44a32.61,32.61,0,0,0,12.36-2.47,1.85,1.85,0,0,0,1.14-1.72V38.52a2.35,2.35,0,0,0-.76-1.52,2.7,2.7,0,0,0-1.14-.38,1.14,1.14,0,0,0-.76.19,25.51,25.51,0,0,1-9.7,2.09c-7.42,0-12.17-3.61-12.36-9.7a.7.7,0,0,1,.19-.57A1,1,0,0,1,133.75,28.06Zm16.9-4.21H134.1c-.19,0-.38-.19-.57-.19a.7.7,0,0,1-.19-.57c.38-5.51,4.19-9.13,9.51-9.13s8.75,3.43,8.75,9.13A.87.87,0,0,1,150.65,23.85Z" style="fill:#fae8c7"/><path d="M107.61,8.42H92.07a1.9,1.9,0,0,0-1.9,1.9v1.14a2.09,2.09,0,0,0,.56,1.33,14,14,0,0,1,3.18,4.76,1.81,1.81,0,0,0,1.69,1.14h0a1.79,1.79,0,0,0,1.68-1.14,2.62,2.62,0,0,1,.56-.76c2.25-2.48,5-2.48,7.67-2.48,6.18,0,7.11,5.14,7.11,8.18v19.1a1.91,1.91,0,0,0,1.9,1.91h3.21a1.91,1.91,0,0,0,1.91-1.91V21.07C119.44,13,115.23,8.42,107.61,8.42Z" style="fill:#fae8c7"/><path d="M95.78,35.08h-.4a2.13,2.13,0,0,0-1.8,1,17.06,17.06,0,0,1-2.81,3.83,1.71,1.71,0,0,0-.6,1.34v.39a1.91,1.91,0,0,0,1.9,1.91h3.22a1.91,1.91,0,0,0,1.9-1.91V37A1.58,1.58,0,0,0,95.78,35.08Z" style="fill:#fae8c7"/><path d="M.61,71.44V70.1H3a2.55,2.55,0,0,0,2.67,1.63c1.25,0,2.1-.57,2.1-1.58s-.61-1.38-2-1.69l-1.24-.23c-2.46-.49-3.83-1.8-3.83-4,0-2.58,1.94-4.1,4.91-4.1,2.48,0,4.19,1,4.56,2.68V64.2H7.82a2.09,2.09,0,0,0-2.3-1.6c-1.26,0-1.94.59-1.94,1.49,0,.74.5,1.22,1.79,1.51l1.3.29c2.46.5,3.95,1.85,3.95,4.1,0,2.57-2,4.19-5,4.19C2.79,74.18,1.19,72.94.61,71.44Z" style="fill:#167cc1"/><path d="M17,60.42h3v5.31h5.29V60.42h3V73.91h-3V68.24H20v5.67H17Z" style="fill:#167cc1"/><path d="M33.62,73.91V72.65l4.59-12.23h3l4.56,12v1.44H43.22l-1-2.86H37l-1,2.86Zm6-10.27-1.76,5h3.52Z" style="fill:#167cc1"/><path d="M51.22,73.91V60.42h4.42c3.13,0,5.1,1.68,5.1,4.3a4,4,0,0,1-2.42,3.7l3.11,4.08v1.41H58.86l-3.45-4.75H54.2v4.75Zm4.4-7.16a1.93,1.93,0,0,0,2.14-2c0-1.05-.77-1.8-2.14-1.8H54.15v3.79Z" style="fill:#167cc1"/><path d="M67.64,60.42h8.47V63H70.63v2.86h4.85v2.33H70.63v3.22h5.48v2.54H67.64Z" style="fill:#167cc1"/><path d="M94.21,65.67l-2.28,8.24h-3l-3.21-12V60.42h2.76l2.14,9.26,2.47-9.26h2.53L98,69.68l2.23-9.26h2.62v1.26L99.57,73.91h-3Z" style="fill:#c79249"/><path d="M104.69,60.42h3V73.91h-3Z" style="fill:#c79249"/><path d="M110.62,60.42h4.73a6.75,6.75,0,0,1,0,13.49h-4.73Zm4.67,11c2.36,0,3.71-1.9,3.71-4.26S117.65,63,115.29,63H113.6v8.41Z" style="fill:#c79249"/><path d="M123.54,67.17c0-4.07,2.66-7,6.89-7,3.38,0,4.94,1.73,5.14,2.77v1.35h-2.34a2.79,2.79,0,0,0-2.79-1.58c-2.48,0-3.91,1.9-3.91,4.46s1.45,4.47,4,4.47a5.34,5.34,0,0,0,2.32-.45V68.84h-2.78v-2.3h5.57v5.82c-.4.59-2.23,1.82-5.14,1.82C126.15,74.18,123.54,71.28,123.54,67.17Z" style="fill:#c79249"/><path d="M138.12,60.42h8.46V63H141.1v2.86H146v2.33H141.1v3.22h5.48v2.54h-8.46Z" style="fill:#c79249"/><path d="M151.69,63h-3.85V60.42h10.69V63h-3.86V73.91h-3Z" style="fill:#c79249"/></svg>