<svg xmlns="http://www.w3.org/2000/svg" viewBox="0 0 225 206.35"><path d="M31.58,122.35q28.62,7.74,57.17,15.7c10.25,2.83,20.54,5.52,30.68,8.7,5.25,1.65,9,.23,12.36-3.69,18.44-21.27,37-42.46,55.39-63.73Q203.71,60.25,220,41a84.55,84.55,0,0,0,5-7.33v-2c-2-4.76-5.47-7.29-10.71-8.43q-51.07-11.1-102-22.78c-5.73-1.32-9.53.37-13.18,4.45C85.22,20.42,71.2,35.82,57.29,51.31c-14.35,16-28.55,32.11-43,48-8.21,9-11.75,19.84-13.34,31.57A33.33,33.33,0,0,1,0,134.65v6c1,4,1.61,8.1,3,11.91,4.16,11.1,11.15,19.67,23,23.21,33.37,10,66.8,19.85,100.14,30,5.35,1.62,8.81,0,12.15-4q35.85-43.28,71.88-86.42c3.4-4.09,6.57-8.41,10.17-12.31,2.95-3.19,3-6.63,2.73-10.63a80.17,80.17,0,0,1,0-15.72c.72-6.17-.82-10.42-5.47-11.88-4.9-1.53-9.76,1-11.2,7.1-1.32,5.58-1.05,11.5-1.84,17.23-.38,2.78-.84,6-2.51,8.1q-32.16,39.52-64.74,78.7c-3.35,4.06-6.39,9.84-10.72,11.21-4.12,1.29-9.76-2.06-14.68-3.53-26.41-7.91-52.84-15.73-79.18-23.87C20,155.74,13.49,138.56,20,126.73,22.52,122.11,26.82,121.06,31.58,122.35ZM92.75,42.84c3.25-3.74,5.64-9.05,12.18-8.74,11,2.54,22,5,33,7.64,10.65,2.56,21.26,5.27,31.88,7.95,6.5,1.64,6.74,2.91,3.08,8.26-4.92,7.22-10.69,9.53-19.55,7.09-19.19-5.29-38.67-9.51-58-14.31C89,49.16,88.51,47.72,92.75,42.84Z" style="fill:#f2f2f2"/></svg>