<?xml version="1.0" encoding="utf-8"?>
<!-- Generator: Adobe Illustrator 25.1.0, SVG Export Plug-In . SVG Version: 6.00 Build 0)  -->
<svg version="1.1" id="Layer_1" xmlns="http://www.w3.org/2000/svg" xmlns:xlink="http://www.w3.org/1999/xlink" x="0px" y="0px"
	 viewBox="0 0 68.8 23.8" style="enable-background:new 0 0 68.8 23.8;" xml:space="preserve">
<path d="M6.2,10.5l-0.5-0.2C4.4,10,3.1,9.5,3.1,8.1c0-1.2,1-1.8,2.7-1.8C6.9,6.3,8,6.5,9,6.8h0.2c0.2,0,0.3-0.1,0.5-0.2
	C10,6.5,10.1,6.2,10.1,6V5.5c0-0.4-0.2-0.7-0.6-0.8c-1.3-0.4-2.7-0.6-4-0.6C0.8,4.1,0,6.7,0,8.3c0,2.2,1.2,3.5,4.6,4.6L5.1,13
	c1.3,0.4,2.6,1,2.6,2.3c0,0.7-0.4,2-3,2c-1.2,0-2.4-0.2-3.6-0.7c-0.1,0-0.2-0.1-0.2-0.1c-0.2,0-0.3,0.1-0.5,0.2
	c-0.2,0.1-0.4,0.4-0.3,0.7V18c0,0.4,0.3,0.7,0.6,0.8c1.4,0.5,2.8,0.7,4.2,0.7c5.1,0,6-2.9,6-4.6C10.8,12.9,9.5,11.6,6.2,10.5z"/>
<path d="M20.4,4.4h-2.1c-0.2,0-0.3-0.2-0.3-0.3V0.8c0-0.4-0.3-0.8-0.7-0.8c0,0-0.1,0-0.1,0H16c-0.4,0-0.8,0.3-0.8,0.7
	c0,0,0,0.1,0,0.1v3.2c0,0.2-0.2,0.3-0.3,0.3h-1c-0.4,0-0.8,0.3-0.8,0.7c0,0,0,0.1,0,0.1v0.9c0,0.4,0.3,0.8,0.7,0.8c0,0,0.1,0,0.1,0
	h1c0.2,0,0.3,0.2,0.3,0.3V16c0,2.3,1.2,3.6,3.4,3.6c0.7,0,1.4-0.1,2.1-0.3c0.4-0.1,0.6-0.5,0.6-0.8v-0.7c0-0.2-0.1-0.4-0.2-0.6
	c-0.1-0.2-0.4-0.3-0.6-0.2h-0.5c-1,0.1-1.9-0.7-1.9-1.7c0-0.1,0-0.2,0-0.3V7.3C18,7.1,18.1,7,18.3,7h2.1c0.4,0,0.8-0.3,0.8-0.7
	c0,0,0-0.1,0-0.1V5.2C21.2,4.8,20.9,4.5,20.4,4.4C20.5,4.4,20.5,4.4,20.4,4.4z"/>
<path d="M58,12.6h10c0.2,0,0.4-0.1,0.6-0.2c0.2-0.1,0.3-0.4,0.2-0.6c-0.1-5-2.5-7.7-7-7.7s-7.4,3.1-7.4,7.7c0,4.9,3,7.8,8.1,7.8
	c1.8,0,3.7-0.4,5.4-1.1c0.3-0.1,0.5-0.4,0.5-0.8v-0.6c0-0.3-0.1-0.5-0.3-0.7c-0.2-0.1-0.3-0.2-0.5-0.2c-0.1,0-0.2,0-0.3,0.1
	c-1.3,0.6-2.8,0.9-4.2,0.9c-3.2,0-5.3-1.6-5.4-4.2c0-0.1,0-0.2,0.1-0.3C57.7,12.7,57.8,12.6,58,12.6z M65.2,10.7H58
	c-0.1,0-0.2-0.1-0.2-0.1c-0.1-0.1-0.1-0.2-0.1-0.2c0-2.2,1.8-4,4-4c0,0,0.1,0,0.1,0c2-0.1,3.7,1.4,3.8,3.4c0,0.2,0,0.4,0,0.6
	C65.6,10.6,65.4,10.7,65.2,10.7C65.2,10.7,65.2,10.7,65.2,10.7z"/>
<g>
	<path d="M30.9,4.1c-4.6,0-7.6,3.2-7.6,7.8s3.1,7.7,7.6,7.7s7.6-3.2,7.6-7.8S35.5,4.1,30.9,4.1z M30.9,17.1c-2.8,0-4.6-2.1-4.6-5.2
		s1.9-5.1,4.6-5.1s4.7,2.1,4.7,5.2C35.6,14.9,33.6,17.1,30.9,17.1z"/>
	<g>
		<path d="M47.3,4.3h-7.1c-0.4,0-0.8,0.3-0.8,0.7c0,0,0,0.1,0,0.1v0.5c0,0.2,0.1,0.4,0.2,0.6c0.6,0.6,1.1,1.3,1.4,2
			c0.1,0.3,0.4,0.5,0.7,0.5l0,0c0.3,0,0.6-0.2,0.8-0.5C42.7,8.2,42.8,8,42.9,8c0.9-0.9,2.2-1.3,3.4-1.1c2.7,0,3.2,2.2,3.2,3.6v8.2
			c0,0.4,0.3,0.8,0.7,0.8c0,0,0.1,0,0.1,0h1.2c0.4,0,0.8-0.3,0.8-0.7c0,0,0-0.1,0-0.1V9.8C52.2,6.3,50.5,4.3,47.3,4.3z"/>
		<path d="M41.8,15.9h-0.2c-0.3,0-0.6,0.2-0.7,0.4c-0.3,0.6-0.7,1.2-1.2,1.7c-0.2,0.1-0.3,0.4-0.2,0.6v0.2c0,0.4,0.3,0.8,0.7,0.8
			c0,0,0.1,0,0.1,0h1.2c0.4,0,0.8-0.3,0.8-0.7c0,0,0-0.1,0-0.1v-2C42.4,16.4,42.2,16,41.8,15.9C41.8,15.9,41.8,15.9,41.8,15.9z"/>
	</g>
</g>
</svg>
