<svg  viewBox="0 0 65 65" fill="none" xmlns="http://www.w3.org/2000/svg">
<path d="M32.5 65C50.4492 65 65 50.4493 65 32.5C65 14.5507 50.4492 0 32.5 0C14.5507 0 0 14.5507 0 32.5C0 50.4493 14.5507 65 32.5 65Z" fill="#6C887A"/>
<path d="M34 59C47.8071 59 59 47.8071 59 34C59 20.1929 47.8071 9 34 9C20.1929 9 9 20.1929 9 34C9 47.8071 20.1929 59 34 59Z" fill="#5A4E70"/>
<path d="M31 56C44.8071 56 56 44.8071 56 31C56 17.1929 44.8071 6 31 6C17.1929 6 6 17.1929 6 31C6 44.8071 17.1929 56 31 56Z" fill="#F1F0EF"/>
<path opacity="0.73" d="M12.6105 40.4219C18.4176 49.8295 30.3227 53.4319 40.3668 49.3152L40.4209 49.3761C41.8163 48.6644 43.2313 47.9843 44.5912 47.2151C44.8441 47.073 45.051 46.5609 44.9889 46.2428C44.0934 41.3682 42.0508 36.9515 38.799 32.9397C39.9113 31.1221 40.4975 29.0413 40.4945 26.9213C40.4914 24.8012 39.8993 22.7221 38.7817 20.9076C38.6085 20.6256 38.4265 20.3519 38.2357 20.0865C33.8585 13.9746 25.311 12.1452 18.705 16.0713C10.1805 21.1365 7.44818 32.061 12.6105 40.4219ZM14.0002 39.5952C13.7887 39.2568 13.5967 38.9027 13.4128 38.5508C16.4348 38.1132 19.051 36.7079 21.3971 34.7375C21.5883 34.5662 21.7268 34.3459 21.7971 34.1014C22.524 35.1589 23.4626 36.0603 24.5558 36.7507C22.6541 39.5432 20.1091 41.8572 17.1268 43.5055C15.9272 42.3309 14.8774 41.0179 14.0002 39.5952V39.5952ZM26.8053 48.829C25.4078 48.492 24.0493 48.0151 22.7511 47.4057C24.7903 45.2864 26.4203 42.8762 27.2191 39.9065C27.4766 38.9467 27.618 38.403 27.5272 37.9981C28.7243 38.2831 29.966 38.3398 31.1848 38.1651C31.1744 38.3578 31.1744 38.5509 31.1848 38.7437C31.263 40.8798 31.2504 43.0442 30.948 45.1195C30.7411 46.5417 30.2825 47.9053 29.8319 49.3321C28.812 49.2366 27.8004 49.0685 26.8053 48.829V48.829ZM40.391 47.5658C38.3366 48.4953 36.1399 49.0856 33.8896 49.3129C34.6481 47.543 35.013 45.6346 34.9597 43.7153C34.908 41.5825 34.5999 39.4723 33.8378 37.3801C34.1621 37.2324 34.4779 37.0675 34.7838 36.8861C35.4452 36.495 36.0661 36.0417 36.6379 35.5326C39.2702 39.2873 40.7358 43.2641 40.391 47.5658ZM19.5453 17.436C20.5814 16.8203 21.7004 16.3503 22.8695 16.0397C22.9042 17.3487 23.3855 18.6084 24.2363 19.6173C24.9202 20.4361 25.6363 21.2166 26.8019 20.9121C27.2375 19.1695 27.6525 17.5138 28.0996 15.7239C31.3614 16.1777 34.3255 17.8307 36.392 20.3482C35.2965 21.1534 34.247 22.0197 33.2217 22.914C33.0815 23.037 33.132 23.5186 33.2481 23.778C33.6056 24.5799 34.039 25.357 34.3769 26.0123L38.7691 25.507C39.0533 27.4576 38.7473 29.4471 37.889 31.2285C37.0307 33.0099 35.658 34.5046 33.9413 35.527C32.9783 36.1008 31.9027 36.4687 30.7848 36.6064C30.5055 34.7217 29.2411 33.2882 27.9996 33.472C27.9031 34.4307 27.8088 35.377 27.7077 36.3909C26.8255 36.161 25.99 35.7845 25.2375 35.2777C25.4922 34.914 25.701 34.5212 25.8593 34.1081C26.1145 33.3885 26.0524 32.5866 25.2535 32.2065L23.3788 33.5329C23.2142 33.3192 23.0608 33.0975 22.919 32.8686C22.5966 32.3479 22.3549 31.783 22.2017 31.1926C22.7006 30.8734 23.2063 30.561 23.627 30.1617C24.0937 29.7196 23.7811 28.6899 23.2385 28.5602C22.8937 28.4778 22.5488 28.3989 22.1741 28.3131C22.181 28.2838 22.1867 28.2534 22.1936 28.224C22.3474 27.6114 22.5954 27.0253 22.9293 26.486C23.0003 26.5279 23.0754 26.5627 23.1535 26.5898C23.7627 26.8074 24.4259 27.1954 24.9834 26.5029C25.0708 26.3901 25.0432 26.1048 24.9558 25.9683C24.742 25.6367 24.511 25.3119 24.2661 24.9713C24.5075 24.7756 24.763 24.5973 25.0305 24.4378C26.1211 23.7886 27.4288 23.588 28.6693 23.8797C29.9097 24.1714 30.9827 24.9317 31.655 25.9954C31.2596 26.2074 30.7756 26.6924 30.202 27.5406C27.1421 24.4852 25.3398 25.6345 24.9639 27.6037C24.7269 28.137 24.6241 28.7184 24.6641 29.2988C24.7041 29.8792 24.8858 30.4417 25.1938 30.9388C25.4952 31.4281 25.892 31.8543 26.3615 32.1929C26.831 32.5315 27.3639 32.7759 27.9299 32.9121C28.4958 33.0483 29.0835 33.0736 29.6594 32.9866C30.2353 32.8996 30.7881 32.702 31.286 32.405C32.4956 31.6847 33.3644 30.5229 33.7017 29.1746C34.0389 27.8263 33.8171 26.4017 33.0849 25.2138C32.6453 24.5006 32.0668 23.8795 31.3824 23.3858C30.698 22.8922 29.9213 22.5356 29.0964 22.3366C28.2716 22.1376 27.4149 22.1 26.5752 22.226C25.7356 22.352 24.9295 22.6391 24.2029 23.0708C22.7437 23.9406 21.6113 25.2513 20.9756 26.8062C20.34 28.3611 20.2354 30.0763 20.6775 31.6945C17.8038 32.8528 14.9301 33.3502 11.7116 32.7581C11.4493 29.9732 11.9245 27.169 13.0909 24.6171C15.1451 25.7326 17.2854 26.2672 19.5027 25.9627C19.9889 25.8961 20.4039 25.489 20.8511 25.2386C20.8189 25.1416 20.7867 25.0457 20.7534 24.9487C18.6487 24.0769 17.1739 22.5103 15.8405 20.4587C16.9166 19.2772 18.1651 18.2586 19.5453 17.436V17.436Z" fill="#5A4E70"/>
</svg>
