<svg xmlns="http://www.w3.org/2000/svg" viewBox="0 0 427.32 107.91">
<path fill="currentColor" d="M106.47,43.5a22.38,22.38,0,0,0-7.78-6.73,25.19,25.19,0,0,0-12-2.59,25.82,25.82,0,0,0-13.3,3.22,26.43,26.43,0,0,0-7,6,2.34,2.34,0,0,1-3.71-.17,20.62,20.62,0,0,0-6.46-6,25,25,0,0,0-12.81-3.08,25.36,25.36,0,0,0-7.22,1,25.91,25.91,0,0,0-5.95,2.59,19.79,19.79,0,0,0-4.55,3.72,24,24,0,0,0-3.16,4.34h-.28V38.48a2.34,2.34,0,0,0-2.34-2.34H2.34A2.34,2.34,0,0,0,0,38.48v65.08a2.35,2.35,0,0,0,2.34,2.35H20.77a2.34,2.34,0,0,0,2.34-2.35V68.08a18.19,18.19,0,0,1,3-10.64,9.7,9.7,0,0,1,8.47-4.35q5.19,0,7.57,3.51c1.58,2.33,2.38,5.51,2.38,9.52v37.44a2.35,2.35,0,0,0,2.34,2.35H65.18a2.35,2.35,0,0,0,2.34-2.35V68.22a22.58,22.58,0,0,1,.7-5.67,14.77,14.77,0,0,1,2.17-4.83A11.29,11.29,0,0,1,74,54.35a10,10,0,0,1,5.11-1.26,9.26,9.26,0,0,1,5,1.19,8.85,8.85,0,0,1,3,3.16,13.42,13.42,0,0,1,1.54,4.69,36,36,0,0,1,.43,5.67v35.76a2.34,2.34,0,0,0,2.34,2.35h18.29a2.35,2.35,0,0,0,2.34-2.35V62.76a40,40,0,0,0-1.33-10A27.9,27.9,0,0,0,106.47,43.5Z" />
<path fill="currentColor" d="M191.74,43.75a32.14,32.14,0,0,0-11.48-7.5,40.25,40.25,0,0,0-14.68-2.59,43.75,43.75,0,0,0-15.4,2.66,37.1,37.1,0,0,0-12.35,7.5,34.85,34.85,0,0,0-8.28,11.76,38,38,0,0,0-3.05,15.48,37.34,37.34,0,0,0,3.12,15.69,33.12,33.12,0,0,0,8.57,11.56,37.57,37.57,0,0,0,12.72,7.14,47.65,47.65,0,0,0,15.4,2.46,45.91,45.91,0,0,0,19.4-3.86,33.45,33.45,0,0,0,11.83-8.92,2.28,2.28,0,0,0-.62-3.43l-12.54-7.64a2.5,2.5,0,0,0-3.1.42,19.44,19.44,0,0,1-5.09,3.74,20.6,20.6,0,0,1-9.59,2,19.5,19.5,0,0,1-6.18-1,19.14,19.14,0,0,1-5.37-2.73,15.25,15.25,0,0,1-3.93-4.13A11.78,11.78,0,0,1,150,80.25a2.36,2.36,0,0,1,2.28-3.16h47.15a2.38,2.38,0,0,0,2.43-2.3c0-.12,0-.24,0-.36V71.62a44.41,44.41,0,0,0-2.69-16A34.46,34.46,0,0,0,191.74,43.75Zm-37,12s6-3.08,10-3.08a18.67,18.67,0,0,1,7.43,1.68c5.54,3.68,6.82,4.81,8.45,9.41l-32.55.12A29.59,29.59,0,0,1,154.73,55.79Z" />
<path fill="currentColor" d="M264.12,34.32h0a27.11,27.11,0,0,0-2.73-.14A19.46,19.46,0,0,0,250,37.57a22.76,22.76,0,0,0-7.57,8.74h-.28V38.57a2.33,2.33,0,0,0-2.34-2.34H222.38A2.34,2.34,0,0,0,220,38.57v65a2.35,2.35,0,0,0,2.34,2.35h18.29a2.34,2.34,0,0,0,2.34-2.35V70.14a17.33,17.33,0,0,1,.85-4.89,15.43,15.43,0,0,1,2.73-5.17,15.89,15.89,0,0,1,5-4,16.35,16.35,0,0,1,7.77-1.68c.94,0,1.9,0,2.88.14l.51.06a2.34,2.34,0,0,0,2.63-2.2l.75-15.59A2.34,2.34,0,0,0,264.12,34.32Z" />
<path fill="currentColor" d="M426,52.39a25.65,25.65,0,0,0-4.34-9.17,22.91,22.91,0,0,0-7.85-6.52,25.67,25.67,0,0,0-12-2.52,22.8,22.8,0,0,0-12.47,3.29,22,22,0,0,0-7.57,7.5h-.28V2.34A2.34,2.34,0,0,0,379.17,0H360.88a2.34,2.34,0,0,0-2.34,2.34V103.56a2.35,2.35,0,0,0,2.34,2.35h18.29a2.34,2.34,0,0,0,2.34-2.35V68.22a17,17,0,0,1,3.23-10.57c2.14-2.85,5.23-4.28,9.24-4.28a9.62,9.62,0,0,1,5,1.19,9.14,9.14,0,0,1,3.16,3.23,13.35,13.35,0,0,1,1.61,4.69,35.86,35.86,0,0,1,.42,5.6v35.48a2.35,2.35,0,0,0,2.34,2.35H425a2.35,2.35,0,0,0,2.34-2.35V62.76A41.44,41.44,0,0,0,426,52.39Z"/>
<path fill="currentColor" d="M332.18,83.36a2.33,2.33,0,0,0-3.29-.32,14.08,14.08,0,0,1-3.86,2.2,19,19,0,0,1-6.94,1.33,15.83,15.83,0,0,1-6.79-1.4,15.57,15.57,0,0,1-5.19-3.85,16.86,16.86,0,0,1-3.29-5.67,20.71,20.71,0,0,1-1.12-6.87,19.75,19.75,0,0,1,1.19-6.86,18.33,18.33,0,0,1,3.3-5.67,15.91,15.91,0,0,1,5-3.93,14.5,14.5,0,0,1,6.58-1.47,16.43,16.43,0,0,1,6.87,1.54,15.5,15.5,0,0,1,3.69,2.34,2.33,2.33,0,0,0,3.31-.22l10.13-11.73a2.32,2.32,0,0,0-.25-3.31,29.66,29.66,0,0,0-3.22-2.28A33.55,33.55,0,0,0,332,34.25a51.23,51.23,0,0,0-7.14-1.89,40.19,40.19,0,0,0-7.5-.7,44.55,44.55,0,0,0-15.29,2.59,36.59,36.59,0,0,0-12.45,7.43,34.58,34.58,0,0,0-8.31,11.69,37.81,37.81,0,0,0-3,15.41,38.11,38.11,0,0,0,3,15.55A34.52,34.52,0,0,0,289.65,96a35.79,35.79,0,0,0,12.45,7.35,46,46,0,0,0,15.43,2.53,44.08,44.08,0,0,0,14.57-2.39,31.63,31.63,0,0,0,9.45-5,2.34,2.34,0,0,0,.32-3.3Z" />
</svg>