<svg xmlns="http://www.w3.org/2000/svg" viewBox="0 0 998.65 959.43"><path d="M880.13,168.24c-28.87-15.93-147.32-12.94-147.32-12.94s-.14,1.89-.39,5.22L734.8,41.59S767.65-1,381.88,0,0,41.43,0,41.43L19.29,871.12a56,56,0,0,0,41.48,52.8c115.69,46.69,494.25,48.68,617.69-2a56,56,0,0,0,40.06-54.13c-.47-57.79-1.06-158.65.35-167.48,2-12.45,8-4.48,16.93-5.47s114.47,9,189.12-53.75,70.67-183.15,73.66-295.63S909,184.16,880.13,168.24ZM905,560.42c-40.21,69.24-137.65,77.73-181.16,27.87,1.11-2.45,3.81-291.89,7-293.63,10.95-28.87,22.89-43.8,22.89-43.8s54.75-60.72,135.38,8S922.93,524.59,905,560.42Z" style="fill:#2b2b2b"/><path d="M381.88,11.28c2.42-1.63,4.13-1.14,5.73-1.17,29-.59,58,.34,86.92,1.17,44.58,1.29,89.15,3.48,133.56,7.87,24.35,2.41,48.69,5.15,72.57,10.83,6.16,1.47,12.31,3.1,17.85,6.29,6.16,3.55,6.16,7.6,0,11C689.7,52,680,53.86,670.34,55.76c-26.83,5.29-54,7.82-81.22,10.21-31.51,2.77-63.1,4.34-94.69,5.62C465,72.79,435.5,73.32,406,73a65.19,65.19,0,0,0-7,.17c-8,.77-10.85-1.7-10.88-9.92,0-13.83-.11-27.66,0-41.48C388.24,17.1,387.88,13,381.88,11.28Z"/><path d="M13.19,604.06C12.5,570.14,12.06,536.2,11,502.29c-.75-25-1.28-49.92-2-74.88C8.26,397.79,7.73,368.16,7,338.54c-.65-26-1.26-51.92-2-77.87-.74-27.3-1.26-54.59-2-81.89C2.29,152.16,1.84,125.53,1,98.91.46,84.09.45,69.28.16,54.47c0-1.42-.69-3.27.91-4.12s2.8.62,4,1.38a65.59,65.59,0,0,0,12.53,6.15c2.37.83,3.56,1.76,1.66,4.23s-1.16,5.12-1.16,7.74q0,124.46,0,248.91,0,165.95,0,331.89a64.05,64.05,0,0,1-.39,7.46c-.15,1.23-.42,3-2.15,2.82-1.42-.17-1.13-1.82-1.19-2.94-.07-1.5-.08-3,0-4.5C14.76,637,13.25,620.55,13.19,604.06Z"/><path d="M76.87,57.79c-13.35-2-26.67-4.12-39.36-8.9-3.44-1.29-8-2.43-8.12-7.09-.14-4.85,4.69-5.82,8-7.13,13.87-5.55,28.6-7.48,43.29-9.49,1.54-.22,3.7-.57,3.16,2.29-1.47,7.77-.24,15.62-.76,23.41C82.65,56.71,81.4,58.05,76.87,57.79Z"/></svg>