<svg xmlns="http://www.w3.org/2000/svg" viewBox="0 0 526.06 424.75"><path d="M0,256.79V234.58a3.75,3.75,0,0,0,.31-2.17q0-14.19,0-28.38c0-.74,0-1.48,0-2.22.17,1.18.38,2.36.5,3.55a122.65,122.65,0,0,0,12.62,42.35c9.66,19.38,22.84,35.21,38,48.89a237.83,237.83,0,0,0,46,32.14,304,304,0,0,0,58.67,24.14,365.55,365.55,0,0,0,72.06,13.64c8.85.78,17.71,1.27,26.58,1.58,6.76.25,13.55.15,20.33-.15,8.22-.36,16.43-.75,24.64-1.47q10.88-.94,21.68-2.55c11.94-1.78,23.8-4.19,35.57-7.14a305.26,305.26,0,0,0,73.53-28.48c19.66-10.83,38.07-23.93,54.27-40.88a161.19,161.19,0,0,0,23.68-31.29,129.69,129.69,0,0,0,15.24-40.51c.93-4.85,1.4-9.77,1.93-14.69q0,25.59,0,51.17c0,2.25-.14,4.5-.32,6.75A127.09,127.09,0,0,1,507,315c-11.93,19.9-27.34,35.63-44.65,49-21.56,16.67-45,28.85-69.61,38.15a349.54,349.54,0,0,1-76.67,19.07c-12.92,1.77-25.89,2.79-38.89,3.28H256.9l-6.85,0-6.62-.34a367.57,367.57,0,0,1-84.83-14c-29.79-8.63-58.28-21-84.7-39.26-19.62-13.55-37.32-29.73-51.35-50.77C11.53,303.56,3.87,285.28,1,264.54.66,262,.72,259.31,0,256.79Z" style="fill:#51655c"/><path d="M251.27,0h12.37a15.43,15.43,0,0,0,4.84.27L274,.64a223.4,223.4,0,0,1,65.65,14.23c12.14,4.67,24.13,9.79,35.1,17.59a46,46,0,0,0,6.49,4.35c1.4,1.15,2.83,2.24,4.2,3.44,2,1.74,4.42,2.57,6.29,4.5a5.54,5.54,0,0,0,1.86,1.69c11,8.76,21.54,18.2,30.7,29.52,15.56,19.24,24.23,41.37,22.14,68.25-1.62,20.78-8.41,38.61-21.83,52.86-10.62,11.28-23.23,18.49-36.83,23.57-15.78,5.9-32,8.64-48.56,9.51a214.45,214.45,0,0,1-60.26-5,82,82,0,0,1-37.51-20c-7.47-6.9-12-15.75-11.62-27.25a39.55,39.55,0,0,0,.56-16.95c-.25-1.76-.46-3.54-.76-5.29-1.47-8.5-3.91-16.73-5.29-25.25,0-.35,0-.7-.08-1C221.38,112.11,214,98,201.52,87.6A38.14,38.14,0,0,0,190,80.54a4.73,4.73,0,0,0-.76-.53,47.74,47.74,0,0,0-23-4.28c-1,.08-2.1.12-3.15.23-12.6,1.35-23.48,7.12-32.66,17.11-6,6.57-10.21,14.61-13.74,23.2-4,9.63-8.21,19.1-7.53,30.24l-.27,2.92c-.59,6.11-3.74,9.21-9.06,8.79-3.1-.24-5.92-1.62-8.76-3a12,12,0,0,1-5.78-6.48c-2.38-5.52-3-11.45-3-17.5-.11-14.79,2.7-29,6.57-43,1.22-4.39,2.73-8.66,4.11-13a59.83,59.83,0,0,1,6.2-8.55c2.93-3.42,5.75-7,8.82-10.2A96.67,96.67,0,0,1,115.67,49a2.12,2.12,0,0,0,.77-1.77,15.35,15.35,0,0,0,3.71-2.6,166.29,166.29,0,0,1,18.11-14.36c6.7-4.49,14.05-7.38,21.31-10.41A254.68,254.68,0,0,1,246.43.28,15.45,15.45,0,0,0,251.27,0Z" style="fill:#857b93"/><path d="M.31,204q0,14.19,0,28.38A3.75,3.75,0,0,1,0,234.58V204Z" style="fill:#6d867b"/><path d="M.31,204H0V187.39l.31.06q0,7.19,0,14.36Z" style="fill:#857b93"/><path d="M256.9,424.49h13.47a.3.3,0,0,1-.1.27H257A.28.28,0,0,1,256.9,424.49Z" style="fill:#6d867b"/><path d="M256.9,424.49a.28.28,0,0,0,.1.26h-6.94c0-.1,0-.2,0-.3Z" style="fill:#e5e2e5"/><path d="M270.27,424.75a.3.3,0,0,0,.1-.27h6.85a2.72,2.72,0,0,1,0,.28Z" style="fill:#e5e2e5"/><path d="M526.06,198.15l-.12,0-.12,0v-6.27a.23.23,0,0,1,.23,0Z" style="fill:#e5e2e5"/><path d="M268.46,0a2.45,2.45,0,0,1,0,.27A15.43,15.43,0,0,1,263.64,0Z" style="fill:#e5e2e5"/><path d="M246.43.28a2.62,2.62,0,0,1,0-.28h4.83A15.45,15.45,0,0,1,246.43.28Z" style="fill:#e5e2e5"/><path d="M525.83,191.89v6.27l-.11,2.78c-.53,4.92-1,9.84-1.93,14.69a129.69,129.69,0,0,1-15.24,40.51,161.19,161.19,0,0,1-23.68,31.29c-16.2,16.95-34.61,30.05-54.27,40.88a305.26,305.26,0,0,1-73.53,28.48c-11.77,2.95-23.63,5.36-35.57,7.14q-10.82,1.6-21.68,2.55c-8.21.72-16.42,1.11-24.64,1.47-6.78.3-13.57.4-20.33.15-8.87-.31-17.73-.8-26.58-1.58a365.55,365.55,0,0,1-72.06-13.64,304,304,0,0,1-58.67-24.14,237.83,237.83,0,0,1-46-32.14c-15.19-13.68-28.37-29.51-38-48.89A122.65,122.65,0,0,1,.85,205.36c-.12-1.19-.33-2.37-.5-3.55q0-7.19,0-14.36a117.55,117.55,0,0,1,8.93-40.86C18.12,124.73,31.63,107.13,47.67,92c19.29-18.25,41-31.77,64-42.62,1.58-.74,3.18-1.4,4.77-2.1a2.12,2.12,0,0,1-.77,1.77,96.67,96.67,0,0,0-7.74,7.56c-3.07,3.25-5.89,6.78-8.82,10.2a59.83,59.83,0,0,0-6.2,8.55,83.4,83.4,0,0,0-6.38,7.12c-10,12.15-17.71,25.83-21.82,42A91.59,91.59,0,0,0,62.09,152a14.76,14.76,0,0,0-.23,1.86c0,14.8-.1,29.61,0,44.41a81,81,0,0,0,2.53,18.61c4.29,17.48,12.81,32,23.69,44.87a142.7,142.7,0,0,0,21.46,20.38c21.75,17,45.75,28.09,71,35.76a282.53,282.53,0,0,0,70.68,11.64,289.19,289.19,0,0,0,43.34-1.35,288.2,288.2,0,0,0,39-6.83c27.3-6.84,53.33-17.44,77.15-34.53,13.82-9.92,26.26-21.7,36.17-36.73,11.24-17,17.42-36,17-57.6-.21-11.62,0-23.24,0-34.87a4.19,4.19,0,0,0-.28-2.19,95.32,95.32,0,0,0-.48-20.05c-2.52-18.06-9.73-33.51-19.93-47.27C431.38,72.13,416.84,60,400.9,50c-3-1.88-5.87-4-9.13-5.21-1.87-1.93-4.32-2.76-6.29-4.5-1.37-1.2-2.8-2.29-4.2-3.44a250.2,250.2,0,0,1,26.8,10.35c22.49,10,43.75,22.6,63.1,39.27a175.07,175.07,0,0,1,31.63,35.23C516.68,142.37,525.29,165.38,525.83,191.89Z" style="fill:#6d867b"/><path d="M62.09,152a91.59,91.59,0,0,1,2.62-27.59c4.11-16.18,11.85-29.86,21.82-42a83.4,83.4,0,0,1,6.38-7.12c-1.38,4.33-2.89,8.6-4.11,13-3.87,14-6.68,28.18-6.57,43,0,6,.67,12,3,17.5a12,12,0,0,0,5.78,6.48c2.84,1.35,5.66,2.73,8.76,3,5.32.42,8.47-2.68,9.06-8.79l.27-2.92c1.3,7.12,5.51,10.62,11.37,12.08,2.89.72,5.77,1.5,8.66,2.25Q173.1,172.3,217,183.74c5.74,1.49,9.79-.38,12.82-5.79-.42,11.5,4.15,20.35,11.62,27.25a82,82,0,0,0,37.51,20,214.45,214.45,0,0,0,60.26,5c16.53-.87,32.78-3.61,48.56-9.51,13.6-5.08,26.21-12.29,36.83-23.57,13.42-14.25,20.21-32.08,21.83-52.86,2.09-26.88-6.58-49-22.14-68.25-9.16-11.32-19.68-20.76-30.7-29.52a5.54,5.54,0,0,1-1.86-1.69C395,46,397.92,48.08,400.9,50c15.94,10,30.48,22.17,42.35,38.18,10.2,13.76,17.41,29.21,19.93,47.27a95.32,95.32,0,0,1,.48,20.05,92.17,92.17,0,0,1-3.5,18.21c-5.7,18.92-16.05,34.09-28.93,47.16-13.87,14.08-29.65,24.7-46.54,33.17-36.31,18.21-74.55,25.93-113.93,27A288.51,288.51,0,0,1,198,273.78c-26.38-6.07-51.67-15.67-75.17-30.93-16-10.36-30.44-22.87-42-39.41C70.25,188.39,63.35,171.56,62.09,152Z" style="fill:#efeeec"/><path d="M229.86,178c-3,5.41-7.08,7.28-12.82,5.79q-43.93-11.43-87.86-22.9c-2.89-.75-5.77-1.53-8.66-2.25-5.86-1.46-10.07-5-11.37-12.08-.68-11.14,3.58-20.61,7.53-30.24,3.53-8.59,7.7-16.63,13.74-23.2,9.18-10,20.06-15.76,32.66-17.11,1-.11,2.1-.15,3.15-.23a4.59,4.59,0,0,1-1.29,1.88,53.73,53.73,0,0,0-4.48,5.84c-5.22,7.7-8.44,16.64-11.92,25.41-2.47,6.24-4.21,12.75-3.76,19.77a14.24,14.24,0,0,0,3,8.28c2.65,3.31,6.15,4.42,9.75,5.35,9.21,2.38,18.42,4.74,27.63,7.14,11.6,3,23.2,6.11,34.81,9.09,3.47.89,6.87,2.18,10.44,2.51A39.55,39.55,0,0,1,229.86,178Z" style="fill:#5a4f71"/><path d="M230.42,161c-3.57-.33-7-1.62-10.44-2.51-11.61-3-23.21-6.07-34.81-9.09-9.21-2.4-18.42-4.76-27.63-7.14-3.6-.93-7.1-2-9.75-5.35a14.24,14.24,0,0,1-3-8.28c-.45-7,1.29-13.53,3.76-19.77,3.48-8.77,6.7-17.71,11.92-25.41a53.73,53.73,0,0,1,4.48-5.84,4.59,4.59,0,0,0,1.29-1.88,47.74,47.74,0,0,1,23,4.28,4.73,4.73,0,0,1,.76.53,6.69,6.69,0,0,1-.82,2.57c-2.74,6.63-5.42,13.29-6.25,20.67-1,9.13,1.44,16,10,18.51,5.49,1.61,11,3,16.55,4.42,4.94,1.28,9.89,2.5,14.83,3.75,1.38,8.52,3.82,16.75,5.29,25.25C230,157.46,230.17,159.24,230.42,161Z" style="fill:#483f5c"/><path d="M224.37,130.46c-4.94-1.25-9.89-2.47-14.83-3.75-5.52-1.44-11.06-2.81-16.55-4.42-8.59-2.52-11.06-9.38-10-18.51.83-7.38,3.51-14,6.25-20.67a6.69,6.69,0,0,0,.82-2.57,38.14,38.14,0,0,1,11.49,7.06C214,98,221.38,112.11,224.29,129.42,224.34,129.76,224.34,130.11,224.37,130.46Z" style="fill:#332e42"/><path d="M284.32,179.39c-.63-.09-1.2-.27-1.36-1.11Z" style="fill:#f0efed"/><path d="M270.55,137.88l-.14,0-.12-.06A.3.3,0,0,1,270.55,137.88Z" style="fill:#e5e2e5"/><path d="M425.62,176.13l.32-.55Z" style="fill:#f0efed"/><path d="M367.18,133.26l.22.34Z" style="fill:#e5e2e5"/><path d="M62.09,152c1.26,19.53,8.16,36.36,18.7,51.41,11.58,16.54,26.06,29.05,42,39.41,23.5,15.26,48.79,24.86,75.17,30.93A288.51,288.51,0,0,0,270.76,281c39.38-1.07,77.62-8.79,113.93-27,16.89-8.47,32.67-19.09,46.54-33.17,12.88-13.07,23.23-28.24,28.93-47.16a92.17,92.17,0,0,0,3.5-18.21,4.19,4.19,0,0,1,.28,2.19c0,11.63-.2,23.25,0,34.87.4,21.62-5.78,40.58-17,57.6-9.91,15-22.35,26.81-36.17,36.73-23.82,17.09-49.85,27.69-77.15,34.53a288.2,288.2,0,0,1-39,6.83,289.19,289.19,0,0,1-43.34,1.35,282.53,282.53,0,0,1-70.68-11.64c-25.29-7.67-49.29-18.78-71-35.76A142.7,142.7,0,0,1,88.1,261.78c-10.88-12.86-19.4-27.39-23.69-44.87a81,81,0,0,1-2.53-18.61c-.12-14.8,0-29.61,0-44.41A14.76,14.76,0,0,1,62.09,152Z" style="fill:#5a4f70"/><path d="M267.2,8.93h-10c-.59,0-1.37-.2-1.56.6s.61,1,1.06,1.24a67.62,67.62,0,0,1,7.42,5.28C281.68,31,293,51,299.87,74.48a158.52,158.52,0,0,1,5.33,27.63c.07.64-.07,1.4.93,1.35,5.79-.27,11.31,1.6,16.9,2.89,4.77,1.09,9.46,2.64,14.38,2.69,1.59,0,2.56-.63,3.23-2.4,5.44-14.26,5.92-29.12,3-44-2.8-14.14-6.89-27.89-14.29-39.95-1.92-3.14-4.57-5.78-7.61-6.71a143.45,143.45,0,0,0-18.92-4.95C290.58,9.07,278.25,9.55,267.2,8.93Z" style="fill:#efeeec"/><path d="M190.67,20.16c12.67-.86,25.13,3.77,36.67,12,14.81,10.55,27.65,23.46,36,41.48a72.89,72.89,0,0,1,7,31.53c0,4.11-.7,5.39-4,7-6.23,3-11.16,8.12-15.92,13.47-2.84,3.19-5.71,6.36-8.57,9.52-.31.35-.62.92-1.1.73s-.29-.79-.37-1.23c-2.87-16-6.93-31.32-16.69-43.89C212.7,76.58,199.2,67.49,183,63.9c-12.48-2.77-25-2.95-37.19,2-19.51,7.88-33.69,22.68-42.32,44.35-3.55,8.92-5.52,18.42-7.47,27.91a13.8,13.8,0,0,1-2.3,4.58c-.55.89-1.2.51-1.7-.29a14.16,14.16,0,0,1-1.87-5.79c-3.65-27.22,3.13-51.06,18.35-71.76,17.12-23.29,39-37.55,65-43.24A66.14,66.14,0,0,1,190.67,20.16Z" style="fill:#efeeec"/><path d="M425.94,175.58v.07c9.28-21.75-6.78-48.92-24.1-62.26-4.46-4.74-13.76-4.22-16.11-7.63,1.26-6.85,10.63-9.61,16.59-9.66,19.08-1.46,38.11,23.2,25.2-.33-3.29-10-51.93-66.06-59.89-53.68-.42,9.2,5,17.74,4.52,27.25a132.13,132.13,0,0,1-1.53,31.53c-1.11,7.2-2,14.48-4.19,21.37-3.07,11.91,9,21.23,6.13,33.64-8.34,35.66-63.06,44.49-89.6,22.4-33.87-36.88,31.15-61.5,57.16-32.36,14.94,16.55-13.22,21.43-25.24,21.64-3.48.4-3.71.23-4.06,4.11,0,22.49,45.94,1.61,48-12.61,2.48-6.37-5-5.28-9-6.28-3.69-.16-3.82-5.71-.7-7,2.64-2,8.08-.94,8-5.17-1.63-10.18-9.53-6.68-16.36-5.1-14.85-.13-2.54-15.23-9.82-16.16-6.92-1-18.47-9-18.91,3-.93,10.63-14.31,6.93-17.54-.84-2-3.56-4.5-4.14-7.54-3.77-29.71,6.68,2,10.11-2.77,18.32-6.11,5.78-20.44-1-27.83.63-8,4.38-12.16,13.3-14.35,22.63-6.42,20.33,5.89,39.85,24.26,48.92,13.72,9.6,21.43-22.7,38.36-15.32,6.66,2.93,17.56,1.64,15.81,11.86.42,4.72-5.79,16.36.59,18,21,1.1,48.84-4.08,67.46-14,7.73-5.45-13.87-18.86-16.37-24.72-6.56-15.47,38-7.16,44.46-1.69C421.39,185.13,423.74,178.62,425.94,175.58Z" style="fill:#efeeec"/></svg>