<svg width="598" height="480" viewBox="0 0 598 480" fill="none" xmlns="http://www.w3.org/2000/svg">
<g id="Frame" clip-path="url(#clip0)">
<path id="Vector" d="M455.38 99.52C461.28 101.24 467.01 102.97 471.78 107.4C479.46 114.53 481.09 123.82 482.53 133.4C485.01 149.88 489.85 165.5 500.2 178.92C501.96 181.21 504.06 183.23 506 185.38C507.094 186.926 508.495 188.229 510.116 189.209C511.737 190.188 513.543 190.821 515.42 191.07C518.443 191.645 521.398 192.53 524.24 193.71C535.359 197.738 545.383 204.309 553.51 212.9C559.584 220.212 563.589 229.017 565.11 238.4C566.01 244.29 565.86 250.33 566.19 256.55C579.26 264.55 587.42 276.73 592.19 291.3C595.96 302.326 597.701 313.943 597.33 325.59C596.96 334.68 596.41 343.68 595.21 352.71C593.05 369.09 586.21 383.21 575.7 395.71C572.906 398.816 570.885 402.536 569.8 406.57C569.24 408.86 568.22 411.03 567.63 413.31C564.71 424.71 558.16 433.75 549 440.77C543.138 445.054 537.027 448.988 530.7 452.55C528.638 453.714 526.326 454.366 523.96 454.45C518.2 454.66 512.36 455.45 506.68 453.55C505.653 453.176 504.58 452.947 503.49 452.87C488.21 452.25 475.17 445.14 462.49 437.87C451.81 431.76 442.01 424.12 431.79 417.19C427.58 414.34 423.15 411.79 419.08 408.76C406.97 399.76 398.08 388.32 393.41 373.76C392.016 368.902 389.845 364.303 386.98 360.14C383.62 355.47 381.34 350 378.78 344.78C377.858 342.618 376.262 340.811 374.23 339.63C371.868 338.121 369.594 336.479 367.42 334.71C367.57 334.38 367.72 334.06 367.88 333.71L373.4 334C370.66 325.84 367.9 318.22 365.54 310.48C362.67 301.11 359.81 291.71 357.6 282.17C356.6 277.73 357.08 272.93 356.86 267.59C355.068 266.935 353.211 266.476 351.32 266.22C325.73 264.93 303.57 273.49 284.22 289.94C283.182 291.017 282.223 292.166 281.35 293.38C283.78 293.83 285.46 294.17 287.16 294.46C294.71 295.75 302.09 297.55 308.83 301.46C311.766 302.947 314.008 305.518 315.08 308.63C316.69 313.4 319.29 317.88 320.56 322.73C321.88 327.73 322.26 333.08 322.78 338.29C323.17 342.08 322.33 345.46 318.47 347.44C315.74 348.85 313.27 350.81 310.47 352.08C292.456 360.473 272.852 364.906 252.98 365.08C234.74 365.14 216.67 363.22 200.08 354.46C194 351.26 193.41 350.46 194.22 343.39C194.64 339.79 195.4 336.24 196.01 332.67C198.311 328.069 198.92 322.805 197.73 317.8C198.18 312.55 201.24 309.04 205.73 306.92C210.275 304.659 215.01 302.801 219.88 301.37C229.88 298.65 239.88 296.03 250.04 294.21C255.48 293.21 261.23 294.04 267.04 294.04C267.7 293.161 268.273 292.22 268.75 291.23C272.066 282.559 276.536 274.375 282.04 266.9C292.125 252.449 307.108 242.146 324.21 237.9C331.37 236.07 338.85 235.51 346.21 234.38C348.52 234.03 350.83 233.71 352.38 233.49C352.9 227.99 352.92 222.93 353.96 218.08C355.45 211.14 360.46 206.98 366.81 204.34C369.15 203.34 371.53 202.49 373.88 201.55C374.576 201.279 375.245 200.944 375.88 200.55C378.3 199.06 380.69 194.86 379.96 192.77C379.447 191.402 378.59 190.189 377.473 189.247C376.356 188.304 375.015 187.665 373.58 187.39C371.971 187.118 370.332 187.07 368.71 187.25C359.76 187.6 352.79 183.91 348.17 176.42C339.93 163.06 338.07 148.56 341.99 133.42C344.62 123.3 350.46 115.96 361.17 113.16C365.028 112.074 369.107 112.047 372.98 113.08C383.2 115.91 391.8 121.08 395.56 131.68C397.56 137.46 398.94 143.49 400.56 149.41C400.96 157.51 401.24 165.62 401.82 173.7C402.21 179.21 402.31 184.84 405.3 189.81L405.24 189.73L406.38 190.98C406.16 193.39 406.81 194.81 409.5 195.7C413.457 197.047 417.721 197.21 421.77 196.17C431.068 193.777 440.038 190.254 448.48 185.68C452.48 183.58 456.48 181.61 461.04 179.32C460.94 178.73 460.75 177.57 460.56 176.42C460.28 174.72 460 173.02 459.67 170.98C453.31 174.51 447.15 177.2 440.32 177.98C429.32 176.98 422.77 170.08 419.8 160.27C416.83 150.46 416.67 140.18 417.86 130.02C418.95 120.76 424.02 113.5 430.49 107.11L431.75 105.76L431.6 105.96C432.27 105.49 432.94 105.02 433.6 104.54L434.81 103.68C441.204 100.575 448.282 99.1437 455.38 99.52V99.52ZM421.89 402.19L420.77 401.19L417.31 397.89C417.16 400.97 418.52 401.5 420.31 401.68L421.37 402.81L423.71 404.81L425.33 405.13C424.94 404.85 424.54 404.58 424.14 404.31L421.89 402.19ZM555.35 415.19C550.5 417.97 545.62 420.7 540.79 423.54C533.348 428.056 525.062 431.006 516.44 432.21C514.994 432.515 513.57 432.919 512.18 433.42L518.35 447.54C521.42 446.62 524.55 446.4 526.82 444.88C533.792 440.358 540.497 435.437 546.9 430.14C551.25 426.44 554.9 421.82 555.9 415.74L556.44 415.06L555.35 415.19ZM375.88 298.67C382.02 301.56 388.72 301.83 395.09 303.4C398.6 295.91 401.89 288.91 405.26 281.71C397.26 279.34 389.35 276.96 381.41 274.71C380.529 274.644 379.644 274.704 378.78 274.89C377.08 274.89 375.38 274.89 373.68 274.94L366.68 271.04C369.02 279.83 370.96 287.3 373.05 294.73C373.45 296.23 373.29 298.5 375.88 298.62V298.67ZM295.23 269.85C307.31 262.85 320.1 257.68 334.14 256.93C342.96 256.47 351.88 256.53 360.3 260.49C367.03 263.65 374.02 266.25 380.96 268.92C388.918 272.027 397.232 274.13 405.71 275.18C408.99 275.57 410.65 274.46 412.22 271.77C417.14 263.39 423.75 256.38 431.04 250.03C436.274 245.236 442.387 241.501 449.04 239.03C455.14 236.88 460.5 232.48 466.66 230.73C485.85 225.29 504.98 224.98 523.44 234.06C524.113 234.251 524.81 234.345 525.51 234.34C521.39 223.53 514.66 217.09 504.18 213.86C502.46 213.33 500.97 212.76 501.18 210.7C501.21 210.283 501.329 209.877 501.531 209.511C501.733 209.145 502.011 208.826 502.348 208.578C502.684 208.33 503.071 208.158 503.48 208.074C503.89 207.989 504.313 207.995 504.72 208.09C508.109 208.492 511.438 209.291 514.64 210.47C521.21 213.2 524.98 218.83 528.17 224.87C536.52 240.7 539.05 257.67 536.57 275.13C534.31 290.97 527.41 305.27 519.24 318.91C518.472 319.849 517.577 320.677 516.58 321.37C513.93 322.13 512.65 320.73 511.58 318.5C509.14 313.44 505.06 311.35 499.81 312.11C483.34 314.46 477.53 329.49 477.86 341.41C478.09 350.02 484.34 355.57 490.98 359.68C497.407 363.624 505.038 365.126 512.48 363.91C529.21 361.33 542.48 353.27 550.57 338.05C558.61 323.144 563.414 306.709 564.67 289.82C564.94 286.29 565.34 282.82 565.67 278.93C566.32 279.52 566.67 279.7 566.79 279.98C567.119 281.019 567.367 282.082 567.53 283.16C570.836 306.415 565.611 330.08 552.82 349.78C543.94 363.78 530.67 371.69 514.6 374.3C498.11 376.99 484.19 371.63 473.77 358.25C469.024 352.142 466.869 344.413 467.77 336.73C468.532 327.804 471.797 319.274 477.19 312.12C478.976 309.62 481.368 307.614 484.14 306.29C488.984 304.278 494.06 302.877 499.25 302.12C507.88 300.98 514.59 305.46 518.03 313.6C518.18 313.96 518.79 314.14 519.25 314.44C522.52 306.56 525.43 298.73 528.97 291.19C534.84 278.69 535.33 265.63 533.88 252.29C533.74 251.05 532.88 249.29 531.88 248.82C521.76 243.82 512.22 237.27 500.39 236.82C498.46 236.65 496.39 235.97 494.63 236.4C485.63 238.56 476.63 240.74 467.8 243.4C458.6 246.2 449.67 249.74 442.31 256.28C432.44 263.03 425.24 272.16 419.1 282.28C414.76 286.17 412.64 291.46 410.95 296.7C406.87 309.42 403.32 322.3 399.63 335.14C398.49 339.14 399.63 342.94 400.74 346.74C400.911 348.35 401.175 349.95 401.53 351.53C404.667 363.291 409.831 374.414 416.79 384.4C418.86 387.33 421.43 389.9 423.79 392.64C425.79 394.91 427.48 397.77 429.96 399.36C441.52 406.8 453.3 413.89 464.96 421.11C466.59 421.8 468.19 422.6 469.86 423.17C480.34 426.73 490.86 425.02 501.32 423.17C503.43 422.75 505.56 422.39 507.66 421.91C516.46 419.91 525.31 418.03 533.47 413.91C534.649 413.462 535.765 412.864 536.79 412.13C540.63 408.67 544.35 405.07 548.12 401.52C555.108 397.025 561.364 391.484 566.67 385.09C575.01 377.382 581.566 367.945 585.88 357.44C586.38 356.27 586.06 354.76 586.12 353.44C586.17 352.36 585.91 351.14 586.32 350.21C590.32 341.11 590.07 331.48 589.67 321.91C589.13 309.29 586.41 297.17 579.84 286.17C575.84 279.51 569.99 274.62 564.22 269.65C563.061 268.771 561.852 267.96 560.6 267.22C559.15 272.57 557.87 277.47 556.48 282.34C555.48 285.75 553.84 288.7 550.48 290.34L548.48 290.24C551.798 283.78 554.43 276.989 556.33 269.98C558.649 261.548 559.365 252.756 558.44 244.06C556.52 226.81 546.63 214.73 532.53 205.72C528.432 203.058 523.911 201.113 519.16 199.97C514.421 198.74 509.938 196.678 505.92 193.88C496.16 187.29 490.02 177.54 484.92 167.19C482.616 162.461 480.813 157.504 479.54 152.4C477.32 143.6 475.68 134.66 473.82 125.77C472.557 120.036 469.508 114.85 465.11 110.96C460.99 107.14 455.99 104.96 450.18 105.73C444.37 106.5 439.34 108.54 435.55 113.18C430.89 116.96 428.3 122.1 426.12 127.53C423.12 134.9 423.89 142.44 424.65 150.08C425.218 155.701 427.329 161.055 430.75 165.55C437.48 174.68 447.27 174.14 455.75 168.49C458 167 459.93 165.19 459.83 161.89C459.83 160.21 460.83 158.43 461.61 156.84C461.74 156.58 463.29 157.04 464.18 157.17C468.71 165.96 470.73 175.55 472.89 185.07C473.383 187.562 473.427 190.122 473.02 192.63C472.49 196.38 471.42 200.05 470.68 203.77C470.58 204.801 470.58 205.839 470.68 206.87L475.23 208.5C472.46 212.57 469.08 212.82 467.34 209.19C466.663 207.335 466.325 205.374 466.34 203.4C465.97 198.72 465.76 194.03 465.51 189.58C461.3 187.69 461.35 187.78 458.13 189.42C454.496 191.439 450.731 193.213 446.86 194.73C438.139 197.815 429.025 199.653 419.79 200.19C415.272 200.291 410.754 199.956 406.3 199.19C404.539 198.893 402.957 197.935 401.88 196.51C399.29 192.38 397.08 187.98 396.71 182.96C396.3 177.35 396.06 171.74 395.54 166.15C394.91 159.47 394.47 152.75 393.23 146.15C391.1 134.88 385.81 125.73 374.31 121.51C374.145 121.439 373.988 121.352 373.84 121.25C368.46 118.11 363.21 118.25 358.09 121.84C354.62 123.45 351.56 125.4 349.58 128.95C342.44 141.76 341.11 160.75 356.1 173.5C359.26 176.19 362.66 178.57 367.24 178.5C370.82 178.42 374.42 178.83 378.01 179.02C381.718 182.202 384.525 186.302 386.15 190.91C389.29 199.07 386.65 206.12 378.9 209.91C375.98 211.33 372.96 212.57 369.9 213.78C361.9 216.98 359.31 223.64 363.17 231.3C363.628 232.083 364.036 232.895 364.39 233.73C364.719 234.531 364.883 235.389 364.873 236.255C364.862 237.121 364.677 237.975 364.329 238.768C363.981 239.56 363.477 240.274 362.846 240.868C362.216 241.461 361.472 241.921 360.66 242.22C358.939 242.748 357.165 243.084 355.37 243.22C347.5 244.4 339.49 244.99 331.78 246.84C317.18 250.32 304.84 258.2 293.86 268.29L291.64 270.89L292.53 271.71L295.23 269.85ZM312.41 320.75C309.23 322.9 306.48 325.48 303.21 326.81C296.878 329.528 290.332 331.719 283.64 333.36C263.601 338.025 242.789 338.285 222.64 334.12C216.86 332.9 211.17 331.27 205.24 329.79C204 335.56 201.72 341.15 202.6 348C208.25 350.41 213.93 353.28 219.89 355.25C224.915 356.821 230.078 357.906 235.31 358.49C243.38 359.49 251.58 361.08 259.62 360.59C271.62 359.87 283.09 356.22 294.28 351.82C298.66 350.1 303.13 348.6 307.55 347C310.73 345.84 314.18 345.23 316.55 342.66C315.56 335.08 316.04 327.52 312.41 320.7V320.75ZM250.11 329.35C265.993 329.665 281.798 327.03 296.72 321.58C299.62 320.552 302.358 319.114 304.85 317.31C309.04 314.25 308.64 311.75 303.94 309.4C296.24 305.55 287.94 303.51 279.64 301.62C277.1 301.05 274.78 300.53 272.52 302.62C272.014 302.97 271.429 303.188 270.818 303.254C270.207 303.321 269.589 303.233 269.02 303C265.34 300.2 261.38 301.39 257.5 301.82C242.83 303.44 228.71 307.5 214.62 311.66C212.03 312.493 209.609 313.779 207.47 315.46C204.97 317.36 205.26 319.46 208.06 320.97C210.387 322.385 212.879 323.511 215.48 324.32C226.88 327.27 238.3 330.38 250.11 329.3V329.35ZM376.79 306.28C380.08 315.57 381.62 324.52 386.79 332.65C388.92 324.47 390.88 316.91 392.89 309.2L376.79 306.28ZM483.47 437.1C487.15 438.9 490.22 440.83 493.56 441.93C499.46 443.93 505.56 445.33 512.56 447.27C510.69 442.37 509.08 438.17 507.56 434.27L483.47 437.1ZM450.3 421.9C449.68 424 449.22 425.57 448.81 427.01C455.65 430.84 455.94 430.83 458.61 426.71L450.3 421.9Z" fill="#070707"/>
<path id="Vector_2" d="M305.13 6.27001C307.694 7.55333 310.185 8.97891 312.59 10.54C327.2 21.14 334.45 35.94 336.05 53.54C336.7 60.71 333.92 67.16 328.72 72.25C324.32 76.55 319.65 80.57 314.95 84.85C314.95 98.85 314.82 113.06 314.95 127.22C315.16 144.49 315.05 161.74 312.7 178.88C311.456 188.868 307.281 198.264 300.7 205.88C295.2 212.25 288.58 216.82 280.37 218.8C278.15 219.34 275.74 219.12 273.42 219.2C272.35 219.2 271.26 219.03 270.2 219.14C260.45 220.14 250.72 221.27 240.98 222.33C237.749 222.837 234.489 223.138 231.22 223.23C218.96 222.95 207.06 225.69 195 227.12C187.63 227.99 180.21 228.51 172.79 228.91C160.79 229.55 148.85 229.84 136.9 230.52C123.85 231.27 110.83 232.04 97.76 230.58C88.93 229.58 80.01 229.45 71.14 228.8C49.95 227.26 36.14 214.41 31.39 194.49C30.18 189.39 28.98 184.29 27.74 179.04C19.48 177.75 13.1301 173.4 7.85007 167.41C6.62007 166.01 6.01998 164.05 5.13998 162.35C11.91 166.06 17.47 172.16 25.53 173.46C27.7094 169.388 28.3721 164.675 27.4 160.16C25.7 152.16 23.7899 144.28 21.9799 136.34C21.7963 135.659 21.7056 134.956 21.7101 134.25C22.0401 127.07 20.8 125.62 13.87 125.2C15.47 124.01 17.06 122.81 18.87 121.42C18.9236 120.421 18.9236 119.419 18.87 118.42C16.87 99.02 16.65 79.67 19.25 60.25C20.745 48.2612 25.9111 37.028 34.04 28.09C40.53 20.85 49.19 16.65 58.38 14.31C67.1738 12.1196 76.1292 10.6382 85.16 9.88C111.27 7.55 137.43 9.18003 163.58 9.54003C165.03 9.54003 166.48 9.66002 167.93 9.65002C198.66 9.24002 229.26 11.59 259.84 14.1C261.1 14.21 262.35 14.23 264.22 14.32C264.54 12.84 264.84 11.4 265.15 9.96002C269.15 7.53002 272.81 4.46999 277.88 4.74999L268.05 14.95C270.77 15.74 272.44 16.24 274.13 16.72C286.13 20.15 297.13 25.06 305.95 34.34C311.596 40.067 314.788 47.7682 314.85 55.81C314.91 59.41 315.03 63.02 315.12 66.63C312.53 69.69 312.53 69.69 315.78 74.96C331.3 64.88 331.98 55.9 328.24 42.28C324.24 27.85 315.93 16.36 303.82 7.60003L305.13 6.27001ZM141.19 21.53C141.19 21.13 141.19 20.72 141.19 20.32C122.32 20.78 103.43 21.12 84.56 21.75C73.03 22.14 61.87 24.38 51.4799 29.75C46.5636 32.1728 42.2869 35.7195 38.9964 40.1028C35.7059 44.4861 33.4941 49.5828 32.54 54.98C30.7889 64.8087 29.7064 74.7448 29.3 84.72C28.55 97.99 29.69 111.23 31.3 124.43C34.02 146.8 36.3 169.23 41.3 191.24C42.2047 195.493 43.6885 199.601 45.7101 203.45C50.8101 212.72 59.11 217.61 69.52 218.66C80.18 219.73 90.86 220.55 101.52 221.33C108.21 221.82 114.92 222.33 121.62 222.33C136.33 222.18 151.04 221.33 165.75 221.4C177.739 221.528 189.724 220.883 201.63 219.47C208.11 218.64 214.63 217.69 221.11 217.31C232.89 216.61 244.71 216.54 256.48 215.75C264.03 215.24 271.55 214.75 278.79 211.6C293.43 205.17 302.62 194.6 305.16 178.77C307.539 163.123 308.393 147.282 307.71 131.47C307.21 116.57 306.667 101.673 306.08 86.78C305.7 77.16 305.25 67.53 304.79 57.91C304.49 51.67 302.99 46.09 296.91 42.76C295.075 41.5813 293.349 40.2428 291.75 38.76C282.26 31.08 271.3 27.14 259.26 26.03C252.39 25.39 245.51 24.78 238.62 24.37C222.12 23.37 205.62 22.12 189.11 21.64C173.18 21.17 157.18 21.53 141.19 21.53V21.53Z" fill="#060706"/>
<path id="Vector_3" d="M291.22 431.05C295.15 440.37 297.28 449.71 304.68 456.32C310.51 461.53 316.83 465.62 326.49 464.64C324.76 466.25 324.09 467.25 323.15 467.64C316.98 470.55 310.72 469.97 304.69 467.33C296.86 463.9 291.51 457.81 288 450.13C286.27 446.34 285 442.36 283.39 438.49C282.67 436.69 281.82 434.94 280.75 432.56C278.44 435.56 276.66 438.1 274.75 440.46C271.86 443.95 268.9 447.4 265.85 450.75C264.937 451.88 263.729 452.735 262.36 453.22C261.694 453.385 261 453.406 260.326 453.28C259.651 453.154 259.011 452.885 258.45 452.49C258.028 451.956 257.735 451.331 257.593 450.666C257.45 450 257.463 449.31 257.63 448.65C258.376 446.797 259.387 445.063 260.63 443.5C264.14 438.43 267.71 433.4 271.16 428.5C270.91 427.66 270.75 427.16 270.61 426.64C269.3 421.98 270.61 419.37 275.21 418.96C276.36 418.883 277.477 418.549 278.481 417.983C279.485 417.417 280.349 416.634 281.01 415.69C285.81 409.76 290.62 403.84 295.68 398.14C297.14 396.5 299.35 394.86 301.41 394.55C309.51 393.3 317.73 392.88 325.77 394.76C329.11 395.551 332.237 397.063 334.93 399.19C340.72 403.87 341.05 411.19 335.72 416.35C332.82 419.081 329.535 421.373 325.97 423.15C316.97 427.8 307.13 429.59 297.13 430.52C295.44 430.71 293.82 430.83 291.22 431.05ZM329.5 408.97C326.72 405.49 323.7 404.83 320.61 404.7C315.73 404.48 310.83 404.6 305.95 404.44C303.7 404.37 302.31 405.36 300.95 407.09C297.95 410.99 294.81 414.7 291.77 418.54C290.966 419.706 290.225 420.915 289.55 422.16C304.13 420.34 318.04 419.31 329.5 408.97V408.97Z" fill="#050606"/>
<path id="Vector_4" d="M38.91 371.9C36.91 375.11 35.2 377.48 33.81 379.99C31.59 383.99 31.9701 385.52 35.7101 388.25C40.2229 391.397 45.5512 393.168 51.05 393.35C57.5559 393.603 64.0714 393.406 70.55 392.76C72.8865 392.401 75.1118 391.519 77.06 390.18C80.48 388.08 80.7 385.18 77.64 382.69C75.2241 380.772 72.6518 379.059 69.9501 377.57C65.5301 375.09 60.95 372.91 56.49 370.44C54.7249 369.506 53.1294 368.283 51.77 366.82C46.31 360.65 47.91 352.26 55.27 348.52C61.27 345.52 67.7 344.46 74.27 344.28C85.39 343.99 96.5 344.18 106.54 350.03C108.452 351.063 110.195 352.382 111.71 353.94C115.03 357.58 114.71 362.7 111.34 366.27C109.74 367.93 107.88 369.11 105.52 368.07C103.16 367.03 102.59 365.07 103.2 362.62C103.37 361.92 103.52 361.21 103.67 360.53C94.17 352.93 67.6701 351.6 57.9501 358.21C57.6101 360.72 59.3801 361.73 61.2101 362.61C64.6401 364.25 68.21 365.69 71.57 367.43C76.07 369.75 80.74 371.88 84.82 374.81C92.41 380.27 92.5901 390.81 85.6001 397C81.5201 400.62 76.6 402.39 71.32 403.28C60.8928 405.113 50.1786 404.427 40.07 401.28C34.79 399.63 29.9401 397.19 26.2001 393C20.7401 386.9 21.6301 379.75 28.4601 375.36C31.3201 373.56 34.34 371.9 38.91 371.9Z" fill="#050606"/>
<path id="Vector_5" d="M424.77 424.49C421.83 424.83 419.2 425.36 416.56 425.41C404.78 425.6 393.01 427.41 381.2 425.79C380.684 425.735 380.161 425.796 379.672 425.969C379.182 426.142 378.737 426.423 378.37 426.79C375.15 431.31 372.12 435.96 368.63 441.17C375.23 441.76 380.96 442.17 386.63 442.81C394.03 443.66 401.39 444.81 408.78 445.7C410.87 445.97 412.98 446.24 412.92 448.94C412.86 451.44 410.92 452.42 408.81 452.45C404.277 452.59 399.739 452.47 395.22 452.09C384.74 451.09 374.3 449.72 363.01 448.41L351.86 464.57C355.86 465.4 358.99 466.19 362.14 466.68C373.993 468.5 385.847 470.263 397.7 471.97C402.08 472.61 403.7 473.47 403.39 475.63C402.96 479.03 399.94 479.39 397.59 479.39C391.789 479.481 385.988 479.17 380.23 478.46C369.8 477.04 359.44 475.12 349.06 473.39C347.986 473.201 346.924 472.947 345.88 472.63C339.88 470.87 338.35 467.46 341.68 462.01C345.85 455.2 350.26 448.52 354.74 441.91C359.94 434.24 365.46 426.79 370.57 419.07C373.57 414.6 377 412.94 382.49 413.78C389.82 414.9 397.32 414.9 404.72 415.65C409.055 416.077 413.355 416.803 417.59 417.82C420.79 418.59 423.68 420.17 424.77 424.49Z" fill="#060706"/>
<path id="Vector_6" d="M238.31 426.27C229.14 424.5 220.31 422.8 211.38 421.05C209.43 420.67 207.32 420.48 205.6 419.59C201.51 417.48 198.17 418.59 194.53 420.86C189.47 424.03 184.09 426.71 178.82 429.57C177.71 430.18 176.54 430.68 175.38 431.2C173.32 432.11 171.38 432.04 170.17 429.91C168.96 427.78 170.09 426.05 171.82 424.73C173.798 423.133 175.861 421.644 178 420.27C195.08 409.93 212.183 399.633 229.31 389.38C234.14 386.49 239.1 383.82 243.96 380.99C250.59 377.12 254.18 379.15 254.65 386.73C255.57 401.42 252.65 415.65 250.14 429.96C249.14 436.04 248.2 442.14 247.22 448.23C247.086 449.667 246.811 451.087 246.4 452.47C246.039 453.612 245.302 454.598 244.308 455.266C243.315 455.935 242.124 456.246 240.93 456.15C239.728 456.163 238.559 455.753 237.627 454.993C236.695 454.233 236.059 453.17 235.83 451.99C235.39 449.865 235.309 447.682 235.59 445.53C236.35 439.25 237.34 433 238.31 426.27ZM243.89 394.27L242.68 393.37L208.8 412.9L240.15 418.59L243.89 394.27Z" fill="#050606"/>
<path id="Vector_7" d="M147.04 403.51C138.87 402.32 131.76 401.8 124.93 400.15C118.1 398.5 113.14 400.15 108.59 405.15C106.421 407.351 103.986 409.273 101.34 410.87C98.6301 412.65 96.4001 412.41 94.9101 410.7C93.4201 408.99 93.4701 406.78 95.8501 404.38C102.85 397.29 109.85 390.12 117.33 383.5C125.07 376.64 133.33 370.37 141.4 363.87C146.32 359.87 148.49 359.15 153.34 359.61C153.92 363.94 151.72 367.39 149.04 370.18C143.78 375.67 138.12 380.78 132.49 385.91C130.28 387.91 127.73 389.6 125.64 392.43C126.8 392.54 127.98 392.57 129.13 392.77C136.13 393.96 143.13 394.95 150 396.52C152.88 397.18 154.61 396.59 156.77 394.75C164.36 388.27 172.14 382.01 179.95 375.8C181.708 374.518 183.632 373.481 185.67 372.72C187.53 371.95 189.54 372.39 190.38 374.22C190.702 374.923 190.879 375.684 190.901 376.457C190.923 377.23 190.79 377.999 190.51 378.72C189.416 380.598 187.998 382.268 186.32 383.65C181.19 388.26 175.79 392.59 170.77 397.32C162.43 405.16 154.33 413.24 146.09 421.18C144.26 422.93 142.45 424.87 140.26 426.01C139.522 426.501 138.646 426.743 137.76 426.702C136.875 426.66 136.026 426.337 135.337 425.778C134.648 425.22 134.156 424.457 133.931 423.599C133.707 422.741 133.763 421.834 134.09 421.01C134.942 418.621 136.208 416.4 137.83 414.45C140.45 411.03 143.35 407.83 147.04 403.51Z" fill="#050606"/>
<path id="Vector_8" d="M68.52 277.31C94.45 277.65 120.38 277.77 146.29 278.42C166.06 278.91 185.8 279.17 205.53 277.6C212.75 277.02 220.02 276.99 227.26 276.6C229.6 276.48 232.11 276.53 234.2 275.67C236.29 274.81 238 275.33 239.92 275.91C241.51 276.39 242.79 277.25 242.44 278.84C242.273 279.5 241.975 280.119 241.564 280.662C241.154 281.204 240.639 281.659 240.05 282C234.785 284.396 229.075 285.66 223.29 285.71C214.96 285.85 206.62 286.28 198.29 286.64C197.045 286.764 195.809 286.968 194.59 287.25H188.49L187.06 287.31C177.3 286.73 167.53 286.22 157.78 285.53C127.993 283.417 98.2067 281.267 68.42 279.08L68.52 277.31Z" fill="#0A0A09"/>
<path id="Vector_9" d="M188.49 287.22H194.59C194.59 292.45 194.53 292.22 189.3 293.05C185.08 293.71 180.95 294.95 176.49 296C176.68 294.73 176.84 293.59 177.07 292.09C169.47 291.41 162.07 290.64 154.71 290.09C129.757 288.25 104.803 286.453 79.8501 284.7C79.5021 284.748 79.1644 284.853 78.8501 285.01C74.3501 284.6 69.8501 284.09 65.3401 283.81C49.4201 282.81 33.51 281.91 17.58 281.11C13.84 280.92 10.06 281.3 6.30002 281.43C6.67002 280.65 7.02999 279.88 7.39999 279.11C10.61 278.75 13.82 278.11 17.05 278.11C25.53 277.95 34.05 277.88 42.51 278.04C51.16 278.2 59.81 278.67 68.51 279.04C98.2966 281.193 128.083 283.343 157.87 285.49C167.62 286.18 177.39 286.69 187.15 287.27L188.49 287.22Z" fill="#F5F6F5"/>
<path id="Vector_10" d="M13.89 125.2C20.82 125.62 22.06 127.07 21.73 134.25C21.7255 134.956 21.8164 135.659 22 136.34C23.81 144.28 25.7201 152.19 27.4201 160.16C28.3922 164.675 27.7295 169.388 25.5501 173.46C17.4901 172.16 11.93 166.06 5.16004 162.35L5.25001 162.45L4.03004 161.26L4.12 161.44L2.3401 159.17C2.3401 158.25 2.7201 157.17 2.3401 156.43C-3.6599 145.22 2.72999 134.43 11.11 127.5L13.89 125.2ZM10.3401 152.56V142.05C7.5101 145.9 7.8001 149.22 10.3401 152.56Z" fill="#FAFAFA"/>
<path id="Vector_11" d="M303.85 7.60001C315.96 16.36 324.3 27.85 328.27 42.28C332.01 55.9 331.33 64.88 315.81 74.96C312.56 69.69 312.56 69.69 315.15 66.63C318.23 66.18 318.42 63.43 319.02 61.34C323.75 44.82 317.58 26.42 304.2 14.17C296.79 7.38001 287.74 4.90997 277.91 4.74997C272.84 4.46997 269.14 7.52999 265.18 9.95999C267.62 2.95999 269.84 1.25999 277.11 0.959991C278.52 0.899991 279.93 0.770013 281.34 0.670013C289.349 0.79964 297.155 3.20303 303.85 7.60001Z" fill="#DEE4DF"/>
<path id="Vector_12" d="M497.37 117.81C496.47 119.09 495.83 120.81 494.65 121.37C493.8 121.75 491.97 120.77 491.02 119.9C489.603 118.498 488.361 116.93 487.32 115.23C479.306 102.843 468.269 92.701 455.25 85.76C452.377 84.24 449.527 82.69 446.7 81.11C444.88 80.11 443.16 78.8701 444.1 76.4301C445.04 73.9901 447.16 73.9 449.1 74.59C452.841 75.8935 456.513 77.3888 460.1 79.07C463.35 80.61 466.4 82.6 469.57 84.31C480.18 90.04 489.07 97.52 494.23 108.71C495.438 111.685 496.486 114.723 497.37 117.81V117.81Z" fill="#070707"/>
<path id="Vector_13" d="M330.62 123.79C329.29 119.48 330.34 116.15 331.78 113.11C336.35 103.49 342.38 94.91 350.84 88.26C354.02 85.76 357.52 83.5499 361.7 83.8099C363.988 84.0465 366.185 84.8359 368.1 86.11C368.93 86.64 369.3 88.75 369.01 89.93C368.73 90.4565 368.322 90.9043 367.824 91.2327C367.326 91.5611 366.754 91.7596 366.16 91.8099C360.83 91.5999 357.16 94.65 353.99 98.13C349.84 102.68 346.15 107.64 342.26 112.42C340.08 115.09 338.04 117.89 335.67 120.42C334.39 121.71 332.55 122.51 330.62 123.79Z" fill="#060706"/>
<path id="Vector_14" d="M6.25998 281.48C10.02 281.35 13.8 280.97 17.54 281.16C33.47 281.96 49.38 282.9 65.3 283.86C69.81 284.14 74.3 284.65 78.81 285.06C62.34 285.15 45.87 285.31 29.39 285.29C23.39 285.29 17.4401 284.8 11.4701 284.63C9.04006 284.56 7.23998 283.78 6.25998 281.48Z" fill="#1B1B1B"/>
<path id="Vector_15" d="M405.25 189.81C402.25 184.81 402.16 179.21 401.77 173.7C401.19 165.62 400.91 157.51 400.51 149.41C402.22 152.92 404.34 156.31 405.51 159.99C406.929 164.445 407.933 169.021 408.51 173.66C409.11 178.37 408.63 183.06 405.68 187.17C405.2 187.82 405.37 188.9 405.25 189.81Z" fill="#8FA1B9"/>
<path id="Vector_16" d="M553.51 212.9C545.377 204.327 535.354 197.773 524.24 193.76C521.398 192.58 518.443 191.695 515.42 191.12C513.543 190.871 511.737 190.238 510.116 189.259C508.495 188.279 507.094 186.976 506 185.43C507.254 185.448 508.501 185.605 509.72 185.9C522.978 190.595 535.739 196.588 547.82 203.79C551.24 205.8 553.72 208.51 553.51 212.9Z" fill="#8C9EB5"/>
<path id="Vector_17" d="M68.42 279.05C59.77 278.71 51.12 278.24 42.42 278.05C33.93 277.89 25.4201 277.96 16.9601 278.12C13.7301 278.18 10.52 278.77 7.31003 279.12C9.04003 276.12 12.03 275.95 14.89 275.97C26.81 276.083 38.7267 276.283 50.64 276.57C56.59 276.7 62.5301 277.03 68.4701 277.27L68.42 279.05Z" fill="#383838"/>
<path id="Vector_18" d="M103.51 303.67C94.8669 304.726 86.0986 303.977 77.76 301.47C83.13 299.9 99.61 301.23 103.51 303.67Z" fill="#F5F6F5"/>
<path id="Vector_19" d="M440.27 178.02C447.1 177.2 453.27 174.51 459.62 171.02C459.95 173.02 460.23 174.76 460.51 176.46C457.96 177.12 455.38 177.66 452.89 178.46C448.61 179.78 444.39 181.24 440.27 178.02Z" fill="#8C9EB5"/>
<path id="Vector_20" d="M455.38 99.52C448.262 99.1475 441.166 100.593 434.76 103.72C438.09 96.06 448.96 93.9 455.38 99.52Z" fill="#8C9EB5"/>
<path id="Vector_21" d="M303.85 7.6C297.156 3.19949 289.35 0.7926 281.34 0.659998C290.22 -1.48 297.79 1.90998 305.13 6.26998L303.85 7.6Z" fill="#383838"/>
<path id="Vector_22" d="M197.72 317.7C198.91 322.705 198.301 327.969 196 332.57C193.71 327.29 195.71 322.49 197.72 317.7Z" fill="#C95A61"/>
<path id="Vector_23" d="M433.55 104.58C432.89 105.06 432.22 105.58 431.55 106C432.22 105.53 432.89 105.06 433.55 104.58Z" fill="#8C9EB5"/>
<path id="Vector_24" d="M2.34006 159.17L4.11996 161.44L2.34006 159.17Z" fill="#060706"/>
<path id="Vector_25" d="M4.04001 161.26L5.25998 162.45L4.04001 161.26Z" fill="#060706"/>
<path id="Vector_26" d="M431.7 105.8L430.44 107.15L431.7 105.8Z" fill="#8C9EB5"/>
<path id="Vector_27" d="M406.33 190.98L405.19 189.73L406.33 190.98Z" fill="#8FA1B9"/>
<path id="Vector_28" d="M500.4 236.77C512.23 237.26 521.77 243.84 531.89 248.77C532.89 249.26 533.7 251 533.89 252.24C535.34 265.58 534.89 278.64 528.98 291.14C525.44 298.68 522.53 306.51 519.26 314.39C518.8 314.09 518.19 313.91 518.04 313.55C514.6 305.41 507.89 300.93 499.26 302.07C494.07 302.827 488.994 304.228 484.15 306.24C481.378 307.564 478.986 309.57 477.2 312.07C471.807 319.224 468.542 327.754 467.78 336.68C466.879 344.363 469.034 352.092 473.78 358.2C484.2 371.58 498.12 376.94 514.61 374.25C530.68 371.64 543.95 363.7 552.83 349.73C565.621 330.03 570.846 306.365 567.54 283.11C567.377 282.032 567.129 280.969 566.8 279.93C566.72 279.65 566.33 279.47 565.68 278.88C565.32 282.72 564.92 286.24 564.68 289.77C563.424 306.659 558.62 323.094 550.58 338C542.45 353.22 529.22 361.28 512.49 363.86C505.048 365.076 497.417 363.574 490.99 359.63C484.35 355.52 478.1 349.97 477.87 341.36C477.54 329.44 483.35 314.36 499.82 312.06C505.07 311.3 509.15 313.39 511.59 318.45C512.67 320.68 513.95 322.08 516.59 321.32V322.79L515.43 323.9L515.51 323.78L514.32 324.92C510.08 328.38 505.8 331.79 501.67 335.37C501.1 335.87 501.27 337.24 501.1 338.2C502.1 338.37 503.1 338.89 503.93 338.61C504.76 338.33 505.52 337.27 506.29 336.55L507.76 334.75C510.87 335.42 512.76 333.17 514.89 331.64C516.33 330.64 517.57 329.25 518.89 328.07C523.557 323.97 528.223 319.88 532.89 315.8L534 314.14L535.09 313.05L536.19 311.96L537.3 309.78L538.39 308.69L539.46 307.63L540.7 305.45V305.51C541 305.59 541.47 305.83 541.56 305.73C545.56 301.14 549.38 296.43 550.56 290.19C553.96 288.58 555.62 285.63 556.56 282.19C557.95 277.32 559.23 272.42 560.68 267.07C561.932 267.81 563.141 268.621 564.3 269.5C570.07 274.5 575.94 279.36 579.92 286.02C586.49 297.02 589.21 309.14 589.75 321.76C590.15 331.33 590.44 340.96 586.4 350.06C585.99 350.99 586.25 352.21 586.2 353.29C584.06 352.29 581.95 351.29 579.78 350.43C576.38 349.04 574.13 349.57 572.09 352.2C569.65 355.34 567.19 358.47 564.8 361.65C557.18 371.81 557.56 376.2 566.8 384.98C561.494 391.374 555.238 396.915 548.25 401.41C546.8 397.51 545.64 393.47 543.85 389.72C541.6 385.02 539.27 384.17 534.11 385C530.54 385.58 526.9 385.76 523.39 386.55C521 387.09 518.33 387.87 516.59 389.44C513.693 392.107 511.146 395.131 509.01 398.44C505.35 403.843 503.098 410.075 502.46 416.57C502.27 418.74 501.79 420.87 501.46 423.02C490.97 424.9 480.46 426.61 470 423.02C468.33 422.45 466.73 421.65 465.1 420.96C465.98 419.6 466.78 418.18 467.75 416.9C470.83 412.9 474.17 409.01 477.04 404.83C481.79 397.9 480.72 391.44 474.25 386.11C469.85 382.49 464.4 382.37 459.31 382.86C452.846 383.604 446.456 384.895 440.21 386.72C434.66 388.24 429.32 390.53 423.88 392.49C421.54 389.75 418.97 387.18 416.88 384.25C409.921 374.264 404.757 363.14 401.62 351.38C401.265 349.8 401.002 348.2 400.83 346.59C402.33 347.21 403.83 347.79 405.33 348.46C415.272 352.88 425.667 356.203 436.33 358.37C446.27 360.46 450.26 357.94 452.64 348.37C452.9 347.37 453.06 346.24 453.3 345.18C453.867 341.971 454.598 338.794 455.49 335.66C456.098 334.032 456.332 332.287 456.174 330.556C456.017 328.825 455.472 327.152 454.58 325.66C451.27 320.07 448.06 314.31 443.97 309.31C436.63 300.31 428.68 291.86 420.97 283.2C420.426 282.748 419.824 282.371 419.18 282.08C425.32 272 432.52 262.87 442.39 256.08C443.32 256.83 444.59 258.39 445.13 258.17C446.73 257.52 448.05 256.17 449.81 254.83C450.68 257.04 451.47 259.04 452.24 261.05C455.85 270.55 459.35 280.05 463.11 289.54C464.326 292.357 465.834 295.038 467.61 297.54C469.81 300.83 472.97 301.49 476.72 300.44C481.6 299.06 486.54 297.84 491.47 296.64C494.82 295.83 498.21 295.2 501.56 294.39C505.67 293.39 507.5 290.53 507.78 286.49C507.875 285.222 507.875 283.948 507.78 282.68C506.72 270.39 505.61 258.1 504.55 245.8C504.35 242.376 502.868 239.152 500.4 236.77V236.77ZM520.61 332.53L521.1 333.82L523.98 332.75L523.5 331.45L520.61 332.53Z" fill="#FBFBFC"/>
<path id="Vector_29" d="M516.5 322.83V321.36C517.496 320.667 518.392 319.839 519.16 318.9C527.33 305.26 534.23 290.96 536.49 275.12C538.97 257.66 536.44 240.69 528.09 224.86C524.9 218.86 521.09 213.19 514.56 210.46C511.358 209.281 508.029 208.482 504.64 208.08C504.233 207.985 503.81 207.979 503.4 208.064C502.991 208.148 502.604 208.32 502.268 208.568C501.931 208.816 501.653 209.135 501.451 209.501C501.249 209.867 501.13 210.273 501.1 210.69C500.89 212.75 502.38 213.32 504.1 213.85C514.58 217.08 521.31 223.52 525.43 234.33C524.73 234.335 524.033 234.241 523.36 234.05C504.9 224.97 485.77 225.28 466.58 230.72C460.42 232.47 455.06 236.87 448.96 239.02C442.307 241.491 436.194 245.226 430.96 250.02C423.67 256.37 417.06 263.38 412.14 271.76C410.57 274.45 408.91 275.56 405.63 275.17C397.152 274.12 388.838 272.017 380.88 268.91C373.94 266.24 366.95 263.64 360.22 260.48C351.8 256.48 342.88 256.48 334.06 256.92C320.06 257.67 307.23 262.84 295.15 269.84L293.77 268.26C304.77 258.17 317.09 250.26 331.69 246.81C339.4 244.96 347.41 244.37 355.28 243.19C357.075 243.054 358.849 242.718 360.57 242.19C361.382 241.891 362.126 241.431 362.756 240.838C363.387 240.244 363.891 239.53 364.239 238.738C364.587 237.945 364.772 237.091 364.783 236.225C364.793 235.359 364.629 234.501 364.3 233.7C363.946 232.865 363.538 232.053 363.08 231.27C359.22 223.61 361.8 216.95 369.81 213.75C372.81 212.54 375.81 211.3 378.81 209.88C386.56 206.09 389.2 199.04 386.06 190.88C384.435 186.272 381.628 182.172 377.92 178.99C378.54 178.376 379.208 177.814 379.92 177.31C389.02 171.91 392.73 163.6 391.92 153.43C391.453 148.554 390.259 143.774 388.38 139.25C385.1 131.16 378.85 126.16 370.23 124.33C366.16 123.47 362.08 122.66 358.01 121.83C363.13 118.27 368.38 118.1 373.76 121.24C373.908 121.342 374.065 121.429 374.23 121.5C385.73 125.72 391.02 134.87 393.15 146.14C394.39 152.71 394.83 159.43 395.46 166.14C395.98 171.73 396.22 177.34 396.63 182.95C397 187.95 399.21 192.37 401.8 196.5C402.877 197.925 404.459 198.883 406.22 199.18C410.674 199.946 415.192 200.281 419.71 200.18C428.945 199.643 438.059 197.805 446.78 194.72C450.651 193.203 454.416 191.429 458.05 189.41C461.27 187.77 461.22 187.68 465.43 189.57C465.68 194.02 465.89 198.71 466.26 203.39C466.245 205.364 466.583 207.325 467.26 209.18C469 212.81 472.38 212.56 475.15 208.49L470.6 206.86C470.5 205.829 470.5 204.791 470.6 203.76C471.34 200.04 472.41 196.37 472.94 192.62C473.347 190.112 473.303 187.552 472.81 185.06C470.65 175.54 468.63 165.95 464.1 157.16C468.54 154.84 470.73 150.87 470.1 146.29C469.326 140.706 466.801 135.51 462.89 131.45C459.3 127.65 455.46 124.08 451.81 120.33C447.31 115.72 442.01 113.06 435.47 113.17C439.26 108.53 444.36 106.45 450.1 105.72C455.84 104.99 460.91 107.13 465.03 110.95C469.428 114.84 472.477 120.026 473.74 125.76C475.6 134.65 477.24 143.59 479.46 152.39C480.732 157.494 482.536 162.451 484.84 167.18C489.91 177.53 496.05 187.28 505.84 193.87C509.858 196.668 514.341 198.73 519.08 199.96C523.831 201.103 528.352 203.048 532.45 205.71C546.55 214.71 556.45 226.8 558.36 244.05C559.285 252.746 558.569 261.538 556.25 269.97C554.349 276.979 551.719 283.77 548.4 290.23C546.4 293.61 544.27 296.93 542.4 300.38C541.656 302.085 541.05 303.847 540.59 305.65V305.59L539.35 307.77L538.28 308.83L537.19 309.92L536.08 312.1L534.98 313.19L533.89 314.28L532.78 315.94C528.113 320.02 523.447 324.11 518.78 328.21C517.43 329.39 516.19 330.73 514.78 331.78C512.65 333.31 510.78 335.56 507.65 334.89C509.27 332.8 510.96 330.76 512.47 328.59C513.148 327.463 513.734 326.282 514.22 325.06V325.12C514.61 324.73 515.01 324.35 515.41 323.97L515.33 324.09L516.5 322.83ZM402.04 236.9C414.12 237.96 424.93 233.75 435.53 228.9C438.324 227.594 440.892 225.852 443.14 223.74C445.113 221.893 446.706 219.678 447.83 217.22C448.446 215.881 448.518 214.354 448.032 212.963C447.545 211.571 446.537 210.423 445.22 209.76C443.99 209.126 442.566 208.98 441.233 209.35C439.9 209.721 438.756 210.582 438.03 211.76C434.47 216.89 429.27 219.55 423.61 220.76C407 224.36 390.35 226.84 374.35 217.96C373.693 217.548 372.959 217.273 372.193 217.15C371.427 217.028 370.644 217.061 369.891 217.248C369.138 217.434 368.43 217.771 367.809 218.237C367.189 218.703 366.669 219.289 366.28 219.96C365.508 221.326 365.302 222.94 365.706 224.455C366.11 225.971 367.091 227.269 368.44 228.07C371.623 230.134 375.041 231.812 378.62 233.07C386.116 235.809 394.062 237.109 402.04 236.9Z" fill="#93A6BE"/>
<path id="Vector_30" d="M419.11 282.21C419.754 282.501 420.356 282.878 420.9 283.33C428.62 291.99 436.57 300.46 443.9 309.44C447.99 314.44 451.2 320.2 454.51 325.79C455.402 327.282 455.947 328.955 456.104 330.686C456.262 332.417 456.028 334.162 455.42 335.79C454.528 338.924 453.797 342.101 453.23 345.31C452.99 346.37 452.83 347.45 452.57 348.5C450.19 358.06 446.2 360.58 436.26 358.5C425.597 356.333 415.202 353.01 405.26 348.59C403.78 347.92 402.26 347.34 400.76 346.72C399.6 342.92 398.51 339.08 399.65 335.12C403.34 322.28 406.89 309.4 410.97 296.68C412.65 291.39 414.77 286.1 419.11 282.21Z" fill="#6870C2"/>
<path id="Vector_31" d="M500.4 236.77C502.88 239.21 504.336 242.504 504.47 245.98C505.53 258.28 506.64 270.57 507.7 282.86C507.795 284.128 507.795 285.402 507.7 286.67C507.42 290.67 505.59 293.59 501.48 294.57C498.13 295.38 494.74 296.01 491.39 296.82C486.46 298.02 481.52 299.24 476.64 300.62C472.89 301.62 469.73 301.01 467.53 297.72C465.755 295.218 464.246 292.537 463.03 289.72C459.27 280.28 455.77 270.72 452.16 261.23C451.39 259.23 450.6 257.23 449.73 255.01C447.97 256.34 446.65 257.7 445.05 258.35C444.51 258.57 443.24 257.01 442.31 256.26C449.67 249.72 458.6 246.18 467.8 243.38C476.64 240.7 485.64 238.52 494.63 236.38C496.42 235.9 498.47 236.6 500.4 236.77Z" fill="#6870C2"/>
<path id="Vector_32" d="M312.41 320.7C316.01 327.52 315.56 335.08 316.54 342.61C314.18 345.18 310.73 345.79 307.54 346.95C303.12 348.55 298.65 350.05 294.27 351.77C283.08 356.17 271.57 359.82 259.61 360.54C251.61 361.03 243.37 359.48 235.3 358.44C230.068 357.856 224.904 356.771 219.88 355.2C213.88 353.2 208.24 350.36 202.59 347.95C201.71 341.1 203.99 335.51 205.23 329.74C211.16 331.22 216.85 332.85 222.63 334.07C242.779 338.235 263.591 337.976 283.63 333.31C290.322 331.669 296.868 329.478 303.2 326.76C306.48 325.43 309.23 322.9 312.41 320.7Z" fill="#C95A61"/>
<path id="Vector_33" d="M250.11 329.3C238.3 330.38 226.88 327.3 215.48 324.25C212.872 323.442 210.374 322.317 208.04 320.9C205.24 319.35 204.95 317.29 207.45 315.39C209.589 313.709 212.01 312.422 214.6 311.59C228.69 307.43 242.81 303.37 257.48 301.75C261.36 301.32 265.32 300.13 269 302.93C269.569 303.163 270.187 303.251 270.798 303.184C271.41 303.118 271.994 302.9 272.5 302.55C274.76 300.48 277.08 301 279.62 301.55C287.94 303.44 296.22 305.48 303.92 309.33C308.62 311.68 309.02 314.18 304.83 317.24C302.338 319.044 299.6 320.482 296.7 321.51C281.785 326.964 265.988 329.606 250.11 329.3Z" fill="#C95A61"/>
<path id="Vector_34" d="M358.04 121.75C362.11 122.58 366.19 123.39 370.26 124.25C378.88 126.08 385.13 131.08 388.41 139.17C390.289 143.694 391.483 148.473 391.95 153.35C392.79 163.52 389.08 171.83 379.95 177.23C379.239 177.734 378.57 178.296 377.95 178.91C374.36 178.72 370.76 178.31 367.18 178.39C362.6 178.48 359.18 176.1 356.04 173.39C341.04 160.64 342.38 141.65 349.52 128.84C351.51 125.31 354.57 123.36 358.04 121.75ZM367.23 138.43C364.66 134.99 361.95 132.43 357.65 133.05C353.35 133.67 350.65 136.55 349.39 140.71C349.011 142.103 348.746 143.524 348.6 144.96C348.41 146.4 348.53 147.89 348.2 149.28C346.85 155.07 348.65 160.02 352.12 164.52C354.81 168.01 358.31 170.6 362.82 169.43C367.7 168.15 371.63 165.34 372.88 159.83C373.482 157.311 373.545 154.694 373.066 152.148C372.587 149.603 371.576 147.188 370.1 145.06C365.81 147.68 361.73 150.17 357.2 152.92C357.04 145.35 362.11 142.02 367.23 138.43Z" fill="#FAFAFA"/>
<path id="Vector_35" d="M435.54 113.03C442.08 112.92 447.38 115.58 451.88 120.19C455.53 123.94 459.37 127.51 462.96 131.31C466.871 135.37 469.395 140.566 470.17 146.15C470.82 150.73 468.63 154.7 464.17 157.02C463.28 156.89 461.73 156.43 461.6 156.69C460.79 158.28 459.77 160.06 459.82 161.74C459.92 165.04 457.99 166.85 455.74 168.34C447.24 173.99 437.45 174.53 430.74 165.4C427.319 160.905 425.208 155.551 424.64 149.93C423.88 142.29 423.15 134.75 426.11 127.38C428.29 121.95 430.88 116.81 435.54 113.03ZM444.73 129.22C443.95 127.64 443.4 126.29 442.65 125.07C441.1 122.56 438.9 121.14 435.83 121.64C432.98 122.1 431.49 124.07 430.64 126.64C429.95 128.64 429.24 130.74 428.64 132.83C426.36 141.35 428.06 149.09 433.83 155.7C438.06 160.56 444.66 159.47 446.99 153.52C449.243 147.683 449.103 141.194 446.6 135.46L436.68 139.46C436.16 133.22 440.68 131.74 444.73 129.22Z" fill="#F5F6F5"/>
<path id="Vector_36" d="M423.78 392.57C429.22 390.57 434.56 388.32 440.11 386.8C446.356 384.976 452.746 383.684 459.21 382.94C464.3 382.45 469.75 382.57 474.15 386.19C480.62 391.52 481.69 397.98 476.94 404.91C474.07 409.09 470.73 412.91 467.65 416.98C466.65 418.26 465.88 419.68 465 421.04C453.29 413.82 441.51 406.73 430 399.29C427.47 397.7 425.81 394.84 423.78 392.57Z" fill="#6870C2"/>
<path id="Vector_37" d="M501.36 423.07C501.7 420.92 502.18 418.79 502.36 416.62C502.999 410.125 505.25 403.893 508.91 398.49C511.046 395.181 513.593 392.157 516.49 389.49C518.23 387.92 520.9 387.14 523.29 386.6C526.8 385.81 530.44 385.6 534.01 385.05C539.17 384.22 541.5 385.05 543.75 389.77C545.54 393.52 546.75 397.56 548.15 401.46C544.38 405.01 540.66 408.61 536.82 412.07C535.795 412.804 534.679 413.402 533.5 413.85C525.34 417.95 516.5 419.85 507.69 421.85C505.6 422.29 503.47 422.65 501.36 423.07Z" fill="#6870C2"/>
<path id="Vector_38" d="M373.68 274.9C375.38 274.9 377.08 274.9 378.78 274.85C379.643 274.664 380.529 274.604 381.41 274.67C389.35 276.95 397.27 279.33 405.26 281.67C401.89 288.87 398.6 295.87 395.09 303.36C388.72 301.79 382.02 301.52 375.88 298.63C373.55 290.9 373.32 282.9 373.68 274.9Z" fill="#92A5BD"/>
<path id="Vector_39" d="M566.71 385.01C557.52 376.23 557.14 371.84 564.71 361.68C567.1 358.5 569.56 355.37 572 352.23C574 349.6 576.29 349.07 579.69 350.46C581.86 351.36 583.97 352.36 586.11 353.32C586.05 354.68 586.37 356.19 585.87 357.32C581.576 367.835 575.037 377.285 566.71 385.01Z" fill="#6870C2"/>
<path id="Vector_40" d="M555.93 415.69C554.93 421.77 551.25 426.39 546.93 430.09C540.527 435.387 533.822 440.308 526.85 444.83C524.58 446.35 521.45 446.57 518.38 447.49L512.21 433.37C513.6 432.869 515.024 432.465 516.47 432.16C525.092 430.956 533.377 428.006 540.82 423.49C545.65 420.65 550.53 417.92 555.38 415.14L555.93 415.69Z" fill="#8FA1B9"/>
<path id="Vector_41" d="M376.79 306.23L392.93 309.15C390.93 316.86 388.93 324.42 386.83 332.6C381.62 324.47 380.04 315.52 376.79 306.23Z" fill="#8C9EB5"/>
<path id="Vector_42" d="M483.47 437.05L507.55 434.18C509.06 438.12 510.67 442.32 512.55 447.18C505.55 445.24 499.47 443.79 493.55 441.84C490.22 440.78 487.15 438.9 483.47 437.05Z" fill="#8C9EB5"/>
<path id="Vector_43" d="M373.68 274.9C373.32 282.9 373.55 290.9 375.88 298.66C373.29 298.54 373.45 296.27 373.01 294.66C370.92 287.23 369.01 279.76 366.64 270.97L373.68 274.9Z" fill="#89A18B"/>
<path id="Vector_44" d="M450.3 421.9L458.61 426.71C455.94 430.83 455.61 430.84 448.81 427.01C449.22 425.54 449.68 423.97 450.3 421.9Z" fill="#6870C2"/>
<path id="Vector_45" d="M540.64 305.51C541.1 303.707 541.705 301.945 542.45 300.24C544.31 296.79 546.45 293.47 548.45 290.09L550.45 290.19C549.29 296.43 545.45 301.19 541.45 305.73C541.41 305.83 540.94 305.59 540.64 305.51Z" fill="#383838"/>
<path id="Vector_46" d="M293.85 268.22L295.23 269.8L292.52 271.64L291.63 270.82L293.85 268.22Z" fill="#383838"/>
<path id="Vector_47" d="M420.25 401.65C418.52 401.47 417.16 400.94 417.31 397.86L420.77 401.16L420.25 401.65Z" fill="#383838"/>
<path id="Vector_48" d="M423.66 404.84L421.32 402.78L421.89 402.19L424.09 404.33L423.66 404.84Z" fill="#383838"/>
<path id="Vector_49" d="M424.09 404.33C424.49 404.6 424.89 404.87 425.28 405.15L423.66 404.84L424.09 404.33Z" fill="#383838"/>
<path id="Vector_50" d="M420.77 401.16L421.89 402.16L421.32 402.75L420.26 401.62L420.77 401.16Z" fill="#383838"/>
<path id="Vector_51" d="M555.35 415.14L556.46 415.01L555.92 415.69L555.35 415.14Z" fill="#8FA1B9"/>
<path id="Vector_52" d="M141.19 21.53C157.19 21.53 173.19 21.17 189.19 21.63C205.71 22.11 222.19 23.35 238.7 24.36C245.59 24.77 252.47 25.36 259.34 26.02C271.34 27.13 282.34 31.02 291.83 38.75C293.429 40.2327 295.156 41.5713 296.99 42.75C303.07 46.08 304.57 51.66 304.87 57.9C305.33 67.52 305.78 77.15 306.16 86.77C306.74 101.67 307.283 116.567 307.79 131.46C308.473 147.272 307.619 163.113 305.24 178.76C302.7 194.57 293.51 205.16 278.87 211.59C271.63 214.76 264.11 215.23 256.56 215.74C244.79 216.53 232.97 216.6 221.19 217.3C214.68 217.68 208.19 218.63 201.71 219.46C189.804 220.873 177.819 221.518 165.83 221.39C151.12 221.39 136.41 222.17 121.7 222.32C115 222.39 108.29 221.84 101.6 221.32C90.9101 220.54 80.2301 219.72 69.6001 218.65C59.1901 217.65 50.8901 212.71 45.7901 203.44C43.7685 199.591 42.2847 195.483 41.38 191.23C36.38 169.23 34.07 146.79 31.38 124.42C29.77 111.22 28.63 97.98 29.38 84.71C29.7864 74.7348 30.8689 64.7987 32.62 54.97C33.5741 49.5727 35.786 44.476 39.0766 40.0927C42.3671 35.7094 46.6437 32.1628 51.5601 29.74C61.9501 24.34 73.11 22.1 84.64 21.74C103.51 21.11 122.4 20.74 141.27 20.31C141.18 20.72 141.19 21.13 141.19 21.53Z" fill="#8BA38D"/>
<path id="Vector_53" d="M277.91 4.74997C287.74 4.90997 296.79 7.38001 304.2 14.17C317.58 26.42 323.75 44.82 319.02 61.34C318.42 63.43 318.23 66.18 315.15 66.63C315.06 63.02 314.94 59.41 314.88 55.81C314.818 47.7682 311.626 40.0669 305.98 34.34C297.2 25.06 286.11 20.15 274.16 16.72C272.47 16.24 270.8 15.72 268.08 14.95L277.91 4.74997Z" fill="#89A18B"/>
<path id="Vector_54" d="M188.49 287.22L187.06 287.28L188.49 287.22Z" fill="#8BA38D"/>
<path id="Vector_55" d="M10.34 152.56C7.80001 149.22 7.51001 145.93 10.34 142.05V152.56Z" fill="#D8E0D9"/>
<path id="Vector_56" d="M514.27 324.9C513.784 326.122 513.198 327.303 512.52 328.43C511.01 330.6 509.32 332.64 507.7 334.73L506.23 336.53C505.46 337.25 504.78 338.27 503.87 338.59C502.96 338.91 502 338.35 501.04 338.18C501.21 337.18 501.04 335.85 501.61 335.35C505.75 331.78 510.04 328.37 514.27 324.9Z" fill="#383838"/>
<path id="Vector_57" d="M520.61 332.53L523.5 331.45L523.98 332.75L521.1 333.82L520.61 332.53Z" fill="#383838"/>
<path id="Vector_58" d="M506.24 336.54L507.71 334.74L506.24 336.54Z" fill="#93A6BE"/>
<path id="Vector_59" d="M536.2 311.95L537.31 309.77L536.2 311.95Z" fill="#89A18B"/>
<path id="Vector_60" d="M539.44 307.63L540.68 305.45L539.44 307.63Z" fill="#383838"/>
<path id="Vector_61" d="M538.4 308.71L539.47 307.65L538.4 308.71Z" fill="#89A18B"/>
<path id="Vector_62" d="M537.29 309.8L538.38 308.71L537.29 309.8Z" fill="#89A18B"/>
<path id="Vector_63" d="M535.1 313.05L536.2 311.96L535.1 313.05Z" fill="#89A18B"/>
<path id="Vector_64" d="M534.04 314.14L535.13 313.05L534.04 314.14Z" fill="#89A18B"/>
<path id="Vector_65" d="M532.9 315.79L534.01 314.13L532.9 315.79Z" fill="#89A18B"/>
<path id="Vector_66" d="M516.5 322.83L515.34 323.94L516.5 322.83Z" fill="#383838"/>
<path id="Vector_67" d="M515.42 323.82C515.02 324.2 514.62 324.58 514.23 324.97C514.62 324.58 515.04 324.2 515.42 323.82Z" fill="#383838"/>
<path id="Vector_68" d="M402.04 236.9C394.064 237.118 386.118 235.829 378.62 233.1C375.041 231.842 371.623 230.164 368.44 228.1C367.091 227.299 366.11 226.001 365.706 224.486C365.302 222.97 365.508 221.356 366.28 219.99C366.669 219.319 367.189 218.733 367.809 218.267C368.43 217.801 369.138 217.464 369.891 217.278C370.644 217.091 371.427 217.058 372.193 217.18C372.959 217.303 373.693 217.578 374.35 217.99C390.35 226.87 407 224.39 423.61 220.79C429.27 219.56 434.47 216.9 438.03 211.79C438.756 210.612 439.9 209.751 441.233 209.38C442.566 209.01 443.99 209.156 445.22 209.79C446.537 210.453 447.545 211.601 448.032 212.993C448.518 214.384 448.446 215.911 447.83 217.25C446.706 219.708 445.113 221.923 443.14 223.77C440.892 225.882 438.324 227.624 435.53 228.93C424.93 233.74 414.12 237.95 402.04 236.9Z" fill="#050606"/>
<path id="Vector_69" d="M367.23 138.43C362.11 142.02 357.05 145.35 357.23 152.92C361.76 150.17 365.84 147.68 370.13 145.06C371.606 147.188 372.617 149.603 373.096 152.148C373.575 154.693 373.512 157.311 372.91 159.83C371.66 165.34 367.73 168.15 362.85 169.43C358.34 170.6 354.85 168.01 352.15 164.52C348.68 160.02 346.88 155.07 348.23 149.28C348.56 147.89 348.44 146.4 348.63 144.96C348.776 143.524 349.041 142.103 349.42 140.71C350.65 136.55 353.29 133.71 357.68 133.05C362.07 132.39 364.66 134.99 367.23 138.43Z" fill="#0A0A09"/>
<path id="Vector_70" d="M444.73 129.22C440.73 131.74 436.16 133.22 436.73 139.5L446.65 135.5C449.153 141.234 449.293 147.723 447.04 153.56C444.71 159.56 438.11 160.56 433.88 155.74C428.11 149.13 426.41 141.39 428.69 132.87C429.25 130.78 429.96 128.73 430.69 126.68C431.54 124.11 433.03 122.14 435.88 121.68C438.95 121.18 441.15 122.6 442.7 125.11C443.4 126.29 443.95 127.64 444.73 129.22Z" fill="#0A0A09"/>
</g>
<defs>
<clipPath id="clip0">
<rect width="597.42" height="479.39" fill="white"/>
</clipPath>
</defs>
</svg>
