<?xml version="1.0" encoding="utf-8"?>
<!-- Generator: Adobe Illustrator 25.3.1, SVG Export Plug-In . SVG Version: 6.00 Build 0)  -->
<svg version="1.1" id="Layer_1" xmlns="http://www.w3.org/2000/svg" xmlns:xlink="http://www.w3.org/1999/xlink" x="0px" y="0px"
	 viewBox="0 0 253.5 144.3" style="enable-background:new 0 0 253.5 144.3;" xml:space="preserve">
<style type="text/css">
	.st0{fill:#858585;}
</style>
<polygon class="st0" points="178.8,144.3 178.8,144.2 174.2,144.2 174.1,144.3 "/>
<polygon class="st0" points="169.5,144.3 169.5,144.2 164.8,144.2 164.8,144.3 "/>
<polygon class="st0" points="160.1,144.3 160.1,144.2 155.5,144.2 155.5,144.3 "/>
<polygon class="st0" points="150.8,144.3 150.8,144.2 146.1,144.2 146.1,144.3 "/>
<path class="st0" d="M212.9,115.9l-14.2,6C203.7,120.6,208.5,118.6,212.9,115.9z"/>
<polygon class="st0" points="136.8,144.3 141.4,144.3 141.5,144.2 136.8,144.2 "/>
<polygon class="st0" points="127.5,144.3 132.1,144.3 132.1,144.2 127.5,144.2 "/>
<polygon class="st0" points="118.1,144.3 122.8,144.3 122.8,144.2 118.1,144.2 "/>
<polygon class="st0" points="108.8,144.3 113.4,144.3 113.5,144.2 108.8,144.2 "/>
<polygon class="st0" points="253.5,144.3 253.5,144.2 248.9,144.2 248.8,144.3 "/>
<polygon class="st0" points="244.1,144.3 244.2,144.2 239.5,144.2 239.5,144.3 "/>
<polygon class="st0" points="234.8,144.3 234.8,144.2 230.2,144.2 230.2,144.3 "/>
<polygon class="st0" points="225.5,144.3 225.5,144.2 220.9,144.2 220.8,144.3 "/>
<polygon class="st0" points="216.1,144.3 216.2,144.2 211.5,144.2 211.5,144.3 "/>
<polygon class="st0" points="206.8,144.3 206.8,144.2 202.2,144.2 202.1,144.3 "/>
<polygon class="st0" points="197.5,144.3 197.5,144.2 192.8,144.2 192.8,144.3 "/>
<polygon class="st0" points="188.1,144.3 188.2,144.2 183.5,144.2 183.5,144.3 "/>
<polygon class="st0" points="24.8,144.3 29.4,144.3 29.4,144.2 24.8,144.2 "/>
<polygon class="st0" points="15.4,144.3 20.1,144.3 20.1,144.2 15.4,144.2 "/>
<polygon class="st0" points="6.1,144.3 10.7,144.3 10.8,144.2 6.1,144.2 "/>
<polygon class="st0" points="0,144.3 1.4,144.3 1.4,144.2 0,144.2 "/>
<polygon class="st0" points="99.4,144.3 104.1,144.3 104.1,144.2 99.5,144.2 "/>
<polygon class="st0" points="90.1,144.3 94.8,144.3 94.8,144.2 90.1,144.2 "/>
<polygon class="st0" points="80.8,144.3 85.4,144.3 85.4,144.2 80.8,144.2 "/>
<polygon class="st0" points="71.4,144.3 76.1,144.3 76.1,144.2 71.5,144.2 "/>
<polygon class="st0" points="62.1,144.3 66.8,144.3 66.8,144.2 62.1,144.2 "/>
<polygon class="st0" points="52.8,144.3 57.4,144.3 57.4,144.2 52.8,144.2 "/>
<polygon class="st0" points="43.4,144.3 48.1,144.3 48.1,144.2 43.5,144.2 "/>
<polygon class="st0" points="34.1,144.3 38.7,144.3 38.8,144.2 34.1,144.2 "/>
<path class="st0" d="M253.5,43.1v-2l-20.8,8.8c0.2,0.5,0.5,1.1,0.8,1.7L253.5,43.1z"/>
<path class="st0" d="M253.5,39.1v-2L231,46.7c0.3,0.5,0.6,1.1,0.9,1.6L253.5,39.1z"/>
<path class="st0" d="M253.5,35.1v-2l-24.4,10.4c0.3,0.5,0.7,1,1,1.6L253.5,35.1z"/>
<path class="st0" d="M253.5,47v-2l-19.4,8.2c0.2,0.6,0.4,1.1,0.6,1.7L253.5,47z"/>
<path class="st0" d="M253.5,31.2v-2L227,40.5c0.4,0.5,0.7,1,1.1,1.5L253.5,31.2z"/>
<path class="st0" d="M253.5,7.3v-2l-45.9,19.5c0.7,0.3,1.4,0.7,2.2,1.1L253.5,7.3z"/>
<path class="st0" d="M253.5,11.3v-2L211.8,27c0.6,0.4,1.3,0.8,1.9,1.2L253.5,11.3z"/>
<path class="st0" d="M253.5,3.4v-2l-50.6,21.5c0.8,0.3,1.7,0.6,2.5,0.9L253.5,3.4z"/>
<path class="st0" d="M253.5,15.3v-2l-38,16.1c0.6,0.4,1.1,0.8,1.7,1.3L253.5,15.3z"/>
<path class="st0" d="M253.5,27.2v-2l-28.9,12.3c0.4,0.5,0.8,1,1.2,1.5L253.5,27.2z"/>
<path class="st0" d="M253.5,19.3v-2L218.9,32c0.5,0.4,1,0.9,1.5,1.3L253.5,19.3z"/>
<path class="st0" d="M253.5,98.6v-2l-34.1,14.5c-2,1.8-4.2,3.3-6.5,4.8L253.5,98.6z"/>
<path class="st0" d="M253.5,90.7v-2l-23.5,10c-0.6,0.9-1.2,1.9-1.8,2.8L253.5,90.7z"/>
<path class="st0" d="M253.5,86.7v-2l-20.7,8.8c-0.4,0.9-0.8,1.7-1.3,2.5L253.5,86.7z"/>
<polygon class="st0" points="253.5,110.5 253.5,108.6 169.5,144.2 174.2,144.2 "/>
<polygon class="st0" points="253.5,106.6 253.5,104.6 160.1,144.2 164.8,144.2 "/>
<polygon class="st0" points="253.5,102.6 253.5,100.6 150.8,144.2 155.5,144.2 "/>
<path class="st0" d="M253.5,94.7v-2L226,104.3c-0.9,1.1-1.8,2.2-2.8,3.2L253.5,94.7z"/>
<path class="st0" d="M253.5,70.8v-2l-16.1,6.8c0,0.7-0.1,1.4-0.2,2.1L253.5,70.8z"/>
<path class="st0" d="M253.5,74.8v-2l-16.6,7c-0.1,0.7-0.2,1.4-0.4,2.2L253.5,74.8z"/>
<path class="st0" d="M253.5,78.8v-2L236,84.2c-0.2,0.8-0.4,1.5-0.6,2.2L253.5,78.8z"/>
<path class="st0" d="M253.5,62.9v-2l-16.1,6.9c0.1,0.7,0.1,1.3,0.1,1.9L253.5,62.9z"/>
<path class="st0" d="M253.5,51v-2l-18.2,7.7c0.2,0.6,0.4,1.2,0.5,1.8L253.5,51z"/>
<path class="st0" d="M253.5,82.8v-2l-18.8,8c-0.3,0.8-0.6,1.6-0.9,2.4L253.5,82.8z"/>
<polygon class="st0" points="253.5,142.3 253.5,140.3 244.2,144.2 248.9,144.2 "/>
<polygon class="st0" points="253.5,138.3 253.5,136.3 234.8,144.2 239.5,144.2 "/>
<polygon class="st0" points="253.5,114.5 253.5,112.5 178.8,144.2 183.5,144.2 "/>
<path class="st0" d="M253.5,55v-2l-17.2,7.3c0.1,0.6,0.3,1.2,0.4,1.8L253.5,55z"/>
<path class="st0" d="M253.5,59v-2L237,64c0.1,0.6,0.2,1.3,0.2,1.9L253.5,59z"/>
<polygon class="st0" points="253.5,134.4 253.5,132.4 225.5,144.2 230.2,144.2 "/>
<polygon class="st0" points="253.5,130.4 253.5,128.4 216.2,144.2 220.9,144.2 "/>
<polygon class="st0" points="253.5,122.4 253.5,120.4 197.5,144.2 202.2,144.2 "/>
<polygon class="st0" points="253.5,118.5 253.5,116.5 188.2,144.2 192.8,144.2 "/>
<polygon class="st0" points="253.5,126.4 253.5,124.4 206.8,144.2 211.5,144.2 "/>
<path class="st0" d="M0,133v2l134.4-57.2c-0.1-0.6-0.1-1.3-0.2-1.9L0,133z"/>
<path class="st0" d="M224.1,0h4.7l-47.6,20.3c1.6-0.1,3.1-0.2,4.7-0.2h0.5l47.1-20h4.7l-47.6,20.2c1.2,0.1,2.4,0.3,3.6,0.5L242.8,0
	h4.6l-50.1,21.3c1,0.2,2,0.5,2.9,0.8L252.1,0H4.7L0,2v2l9.3-4H14L0,6v2l18.7-8h4.7L0,9.9v2L28,0h4.7L0,13.9v2L37.3,0H42L0,17.9v2
	L46.7,0h4.7L0,21.8v2L56,0h4.7L0,25.8v2L65.4,0H70L0,29.8v2L74.7,0h4.7L0,33.7v2L84,0h4.7L0,37.7v2L93.4,0H98L0,41.7v2L102.7,0h4.7
	L0,45.6v2L112,0h4.7L0,49.6v2L121.4,0h4.6L0,53.6v2L130.7,0h4.6L0,57.5v2L140.1,0h4.7L0,61.5v2L149.4,0h4.7L0,65.5v2L158.7,0h4.6
	L0,69.5v2L168.1,0h4.7L0,73.4v2L177.4,0h4.7L0,77.4v2L186.7,0h4.6L0,81.4v2L196.1,0h4.7L0,85.3v2L205.4,0h4.7L0,89.3v2L214.8,0h4.6
	L0,93.3v2L158.2,28c4.7-3,9.9-5.2,15.3-6.5L224.1,0z"/>
<path class="st0" d="M152,32.6L0,97.2v2l148.2-63C149.4,35,150.7,33.8,152,32.6z"/>
<path class="st0" d="M0,113.1v2l136.1-57.9c0.2-0.8,0.5-1.5,0.7-2.3L0,113.1z"/>
<path class="st0" d="M141.5,144.2h4.7l52.6-22.3c-2.6,0.7-5.2,1.1-7.9,1.4L141.5,144.2z"/>
<path class="st0" d="M237.5,73.7l16-6.8v-2l-15.9,6.8v0.1C237.6,72.4,237.5,73.1,237.5,73.7z"/>
<path class="st0" d="M0,121.1v2l134.4-57.1c0.1-0.7,0.2-1.4,0.3-2.1L0,121.1z"/>
<path class="st0" d="M164.1,118.8l-60,25.5h4.7l57.6-24.5C165.6,119.4,164.9,119.1,164.1,118.8z"/>
<path class="st0" d="M168.9,120.7l-55.4,23.6h4.7l53.4-22.7C170.7,121.3,169.8,121,168.9,120.7z"/>
<path class="st0" d="M181.4,123.3l-49.2,20.9h4.7l48.7-20.7C184.1,123.5,182.7,123.5,181.4,123.3z"/>
<path class="st0" d="M174.5,122.3l-51.7,22h4.7l50.2-21.3C176.6,122.7,175.6,122.5,174.5,122.3z"/>
<path class="st0" d="M159.9,116.6l-65.1,27.7h4.7l62.5-26.5C161.2,117.3,160.6,117,159.9,116.6z"/>
<path class="st0" d="M0,101.2v2l143.3-60.9c0.7-1,1.4-2,2.2-2.9L0,101.2z"/>
<path class="st0" d="M223.2,36.1l30.2-12.9v-2l-31.6,13.4C222.3,35.1,222.8,35.6,223.2,36.1z"/>
<path class="st0" d="M0,129v2l134.1-57c0-0.7,0-1.3,0-2L0,129z"/>
<path class="st0" d="M0,125v2l134.1-57c0-0.7,0.1-1.4,0.1-2L0,125z"/>
<path class="st0" d="M0,109.1v2l137.7-58.6c0.3-0.8,0.7-1.6,1-2.4L0,109.1z"/>
<path class="st0" d="M0,140.9v2l135.8-57.7c-0.2-0.6-0.3-1.2-0.4-1.8L0,140.9z"/>
<path class="st0" d="M0,105.2v2l140-59.5c0.5-0.9,1-1.8,1.5-2.6L0,105.2z"/>
<path class="st0" d="M0,117.1v2l135-57.4c0.1-0.7,0.3-1.5,0.5-2.2L0,117.1z"/>
<path class="st0" d="M0,136.9v2l135-57.4c-0.1-0.6-0.2-1.2-0.3-1.8L0,136.9z"/>
<path class="st0" d="M136.3,86.9L1.4,144.2h4.7l130.8-55.6C136.7,88.1,136.5,87.5,136.3,86.9z"/>
<path class="st0" d="M152.8,111.7l-76.7,32.6h4.7l73.6-31.2C153.9,112.5,153.3,112.1,152.8,111.7z"/>
<path class="st0" d="M144.7,103.2l-96.6,41.1h4.7l93.1-39.6C145.4,104.2,145.1,103.7,144.7,103.2z"/>
<path class="st0" d="M140.6,97L29.4,144.2h4.7l107.4-45.7C141.2,98.1,140.9,97.5,140.6,97z"/>
<path class="st0" d="M138.9,93.7L20.1,144.2h4.7l115-48.9C139.5,94.8,139.2,94.3,138.9,93.7z"/>
<path class="st0" d="M147.1,106.1l-89.7,38.1h4.7l86.3-36.7C148,107.1,147.5,106.6,147.1,106.1z"/>
<path class="st0" d="M156.2,114.2l-70.7,30.1h4.7l67.9-28.8C157.4,115,156.8,114.6,156.2,114.2z"/>
<path class="st0" d="M137.5,90.4L10.8,144.2h4.7l122.7-52.2C137.9,91.5,137.7,91,137.5,90.4z"/>
<path class="st0" d="M149.8,109l-83,35.3h4.7l79.8-33.9C150.8,109.9,150.3,109.4,149.8,109z"/>
<path class="st0" d="M142.5,100.2L38.8,144.2h4.7l100.1-42.6C143.2,101.2,142.9,100.7,142.5,100.2z"/>
<path class="st0" d="M218.2,48.7c11.4,18.8,5.5,43.3-13.3,54.7c-16.8,10.2-38.5,6.7-51.1-8.3c11.4,18.8,35.9,24.7,54.7,13.3
	s24.7-35.9,13.3-54.7C220.7,51.9,219.5,50.3,218.2,48.7z"/>
<path class="st0" d="M154.5,84.9c9.1,15,27.8,21.1,43.9,14.3l0.1,0.1c2.2-1.1,4.4-2.2,6.6-3.5c0.5-0.4,0.7-1,0.6-1.6
	c-1.4-7.9-4.7-15.2-9.8-21.5c1-1.6,1.7-3.4,2.1-5.2c1.2-4.8,0.4-9.9-2.2-14.2c-0.3-0.5-0.6-0.9-0.9-1.3c-7-9.9-20.5-12.8-30.9-6.5
	C150.7,53.8,146.3,71.4,154.5,84.9z M156.7,83.6c-0.3-0.6-0.6-1.1-0.9-1.7c4.7-0.8,9.1-2.9,12.6-6.2c0.3-0.3,0.5-0.6,0.6-1
	c1.2,1.7,2.6,3.2,4.4,4.3c-3,4.5-7,8.2-11.8,10.9C159.8,88,158.1,85.9,156.7,83.6z M177,98.5c-2.2-0.5-4.4-1.3-6.4-2.3
	c3.4-3.4,5.8-7.5,7.1-12.1c0.4-1,0.5-2,0.5-3.1c1.9,0.5,3.9,0.5,5.8,0.3c0,0.3,0,0.6,0,0.9c0.2,3.4,0,6.9-0.4,10.3
	c-0.4,2.3-1,4.6-1.8,6.8C180.2,99.1,178.6,98.8,177,98.5z M198.5,96.5c-3.3,1.5-6.7,2.5-10.3,2.8c1.2-2.8,1.8-5.9,1.7-9
	c0-3.5-0.6-7-1.8-10.3c0.5-0.2,1-0.5,1.5-0.8c1-0.6,2-1.4,2.9-2.2C196.7,83.1,199,89.5,198.5,96.5L198.5,96.5z M165.5,47.8
	c1.6-1,3.4-1.8,5.3-2.2c0.1,2.1,0.8,4.1,2.2,5.8c1.1,1.3,2.2,2.6,4.1,2.1l2-8.4c5.2,0.7,9.9,3.4,13.1,7.5c-1.7,1.3-3.4,2.7-5,4.1
	c-0.2,0.2-0.1,1,0,1.4c0.6,1.3,1.2,2.5,1.8,3.6l7-0.8c0.3,2.1,0.2,4.1-0.3,6.2c-1,4.2-3.7,7.8-7.3,10c-1.5,0.9-3.2,1.5-5,1.7
	c-0.4-3-2.4-5.3-4.4-5l-0.5,4.7c-1.4-0.4-2.7-1-3.9-1.8c0.4-0.6,0.7-1.2,1-1.9c0.6-1.1,0.1-2.5-1-3.1l-3,2.1
	c-0.3-0.3-0.5-0.7-0.7-1.1c-0.5-0.8-0.9-1.7-1.1-2.7c0.8-0.5,1.6-1,2.2-1.7c0.6-0.8,0.4-1.8-0.3-2.4c-0.1-0.1-0.2-0.1-0.3-0.2
	l-1.7-0.4v-0.1c0.2-1,0.6-1.9,1.2-2.8c0.1,0.1,0.2,0.1,0.4,0.2c1,0.3,2,1,2.9-0.1c0.1-0.3,0.1-0.6-0.1-0.9c-0.3-0.5-0.7-1.1-1.1-1.6
	c0.4-0.3,0.8-0.6,1.2-0.9c3.6-2.2,8.3-1.1,10.5,2.5c-0.9,0.7-1.7,1.5-2.3,2.5c-4.8-4.9-7.7-3.1-8.3,0.1c-0.8,1.7-0.6,3.7,0.4,5.4
	c2,3.3,6.3,4.4,9.6,2.4c0,0,0.1,0,0.1-0.1c4-2.4,5.3-7.6,2.9-11.6c-2.9-4.8-9.2-6.4-14-3.5c0,0,0,0,0,0c-4.7,2.9-7,8.5-5.6,13.9
	c-4.5,2-9.4,2.6-14.2,1.7c-0.4-4.5,0.3-9,2.2-13.1c3.1,1.8,6.6,2.6,10.1,2.2c0.8-0.3,1.5-0.7,2.1-1.2l-0.1-0.5
	c-3.3-1.4-5.7-3.9-7.8-7.2C161.3,50.8,163.3,49.2,165.5,47.8L165.5,47.8z"/>
</svg>
