<?xml version="1.0" encoding="utf-8"?>
<!-- Generator: Adobe Illustrator 25.3.1, SVG Export Plug-In . SVG Version: 6.00 Build 0)  -->
<svg version="1.1" id="Layer_1" xmlns="http://www.w3.org/2000/svg" xmlns:xlink="http://www.w3.org/1999/xlink" x="0px" y="0px"
	 viewBox="0 0 845.3 648.4" style="enable-background:new 0 0 845.3 648.4;" xml:space="preserve">
<style type="text/css">
	.st0{fill:#82A28A;}
	.st1{fill:#090909;}
	.st2{fill:#BCBBBC;}
	.st3{fill:#060806;}
	.st4{fill:#FEFEFE;}
	.st5{fill:#B5A9AA;}
	.st6{fill:#847B95;}
	.st7{fill:#8EA7C1;}
	.st8{fill:#EED692;}
	.st9{fill:#F0EEED;}
	.st10{fill:#BCBBBB;}
	.st11{fill:#EFECEC;}
	.st12{fill:#C0BFCE;}
	.st13{fill:#D7515E;}
	.st14{fill:#8EA6BF;}
	.st15{fill:#D5515E;}
	.st16{fill:#F2F1F1;}
	.st17{fill:#E9E7E5;}
	.st18{fill:#8DA4BC;}
	.st19{fill:#8DA3BB;}
	.st20{fill:#E5E3E2;}
	.st21{fill:#8CA0B8;}
	.st22{fill:#8B9DB2;}
	.st23{fill:#E6DAB3;}
	.st24{fill:#E5E0E5;}
	.st25{fill:#EEECEC;}
	.st26{fill:#050609;}
	.st27{fill:#C64554;}
</style>
<path class="st0" d="M468.8,228.6c1.1-0.5,2.1-1.1,3.1-1.8c1.8-1.5,3.4-3.2,5.1-4.9c7-7,14.8-12.7,24.1-16.2
	c3.6-1.4,7.1-2.9,10.6-4.5c1.5-0.7,2.9-1.7,2.3-3.7c-0.6-2-2.2-2.1-3.9-1.9c-0.6,0.1-1.1,0.2-1.6,0.4c-11.1,3.7-21.8,8.2-30.6,16.3
	c-3.7,3.4-7.2,6.9-10.6,10.5c-0.8,0.8-0.9,2.6-0.8,3.8C466.6,227.4,467.9,227.9,468.8,228.6z M583.2,194c-0.8,0.9-2.3,1.8-2.4,2.8
	c0.1,1.4,0.8,2.7,1.9,3.5c12.3,7.2,23.9,15.1,32.5,26.8c0.8,0.8,2,1.2,3.1,1c0.6-0.2,1.5-1.9,1.3-2.6c-0.7-2.3-1.5-4.7-3-6.5
	c-8.1-10.5-18.6-17.9-30.2-23.8C585.5,194.7,584.6,194.5,583.2,194z M131.9,355.5l-1.1,1.1c1.2,1.8,2.5,3.5,3.9,5.1
	c0.5,0.5,1.8,0.2,2.7,0.3c-0.1-0.9,0.2-2.2-0.3-2.7C135.4,357.9,133.7,356.6,131.9,355.5z M130.1,137.6c2.8-0.1,6.2-2.6,6.5-4.3
	c0.1-0.5-0.1-1-0.5-1.4c-0.5-0.2-1.1-0.1-1.5,0.2C133.2,133.7,131.8,135.5,130.1,137.6z"/>
<path class="st1" d="M175.7,389.1c1.1-0.4,2.2-1.2,3.3-1.2c20.8,0,41.7,0.3,62.5,0.1c12.9-0.1,25.7-0.7,39.1-1.1
	c-0.8-1-1.4-1.7-2.1-2.4c-6.4-6.8-12.7-13.6-19.2-20.2c-1.2-1.1-2.7-1.7-4.3-1.8c-17.3,0-34.6,0.7-51.8,0.3
	c-12.9-0.3-25.8-1.7-38.7-2.6c-5.7-0.4-11.3-0.9-17.4-1.4c0.6,1.1,1.4,1.9,1.4,2.7c0,1.3-0.4,2.6-0.7,4c-1.1-0.3-2.4-0.4-3.2-1.1
	c-2.1-1.9-3.9-4-5.9-6c-3.1-3.1-6.3-6.1-9.3-9.3c-1.2-1.2-1.9-2.9-2.9-4.4l0.5-0.6c0.7,0.4,1.3,0.7,2,1.1c1.2,0.7,2.2,1.7,4,0.8
	c0.8-0.4,2.3,0.6,3.6,0.9c0-9.2,0-18.4,0-27.7s-0.1-18.6-0.2-27.9c-0.1-9.3-0.2-18.6-0.2-27.9c0-9.3,0-18.4,0-27.6
	c0-9.2,0-18.6,0-27.9c0-9.3,0.4-18.6-0.1-27.9c-0.5-9.1,0.9-18.2,0.7-27.9c-0.9,0.6-1.3,1-1.8,1c-1.1,0.1-2.2,0.1-3.3,0
	c0.1-1.1-0.2-2.4,0.3-3.3c1.6-3.2,2.9-6.8,5.4-9.1s6-3.9,9.4-4.7c1.7-0.4,2,2.2,1,3.7c-1.3,1.9-2.8,3.7-4.5,5.8H345
	c0.3-1.7,0.8-3.3,1.3-4.9c6-14.4,13.5-27.8,27.9-35.4c8.7-4.7,18.4-7.4,28.3-7.9c5.5-0.3,11.2-0.6,16.6,0.5c12.1,2.4,24,6,32.9,15.3
	c3.7,4,7.1,8.2,10.2,12.7c6,8.3,7.3,18.1,7.9,28c1,17.8-4.7,33.8-15.3,47.5c-9.4,12.2-22.4,19.3-38.3,19.6c-3.7,0.1-7.5,0-11.5,0
	c0,1.1,0,2.2,0,3.3c-0.2,38.3-0.2,76.6-0.7,115c-0.1,6.1,1.3,9.8,7.3,11.9c4.9,1.7,9.5,4.5,14.1,7c1.6,0.9,2.7,0.7,3.9-0.6
	c10-9.5,22.2-14.9,35.6-17.6c5-1,10.3-1.1,15.4-1.7c1.6-0.2,3.3-0.4,5.3-0.7c-1.9-4.9-1.5-9.5-0.1-14.1c1.4-4.6,2.3-9.5,4-14
	c3.3-8.6,9.7-14.8,16.9-20.3c1.9-1.4,2.6-3,3.3-5.3c1.6-5.2,4.1-10.2,6.5-15.2c1.8-3.8,3.9-7.5,5.9-11.2c0.1-0.2,0.1-0.4,0.2-0.6
	H522c-7.8,2.2-15.8,1.3-23.8,1.5c-6.7,0.2-12.8-7.4-14-14.4c-1.5-8.2,2.8-19.8,13.3-24.4c8.9-3.9,17.6-3.4,26.1,0.5
	c3.8,1.7,7.6,3.8,10.5,6.7c3.4,3.5,6,7.6,7.6,12.2c4,10.7,6.8,21.6,5.6,33.5c2.5-0.2,4.7-0.2,6.9-0.5c10-1.1,20-1.4,30,0.8
	c0.9,0.2,1.8,0,2.5-0.5c3.4-3.4,5.9-12.1,5.2-17.6c-1.4,0.5-2.8,1-4.2,1.3c-4.4,0.6-8.9,1.1-13.4,1.5c-2.6,0.2-5.2,0.1-7.9,0.3
	c-8.7,0.6-16.3-7-16.2-16.8c0.1-8.1,3.7-14.7,10.4-19.3c2-1.4,4.8-1.9,7.3-2.4c6.7-1.3,13.4-2.2,20.1-0.1c5,1.6,9.8,3.6,14.5,6
	c1.7,0.9,3.3,3.1,3.8,5c3.2,11.3,6.5,22.7,9,34.2c1,4.6,0.2,9.7-0.2,14.5c-0.3,2.9,0.3,5,2.7,6.7c5,3.8,9.8,7.7,14.8,11.6
	c0.9,0.6,1.9,1.1,3,1.5c6,2.5,12.2,4.5,17.9,7.5c8.8,4.7,16.3,10.9,18.9,21.3c1,3.9,2.6,7.6,4,11.4c0.4,1,1,1.8,1.8,2.4
	c15.4,9.6,23.5,24.7,30.6,40.5c2.5,5.6,5.1,11.1,6.9,16.9c3.6,11.7,4,23.8,2.2,35.9c-1.7,12.9-5.2,25.6-10.2,37.6
	c-6.2,14.6-14.8,27.4-27.3,37.3c-9.5,7.6-19.8,14-31.9,16.6c-8,1.7-15.9,3.9-23.9,5.3c-4,0.7-8.2,0.4-12.3,0.3
	c-1.5-0.2-2.9,0.4-3.9,1.5c-1.9,2-4.1,3.8-6.5,5.2c-5.3,3.3-10.8,6.4-16.4,9.1c-3.7,1.7-7.8,2.6-11.8,3.4c-1.6,0.3-3.6-0.4-5.1-1.2
	c-8.4-4.3-16.7-8.8-25.1-13.3c-0.5-0.3-1-0.5-1.5-0.7c-11.7-2.7-19.4-10.4-25.3-20.3c-2.1-3.6-0.9-7.3-0.9-11c0-1.8-0.1-3-1.9-3.9
	c-3.7-1.8-5.8-5.1-7.2-8.7c-2.1-5.4-3.9-10.9-5.7-16.4c-0.3-0.9-0.5-1.8-0.7-2.9c-3.9,1.5-7.6,2.9-11.2,4.5
	c-26.3,11.2-52.7,22.4-79,33.6c-3.5,1.5-6.8,3.6-10.4,4.7c-1.8,0.5-4.9,0-6-1.2c-10-11.5-19.4-23.4-29.4-34.8
	c-18.4-21-37.1-41.8-55.7-62.8c-1.5-1.8-3.7-2.9-6.1-2.8c-11.7,0.1-23.5,0.2-35.2,0.3c-9.2,0.1-18.4,0.4-27.6,0.7
	c-13.5,0.4-27,1-40.5,1.2c-7.2,0.1-14.4-0.4-21.7-0.7c-4.6-0.2-5.5-1.4-5.5-5.8c0.1-5.1,0-10.3,0.1-15.4c0-0.9,0.7-1.7,1.1-2.5
	c0.4,1,0.7,2.7,1.2,2.8c3.6,0.7,2.7,3.3,2.5,5.4c-0.2,3.8-0.6,7.6-0.9,11.7l12.4,0.6c7.3,0.4,14.6,1,21.9,1
	c10.9,0,21.7-0.6,32.6-0.9c9.5-0.3,18.9-0.8,28.4-0.9s19.1,0.2,28.7,0.3c8.1,0,16.3,0,25.1,0v-22.4c-3.7,0-7.9-0.1-12.1,0
	c-24.4,0.7-48.8,1.6-73.1,2.1c-17.5,0.4-35.1,0.2-52.6,0.2c-2.8,0-5.6,0.4-8-1.7C178.4,389.2,176.9,389.3,175.7,389.1z M534.4,527.5
	l0.5,0.2l-0.3-0.5c-5.1-7.1-10.1-14.2-13.3-22.4c-0.1-0.3-0.7-0.4-1.7-1c0,3.3-1,6.6,0.2,8.8C523.1,518.9,528.2,524.1,534.4,527.5
	L534.4,527.5z M520.2,464.7l2.5,4.4l3.2,5.3c1.2,1.9,2.4,3.7,3.6,5.6c4.5,5.3,8.7,10.7,13.5,15.8c3.8,4.1,7.9,8.1,12.4,11.3
	c9.3,6.5,20.1,10,30.7,13.7s21.9,4.1,33,4.9c16.7,1.1,32-4.4,46.2-12.9c10.3-6.1,19.3-13.7,26.4-23.4c6-8.3,10.1-17.5,13.3-27.2
	c6.7-20,10.4-40.2,4.4-61.3c-2.8-9.9-7.4-18.8-13-27.2c-0.4-1.1-0.5-2.5-1.2-3.4c-3.8-5-7.6-9.9-11.7-14.7c-1.6-1.9-4-3.2-6.6-5.2
	c-0.2,10.8-3.2,21.3-8.8,30.5c-5.2,7-10.3,14.1-17.2,19.6c-2,1.6-4,3.1-6,4.7l-5.6,3l-2,0.7l-16.5,4.7l-1.1-0.3
	c-2.5-1.1-2.4-3.2-2.3-5.4l5.8-6c0.8-0.6,1.6-1.2,2.2-2c3.8-5.4,7.5-10.9,11.2-16.3c4.7-6.4,7.3-13.7,7-21.6
	c-0.3-4.9-1.4-9.6-3.3-14.1c-1.3-3.4-4.9-5.8-6.3-9.2c-2-4.9-5.2-7.3-10.4-7.9c-5.7-0.6-11.1-3.3-17.1-2.5
	c-13.6,1.8-27.1,4.3-39.5,10.4c-7,3.4-13.8,7.1-19.6,12.4c-8,5.4-13.2,13.4-18.9,20.9c-2.3,3-4.1,6.5-6.1,9.8
	c-4.8,8-8.2,16.7-10,25.8c-2.3,11.3-2.4,22.9-0.4,34.2C513.6,449.7,515.6,457.6,520.2,464.7L520.2,464.7z M557.1,247.8l-0.3-0.3
	L557.1,247.8c1.4,3.5,4.7,4.9,7.8,4.9c10.6,0.1,15.9-3.5,18.3-14.3c1.4-6.1-0.8-8.9-4.4-10.8c-3.8-2.1-8.2-3.3-12.8-2
	c-2.5,0.7-4.7,2.3-6.3,4.4c3.7,0,7.6-0.3,11.3,0.1c4.1,0.4,7.5,3.7,8,7.2c0.6,3.5-1.6,6.8-5.5,8.9
	C568.3,249.1,562.8,249.7,557.1,247.8L557.1,247.8z M400.2,145.3c2.3-2.2,2.4-2.2,6.5,1.3c1.9,1.6-0.3,1.9-1,2.8
	c-0.3,0.4-0.2,1.3-0.3,1.9c-0.2,7.3-0.4,14.6-0.5,21.9c-0.1,13.2,0,26.5,0,39.7c0,0.8,0.1,1.6,0.2,2.8c4.9,0,9.6,0.4,14.2-0.1
	c8-0.9,15.7-3,22.5-7.9c8.2-5.9,13.9-13.6,18.5-22.6c7.7-14.9,7.3-30.2,3.2-45.7c-2.6-9.9-9.5-17.3-16.7-23.9
	c-8.8-8.2-20.1-11.6-31.8-12.8c-12.1-1.3-24.3,0.5-35.5,5.2c-9.5,4.1-17.2,10.1-22.7,18.9c-0.8,1.3-1.4,2.8-2.4,3.8
	c-4,3.9-4.7,9-5.8,14c-0.3,2.2,1.5,1.2,2.2,1.2c15.7,0.1,31.4,0.2,47.1,0.2C398.8,145.8,399.5,145.6,400.2,145.3L400.2,145.3z
	 M399.4,170.6H142.9c-0.3,61.3-0.6,122-0.9,182.9c1.1,0.1,2.2,0.2,3.3,0.3c8.8,0.7,17.6,1.5,26.4,2c14.1,0.8,28.3,1.8,42.5,1.9
	c19.8,0.1,39.6-0.7,59.4-0.9c17.7-0.2,35.3,0,53-0.1c5.7,0,11.4-0.5,17.2-0.7c10.7-0.3,21.4-0.6,32.1-0.7c8-0.1,16,0,23.6,0
	L399.4,170.6z M312.6,413.9l-0.3,1c28.8,31.7,57.4,63.6,83.2,97.9c0.6-0.3,1.6-0.9,2.6-1.4c17.4-7.7,34.7-15.8,52.3-23
	c15.3-6.3,31.1-11.7,46.6-17.5c2.9-1.1,4.1-4.9,1.9-7.1c-6.2-6.4-9.8-14.9-10-23.9c-0.3-7.1,0.3-14.2,0.3-21.4c0-1.5,0-3.5-0.9-4.5
	c-5.2-6.1-7.1-13.3-7.7-21c-0.1-0.7-0.4-2-0.9-2.1c-4.4-1.6-8.2-5.7-13.6-3.9c-0.4,0.1-1.2-0.4-1.7-0.7c-5.2-3.4-10.5-6.7-15.4-10.3
	c-2.1-1.5-3.6-1.5-5.8-0.6c-11.1,4.7-19.8,12.7-28.1,21.2c-0.1,0.1-0.1,0.5-0.2,0.8c7,1.7,13.8,3.4,19.9,7.5
	c2.7,1.8,3.8,3.2,3.2,6.3c-0.2,1-0.3,2-0.3,3.1c-0.2,6.8-0.4,13.7-0.5,20.5c0,2.3-1.3,4.4-3.3,5.5c-2.5,1.5-5.1,2.9-7.7,4.1
	c-7.7,3.6-16.1,4.4-24.4,4.9c-11.2,0.7-22.4-1.2-32.7-5.5c-3.8-1.6-7.3-4.1-7.5-8.7c-0.2-6.6,0.1-13.3,0.2-20c0.1-1.3,0-2.6-0.3-3.8
	c-1-3.6,0-6.3,3.3-7.9c1.7-0.8,3.6-1.2,5.3-1.9c10-4.2,20.8-5.9,31.6-5c1.5,0.1,3.1,0,4.3,0c2.5-12.3,10.2-21.8,16.5-32.1l-18.5-9.8
	c-0.1,0.9-0.2,1.9-0.1,2.8c0.6,3.4,0.1,3.9-3.3,3.8c-6.6-0.2-13.3-0.6-20-0.5c-22.3,0.4-44.7,1-67,1.3c-15.9,0.2-31.7,0.1-47.6,0.1
	c-0.9,0-1.7,0.1-3.1,0.2c0.9,1.1,1.3,1.6,1.8,2.2c5.1,5.5,10.6,10.7,15.4,16.4c3.8,4.5,7.7,7.3,13.9,5.9c1.9-0.4,3.9-0.2,5.9-0.2
	c8.2-0.1,16.3-0.1,24.5-0.1c1.5,0,3.2,0,3.3,2.4c0.3,6.3,0.9,12.6,1.1,18.9c0.1,2.1-1.2,4.4,2.4,5.3l-0.7,0.8L312.6,413.9z
	 M512.3,294.3c-3.7,3.5-7.4,6.7-10.6,10.3c-5.1,5.6-8,12.2-7.3,20c0.3,3.9,0.9,7.8,1.8,11.6c1,4.5-0.3,6.7-4.8,7.1
	c-4.5,0.4-9.2,0.4-13.6,1.6c-8,2-16,4.2-23.6,7.4c-14.1,5.7-26.1,15.6-34.4,28.2c-0.6,0.9-1.1,1.9-1.7,2.8c2.2-1,4.4-2.2,6.4-3.6
	c6.3-4.4,12.7-8.4,19.9-11.4c9.2-3.7,18.4-6.6,28.3-8c10.3-1.4,19.6,1.6,28.9,5.3c5.8,2.3,11.7,4.6,17.6,6.7
	c0.8,0.1,1.7-0.1,2.2-0.8c3.6-7.3,9.6-12.7,15-18.5c6.7-7.1,14.1-13.6,22.8-18.2c6.8-3.6,13.6-7.2,20.8-9.9
	c6.2-2.4,12.9-4.3,19.5-4.9c10.8-0.9,21.6-0.1,32.2,2.4c0.8,0.2,1.7-0.2,2.6-0.3c0.1,0.5,0.2,1,0.4,1.5c2,6.8,3.8,13.6,9.6,18.4
	c4.5,3.8,5.9,8.9,6.2,14.5c0.4,5.7-1,11.2-2.5,16.6c-3.2,11-9.5,20-17.6,28c-1.4,1.3-2.7,2.8-4.4,4.5c1.2,0.1,1.9,0.4,2.4,0.2
	c3.2-1.1,6.3-2.5,9.3-4c10.3-5.6,17.4-14.6,24.6-23.5c6.9-8.4,9.5-18.1,9.8-28.7c0.2-7.7-2.3-14.7-5-21.8c-4.5-12.1-13.4-18-26-19.4
	c-6.1-0.7-12.1-2.1-16.9-6.9c-3.5-3.5-7.9-6.2-11.8-9.2c-7.3,7.8-12.5,8.9-21.1,9.2c-7,0.3-12.8-5.1-13.1-12.1
	c-0.1-1.8,0.3-3.7,1-5.4c0.4-0.9,0.7-1.8,1-2.8c-0.5-0.2-1.1-0.4-1.7-0.5c-10.3-1.7-20.6-0.9-30.8,0.5c-2.7,0.4-3.9,1.8-4.3,4.3
	c-0.4,2.9-1.8,5.7-4.5,6.8c-4.5,2-9.2,3.5-14.1,4.7C520.6,298.4,516.4,297.6,512.3,294.3L512.3,294.3z M141.9,149.6
	c0,4.1-0.1,7.7,0,11.2c0.1,3.5,0.5,4,4.1,4c48.5,0.1,96.9,0.2,145.4,0.3c34.3,0.1,68.6,0.2,102.8,0.3c2,0,4,0,5.7,0v-15.8H141.9z
	 M432.6,416.8c-21.7,9.6-42.8,7.3-64.3,0.5c0,6.2,0,12.1,0,17.9c0.1,0.6,0.4,1.2,0.9,1.5c3.2,1.3,6.4,3.1,9.7,3.6
	c6.8,1.1,13.8,1.5,20.7,2c8.6,0.6,17.3-0.8,25.3-3.9c4.8-1.8,8-4.1,7.1-10C431.6,424.8,432.4,421,432.6,416.8L432.6,416.8z
	 M585.5,224.3c6.3,9.8,6.3,19-2,28.4c4.6-1.2,8.8-1,11.5-5c2.6,2.9,2.6,6.3,2.4,9.7c-0.3,8.7-4.3,16-9.7,22.6
	c-1.4,1.6-2.6,3.4-3.6,5.4c-2.7,5.9,0.5,10.8,7.1,10.9c5.4,0.1,10.3-1.7,14.8-4.7c1-0.7,1.8-1.6,2.2-2.8c2.1-6.7,3.9-13.7,2.7-20.7
	c-1.7-9.7-4.3-19.2-6.3-28.8c-1-4.7-3.2-8.2-7.5-10.5C593.4,226.7,590,224.5,585.5,224.3z M518,252.4l0.3,0.4
	c1.1-0.2,2.2-0.4,3.3-0.6c6.4-1.4,7.6-0.3,6.3,6.3c-0.2,1.4-0.7,2.7-1.3,4c-2.5,4.8-5,9.7-7.8,14.3c-2.1,3.3-2.7,7.3-1.6,11
	c0.8,3.1,2.1,4,5.3,3.8c7.8-0.5,13.9-3.9,17-11.3c1.6-3.8,2.8-7.7,3.6-11.8c1.3-6.1,1.1-12.3-1.3-18c-3-7-3.9-14.9-10.4-20.5
	c-3.3-2.8-6.8-3.8-11.2-5.3c3.2,5.8,4,11.4,3.8,17.2c-0.1,3.6-1.3,6.8-4.3,9C519,251.4,518.5,251.9,518,252.4L518,252.4z M401.4,418
	c3,0,6.3,0.3,9.6-0.1c6.4-0.6,12.7-1.7,17.9-5.8c2.8-2.2,2.9-4-0.4-5.4c-4.4-1.9-9.1-3.8-13.8-4.4c-9.1-1.2-18.4-1.2-27.5,0.1
	c-5.2,0.8-10.4,2.1-15.5,3.8c-1.7,0.5-2.9,2.5-4.3,3.7c1.6,1.2,2.9,2.9,4.7,3.5C381.5,416.8,391.1,419,401.4,418z M527.3,505.2
	c8.2,18,29.4,37.2,40.7,36.4c-0.5-2.3-1.3-4.5-1.6-6.8c-0.5-4.8-0.8-9.5-1.3-14.3c-0.1-0.9-0.5-1.6-1.2-2.2
	c-4.7-2.9-9.4-5.7-14.2-8.5c-1.1-0.7-2.3-1.2-3.6-1.5C539.9,507.2,533.7,506.3,527.3,505.2z M493.3,229c4.1,0.3,7.7,0.3,11.3,0.8
	c3.3,0.3,5.9,2.9,6.3,6.2c0.5,3.4-1,6.2-4,8c-5.5,3.3-11.3,3.8-17.8,1.3c1.9,4.4,4.3,7.7,8.8,8.5c8.9,1.4,20.2-3.6,19.7-16
	c-0.3-6.8-4.5-12.2-11.2-13.3C501.3,223.7,497.3,225.7,493.3,229z M452.4,372l28,14.4c1.1-6.5,2.2-12.5,3.2-18.7
	C473.3,367.4,463,367.8,452.4,372L452.4,372z M504.6,413.3c0.3-0.2,0.6-0.3,0.9-0.5c0.8-11.2,5.6-21.2,9.7-31.6l-16-6
	c0,1.8-0.1,2.8,0,3.8c1.3,10.8,2.6,21.6,3.9,32.3C503.2,412,504.1,412.6,504.6,413.3L504.6,413.3z M509.2,460.7
	c-3.9-13.5-7.7-26.6-11.6-39.7c-0.3-0.9-1.3-1.6-1.9-2.4l-0.8,0.3c-0.2,5.9-0.7,11.7-0.7,17.6c0,8.2,3,16,8.4,22.1
	C504.2,460.5,506,461.2,509.2,460.7L509.2,460.7z M489.1,369.6c-0.5,1.4-0.9,2.9-1.2,4.4c-0.6,5.3-1.4,10.6-1.6,15.9
	c-0.4,7.6,1.6,14.7,7,20.4c1.1,1.1,2.8,1.7,4.4,2.6C498.4,405,492.4,375.1,489.1,369.6z M573.4,522.6c0.7,6.9,1.4,13.6,2.1,20.8
	c6.2-4.6,11.9-8.9,16.6-14.8l-17.4-5.9C574.3,522.7,573.8,522.7,573.4,522.6z M518.2,497.1l1-0.2c0-1,0.2-2,0-2.9
	c-0.5-1.8-1.5-3.5-2-5.2c-2-6.1-4.1-12.3-5.8-18.5c-0.8-2.9-2.5-3.6-5.1-3.2c-0.5,7.3,3.6,21.2,8,26.6
	C515.2,495.1,516.8,496,518.2,497.1z M535.7,497.5L516.3,471c1.7,7.2,3.7,14.2,5.9,21.2c0.4,1.4,0.7,3.3,1.7,4.1
	c0.9,0.7,2.7-0.1,4.1,0C530.7,496.6,533.3,497.1,535.7,497.5L535.7,497.5z M590.9,536.4l0.5,0.9l10.1-6.1c-2.7-1.6-4.5-1.3-6.3,1
	C594.1,533.7,592.4,535,590.9,536.4L590.9,536.4z"/>
<path class="st2" d="M175.7,389.1c1.2,0.2,2.7,0,3.5,0.7c2.4,2.1,5.2,1.7,8,1.7c17.5,0,35.1,0.1,52.6-0.2
	c24.4-0.5,48.8-1.4,73.1-2.1c4.2-0.1,8.4,0,12.1,0v22.5c-8.8,0-17,0-25.1,0c-9.6-0.1-19.1-0.4-28.7-0.3c-9.6,0.1-18.9,0.6-28.4,0.9
	c-10.9,0.3-21.7,0.9-32.6,0.9c-7.3,0-14.6-0.6-21.9-1l-12.4-0.6c0.3-4.1,0.7-7.9,0.9-11.7c0.1-2.2,1-4.8-2.5-5.4
	c-0.6-0.1-0.8-1.8-1.2-2.8C173.2,390,174.1,389.2,175.7,389.1z"/>
<path class="st3" d="M468.8,228.6c-0.9-0.7-2.2-1.2-2.3-1.9c-0.1-1.2,0-3,0.8-3.8c3.4-3.6,6.9-7.1,10.6-10.5
	c8.8-8.1,19.5-12.6,30.6-16.3c0.5-0.2,1.1-0.3,1.6-0.4c1.7-0.2,3.3-0.1,3.9,1.9c0.6,1.9-0.8,3-2.3,3.7c-3.5,1.6-7,3.2-10.6,4.5
	c-9.3,3.5-17.1,9.3-24.1,16.2c-1.7,1.7-3.3,3.3-5.1,4.9C470.9,227.5,469.9,228.1,468.8,228.6z"/>
<path class="st3" d="M583.2,194c1.4,0.5,2.3,0.7,3.2,1.2c11.7,5.9,22.2,13.3,30.2,23.8c1.4,1.8,2.2,4.3,3,6.5
	c0.2,0.7-0.6,2.5-1.3,2.6c-1.1,0.2-2.3-0.2-3.1-1c-8.6-11.7-20.2-19.7-32.5-26.8c-1.1-0.8-1.8-2.1-1.9-3.5
	C580.8,195.8,582.3,194.9,583.2,194z"/>
<path class="st1" d="M131.9,355.5c1.8,1.1,3.5,2.4,5.2,3.8c0.5,0.5,0.2,1.8,0.3,2.7c-0.9-0.1-2.2,0.2-2.7-0.3
	c-1.4-1.6-2.7-3.3-3.9-5.1L131.9,355.5z"/>
<path class="st1" d="M130.1,137.6c1.7-2.1,3-3.9,4.5-5.6c0.4-0.3,1-0.4,1.5-0.2c0.4,0.4,0.5,0.9,0.5,1.4
	C136.3,135,132.9,137.5,130.1,137.6z"/>
<path class="st4" d="M399.4,170.6v184.6c-7.6,0-15.6-0.1-23.6,0c-10.7,0.1-21.4,0.4-32.1,0.7c-5.7,0.2-11.4,0.6-17.2,0.7
	c-17.7,0.1-35.3-0.1-53,0.1c-19.8,0.2-39.6,1-59.4,0.9c-14.2-0.1-28.3-1.1-42.5-1.9c-8.8-0.5-17.6-1.3-26.4-2
	c-1.1-0.1-2.2-0.2-3.3-0.3c0.3-60.9,0.6-121.6,0.9-182.9L399.4,170.6z"/>
<path class="st5" d="M312.6,413.9h18l0.7-0.8c-3.6-1-2.3-3.2-2.4-5.3c-0.2-6.3-0.8-12.6-1.1-18.9c-0.1-2.4-1.8-2.4-3.3-2.4
	c-8.2-0.1-16.3,0-24.5,0.1c-2,0-4-0.2-5.9,0.2c-6.1,1.4-10.1-1.4-13.9-5.9c-4.8-5.7-10.2-11-15.4-16.4c-0.5-0.5-0.9-1.1-1.8-2.2
	c1.4-0.1,2.2-0.2,3.1-0.2c15.9,0,31.7,0.1,47.6-0.1c22.3-0.3,44.7-1,67-1.3c6.7-0.1,13.3,0.2,20,0.5c3.4,0.1,3.9-0.4,3.3-3.8
	c-0.1-0.9,0-1.9,0.1-2.8l18.5,9.8c-6.2,10.2-13.9,19.7-16.5,32.1c-1.2,0-2.8,0.1-4.3,0c-10.8-0.9-21.7,0.8-31.6,5
	c-1.7,0.7-3.6,1.1-5.3,1.9c-3.4,1.6-4.4,4.3-3.3,7.9c0.3,1.3,0.4,2.5,0.3,3.8c-0.1,6.7-0.4,13.3-0.2,20c0.2,4.6,3.6,7.1,7.5,8.7
	c10.3,4.3,21.6,6.2,32.8,5.5c8.3-0.5,16.7-1.2,24.4-4.9c2.6-1.2,5.2-2.6,7.7-4.1c2-1.1,3.3-3.2,3.3-5.5c0.1-6.8,0.3-13.7,0.5-20.5
	c0-1,0.1-2.1,0.3-3.1c0.6-3.1-0.5-4.5-3.2-6.3c-6-4.1-12.9-5.7-19.9-7.5c0-0.3,0-0.6,0.2-0.8c8.3-8.4,17-16.4,28.1-21.2
	c2.2-0.9,3.7-0.9,5.8,0.6c5,3.7,10.3,6.9,15.4,10.3c0.5,0.3,1.3,0.9,1.7,0.7c5.4-1.8,9.1,2.3,13.6,3.9c0.5,0.2,0.8,1.4,0.9,2.1
	c0.6,7.7,2.5,14.9,7.7,21c0.9,1,0.9,3,0.9,4.5c0,7.1-0.6,14.3-0.3,21.4c0.2,8.9,3.7,17.5,10,23.9c2.2,2.3,1,6.1-1.9,7.1
	c-15.6,5.7-31.3,11.1-46.6,17.5c-17.6,7.3-34.9,15.3-52.3,23.1c-1,0.4-2,1.1-2.6,1.4c-25.7-34.3-54.3-66.2-83.2-97.9L312.6,413.9z"
	/>
<path class="st6" d="M617.4,407.6c-0.1,2.2-0.2,4.3,2.3,5.4l-0.3,9.5l-0.3,1.1c-0.6,1.3-1.1,2.6-1.7,3.9l-1.3,2.1l-1,1.2l-3.5,3.4
	l-2.5,1.6l-0.9,0.3l-5.1,1.6L600,438l-1.2-0.1l-5.6-1.7l-0.9-0.2l-1.4-0.9c-0.1-0.1-0.2-0.2-0.4-0.2l-1.3-1l0,0l-2.2-2.3l0,0
	c-0.5-0.7-1-1.3-1.5-2l-0.3-0.8c-0.4-0.9-0.7-1.9-1.1-2.8c-0.1-0.4-0.1-0.8-0.2-1.1c0-2,0.1-3.9,0.1-5.9c0.1-7.5,4.2-10.8,11.5-8.8
	c2.9,0.8,5.7,2.1,8.8,3.2c0.8-1.9,1.7-3.7,2.7-5.4c1-1.6,0.8-2.5-0.8-3.6c-8.3-5.8-19.2-4.2-26.3,3.7c-1.6,1.7-1.2,2.8,0.4,4.1
	c3,2.4,3,2.8,0.8,5.9l-1.9,0.4c-4.6-0.7-4.6-0.7-5.3,3.7c-0.1,0.4-0.1,0.7-0.2,1.1c-0.2,1.8,0.3,2.8,2.4,2.7c4.7,0,5.8,1.1,5.9,5.7
	c-0.1,0.1-0.1,0.2-0.1,0.3l-1.5,1.9c-0.1,0.1-0.2,0.2-0.2,0.4l-1.1,1.2l-0.5,0.6c-1.3,0.8-1.5,1.6-0.1,2.5c0,0.1,0,0.2,0.1,0.3
	l1.1,1.3c0.1,0.2,0.3,0.3,0.4,0.5c0.5,0.5,0.9,1,1.4,1.5l1.2,1.1c0.9,1.3,1.8,2.7,2.9,0.1l0,0l1.6-1.8l2.8-3.5l4.4,2
	c0,0.1,0,0.3,0.2,0.4l0.7,4.5l-0.1,1.1c-0.3,1.5-2.3,3.4,0.3,4.3c2.4,0.8,5,0.7,7.5,1l1.3-1.3c-0.1-0.6-0.2-1.2-0.3-1.7
	c-0.1-0.4-0.1-0.7-0.2-1.1l-0.4-2.3l-0.3-1.7c-0.3-4.2,1.2-5.2,5.2-3.3c1.6,0.8,3.2,1.7,4.7,2.7l0,0l3.3,4.1c0,0.1,0,0.3,0.1,0.4
	c1.2,2.1,2,2,4.7-0.5c0.1,0,0.3,0,0.4-0.1l2.9-2.2l5-4.9l1-1.3c0.2-0.3,0.4-0.6,0.6-0.9l1-1.3c0.1-0.1,0.2-0.2,0.1-0.3l1-1.4
	c0.2-0.5,0.5-1,0.7-1.5l1.9-3.6c0.3-1,0.6-2,0.9-3.1l1.3-3.7c0.1-0.4,0.1-0.8,0.2-1.1l0.5-2.8l0.1-1.1l0.5-9.5l5.6-3
	c1.5,5.8,1.1,11.6,0,17.3c-0.5,2.5,0,3.9,2.1,5.4c9.2,6.6,17.2,14.5,24,23.6c4.4,6,8,12.7,12.1,19c1.5,2.3,1.4,4.3-0.2,6.4
	c-9.6,12.2-20.8,22.1-36.1,26.6c-1.8,0.5-3.5,2-5,3.3c-3.5,3.1-7.2,5.3-12.2,4.5c-3.1-0.5-6.1-0.7-9.2-0.6
	c-8.2,0.2-16.3-0.4-24.3-2.6c-1-0.3-2-0.3-3,0c-5.1,1.4-9.7,0-14-2.6c-2.4-1.4-4.2-3.8-6.6-5.1c-14.5-7.1-26.1-17.9-37.3-29.3
	c-1.1-3.1-2.4-6.1-3.3-9.2c-1.5-5.5-2.8-11.1-4.2-16.7c-0.1-0.4-0.1-0.8-0.2-1.2c-0.6-4.3-1.2-8.7-1.8-13l-0.1-3.9
	c-0.2-4.5-0.4-9-0.6-13.5c0-0.5,0.1-1.1,0.1-1.6c1.3-5.6,3.6-10.6,8.6-14c0.3-0.2,0.6-0.5,0.8-0.8c3.6-5.4,7.3-10.8,10.9-16.3
	l2.1-2.1l9.7-7.8l2.1-1.2c0.5-0.1,1.1-0.4,1.5-0.6c4.7-3.6,10.1-6.3,15.9-8c2.6,0.2,5.2,0.8,7.7,0.6c16.9-0.9,32,3.5,44.8,14.9
	c2.5,2.2,4.9,4.5,7.3,6.8c-3.7,5.4-7.4,10.9-11.2,16.3c-0.7,0.8-1.4,1.4-2.2,2c-4.3,2.1-6.6-0.7-8.9-3.7c-0.7-0.9-1.5-1.7-2.3-2.5
	c-1.5-1.7-1.8-3.4-0.4-5.3c2.3-3.2,4.3-6.6,6.7-9.7c1.6-2.1,1.2-3.3-1-4.3c-3.2-1.5-6.3-3.4-9.7-4.6c-7.5-2.7-15.2-3.9-23.2-2.8
	c-1.5,0.2-2.1,0.8-2,2.4c0.3,5.3,0.5,10.7,0.8,16c0.3,4.3-1.4,5.8-5.7,4.8c-0.9-0.2-1.8-0.6-2.6-1c-5.1-2.8-9.3-6.6-11.7-12.1
	c-0.4-0.8-0.8-1.6-1.3-2.3c-0.9,0.5-1.7,1-2.6,1.5c-7.6,6-13.9,13.5-18.4,22.1c-0.3,1,0,2,0.6,2.8c5.4,4.8,11.4,8.5,18.5,10.3
	c1.4,0.5,2.9,1,4.2,1.7c-1.1,1.4-2.2,2.9-3.4,4.3c-0.6,0.5-1.3,0.8-2,0.9c-4.9,0.9-9.7,2-14.6,2.5c-3.4,0.3-6.8-0.5-10.3-0.8
	c-0.2,0.4-0.3,0.9-0.4,1.3c-1.2,10.3,0,20.7,3.5,30.5c0.3,0.7,1.9,1.5,2.8,1.4c11-1.4,20.7-5.8,29.5-12.4c1.5-1.1,1.8-2,0.9-3.7
	c-3.3-6.7-4.2-14.3-2.5-21.6c3.7-18.2,22-28,38.5-20.5C611.3,398.9,615.7,402.1,617.4,407.6z M639.3,438.6c-2.8,3.3-5.1,6.1-7.6,8.7
	c-1.3,1.3-1.3,2.2-0.4,3.6c1.4,2.1,2.7,4.3,3.9,6.5c4.7,8.9,8.1,18.2,8.8,28.2c0.2,3.3,0,6.6,0,10.1c0.5,0,1-0.1,1.5-0.2
	c7.4-3,14.3-7.2,20.3-12.4c0.7-0.6,1.1-2.4,0.8-3.4c-2.6-11.3-8.2-21.1-15.8-29.7C647.2,446,643.2,442.4,639.3,438.6z M606.4,459.1
	c1.7,13.6-0.8,27.5-7.1,39.7c-1.1,2.3,0,2.9,1.9,3.1c7.9,1,15.9,0.9,23.8-0.3c2.2-0.3,2.9-1.2,3.1-3.4c0.8-14.2-2.7-27.7-7.1-41
	c-0.2-0.6-1.4-1.4-1.9-1.3C614.8,456.8,610.7,457.9,606.4,459.1L606.4,459.1z M553.6,478.8c-0.1-0.2,0,0.2,0.3,0.4
	c5.3,4,10.6,8,16,11.8c0.5,0.4,2,0.1,2.6-0.4c1.6-1.6,3.1-3.2,4.5-5c6.6-8,11.6-17.1,15-26.9c0.2-0.6,0.1-2-0.3-2.1
	c-3.5-1.7-7-3.3-10.2-4.7c-3.9,5.5-7.1,11.5-11.7,15.9S559.2,475.2,553.6,478.8z"/>
<path class="st7" d="M512.3,294.3c4.1,3.2,8.4,4,12.7,3c4.8-1.2,9.5-2.7,14.1-4.7c2.7-1.1,4-3.8,4.5-6.8c0.4-2.5,1.6-4,4.3-4.3
	c10.3-1.4,20.5-2.3,30.8-0.5c0.6,0.1,1.1,0.3,1.7,0.5c-0.4,1-0.7,1.9-1,2.8c-2.7,6.4,0.3,13.8,6.8,16.5c1.7,0.7,3.5,1,5.4,1
	c8.6-0.4,13.8-1.4,21.1-9.2c3.9,3,8.3,5.7,11.8,9.2c4.8,4.7,10.7,6.2,16.9,6.9c12.6,1.4,21.5,7.3,26,19.4c2.6,7.1,5.1,14.1,5,21.8
	c-0.2,10.6-2.9,20.3-9.8,28.7c-7.3,8.9-14.3,17.9-24.6,23.5c-3,1.5-6.1,2.8-9.3,4c-0.5,0.2-1.2-0.1-2.4-0.2c1.7-1.8,3-3.2,4.4-4.5
	c8.1-7.9,14.4-17,17.6-28c1.6-5.4,2.9-10.8,2.5-16.6s-1.7-10.7-6.2-14.5c-5.7-4.8-7.6-11.6-9.6-18.4c-0.2-0.5-0.3-1.1-0.4-1.5
	c-1,0.1-1.8,0.5-2.6,0.3c-10.5-2.5-21.4-3.3-32.2-2.4c-6.6,0.6-13.3,2.6-19.5,4.9c-7.2,2.7-14,6.3-20.8,9.9
	c-8.7,4.6-16.1,11.1-22.8,18.2c-5.5,5.7-11.4,11.1-15,18.5c-0.6,0.6-1.4,0.9-2.2,0.8c-5.9-2.1-11.8-4.3-17.6-6.7
	c-9.3-3.7-18.5-6.7-28.9-5.3c-9.9,1.4-19.1,4.3-28.3,8c-7.3,2.9-13.6,7-19.9,11.4c-2,1.4-4.1,2.6-6.4,3.6c0.6-0.9,1.1-1.9,1.7-2.8
	c8.4-12.7,20.4-22.5,34.4-28.2c7.6-3.1,15.6-5.3,23.6-7.4c4.4-1.1,9.1-1.1,13.6-1.6c4.5-0.4,5.8-2.6,4.8-7.1
	c-0.8-3.8-1.4-7.7-1.8-11.6c-0.8-7.8,2.2-14.4,7.3-20C504.8,301.1,508.6,297.9,512.3,294.3z M540.2,330.7c6.9,0.7,13.5-0.6,19.9-2.8
	c2.2-0.7,4.2-1.9,5.9-3.4c1.9-1.8,1-4.2-1.6-4.5c-2-0.2-4.1,0-6.1,0.4c-4.6,0.7-9.2,2-13.8,2.4c-10.8,0.8-21.6-0.8-31.7-4.6
	c-0.4-0.2-0.9-0.3-1.3-0.3c-1.1,0.3-2.7,0.4-3.1,1.1c-0.4,1.2-0.3,2.5,0.4,3.5c1.1,1.4,2.5,2.5,4.1,3.3
	C521.4,330.2,530.9,330.2,540.2,330.7L540.2,330.7z"/>
<path class="st8" d="M348.7,144.6c1.1-5,1.8-10.2,5.8-14c1-1,1.6-2.5,2.4-3.8c5.5-8.8,13.2-14.9,22.7-18.9
	c11.2-4.8,23.4-6.6,35.5-5.2c11.7,1.2,23,4.6,31.8,12.8c7.2,6.7,14,14,16.7,23.9c4.2,15.5,4.5,30.8-3.1,45.7
	c-4.6,9-10.2,16.7-18.5,22.6c-6.8,4.9-14.5,7-22.5,7.9c-4.6,0.5-9.3,0.1-14.2,0.1c-0.1-1.2-0.2-2-0.2-2.8c0-13.2-0.1-26.5,0-39.7
	c0-7.3,0.3-14.6,0.5-21.9c0-0.6-0.1-1.5,0.3-1.9c0.7-0.9,2.9-1.2,1-2.8c-4.1-3.5-4.1-3.4-6.5-1.3c-16,0-32,0-48-0.1
	C351,145.1,349.9,144.9,348.7,144.6z"/>
<path class="st9" d="M535.2,471c11.2,11.4,22.8,22.2,37.3,29.3c2.5,1.2,4.3,3.6,6.6,5.1c4.3,2.5,8.9,4,14,2.6c1-0.2,2-0.2,3,0
	c8,2.2,16,2.8,24.3,2.6c3.1-0.1,6.2,0.1,9.2,0.6c5,0.8,8.7-1.4,12.2-4.5c1.5-1.3,3.1-2.8,5-3.3c15.3-4.6,26.5-14.4,36.1-26.6
	c1.7-2.1,1.7-4.1,0.2-6.4c-4.1-6.3-7.7-12.9-12.1-19c-6.7-9.1-14.8-17-23.9-23.6c-2.1-1.5-2.6-2.9-2.1-5.4c1.2-5.7,1.5-11.5,0-17.3
	c2-1.6,4-3.1,6-4.7c6.9-5.5,12-12.6,17.2-19.6c0.1,1.6,0.6,3.3,0.4,4.8c-1.2,6.7-2.7,13.3-4,20c-0.8,4.2-1.5,8.5-1.9,12.7
	c0,1.5,0.7,3,1.9,3.9c1.5,1,3.4,0.5,4.8-1.1c3.4-3.8,7.1-7.4,10.2-11.5c5.4-7.1,10.4-14.5,13.1-23.1c1.4-4.3,2.5-8.7,3.7-13.1
	c5.6,8.5,10.2,17.3,13,27.2c6,21,2.3,41.3-4.4,61.3c-3.2,9.6-7.3,18.9-13.3,27.2c-7.1,9.7-16.1,17.3-26.4,23.4
	c-14.2,8.5-29.4,14.1-46.2,12.9c-11.1-0.7-22.3-1.2-33-4.9c-10.7-3.7-21.4-7.2-30.7-13.7c-4.6-3.2-8.6-7.2-12.4-11.3
	c-4.7-5-9-10.5-13.5-15.8c0.3-1.1,0.4-2.1,0.5-3.2C529.9,473.2,531.9,471,535.2,471z"/>
<path class="st9" d="M525.1,411.8c0,0.5-0.1,1.1-0.1,1.6c-2.2,4.6,0.7,9,0.6,13.5c0,1.3,0.1,2.6,0.1,3.9c-0.2,0.6-0.5,1.1-0.7,1.7
	c-0.6,1.9-1.3,3.7-1.9,5.6c-0.9,3.2-1.9,6.4-2.6,9.6c-0.3,1.6,0,3.4-0.1,5.1c-0.1,0.8-0.7,1.5-1,2.2c-0.7-0.6-1.7-1.1-2.2-1.8
	c-0.6-1.1-1.1-2.3-1.4-3.6c-0.4-1-0.6-2.1-0.6-3.2c0.1-2.4,1.1-5,0.5-7.2c-1-2.9-0.9-6.1,0.2-8.9c0.1-0.6,0.1-1.1,0-1.7
	c-0.2-4.6-0.7-9.2-0.5-13.8c0.3-4.2,1.3-8.4,2.2-12.5c0.1-0.5,1.1-0.9,1.7-1.3c0.4,0.5,0.8,1.1,1,1.7c0.3,1.2,0.5,2.4,0.6,3.6
	c2.8-2.4,2.9-4.5,1.1-6.5c-0.6-0.8-0.9-1.7-1-2.7c-0.2-1.1-0.3-2.2-0.3-3.3c-0.1-0.9,0-1.8,0.3-2.6c0.9-2.3,2-4.5,3.1-7
	c0.3,0,0.9-0.1,1.6-0.1c4.1-0.1,4.4-0.3,4.4-4.3v-7.1c2.8,0.5,3.2-0.1,3.1-2.9c0-1.1,0.7-2.3,1.4-3.2c1.2-1.7,2.5-3.2,3.9-4.7
	c0.7-0.7,1.7-1.9,2.3-1.7c3.5,0.8,2.5-1.3,2.2-3c5.4-2.1,4.4-0.9,4.5-6.2c5.8-5.3,12.6-9,19.6-12.4c12.5-6.1,25.9-8.6,39.5-10.4
	c6-0.8,11.4,1.9,17.1,2.5c5.2,0.5,8.3,2.9,10.4,7.9c1.4,3.3,5,5.8,6.3,9.2c1.9,4.5,3,9.3,3.3,14.1c0.3,7.9-2.3,15.1-7,21.6
	c-2.4-2.3-4.8-4.6-7.3-6.8c-12.8-11.4-27.9-15.8-44.8-14.9c-2.6,0.1-5.2-0.4-7.7-0.6c-0.4-0.2-1-0.6-1.2-0.5
	c-3.3,1.9-8.3-0.8-10.6,3.9c-0.2,0.4-1.4,0.4-2.1,0.6c-2.3,0.7-4.3,1.6-3.6,4.6l-2.1,1.2c-0.8-0.2-1.6-0.4-2.4-0.4
	c-0.8,0.1-1.5,0.6-2.3,0.8c-2.8,0.8-5.6,1.6-8.8,2.5c1.4,2,4.5,2.1,3.9,4.8l-2.1,2.1c-1.5,0.9-3.5,1.5-4.5,2.9
	c-2.1,2.9-4.1,5.9-5.8,9.1c-2.1,3.6-4.6,6.7-8.6,8.4c-0.4,0.2-0.7,0.5-0.9,1c-0.6,2.8-1.2,5.6-1.7,8.5
	C524.1,411,524.8,411.5,525.1,411.8z"/>
<path class="st10" d="M141.9,149.6h258.1v15.9c-1.7,0-3.7,0-5.7,0c-34.3-0.1-68.6-0.2-102.8-0.3c-48.5-0.1-96.9-0.2-145.4-0.3
	c-3.6,0-4-0.4-4.1-4S141.9,153.8,141.9,149.6z M394.4,157.6c0-2.9-1-3.9-3.8-4c-2.8,0-4.2,1.4-4.2,4.1c0,2.2,1.7,4.1,4,4.2
	C392.7,162,394.3,160.3,394.4,157.6z"/>
<path class="st11" d="M617.4,407.6c-1.8-5.6-6.1-8.7-11-10.9c-16.6-7.5-34.8,2.3-38.5,20.5c-1.6,7.3-0.7,15,2.6,21.7
	c0.9,1.7,0.5,2.6-0.9,3.7c-8.8,6.6-18.5,11-29.5,12.4c-0.9,0.1-2.5-0.7-2.8-1.4c-3.5-9.7-4.7-20.2-3.5-30.5c0.1-0.5,0.2-0.9,0.4-1.3
	c3.5,0.3,7,1.1,10.3,0.8c4.9-0.4,9.7-1.6,14.6-2.5c0.7-0.1,1.5-0.4,2-0.9c1.2-1.3,2.3-2.8,3.4-4.3c-1.4-0.6-2.8-1.2-4.2-1.7
	c-7.1-1.8-13.1-5.5-18.5-10.3c-0.7-0.8-0.9-1.8-0.6-2.8c4.5-8.6,10.8-16.1,18.4-22.1c0.8-0.6,1.7-1.1,2.6-1.5
	c0.5,0.8,0.9,1.5,1.3,2.3c2.4,5.5,6.6,9.2,11.7,12.1c0.8,0.5,1.7,0.8,2.6,1c4.2,1,5.9-0.5,5.7-4.8c-0.3-5.3-0.5-10.7-0.8-16
	c-0.1-1.5,0.5-2.2,2-2.4c8-1.1,15.7,0.2,23.2,2.8c3.3,1.2,6.4,3,9.7,4.6c2.2,1,2.5,2.2,1,4.3c-2.4,3.1-4.4,6.5-6.7,9.7
	c-1.4,2-1.1,3.6,0.4,5.3c0.7,0.8,1.6,1.6,2.3,2.5c2.2,3,4.6,5.7,8.9,3.7L617.4,407.6z"/>
<path class="st12" d="M696.4,373.4c-1.2,4.4-2.4,8.8-3.7,13.1c-2.7,8.6-7.7,16-13.1,23.1c-3.1,4.1-6.8,7.6-10.2,11.5
	c-1.4,1.6-3.3,2.1-4.8,1.1c-1.2-0.9-1.9-2.4-1.9-3.9c0.4-4.3,1-8.5,1.9-12.7c1.3-6.7,2.8-13.3,4-20c0.3-1.5-0.2-3.2-0.4-4.8
	c5.6-9.2,8.6-19.8,8.8-30.6c2.6,2,5,3.3,6.6,5.2c4.1,4.7,7.9,9.7,11.7,14.7C695.9,371,696,372.3,696.4,373.4z"/>
<path class="st13" d="M432.6,416.9c-0.2,4.2-1,8-0.5,11.6c0.9,6-2.3,8.2-7.1,10c-8,3.2-16.7,4.5-25.3,3.9c-6.9-0.5-13.8-1-20.7-2
	c-3.3-0.5-6.5-2.3-9.7-3.6c-0.5-0.3-0.9-0.9-0.9-1.5c-0.1-5.9-0.1-11.8-0.1-18C389.8,424.2,410.9,426.5,432.6,416.9z"/>
<path class="st14" d="M585.5,224.3c4.4,0.3,7.9,2.5,11.5,4.4c4.3,2.3,6.5,5.8,7.5,10.5c2,9.6,4.6,19.1,6.3,28.8
	c1.2,7-0.5,14-2.7,20.7c-0.4,1.1-1.2,2.1-2.2,2.8c-4.5,2.9-9.4,4.8-14.8,4.7c-6.6-0.1-9.8-5-7.1-10.9c1-1.9,2.2-3.7,3.6-5.4
	c5.4-6.6,9.3-13.8,9.7-22.6c0.1-3.4,0.2-6.8-2.4-9.7c-2.7,4-6.9,3.8-11.5,5C591.8,243.3,591.8,234.1,585.5,224.3z"/>
<path class="st14" d="M518,252.4c0.5-0.5,1.1-1,1.6-1.4c3-2.3,4.2-5.4,4.3-9c0.2-5.8-0.6-11.4-3.8-17.2c4.4,1.5,7.8,2.5,11.2,5.3
	c6.5,5.5,7.4,13.5,10.4,20.5c2.4,5.7,2.5,12,1.3,18c-0.8,4-2.1,8-3.6,11.8c-3.1,7.5-9.1,10.8-17,11.3c-3.2,0.2-4.5-0.7-5.3-3.8
	c-1.1-3.7-0.5-7.8,1.6-11c2.8-4.7,5.3-9.5,7.8-14.3c0.6-1.3,1-2.6,1.3-4c1.3-6.6,0.2-7.7-6.3-6.3c-1.1,0.2-2.2,0.4-3.3,0.6
	L518,252.4z"/>
<path class="st15" d="M401.4,418c-10.3,1-19.9-1.2-29.2-4.6c-1.8-0.6-3.2-2.3-4.7-3.5c1.4-1.3,2.6-3.2,4.3-3.7
	c5.1-1.7,10.2-2.9,15.5-3.8c9.1-1.3,18.3-1.3,27.5-0.1c4.7,0.6,9.4,2.5,13.8,4.4c3.3,1.4,3.2,3.3,0.4,5.4
	c-5.3,4.1-11.6,5.2-17.9,5.8C407.7,418.3,404.4,418,401.4,418z"/>
<path class="st14" d="M527.3,505.2c6.4,1,12.6,2,18.9,3.1c1.3,0.3,2.5,0.8,3.6,1.5c4.8,2.8,9.5,5.6,14.2,8.5
	c0.7,0.5,1.1,1.3,1.2,2.2c0.5,4.8,0.7,9.5,1.3,14.3c0.3,2.3,1,4.5,1.6,6.8C556.8,542.4,535.5,523.3,527.3,505.2z"/>
<path class="st9" d="M621.4,446.7c-0.1,0.1-0.2,0.2-0.4,0.1l-4.7,0.5c-0.1-0.1-0.1-0.2-0.1-0.4c0.2-2.4-1.3-3.4-3.3-4.1l0,0
	l-5.8-4.9l1.3-1.7l0.9-0.3l2.5-1.6l3.5-3.4l1-1.2l1.3-2.1c1.4-0.9,2.5-2,1.7-3.9c0.1-0.4,0.2-0.8,0.3-1.1c0.4-0.9,1.1-1.7,1.2-2.6
	c0.2-2.2,0.1-4.4,0.1-6.6l16.5-4.7c0.4,1,0.7,2,1,3c0.3,1.9,0.4,3.8,0.5,5.7c0,0.4-0.1,0.8-0.1,1.1c-0.2,0.9-0.3,1.9-0.5,2.8
	c-0.1,0.4-0.1,0.8-0.2,1.1l-1.3,3.7c-0.3,1-0.6,2-0.9,3.1l-1.9,3.6c-0.2,0.5-0.5,1-0.7,1.5l-1,1.4c0,0.1,0,0.3-0.1,0.3l-1,1.3
	c-0.2,0.3-0.4,0.6-0.6,0.9l-1,1.3l-5,4.9L621.4,446.7z"/>
<path class="st16" d="M543,357.1c0.3,1.7,1.2,3.9-2.2,3c-0.6-0.1-1.7,1-2.3,1.7c-1.4,1.5-2.7,3.1-3.9,4.7c-0.7,1-1.5,2.2-1.4,3.2
	c0.1,2.8-0.3,3.4-3.1,2.9v7.1c0,4-0.2,4.2-4.4,4.3c-0.6,0-1.3,0.1-1.6,0.1c-1.1,2.5-2.2,4.7-3.1,7c-0.3,0.8-0.4,1.7-0.3,2.6
	c0,1.1,0.1,2.2,0.3,3.3c0.1,1,0.5,1.9,1,2.7c1.8,2,1.7,4.1-1.1,6.5c-0.1-1.2-0.3-2.4-0.6-3.6c-0.3-0.6-0.6-1.2-1-1.7
	c-0.6,0.4-1.6,0.8-1.7,1.3c-0.9,4.2-1.9,8.3-2.2,12.5c-0.3,4.6,0.3,9.2,0.5,13.8c0.1,0.6,0.1,1.1,0,1.7c-1.2,2.8-1.3,6-0.2,8.9
	c0.6,2.1-0.4,4.7-0.5,7.2c0,1.1,0.2,2.2,0.6,3.2c0.3,1.2,0.8,2.4,1.4,3.6c0.5,0.8,1.4,1.2,2.2,1.8c0.4-0.7,1-1.5,1-2.2
	c0.2-1.7-0.2-3.4,0.1-5.1c0.7-3.2,1.7-6.4,2.6-9.6c0.6-1.9,1.2-3.8,1.9-5.6c0.2-0.6,0.5-1.2,0.7-1.7c0.6,4.3,1.2,8.7,1.8,13
	c-0.5-0.7-1-1.4-1.5-2.1c-3.8,5.4-3.8,5.4-1.9,11.8c0.2,0.6-0.3,2.1-0.7,2.2c-2.4,0.5-2.3,2.2-2.4,4c-0.2,1.7-0.4,3.3-0.8,4.9
	c-4.6-7.1-6.6-15-8-23.1c-2-11.3-1.9-23,0.4-34.2c1.8-9.1,5.1-17.8,9.9-25.8c2-3.3,3.8-6.7,6.1-9.8c5.7-7.5,10.9-15.4,18.9-20.9
	C547.4,356.2,548.5,355.1,543,357.1l-0.1-0.2l-0.1,0.1L543,357.1z"/>
<path class="st17" d="M493.3,229c4-3.3,8.1-5.3,13.1-4.5c6.7,1.1,10.9,6.5,11.2,13.3c0.6,12.3-10.8,17.4-19.7,16
	c-4.5-0.7-6.9-4-8.8-8.5c6.5,2.5,12.3,2,17.8-1.3c3-1.8,4.5-4.7,4-8c-0.4-3.3-3-5.8-6.3-6.2C501,229.3,497.3,229.2,493.3,229z"/>
<path class="st18" d="M504.6,413.3c-0.5-0.7-1.4-1.3-1.5-2c-1.4-10.8-2.7-21.5-3.9-32.3c-0.1-1,0-2,0-3.8l16,6
	c-4,10.4-8.9,20.4-9.6,31.6C505.2,412.9,504.9,413.1,504.6,413.3z"/>
<path class="st19" d="M509.2,460.7c-3.2,0.5-5-0.3-6.6-2c-5.4-6.1-8.4-14-8.4-22.1c-0.1-5.9,0.4-11.7,0.7-17.6l0.8-0.3
	c0.7,0.8,1.6,1.5,1.9,2.4C501.5,434.1,505.3,447.2,509.2,460.7z"/>
<path class="st19" d="M489.1,369.6c3.3,5.5,9.3,35.4,8.6,43.3c-1.7-1-3.4-1.5-4.4-2.6c-5.4-5.7-7.4-12.7-7-20.4
	c0.3-5.3,1-10.6,1.6-15.9C488.2,372.5,488.6,371,489.1,369.6z"/>
<path class="st20" d="M557.1,247.8c5.7,1.9,11.2,1.3,16.5-1.6c3.9-2.1,6.1-5.4,5.5-8.9c-0.6-3.5-4-6.8-8-7.2
	c-3.8-0.3-7.6-0.1-11.3-0.1c1.5-2.1,3.8-3.6,6.3-4.4c4.6-1.3,8.9-0.1,12.8,2c3.5,1.9,5.7,4.7,4.4,10.8c-2.4,10.8-7.7,14.4-18.3,14.3
	C561.8,252.7,558.5,251.4,557.1,247.8L557.1,247.8z"/>
<path class="st18" d="M573.4,522.6c0.5,0,0.9,0.1,1.4,0.2l17.4,5.9c-4.6,5.9-10.4,10.2-16.6,14.8
	C574.8,536.3,574.1,529.5,573.4,522.6z"/>
<path class="st9" d="M520.2,464.6c0.4-1.6,0.7-3.3,0.8-4.9c0.1-1.9,0-3.5,2.4-4c0.4-0.1,0.9-1.5,0.7-2.2c-1.9-6.3-1.9-6.3,1.9-11.8
	c0.5,0.7,1,1.4,1.5,2.1c0.1,0.4,0.1,0.8,0.2,1.2c-1.9,1.3-2.3,3.9-1.4,4.9c2.5,2.8,3.1,6,3.3,9.5c0,0.2,0.4,0.5,0.4,0.7
	c0.5,2.7,2.5,5.5,0.8,8.2c-1.3,2.2-3.3,3.9-5,5.9l-3.2-5.3c-0.3-1.4-0.5-2.9-1-4.2C521.7,464.6,520.7,464.7,520.2,464.6L520.2,464.6
	z"/>
<path class="st19" d="M518.2,497.1c-1.4-1.1-2.9-2.1-4-3.4c-4.4-5.4-8.5-19.4-8-26.6c2.6-0.4,4.3,0.3,5.1,3.2
	c1.8,6.2,3.8,12.3,5.8,18.5c0.6,1.8,1.5,3.4,2,5.2c0.3,0.9,0,1.9,0,2.9L518.2,497.1z"/>
<path class="st21" d="M535.7,497.5c-2.4-0.4-5-0.9-7.7-1.2c-1.4-0.2-3.3,0.6-4.1,0c-1-0.8-1.2-2.6-1.7-4.1c-2.1-7-4.2-14-5.9-21.2
	L535.7,497.5z"/>
<path class="st22" d="M534.4,527.5c-6.2-3.4-11.3-8.6-14.6-14.8c-1.1-2.2-0.2-5.5-0.2-8.8c1,0.6,1.6,0.7,1.7,1
	c3.2,8.2,8.2,15.3,13.3,22.4L534.4,527.5z"/>
<path class="st16" d="M525.9,474.3c1.7-1.9,3.6-3.7,5-5.9c1.7-2.7-0.3-5.5-0.8-8.2c0-0.3-0.4-0.5-0.4-0.7c-0.2-3.5-0.8-6.7-3.3-9.5
	c-1-1.1-0.5-3.7,1.4-4.9c1.4,5.6,2.7,11.2,4.2,16.7c0.9,3.1,2.2,6.1,3.3,9.2c-3.3,0-5.3,2.3-5.2,5.7c-0.1,1.1-0.2,2.2-0.5,3.2
	C528.3,478.1,527.1,476.2,525.9,474.3z"/>
<path class="st23" d="M348.7,144.6c1.1,0.3,2.3,0.5,3.5,0.6c16,0.1,32,0.1,48,0.1c-0.7,0.3-1.4,0.6-2.2,0.7
	c-15.7,0-31.4-0.1-47.1-0.2C350.2,145.8,348.4,146.8,348.7,144.6z"/>
<path class="st22" d="M590.9,536.4c1.5-1.4,3.2-2.6,4.4-4.2c1.7-2.3,3.6-2.7,6.3-1l-10.1,6.1L590.9,536.4z"/>
<path class="st24" d="M638.8,417.4c-0.2-1.9-0.3-3.8-0.5-5.7c-0.2-1-0.6-2-1-3l2-0.7L638.8,417.4z"/>
<path class="st24" d="M620.8,413.3c0,2.2,0.1,4.4-0.1,6.6c-0.1,0.9-0.8,1.7-1.2,2.6l0.2-9.5L620.8,413.3z"/>
<path class="st16" d="M520.2,464.7c0.5,0,1.5-0.1,1.5,0.1c0.4,1.4,0.7,2.8,1,4.2L520.2,464.7z"/>
<path class="st0" d="M521.9,257h0.7c-0.1,0.2-0.1,0.4-0.2,0.6L521.9,257z"/>
<path class="st20" d="M557.2,247.8l-0.4-0.2L557.2,247.8L557.2,247.8z"/>
<path class="st22" d="M534.7,527.3l0.3,0.5l-0.6-0.2L534.7,527.3z"/>
<path class="st11" d="M639.3,438.6c3.9,3.8,7.9,7.5,11.5,11.5c7.7,8.6,13.2,18.4,15.8,29.7c0.2,1.1-0.1,2.8-0.8,3.4
	c-6,5.2-12.9,9.4-20.3,12.4c-0.5,0.1-1,0.2-1.5,0.2c0-3.5,0.2-6.8,0-10.1c-0.7-10.1-4.1-19.4-8.8-28.2c-1.2-2.2-2.5-4.4-3.9-6.5
	c-0.9-1.4-0.9-2.3,0.4-3.6C634.2,444.7,636.5,441.8,639.3,438.6z"/>
<path class="st25" d="M606.4,459.1c4.3-1.1,8.4-2.3,12.6-3.3c0.5-0.1,1.7,0.7,1.9,1.3c4.4,13.3,7.9,26.8,7.2,41
	c-0.1,2.2-0.8,3.1-3.1,3.4c-7.9,1.1-15.9,1.2-23.8,0.3c-1.9-0.2-3-0.8-1.9-3.1C605.6,486.5,608.1,472.7,606.4,459.1z"/>
<path class="st25" d="M553.6,478.8c5.5-3.6,11.6-6.5,16.2-11c4.6-4.4,7.8-10.4,11.7-15.9c3.2,1.4,6.7,3,10.2,4.7
	c0.4,0.2,0.5,1.5,0.3,2.1c-3.4,9.8-8.4,18.9-15,26.9c-1.4,1.8-2.9,3.4-4.5,5c-0.6,0.5-2.1,0.8-2.6,0.4c-5.4-3.9-10.7-7.9-16-11.8
	C553.7,479.1,553.5,478.7,553.6,478.8z"/>
<path class="st24" d="M581.1,417.8c2.2-3.1,2.2-3.4-0.8-5.9c-1.6-1.3-2-2.3-0.4-4.1c7.2-7.9,18.1-9.5,26.3-3.7
	c1.6,1.1,1.8,2,0.8,3.6c-1,1.8-1.9,3.6-2.7,5.4c-3-1.1-5.8-2.4-8.8-3.2c-7.3-1.9-11.4,1.3-11.5,8.8c0,2-0.1,3.9-0.1,5.9
	c-0.4-1.4-0.7-2.9-0.8-4.3C583.1,418.9,582.8,417.9,581.1,417.8z"/>
<path class="st9" d="M581.1,417.8c1.7,0.1,2,1.1,2,2.6c0.2,1.5,0.4,2.9,0.8,4.3c0.1,0.4,0.1,0.8,0.2,1.1c0.4,0.9,0.7,1.9,1.1,2.8
	c0.1,0.3,0.2,0.5,0.3,0.8c0.5,0.7,1,1.3,1.5,2l0,0c-0.2,1.7,0.5,2.5,2.2,2.3l0,0l1.3,1c0.1,0,0.3,0.1,0.4,0.2l1.4,0.9l0.9,0.2l4,2.1
	c0,0.4,0.1,0.7,0.3,1c0.4,0.6,0.9,1.1,1.4,1.7c0.4-0.6,0.8-1.3,1.1-1.9c0.1-0.4,0.1-0.7,0-1.1l3.4-0.2c-1.3,1.8-3,3.6-0.4,5.6
	l0.3,1.7c-0.2,0.4-0.3,0.7-0.5,1.1c-0.4,0.1-1.2,0.1-1.3,0.3c-0.6,1.4-1,2.8-1.5,4.2l-4.4-1.6c-0.2-1.2-0.4-2-0.6-2.9l0.1-1.1
	c0.1-0.8,0.3-1.5,0.4-2.3c1.7-1.8,1.2-2.9-1.1-3.4c-1.2-1.6-2.4-3.3-4.6-1.2c-0.9,1.2-1.9,2.3-2.8,3.5l-1.6,1.8l0,0l-2.9-0.1
	l-1.2-1.1c-0.5-0.5-0.9-1-1.4-1.5c-0.1-0.2-0.3-0.3-0.4-0.5l-1.1-1.3c-0.1-0.1-0.1-0.2-0.1-0.3c0-0.8,0.1-1.7,0.1-2.5l0.5-0.6
	l1.1-1.3c0-0.2,0.1-0.3,0.2-0.4l1.5-1.9c0-0.1,0-0.3,0.1-0.3c0.3-0.3,1-0.5,1-0.8c-0.1-2.8-1-5.7-4.9-6c-3.7-0.2-3.5-0.2-3-3.8
	c0.3-1.7,0.8-2.3,2.5-2c0.4,0.1,1-0.5,1.5-0.8L581.1,417.8z"/>
<path class="st16" d="M525.1,411.8c-0.4-0.4-1.1-0.8-1-1.2c0.5-2.8,1.1-5.7,1.7-8.5c0.1-0.4,0.5-0.8,0.9-1c4-1.7,6.5-4.8,8.6-8.4
	c1.7-3.2,3.7-6.2,5.8-9.1c1-1.3,2.9-1.9,4.5-2.9c-3.6,5.4-7.3,10.9-10.9,16.3c-0.2,0.3-0.5,0.6-0.8,0.8
	C528.7,401.2,526.5,406.2,525.1,411.8z"/>
<path class="st16" d="M547.6,378.7c0.7-2.8-2.5-2.8-3.9-4.8c3.2-0.9,6-1.7,8.8-2.5c0.8-0.2,1.5-0.8,2.3-0.8c0.8,0,1.6,0.1,2.4,0.4
	L547.6,378.7z M549.8,375.2c-0.5-0.4-0.7-0.8-0.9-0.8c-0.2-0.1-0.5,0.3-0.7,0.5c0.2,0.3,0.4,0.6,0.6,0.7
	C549.1,375.6,549.4,375.4,549.8,375.2L549.8,375.2z"/>
<path class="st16" d="M559.4,369.7c-0.7-3,1.3-4,3.6-4.6c0.7-0.2,1.9-0.1,2.1-0.6c2.3-4.7,7.3-2,10.6-3.9c0.2-0.1,0.8,0.3,1.2,0.5
	c-5.7,1.6-11.1,4.3-15.9,8C560.5,369.3,560,369.5,559.4,369.7z"/>
<path class="st24" d="M579.1,418.2c-0.5,0.3-1.1,0.9-1.5,0.8c-1.7-0.4-2.3,0.3-2.5,2c-0.6,3.6-0.7,3.5,3,3.8c3.9,0.3,4.8,3.2,4.9,6
	c0,0.3-0.6,0.5-1,0.8c-0.1-4.6-1.2-5.7-5.9-5.7c-2.1,0-2.6-0.9-2.4-2.7c0-0.4,0.1-0.7,0.2-1.1C574.5,417.5,574.5,417.5,579.1,418.2z
	"/>
<path class="st24" d="M603,443.4c-2.6-2-0.9-3.8,0.4-5.6l5.1-1.6l-1.3,1.7l5.8,4.9c-1.5-1-3.1-1.9-4.7-2.7
	C604.2,438.2,602.7,439.2,603,443.4z"/>
<path class="st16" d="M525.6,427c0.1-4.5-2.8-8.9-0.6-13.5C525.2,418,525.4,422.5,525.6,427z"/>
<path class="st24" d="M595,446.2c0.2,0.9,0.4,1.7,0.6,2.9l4.4,1.6l2.8,0.8c-2.5-0.3-5.2-0.2-7.5-1
	C592.7,449.6,594.7,447.7,595,446.2z"/>
<path class="st16" d="M602.8,451.5l-2.8-0.8c0.5-1.4,0.9-2.8,1.5-4.2c0.1-0.2,0.8-0.2,1.3-0.3l0.9,1.2c0.1,0.4,0.1,0.7,0.2,1.1
	c0.1,0.6,0.2,1.2,0.3,1.7L602.8,451.5z"/>
<path class="st16" d="M600,438c0.1,0.4,0.1,0.7,0,1.1c-0.3,0.7-0.7,1.3-1.1,1.9c-0.5-0.5-1-1.1-1.4-1.7c-0.1-0.3-0.2-0.7-0.3-1
	l1.6-0.4L600,438z"/>
<path class="st24" d="M598.8,437.8l-1.6,0.4l-4-2.1L598.8,437.8z"/>
<path class="st24" d="M589.8,438.2c2.2-2,3.4-0.4,4.6,1.2c0,0.3-0.1,0.5-0.1,0.7L589.8,438.2z"/>
<path class="st24" d="M612.9,442.8c2,0.7,3.4,1.8,3.3,4.1C615.1,445.5,614,444.2,612.9,442.8z"/>
<path class="st24" d="M616.3,447.3l4.7-0.5C618.4,449.3,617.5,449.4,616.3,447.3z"/>
<path class="st24" d="M595.5,442.8c-0.1,0.8-0.3,1.5-0.4,2.3c-0.2-1.5-0.5-3-0.7-4.5L595.5,442.8z"/>
<path class="st24" d="M619.2,423.6c0.9,1.9-0.2,3-1.7,3.9C618.1,426.3,618.6,425,619.2,423.6z"/>
<path class="st24" d="M633.8,432.8l1.9-3.6L633.8,432.8z"/>
<path class="st16" d="M595.5,442.8l-1.1-2.2c-0.1-0.1-0.2-0.2-0.2-0.4l0.1-0.7C596.7,439.9,597.2,440.9,595.5,442.8z"/>
<path class="st24" d="M636.7,426.2l1.3-3.7L636.7,426.2z"/>
<path class="st24" d="M582.6,443.3l2.9,0.1C584.3,446.1,583.5,444.6,582.6,443.3z"/>
<path class="st24" d="M621.4,446.7l2.9-2.2L621.4,446.7z"/>
<path class="st24" d="M589.2,433.8c-1.7,0.2-2.5-0.6-2.2-2.3C587.7,432.3,588.5,433,589.2,433.8z"/>
<path class="st24" d="M638.2,421.3c0.2-0.9,0.3-1.9,0.5-2.8C638.5,419.5,638.4,420.4,638.2,421.3z"/>
<path class="st24" d="M585.2,428.7c-0.4-0.9-0.7-1.9-1.1-2.8C584.5,426.8,584.8,427.8,585.2,428.7z"/>
<path class="st24" d="M611.8,434.4l-2.5,1.6L611.8,434.4z"/>
<path class="st24" d="M603.7,447.3l-0.9-1.2c0.2-0.4,0.3-0.7,0.5-1.1L603.7,447.3z"/>
<path class="st24" d="M587,431.5c-0.5-0.7-1-1.3-1.5-2C586,430.2,586.5,430.9,587,431.5z"/>
<path class="st24" d="M578.6,436c0,0.8-0.1,1.7-0.1,2.5C577.1,437.6,577.2,436.8,578.6,436z"/>
<path class="st24" d="M581.8,431.9l-1.5,1.9L581.8,431.9z"/>
<path class="st24" d="M585.4,443.5l1.6-1.8L585.4,443.5z"/>
<path class="st24" d="M604.1,450.2c-0.1-0.6-0.2-1.2-0.3-1.7C604,449,604,449.6,604.1,450.2z"/>
<path class="st24" d="M580,440.6c0.5,0.5,0.9,1,1.4,1.5C580.9,441.7,580.5,441.1,580,440.6z"/>
<path class="st24" d="M578.5,438.8l1.1,1.3L578.5,438.8z"/>
<path class="st24" d="M629.4,439.6l1-1.3L629.4,439.6z"/>
<path class="st24" d="M616.3,429.7l-1,1.2L616.3,429.7z"/>
<path class="st24" d="M631,437.3l1-1.3L631,437.3z"/>
<path class="st24" d="M592.3,435.9l-1.4-0.9L592.3,435.9z"/>
<path class="st24" d="M632.2,435.7l1-1.4L632.2,435.7z"/>
<path class="st24" d="M580.2,434.2l-1.1,1.3L580.2,434.2z"/>
<path class="st24" d="M590.6,434.8l-1.3-1L590.6,434.8z"/>
<path class="st26" d="M540.2,330.7c-9.3-0.5-18.8-0.5-27.4-5c-1.6-0.8-3-1.9-4.1-3.3c-0.7-1-0.8-2.3-0.4-3.5c0.4-0.7,2-0.9,3.1-1.1
	c0.5,0,0.9,0.1,1.3,0.3c10.1,3.8,20.9,5.4,31.7,4.6c4.6-0.3,9.2-1.6,13.8-2.4c2-0.4,4.1-0.5,6.1-0.4c2.6,0.3,3.5,2.7,1.6,4.5
	c-1.7,1.6-3.7,2.7-5.9,3.4C553.7,330.1,547.1,331.3,540.2,330.7z"/>
<path class="st27" d="M394.4,157.6c0,2.6-1.7,4.4-4.1,4.3c-2.2-0.1-4-2-4-4.2c0-2.6,1.5-4.1,4.2-4.1S394.4,154.8,394.4,157.6z"/>
<polygon class="st9" points="543,357.1 542.8,357 542.9,356.9 "/>
<path class="st9" d="M549.9,375.2c-0.5,0.2-0.8,0.5-1,0.4c-0.2-0.1-0.4-0.5-0.6-0.7c0.2-0.2,0.5-0.6,0.7-0.5
	S549.4,374.7,549.9,375.2z"/>
</svg>
