<svg width="416" height="495" viewBox="0 0 416 495" fill="none" xmlns="http://www.w3.org/2000/svg">
<g id="TriloDude1 1" clip-path="url(#clip0)">
<g id="Fills">
<g id="BodyFill">
<path d="M322.3 158.2C315.8 148 305.1 143.1 294.9 137.1C287.7 132.7 287.3 131.1 288.1 131.4C287.3 125.7 285.7 119.4 286.8 113.9C286.4 98.3 294.2 83.9 294.4 68.7C293.3 60.7 290.6 51.1 283.6 46.7C285.3 54.2 287.2 60.6 285.2 68.2C283.6 76.8 285.2 86.8 278.6 93.5C275.4 97.1 274.2 100.9 273.9 105.3C273.8 116.2 267.7 127.5 268.8 137.6C265.7 140.3 261.9 141.9 258.9 142.8C257.6 142.7 256.2 143 254.6 143.8C235.8 154.6 207.7 154.1 197.1 132.4C190.3 137.4 188 131.8 187.3 125.5C186.2 114.5 185.3 103.9 184.6 92.7C178.7 95 173.9 95.4 167.9 94.2C165.5 107.6 166 121.5 160.1 134L141.8 146.8C139.1 148 136.5 149.3 133.8 150.3C120.5 156.5 107 162.5 94.1 169.4C54.7 188.3 21.3 221 9.8 264C10.1 264.4 10.5 264.8 10.8 265.2C22.1 236.7 43 212.8 68.6 196.2C81.9 188.4 97.2 177.5 113.2 179.4C113.2 186.1 114.9 191.8 117.9 196.9L108 205.2C96.3 217.7 91.1 243.5 98.5 262.3C99 262.1 99.4 262.9 100 264.4C99.5 264.5 99.1 264.6 98.6 264.7C100.3 270.9 101.9 276.9 103.6 282.8C104.8 292.3 105.4 301.4 104.3 300.6C96.8 325.8 104.3 347.6 115.3 368.6C117.2 368.6 119.4 375.9 116.9 376.3C116.9 376.8 116.7 377.3 116.8 377.9C118.9 400 128 418.7 145.1 433C148.6 435.9 152.3 438.4 156 441.1C157.4 441.7 158.9 442.4 160.3 443C159.7 442.3 159.1 441.6 158.5 440.9C158.1 439.9 164 444.5 164 444.5C163.4 444.3 162.8 444.2 162.2 444C165.3 453.8 168.4 463.1 175.3 470.1C182 476.8 189.1 483.3 198.8 485.6C197.1 484 195.7 482.2 194.4 480.4L198.8 485.6L206 485.2C210.5 483.8 213.8 482.7 217.2 481.6C217.9 481.4 218.5 481 219 480.5C222.2 477.1 225.3 473.6 228.5 470.2C232.5 466.1 234.9 461.2 236.5 454.2L252.6 448.3C254.7 448.5 255.8 447.5 256.6 445.5C257.9 442.3 259.1 439 260.6 435.9L281.7 402.9C283.4 400.4 284.8 397.7 286.4 395.1C285 395 283.8 395 282.6 395.3L283.7 386C285.4 386.2 286.3 386.4 287.1 386.4C288.1 386.4 289.2 386.2 290.2 386.1C290.6 384.9 291.2 383.9 291.3 382.8C293.3 366.3 300.2 351.9 310.1 338.8C312.5 335.6 315.4 332.9 316.8 329C317.3 327.6 319.2 326.8 320.6 325.6C320.2 322.8 319.7 320 319.1 316.2L319.8 301.2C332.9 274.6 335.6 247.3 326.9 218.7L334 202.7C388.5 231 405.4 298.7 405.8 355.8C408.7 338.7 406.5 320.5 404.6 303.2C396 234.1 366.1 206 322.3 158.2ZM324.6 230.8C324.2 234 323.9 237.3 323.5 240.5L324.5 224.3C324.5 226.4 324.9 228.6 324.6 230.8Z" fill="#8EA7C2"/>
<path d="M405.1 363.6C405.2 363.6 405.3 363.6 405.4 363.6C405.4 362 405.4 360.4 405.4 358.8C405.3 358.8 405.2 358.8 405.1 358.8C405.1 360.4 405.1 362 405.1 363.6Z" fill="#8EA7C2"/>
<path d="M160.6 443.3C160.6 443.2 160.5 443.2 160.5 443.1C160.4 443.1 160.3 443 160.2 443C160.3 443.1 160.3 443.1 160.4 443.2C160.5 443.2 160.6 443.2 160.6 443.3Z" fill="#8EA7C2"/>
<path d="M161.4 443.7C161.1 443.6 160.9 443.4 160.6 443.3C160.7 443.5 160.9 443.8 161 444C161.2 443.9 161.3 443.8 161.4 443.7Z" fill="#8EA7C2"/>
<path d="M94.6 208C94.7 207.6 94.7 207.1 94.8 206.7C94.4 206.8 93.9 206.9 93.5 207C93.9 207.4 94.3 207.7 94.6 208Z" fill="#8EA7C2"/>
</g>
<path id="eyBallBG2" d="M254.2 84.5C250.4 84.5 246.6 83.6 242.9 81.9C237.9 79.5 232.6 78.3 227.1 78.3C226.4 78.3 225.7 78.3 225 78.4C224.3 78.4 223.7 78.5 223.2 78.5C215.6 78.5 213.6 75 212.1 68.2C210.5 60.6 212.2 53.2 217.2 45C217.9 43.8 218.9 42.8 219.7 42C220.1 41.7 220.4 41.3 220.8 40.9C221.4 40.3 222.1 39.7 222.8 38.9C223.7 37.9 232.1 28.8 239.9 28.5C240.1 28.5 240.4 28.5 240.6 28.5C247.1 28.5 254.5 32.1 258.9 34.2L259.3 34.4C260.4 34.7 261.4 35.1 262.3 35.6C262.9 35.8 263.4 36.1 263.9 36.5C266.7 38.2 268.7 40.4 270.2 42.2C275.9 48.9 281.8 58.1 277.4 70.2C275.3 75.9 271.7 79.7 266.2 82C262 83.6 258.1 84.5 254.2 84.5Z" fill="#F4F5F4"/>
<path id="eyeballBG1" d="M179.8 80.5C177.8 80.5 175.8 80.1 173.8 79.6C170.5 78.8 167.3 77.5 164.5 75.9C161.9 74.4 159.2 73.7 156.2 73.7C154.4 73.7 152.5 74 150.4 74.5C148.9 74.9 147.3 75.2 145.8 75.4C145.2 75.5 144.5 75.6 143.9 75.7L143.6 75.8H143.3C143 75.8 142.7 75.8 142.4 75.8C142 75.8 141.6 75.8 141.2 75.8C140.8 75.8 140.4 75.8 139.9 75.8C138.6 75.8 137.2 75.7 135.6 75.3C127.8 73.3 125 69.1 125.8 61C126.4 55.2 128 50.8 130.8 47.3C133.8 40.3 139.4 36.2 145.4 32.3C154.4 25.8 165.3 23.4 172 23.4C177.5 23.4 187.9 30.7 190.4 32.5C196.9 35.8 201 41.5 201.9 48.6C202.5 53.6 202.2 58.8 201 63.2C198.5 72.3 190.7 76.5 183.6 79.8C182.6 80.3 181.3 80.5 179.8 80.5Z" fill="#F4F5F4"/>
</g>
<g id="LineWork">
<path id="BodyOutLineMain" d="M413.4 306.9C411.9 286.5 407.5 266.7 400.9 247.3C394.9 229.7 384.5 214.5 373.1 200.1C364.2 188.9 354.8 178 343.5 169C339 165.4 334.8 161.4 331.8 156.2C328.6 150.7 324 146.1 318.5 142.7C312.3 138.9 305.9 135.5 299.6 131.9C298.4 131.2 297.1 130.6 295.8 129.9C296.8 116 298.8 102.6 301.5 89.2C303 81.4 303.9 73.4 304.1 65.4C304.2 62.2 303.9 59 303.3 56C302.7 54.2 301.9 52.4 301 50.6C293.4 42.4 284.7 35.7 273.2 32C256.2 26.5 237.6 26.4 220.4 31.1C219.5 31.7 218.6 32.2 217.7 32.8C216.7 34.8 215.3 36.4 213.2 37.2C212 39.9 210.1 42.2 207.9 44.9C207 41.9 205.9 39.3 204.5 36.9C198.4 34.8 192.9 29.8 187.1 27.6C171.9 21.8 155.7 24.5 140.4 29.2C135.6 32.9 131.2 37.3 126.3 40.8C122.9 46.9 120.5 53.1 119.9 59.9C119 70.3 123.4 77.2 133.6 79.7C138.4 80.9 143.6 80.7 149.4 81.2C151.1 83.1 151 86.5 152 89.5C156.2 101.3 155.1 113 152.5 124.9C150.9 132.1 146.7 136.4 140.1 138.8C123.2 144.9 106.6 151.7 90.5 159.7C78.7 165.5 67.8 172.6 56.9 179.8C46.3 186.7 38.3 196.5 30 205.9C26.1 210.4 22.6 215.4 19.4 220.4C12 231.3 8.69999 243.8 4.49999 256.1C0.499994 268 -0.600006 280.2 0.199994 292.7C0.299994 294 0.399994 295.3 0.799994 296.4C1.69999 298.8 4.39999 299.2 5.99999 297.2C6.79999 296.2 7.19999 294.9 7.59999 293.8C8.99999 290.1 9.99999 286.1 11.8 282.6C15.8 274.9 19.7 267.1 24.6 259.9C28.5 254.3 33.6 249.5 38.4 244.5C43.3 239.4 47.9 233.6 53.8 229.9C66.6 221.7 80.2 214.6 93.4 207.1C93.8 207 94.3 206.9 94.7 206.8C94.6 207.2 94.6 207.7 94.5 208.1C94.3 208.8 94.1 209.5 93.7 210.1C87.1 224.2 83.3 238.8 87.1 254.4C90.1 266.4 93.4 278.2 96.5 290.2C96.9 291.9 97.5 293.9 96.9 295.3C93.1 304.6 92 314.1 92.5 324.1C93.4 339.8 98.5 354.3 104.9 368.4C106 370.8 106.8 373 107 375.6C108 389.9 111.6 403.6 118.6 416.2C126.6 430.6 138.8 441.3 152.3 450.4C154.1 451.6 155.3 452.8 155.9 454.9C161.2 472.4 173.2 484.2 189.2 491.7C194.1 494 200.4 493.5 206.1 494.2C206.3 494.2 206.5 494.1 206.6 494.1C217.8 490.8 228.5 486.6 238.1 479.7C243.7 475.7 247.9 470.6 252.1 465.3C253.8 463.1 255.8 461.5 258.5 460.5C266.2 457.6 273.3 453.5 279.2 447.6C286.7 440.1 293.8 432.3 296.1 421.4C297.9 412.8 299.6 404.2 301.6 395.7C302.1 393.7 303 391.8 304.2 390.2C309.1 383.7 314.8 377.7 319.2 370.9C326.8 359.2 330.8 346.2 329.5 332.1C328.9 325.1 327.3 318.1 326.1 311.2C325.7 309.1 325.3 307.1 326.4 304.9C334.9 287.6 339.4 269.1 341.4 250C341.9 245.4 342.3 240.8 342.8 235.6C344 236.5 344.8 236.9 345.4 237.5C356.8 248.5 367.1 260.5 375.7 273.9C379.2 279.4 382.6 285.2 384.6 291.3C393.2 316.7 399.1 342.7 398.1 369.8C397.8 377.4 397.2 385 396.8 392.7C396.7 393.8 396.4 395 396.7 395.9C397 396.8 397.8 398 398.6 398.2C399.4 398.4 400.5 397.6 401.2 396.9C401.8 396.3 402.1 395.3 402.4 394.5C404.7 388.6 406.9 382.6 409.1 376.7C412 363.8 413.2 350.6 414.2 337.5C414.3 336.8 414.4 336.1 414.5 335.4C414.3 325.7 414.1 316.3 413.4 306.9ZM219.9 45.2C220.6 44 221.6 43 222.8 41.9C224.2 39.8 226.1 38 228.8 36.7C232.7 34.8 237.3 33.8 241.7 33.5C243.9 33.1 246.1 32.9 248.2 32.8C253.1 32.7 259.4 33.4 262.5 37.3C264.8 38.7 266.7 40.6 268.3 42.7C274.6 50.2 278.7 58.5 275 68.7C273.3 73.6 270.2 77.1 265.4 79.1C258.4 82.1 251.5 82.7 244.4 79.1C238.3 76.1 231.8 74.8 224.9 75.2C217.8 75.6 216.4 73.8 215 67C213.5 58.9 215.8 51.8 219.9 45.2ZM205 69.5C206.1 72 207.3 74.9 208.7 77.6C211.1 82.1 214.8 84.8 220.2 84.3C228.8 83.5 236.7 85.7 244.5 89.1C250 91.6 255.8 91.2 261.6 90.2C262.7 90 263.7 89.8 265.4 89.4C265.3 91.2 265.3 92.8 265.1 94.2C263 104.5 260.9 114.8 258.8 125.1C257.8 130 254 132.9 250.3 135.3C240.5 141.7 229.7 144.2 218.2 139.8C211.4 137.2 206.6 132.5 204.2 125.5C202.5 120.7 201.3 115.8 199.6 111C196.1 101.3 194.4 91.3 192.1 81.1C196.5 77.1 200.8 73.3 205 69.5ZM149.6 71.6C147.5 72.1 145.4 72.4 143.3 72.8C141 72.7 138.6 73 136.4 72.5C130 70.8 128.2 67.9 128.9 61.4C129.4 56.9 130.6 52.5 133.6 48.9C135.9 43.1 140.4 39.4 145.7 35.9C148.2 33.6 151.6 32.1 154.6 31C164.7 27.1 176.1 28.1 185.3 33.8C192.8 36 198.1 41.5 199 49.1C199.6 53.5 199.4 58.3 198.2 62.5C196.1 70.3 189.2 74.1 182.5 77.2C180.3 78.2 177.1 77.5 174.6 76.8C171.6 76.1 168.7 74.9 166 73.4C160.7 70.3 155.3 70.1 149.6 71.6ZM108 205.2C110.1 207 111.6 208.8 111.4 212C110.8 224.7 110.4 237.4 109.9 250.1C109.8 251.9 110 253.8 109.6 255.5C109.3 256.7 108.4 258.1 107.4 258.7C104.5 260.1 101.5 261.2 98.5 262.4C91.1 243.5 96.3 217.7 108 205.2ZM118.9 254.9C118.5 254.9 118.1 255 117.7 255C117.6 243.6 117.6 232.3 117.7 220C129 229.8 141.8 235 154.8 239.9C167.7 244.8 180.7 249.3 195 250.3C193 265.7 191.1 280.2 189.2 295.5C164.6 292 140.7 286.6 117.1 278.2C117.4 272.4 117.7 266.7 118 260.7C118.2 260.6 118.5 260.6 118.7 260.5C118.4 258.6 118.6 256.7 118.9 254.9ZM302.9 294.1C304.8 300.5 306.6 307.1 308.6 313.9C308.7 313.8 308.6 314.2 308.4 314.4C302.1 318.1 298.5 323.7 296.3 330.5C294.8 334.9 292.6 339.1 290.9 343.1C266 350.1 240.9 349.5 215.9 349.8C209.1 349.9 202.2 349.2 194.7 348.9C195.4 333 194.2 317.5 197.1 301.4C233 304.8 268.2 302.3 302.9 294.1ZM197.3 295.6C199.9 280.6 202.4 266.2 204.9 251.4C207.5 251.4 209.5 251.5 211.4 251.4C223.5 251 235.8 251.6 247.7 249.8C267.4 246.9 286.9 242.3 304.7 232.7C306.4 231.8 308.3 230.3 310.2 232C312 233.6 311.7 235.8 311.2 238C309 248.3 306.7 258.6 305 268.9C304 275.1 304 281.5 303.5 288.3C298.3 291.2 292.2 292.3 286.2 293.2C267 296.2 247.7 298.3 228.3 297.9C219.1 297.7 209.8 296.9 200.6 296.3C199.8 296.4 199 296 197.3 295.6ZM285.6 366.9C285 370.1 282.9 373.9 282.1 376.2C281.6 377.5 280.7 378.6 279.6 379.2C279.5 379.6 279.5 380.1 279.4 380.5C279 382.6 279.1 384.8 279.1 386.5C276 389.1 273.3 391.4 270.4 393.6C269.5 394.3 268.3 394.9 267.1 395.2C264.6 395.8 262.1 396.2 259.6 396.5C239.4 398.8 219 398.5 198.1 398.4C197 383.6 195.9 369.1 194.7 354.1C226 354.6 256.7 356.1 286.8 349.2C287 349 287.2 348.8 287.5 348.6C287.5 349 287.5 349.4 287.5 349.8C286.6 353 285.6 356.3 284.6 359.6C285.8 361.7 286 364.4 285.6 366.9ZM264.6 401.1C264.4 401.2 264.3 401.4 264.1 401.5L264.2 400.9C264.3 401.1 264.5 401.1 264.6 401.1ZM128.7 342.2C148.3 346.2 167.4 350.1 186.9 354.1C187.9 368.2 188.9 382.6 190 397.7C174.6 396.6 160.7 393.6 147.9 386.6C146.6 385.9 145.4 384.6 144.6 383.3C141.4 378.1 137.4 373.7 132 370.4C133 360.9 128.2 351.9 128.7 342.2ZM189.1 301.3C188.3 316.7 187.5 332.1 186.7 348.3C166.6 345.5 147 341.8 127.7 335.1C127.6 319.2 125.7 304.1 110.4 295.4C112.4 291.2 114.3 287.4 116.1 283.5C139.1 292.9 163.6 297 189.1 301.3ZM109.2 262.4C109.4 270.9 107.4 278.6 105.7 286.3C105.3 286.3 104.9 286.3 104.5 286.3C102.6 279.2 100.6 272.2 98.6 264.7C102.3 263.9 105.4 263.2 109.2 262.4ZM104.2 300.6C112.7 306.3 117.8 313.4 118.6 322.9C119.9 338.3 121.5 353.6 127.2 368.6H115.2C104.2 347.5 96.7 325.8 104.2 300.6ZM155.9 441C152.3 438.3 148.5 435.8 145 432.9C127.8 418.5 118.8 399.9 116.7 377.8C116.7 377.3 116.8 376.7 116.8 376.2C125.1 374.9 129.9 377.9 134.8 384.7C141.1 393.5 145.9 402.9 150.1 412.7C153.2 419.8 155.5 427.4 158.9 434.4C160.2 437.1 157.4 438.7 158.4 440.9C159 441.6 159.6 442.3 160.2 443C158.8 442.3 157.3 441.6 155.9 441ZM160.9 414.7C162.2 413.5 161.1 411.2 159.3 411.2C157.2 411.1 157 409.8 156.4 408.6C154.6 404.3 152.8 399.9 150.7 395C157.3 396.9 163.5 399 169.8 400.4C176.1 401.8 182.6 402.5 188.8 403.4C191.2 423.7 193.7 443.8 196.1 463.8C196.5 465.9 197 468 197.4 470.1C197.1 470.2 196.8 470.3 196.5 470.4L194.4 463.8C192.5 459.1 190.7 454.3 188.8 449.6C186.8 444.7 183.1 441.8 177.9 440.7C175.1 440.1 172.3 439.1 169.4 438.9C166.3 438.6 165.1 436.9 164.4 434.2C163.2 429.3 161.7 424.4 160.3 419.5C160 417.9 159.1 416.5 160.9 414.7ZM161.1 444C161 443.8 160.8 443.5 160.7 443.3C161 443.4 161.2 443.6 161.5 443.7C161.3 443.8 161.2 443.9 161.1 444ZM175.3 470C168.4 463 165.3 453.7 162.2 443.9C167.7 445.4 173.1 446.7 178.3 448.5C179.9 449.1 181.4 451 182.2 452.7C184.6 458.2 186.7 463.8 188.9 469.4C191.2 475.4 194.1 480.9 198.8 485.5C189.1 483.2 182 476.8 175.3 470ZM228.4 470.2C225.2 473.6 222.1 477.1 218.9 480.5C218.4 481 217.8 481.4 217.1 481.6C213.8 482.7 210.4 483.8 205.9 485.2C215 475 223.2 465.7 231.6 456.6C232.5 455.7 234.1 455.4 236.5 454.3C234.9 461.2 232.4 466 228.4 470.2ZM236.1 446.6C227.7 447.8 222.7 454.6 217.6 461.6C213.6 467.2 209.2 472.5 204.4 478.6C202 453.4 197.9 429.2 198.6 404.1C200.1 404 201.7 403.9 203.2 403.8C218.1 403.4 233 403.1 247.8 402.7C253.2 402.5 258.5 402.1 263.9 401.7C263.3 403.3 262.8 405.1 261.9 406.6C258.4 411.9 254.8 417.1 251.1 422.5C250.5 422.7 249.8 422.8 249.1 422.9C248.3 424.5 247.3 426 246.1 427.3C246.3 427.7 246.5 428.1 246.7 428.5C247.1 429.1 246 430.8 245.3 431.7C243.2 434.7 240.8 437.4 238.8 440.5C237.9 442 237.3 444 236.1 446.6ZM281.6 402.9C275.4 412.3 269 421.5 263.1 431.1C260.4 435.5 258.5 440.6 256.6 445.4C255.8 447.4 254.8 448.4 252.6 448.2C248.7 447.9 244.5 449.2 240.7 445.7C243.1 443.1 245.5 440.5 248 438C253.2 432.9 257.1 426.7 261 420.6C265.5 413.6 270.4 406.8 275.3 400C277.7 396.7 281 394.5 286.2 395C284.7 397.7 283.2 400.4 281.6 402.9ZM316.8 329C315.4 332.9 312.5 335.6 310.1 338.8C300.2 351.9 293.3 366.3 291.3 382.8C291.2 383.8 290.6 384.8 290.2 386.1C289.1 386.2 288.1 386.4 287.1 386.4C286.2 386.4 285.4 386.2 283.7 386C285.2 381 286.6 376.4 287.9 371.8C292.1 357.1 299.2 343.6 305.2 329.6C306.3 327.1 308.3 324.7 310.4 322.8C312.9 320.5 315.8 318.7 319.2 316.2C319.8 320 320.2 322.9 320.7 325.6C319.3 326.7 317.3 327.6 316.8 329ZM319.9 301.2C316.9 299.8 317.3 297.5 317.5 295.7C318.2 287.2 319 278.7 320 270.3C321.5 257.1 323.2 244 324.7 230.8C324.9 228.7 324.5 226.5 324.6 224.3C324.7 222.2 324.3 219.9 327 218.4C335.8 247 333.1 274.4 319.9 301.2ZM405.4 363.6C405.3 363.6 405.2 363.6 405.1 363.6V358.8C405.2 358.8 405.3 358.8 405.4 358.8V363.6ZM406.8 349.4C406.7 351 406.7 352.7 406.5 354.3C406.5 354.6 406.2 354.9 405.8 355.8C405.7 354.3 405.5 353.3 405.5 352.3C406 325.8 401.4 300.1 392.5 275.3C386 257.1 377 240 363.7 225.6C358.3 219.8 352.2 214.4 346 209.4C342.4 206.5 337.9 204.8 333.9 202.6C334.2 197.6 334.9 192.4 334.7 187.2C334.6 183.5 333.5 179.7 332.4 176.1C331.3 172.7 329.3 171.5 327.4 172.3C324.8 173.5 325.4 175.7 325.6 177.9C326 182.6 326.3 187.3 326.4 192C326.5 196.3 324.8 200.2 322.4 203.7C318.8 209 314.5 213.6 309.3 217.4C294.5 228 278 234 260.2 236.9C245.8 239.3 231.2 238.8 216.7 239C216.5 239 216.3 239 216.2 239C201.9 236.9 187.5 236 173.7 231.2C160 226.4 147 220.2 134.3 212.9C124.8 207.5 119.3 199.4 114.5 190.5C113 187.6 113.7 183.6 113.3 179.4C106.7 178.6 99.6 179.8 93.1 182.9C84.8 186.9 76.4 191 68.8 196.2C58.2 203.4 47.8 211.2 39.2 221C28.9 232.8 18.9 244.8 13.5 259.8C12.8 261.7 11.8 263.4 10.9 265.2C10.2 266.8 9.39999 268.3 8.69999 269.9C8.39999 269.8 8.09999 269.7 7.89999 269.6L9.89999 264C14.4 249.2 20.4 235 29.6 222.3C38.5 210 48.7 198.7 60.8 189.8C71.3 182.1 82.7 175.6 94.2 169.4C107.1 162.5 120.6 156.5 133.9 150.3C138.8 148 143.9 146 149 144.2C150.9 143.5 153.3 144.1 155.2 144.1C162.5 154.2 167.4 156.3 176.3 153.4C183.2 151.2 186.2 148.6 186.2 144.3C185.1 144.5 184.1 144.6 183.2 144.8C180.2 145.7 177.4 146.8 174.4 147.5C169.2 148.7 166.2 147.5 163.2 143.1C161.7 140.9 160.4 138.4 159.1 136.1C166.3 123 165.5 108.3 168.1 94C171 94.3 173.9 94.9 176.6 94.7C179.2 94.5 181.8 93.3 184.8 92.5C185.1 97.3 185.4 101.8 185.8 106.3C186.3 112.6 186.9 119 187.5 125.3C187.6 126.4 187.8 127.5 188.1 128.5C189.6 134.6 191.9 135.5 197.3 132.1C201 139 206.3 144.2 213.5 147.6C222.1 151.6 230.9 151.4 239.6 149C244.7 147.6 250.1 146.9 254.8 143.6C258.5 141 262.7 142.8 265.5 146.7C267.6 149.6 269.5 152.8 272 155.4C279.6 163.2 288.5 160.3 294.6 155.6C295.4 155 296.3 154 296.5 153.1C296.7 152 296.5 150.6 295.9 149.7C295.5 149.2 293.9 149.1 293 149.5C291.3 150.1 289.9 151.3 288.2 152.1C283.6 154.2 279.5 153.6 275.8 149.9C268.7 142.9 266.6 134.5 270 125.5C272.5 118.8 273.6 112.1 274 105.2C274.3 100.8 275.5 97 278.7 93.4C282.6 89 284.2 83.3 284.2 77.2C284.2 74.2 284.7 71.1 285.2 68.1C286.3 61.9 286.7 55.8 284.1 49.9C283.8 49.3 283.8 48.5 283.7 47.3L283.6 47.4C282.1 46.8 281.4 45.6 281.7 43.8C282.7 44.7 283.6 45.6 284.6 46.5C284.5 46.6 284.3 46.7 284.2 46.8C285.4 47.4 286.3 47.8 286.7 48.4C290.4 54.7 294 61 294.5 68.5C294.7 72.9 294.5 77.1 292.9 81.3C288.4 93.9 287.3 107.2 286.4 120.4C286.4 120.8 286.3 121.3 286.3 121.7C287.2 128.7 286.1 136.8 290.1 142.6C290.6 143.3 290.9 144.1 290.9 144.8C292.9 144.8 293.9 143.3 294.2 141.4C294.4 140.2 294.6 138.9 294.9 136.9C305.2 143 315.9 147.8 322.4 158C326.7 164.9 332.4 170.5 338.3 175.8C350 186.3 360 198.3 369.1 211C375.8 220.5 382.1 230.3 387.2 240.7C396.7 260.3 401.8 281.3 404.8 302.8C406.9 318.5 407.6 333.9 406.8 349.4Z" fill="#050606"/>
<path id="rightEyeBrow" d="M266.1 7.79999C283.4 10.4 299.7 15.4 312.9 27.6C314.3 28.9 315.5 30.7 316.2 32.5C316.6 33.6 315.9 35.4 315.1 36.3C314.5 37 312.8 36.9 311.6 36.8C310.6 36.6 309.6 35.9 308.7 35.3C296.8 28.1 284 23.3 270.6 19.8C268 19.1 265.3 18.4 262.8 17.5C259.7 16.3 258.3 14.1 258.7 11.8C259.1 9.39999 261.1 8.09999 264.5 7.89999C265 7.79999 265.6 7.79999 266.1 7.79999Z" fill="#050606"/>
<path id="LeftEyebrow" d="M133.8 6.09999C150.4 0.599989 167.2 -2.40001 184.5 2.39999C186.4 2.89999 188.3 3.89999 189.6 5.19999C190.4 5.99999 190.7 7.89999 190.3 9.09999C190 9.99999 188.5 10.7 187.4 11.1C186.4 11.4 185.2 11.2 184.2 11.1C170.3 10.1 156.7 11.7 143.2 14.8C140.6 15.4 137.9 16 135.2 16.3C131.9 16.7 129.7 15.4 129 13.1C128.3 10.8 129.5 8.69999 132.3 6.99999C132.9 6.59999 133.3 6.39999 133.8 6.09999Z" fill="#050606"/>
<path id="Smile" d="M190.6 220.7C189.3 220.4 187.5 220.2 185.8 219.7C180.5 217.9 175.2 216 170 214C165.1 212.1 161.8 208.1 158.5 204.2C157.7 203.2 157.3 201.6 157.1 200.2C156.8 198 156.9 195.7 159.3 194.5C161.5 193.4 163.5 194.2 165.3 195.7C168.9 198.7 172.7 201.5 176.2 204.7C179.7 207.9 183.9 208.6 188.3 208.1C194.6 207.4 200.8 206.3 207.1 205.2C210.8 204.5 212.5 205 213.7 207.8C214.9 210.7 214 213.3 210.8 215C204.8 218.5 198.1 220.1 190.6 220.7Z" fill="#050606"/>
<path id="LeftEyeBall" d="M146.7 34.5C146.4 39.1 145.9 43 145.8 47C145.8 53.8 149.8 59.3 156.1 61.4C162.3 63.5 168.4 61.7 172.5 56.2C176.7 50.7 179.6 44.4 180.7 37.5C180.9 35.9 181.2 34.4 181.5 32.8L177.5 19.3C173.3 17.8 169.3 17.6 165.5 18.2C156.7 19.6 149.5 26 146.7 34.5Z" fill="#050606"/>
<path id="RightEyeBall" d="M264 25.9C262.9 24.4 262.3 23.3 261.5 22.3C256.8 16.1 252.1 18.1 244.4 19.4C239.1 20.4 233.1 38.4 233.1 38.4C233.8 45.8 234.3 51.9 234.9 58C235 59.1 235.4 60.1 235.8 61.1C238.7 67.7 244.3 70 250.9 67C255.6 64.9 258.9 61.4 260.9 56.7C263.9 49.6 266.1 42.4 265.3 34.1" fill="#050606"/>
</g>
</g>
<defs>
<clipPath id="clip0">
<rect width="415.7" height="494.1" fill="white"/>
</clipPath>
</defs>
</svg>
