<svg xmlns="http://www.w3.org/2000/svg" xmlns:xlink="http://www.w3.org/1999/xlink" viewBox="0 0 1301.9 661.37"><defs><linearGradient id="a" x1="168.76" y1="-156.93" x2="1143.98" y2="818.3" gradientUnits="userSpaceOnUse"><stop offset="0" stop-color="#523a92"/><stop offset="1" stop-color="#8d26ff"/></linearGradient><linearGradient id="b" x1="160.63" y1="-159.63" x2="1141.27" y2="821" gradientUnits="userSpaceOnUse"><stop offset="0" stop-color="#e55500"/><stop offset="1" stop-color="#8d26ff"/></linearGradient><linearGradient id="c" x1="81.14" y1="661.5" x2="81.14" y2="342.97" gradientUnits="userSpaceOnUse"><stop offset="0" stop-color="#bf5c60"/><stop offset="1" stop-color="#c76149"/></linearGradient><linearGradient id="d" x1="-57.54" y1="69.09" x2="235.73" y2="362.36" gradientUnits="userSpaceOnUse"><stop offset="0.07" stop-color="#d46831"/><stop offset="0.21" stop-color="#d16736"/><stop offset="0.97" stop-color="#c5604e"/></linearGradient><linearGradient id="e" x1="118.51" y1="-37.34" x2="411.95" y2="132.08" gradientUnits="userSpaceOnUse"><stop offset="0.07" stop-color="#cf6639"/><stop offset="0.97" stop-color="#c5604e"/></linearGradient></defs><rect x="11.33" y="0.5" width="1290.07" height="660.37" style="stroke:#44467a;stroke-miterlimit:10;fill:url(#a)"/><rect x="0.5" y="0.5" width="1300.9" height="660.37" style="stroke:#44467a;stroke-miterlimit:10;fill:url(#b)"/><path d="M2.5,343V661.5H53.91c37.37-69.79,72.83-143,105.87-219Q82.6,389.64,2.5,343Z" transform="translate(1 -0.21)" style="fill:url(#c)"/><path d="M2.5,9.05V299.11Q90.43,349.42,175,407.18h0q40.77-97,75.95-199.32S157.82,107.66,2.5,9.05Z" transform="translate(1 -0.21)" style="fill:url(#d)"/><path d="M96.38,1A1748.62,1748.62,0,0,1,260.22,127.47q51.45,44.81,100,94.13h0c2.08-5.09,3.83-10.28,5.7-15.43C389.56,141.42,397.32,71.65,391.66,1Z" transform="translate(1 -0.21)" style="fill:url(#e)"/></svg>