<svg xmlns="http://www.w3.org/2000/svg" viewBox="0 0 86 86"><circle cx="43" cy="43" r="43" style="fill:#262324"/><path d="M42.5,31A13.5,13.5,0,1,1,29,44.5,13.52,13.52,0,0,1,42.5,31m0-1A14.5,14.5,0,1,0,57,44.5,14.5,14.5,0,0,0,42.5,30Z" style="fill:#fff"/><polyline points="67.5 55 67.5 66.5 56 66.5" style="fill:none;stroke:#fff;stroke-miterlimit:10"/><polyline points="19.5 31 19.5 19.5 31 19.5" style="fill:none;stroke:#fff;stroke-miterlimit:10"/><path d="M43,41a3,3,0,1,1-3,3,3,3,0,0,1,3-3m0-1a4,4,0,1,0,4,4,4,4,0,0,0-4-4Z" style="fill:#fff"/></svg>