<svg xmlns="http://www.w3.org/2000/svg" viewBox="0 0 112.94 31.87"><path d="M10,17.1l-.8-.27c-2.13-.68-4.13-1.49-4.13-3.66,0-1.9,1.6-3,4.26-3a17.35,17.35,0,0,1,5.2.81h.4a1.9,1.9,0,0,0,.8-.27,1.25,1.25,0,0,0,.54-1.09V8.83a1.46,1.46,0,0,0-.94-1.35,22.92,22.92,0,0,0-6.53-1C1.2,6.53,0,10.86,0,13.44c0,3.66,2,5.69,7.33,7.46l.8.27c2.14.67,4.27,1.62,4.27,3.79,0,1.22-.67,3.25-4.8,3.25A16.36,16.36,0,0,1,2,27.13c-.13,0-.27-.13-.4-.13a1.81,1.81,0,0,0-.8.27,1.22,1.22,0,0,0-.53,1.08v.95a1.63,1.63,0,0,0,.93,1.35A20.46,20.46,0,0,0,8,31.87c8.27,0,9.6-4.74,9.6-7.45C17.33,20.9,15.33,18.86,10,17.1Z" style="fill:currentColor"/><path d="M34.11,7h-3.3a.54.54,0,0,1-.54-.54V1.36A1.36,1.36,0,0,0,28.91,0H26.62a1.35,1.35,0,0,0-1.35,1.36V6.13a8.76,8.76,0,0,1-.59.87H23.06c-.82-.33-1.36.21-1.79,1v1.5A4.83,4.83,0,0,0,23.06,11h1.66a.55.55,0,0,1,.55.54V25.78c0,3.79,1.91,5.82,5.61,5.82a10,10,0,0,0,3.43-.54,1.34,1.34,0,0,0,1-1.35V28.36a1.07,1.07,0,0,0-.39-.95A1.13,1.13,0,0,0,34,27h-.76c-1.8,0-2.95-1.22-2.95-3.25V11.54a.54.54,0,0,1,.54-.54h3.1a1.36,1.36,0,0,0,1.36-1.36V8.29A1.2,1.2,0,0,0,34.11,7Z" style="fill:currentColor"/><path d="M52.47,6.13C45,6.13,40,11.28,40,18.87s5,12.6,12.47,12.6,12.47-5.15,12.47-12.74S59.93,6.13,52.47,6.13Zm0,21.28c-4.61,0-7.59-3.39-7.59-8.54s3.12-8.41,7.59-8.41,7.59,3.39,7.59,8.54C60.06,23.88,56.94,27.41,52.47,27.41Z" style="fill:currentColor"/><path d="M95.32,20h16.27a1.38,1.38,0,0,0,1.35-1.36C112.81,10.51,108.88,6,101.56,6s-12.07,5-12.07,12.6c0,8,4.88,12.75,13.15,12.75a23.19,23.19,0,0,0,8.81-1.77,1.29,1.29,0,0,0,.82-1.22v-.94a1.65,1.65,0,0,0-.55-1.09,2,2,0,0,0-.81-.27.79.79,0,0,0-.54.14,18.33,18.33,0,0,1-6.91,1.49c-5.29,0-8.68-2.58-8.81-6.92a.5.5,0,0,1,.13-.4A.75.75,0,0,1,95.32,20Zm12.05-3H95.58c-.14,0-.27-.14-.41-.14a.48.48,0,0,1-.14-.4A6.58,6.58,0,0,1,101.81,10c3.8,0,6.24,2.44,6.24,6.51A.62.62,0,0,1,107.37,17Z" style="fill:currentColor"/><path d="M76.7,6H65.62a1.35,1.35,0,0,0-1.35,1.36v.81a1.46,1.46,0,0,0,.4.95,10,10,0,0,1,2.26,3.39,1.29,1.29,0,0,0,1.2.81h0a1.27,1.27,0,0,0,1.2-.81,2.23,2.23,0,0,1,.4-.55c1.6-1.76,3.6-1.76,5.47-1.76,4.4,0,5.07,3.66,5.07,5.83V29.64A1.35,1.35,0,0,0,81.62,31h2.29a1.36,1.36,0,0,0,1.36-1.36V15C85.12,9.28,82.12,6,76.7,6Z" style="fill:currentColor"/><path d="M68.27,25H68a1.5,1.5,0,0,0-1.28.68,12.76,12.76,0,0,1-2,2.73,1.19,1.19,0,0,0-.43.95v.28A1.35,1.35,0,0,0,65.62,31h2.29a1.36,1.36,0,0,0,1.36-1.36V26.36A1.13,1.13,0,0,0,68.27,25Z" style="fill:currentColor"/></svg>