<?xml version="1.0" encoding="utf-8"?>
<!-- Generator: Adobe Illustrator 25.1.0, SVG Export Plug-In . SVG Version: 6.00 Build 0)  -->
<svg version="1.1" id="Layer_1" xmlns="http://www.w3.org/2000/svg" xmlns:xlink="http://www.w3.org/1999/xlink" x="0px" y="0px"
	 viewBox="0 0 86 92" style="enable-background:new 0 0 86 92;" xml:space="preserve">
<style type="text/css">
	.st0{fill:#F0EFEE;}
	.st1{fill:#B8D441;}
	.st2{fill:#262324;}
	.st3{fill:#0F0E0E;}
	.st4{fill:#77BF43;}
	.st5{opacity:0.1;fill:#F6F9EE;enable-background:new    ;}
	.st6{fill:#FFFFFF;}
</style>
<circle class="st0" cx="43" cy="49" r="43"/>
<circle class="st1" cx="43.5" cy="4.5" r="4.5"/>
<circle class="st2" cx="43.5" cy="49.5" r="35.5"/>
<circle class="st3" cx="43.5" cy="49.5" r="30.5"/>
<circle class="st4" cx="43.5" cy="4.5" r="4"/>
<circle class="st5" cx="43.5" cy="4.5" r="3.5"/>
<path class="st6" d="M26,55V43h3.8c2.7,0,4.4,1.4,4.4,3.6c0,1.5-1,2.9-2.4,3.3l3.2,3.9V55h-2.4l-3.3-5H28v5H26z M29.5,49
	c1.1,0.1,2.1-0.7,2.2-1.8c0-0.1,0-0.2,0-0.4c-0.1-1.1-1-1.9-2.1-1.9c0,0-0.1,0-0.1,0H28v4H29.5z"/>
<path class="st6" d="M37,43h7v2h-5v3h5v2h-5v3h5v2h-7V43z"/>
<path class="st6" d="M46.3,49.1c0-3.5,2.3-6.1,5.9-6.1c3.3,0,4.4,1.8,3.8,2.2V46h-1c-0.7-0.9-1.7-1.3-2.8-1.3
	c-2.3,0-3.8,1.8-3.8,4.4s1.4,4.4,3.8,4.4c1.2,0.1,2.3-0.5,2.9-1.5H57v1c-1.1,1.5-2.9,2.3-4.8,2.2C48.4,55.3,46.3,52.6,46.3,49.1z"/>
<path class="st6" d="M59,53h2v2h-2V53z"/>
</svg>
