<svg xmlns="http://www.w3.org/2000/svg" xmlns:xlink="http://www.w3.org/1999/xlink" viewBox="0 0 86 87.96"><defs><clipPath id="a"><circle cx="43.5" cy="43.5" r="37.5" style="fill:none"/></clipPath></defs><circle cx="43" cy="43" r="43" style="fill:#262324"/><circle cx="43.5" cy="43.5" r="37.5" style="fill:#0f0e0e"/><g style="clip-path:url(#a)"><path d="M58,41.5c-1.82,9.27-8.71,18.7-15.5,18.9-6.79-.2-13.68-9.63-15.5-18.9S32,22.17,42.5,22C53,22.17,59.84,32.24,58,41.5Z" style="fill:#fff"/><path d="M13.36,88c0-8.61,1.91-19.36,9.51-21.77C28.53,64.4,35.23,58.31,43,58.31c7.61,0,14.22,6.28,19.8,7.58C70.71,67.75,72.64,79.2,72.64,88" style="fill:#fff"/><path d="M43.25,57H42.07A10.07,10.07,0,0,1,32,67.07V72H53V66.75A9.76,9.76,0,0,1,43.25,57Z" style="fill:#fff"/><path d="M49,60c-.81,1.37-3.44,1.23-6,1.1-2.56.13-5.19.27-6-1.1s1.76-.74,6-.62C47.24,59.26,49.84,58.62,49,60Z" style="fill:#0f0e0e"/></g></svg>