<?xml version="1.0" encoding="utf-8"?>
<!-- Generator: Adobe Illustrator 25.1.0, SVG Export Plug-In . SVG Version: 6.00 Build 0)  -->
<svg version="1.1" id="Layer_1" xmlns="http://www.w3.org/2000/svg" xmlns:xlink="http://www.w3.org/1999/xlink" x="0px" y="0px"
	 viewBox="0 0 86 92" style="enable-background:new 0 0 86 92;" xml:space="preserve">
<style type="text/css">
	.st0{fill:#F0EFEE;}
	.st1{fill:#FF235B;}
	.st2{fill:#262324;}
	.st3{fill:#0F0E0E;}
	.st4{fill:#FF3859;}
	.st5{opacity:0.1;fill:#F6F9EE;enable-background:new    ;}
</style>
<circle class="st0" cx="43" cy="49" r="43"/>
<circle class="st1" cx="43.5" cy="4.5" r="4.5"/>
<circle class="st2" cx="43.5" cy="49.5" r="35.5"/>
<circle class="st3" cx="43.5" cy="49.5" r="30.5"/>
<circle class="st4" cx="43.5" cy="4.5" r="4"/>
<circle class="st5" cx="43.5" cy="4.5" r="3.5"/>
<g>
	<g>
		<path class="st0" d="M58.5,58.5c1.3-3.4,1.2-7,1.2-10.6c0-3.2-0.7-6.2-2.4-9c-3.4-5.5-9.8-8.5-16.2-7.6
			c-6.3,0.9-11.7,5.5-13.4,11.6c-0.9,3.2-0.8,6.8-0.6,10.2c0.1,3,1,5.9,2.7,8.4c4.3,6.4,12.5,8.9,19.6,6.2c0.2-0.1,0-2.3,0-2.5
			c0-0.2-0.2-2.4,0-2.5c-5.4,2.1-11.7,1.2-16.2-2.5c-2.2-1.8-4-4.2-5-6.8c-0.5-1.2-0.8-2.4-0.9-3.7c0-0.2-0.1-0.5-0.1-0.7
			c-0.2-2.7-0.2,4.6,0,1.9c0.1-0.8,0.2-1.6,0.4-2.4c1.3-5.3,5.4-9.8,10.6-11.5c5.1-1.7,10.9-0.8,15.1,2.5c2.6,2,4.6,4.7,5.6,7.8
			c0.2,0.7,0.4,1.4,0.5,2.1c0.1,0.4,0.1,0.7,0.2,1.1c0,0.3,0.1,0.7,0.1,1c0.1-3.5,0.1-4.5,0-3c-0.1,1.7-0.5,3.3-1.1,4.9
			c-0.2,0.6,0,1.8,0,2.5c0,0.6,0,1.2,0,1.8C58.5,57.9,58.5,58.3,58.5,58.5L58.5,58.5z"/>
	</g>
</g>
</svg>
